<?xml version="1.0" encoding="UTF-8" standalone="no"?>
<!DOCTYPE svg PUBLIC "-//W3C//DTD SVG 1.1//EN"
 "http://www.w3.org/Graphics/SVG/1.1/DTD/svg11.dtd">
<!-- Generated by graphviz version 2.40.1 (20161225.0304)
 -->
<!-- Title: nodes Pages: 1 -->
<svg width="899pt" height="435pt"
 viewBox="0.00 0.00 899.38 435.00" xmlns="http://www.w3.org/2000/svg" xmlns:xlink="http://www.w3.org/1999/xlink">
<g id="graph0" class="graph" transform="scale(1 1) rotate(0) translate(4 431)">
<title>nodes</title>
<polygon fill="#ffffff" stroke="transparent" points="-4,4 -4,-431 895.3818,-431 895.3818,4 -4,4"/>
<!-- name0 -->
<g id="node1" class="node">
<title>name0</title>
<polygon fill="none" stroke="#000000" points="404,-318.5 404,-426.5 487.3818,-426.5 487.3818,-318.5 404,-318.5"/>
<text text-anchor="middle" x="445.6909" y="-411.3" font-family="Times,serif" font-size="14.00" fill="#000000">pe=1.000</text>
<polyline fill="none" stroke="#000000" points="404,-404.5 487.3818,-404.5 "/>
<text text-anchor="middle" x="445.6909" y="-389.3" font-family="Times,serif" font-size="14.00" fill="#000000"> as=[0, 0, 0]</text>
<polyline fill="none" stroke="#000000" points="404,-382.5 487.3818,-382.5 "/>
<text text-anchor="middle" x="445.6909" y="-367.3" font-family="Times,serif" font-size="14.00" fill="#000000"> bs=</text>
<text text-anchor="middle" x="445.6909" y="-353.3" font-family="Times,serif" font-size="14.00" fill="#000000">[0. 0. 0.]</text>
<text text-anchor="middle" x="445.6909" y="-339.3" font-family="Times,serif" font-size="14.00" fill="#000000">[1. 1. 1.]</text>
<text text-anchor="middle" x="445.6909" y="-325.3" font-family="Times,serif" font-size="14.00" fill="#000000">[&#45;1. &#45;1. &#45;1.]</text>
</g>
<!-- name1 -->
<g id="node2" class="node">
<title>name1</title>
<polygon fill="none" stroke="#000000" points="152,-159.5 152,-267.5 235.3818,-267.5 235.3818,-159.5 152,-159.5"/>
<text text-anchor="middle" x="193.6909" y="-252.3" font-family="Times,serif" font-size="14.00" fill="#000000">pe=0.067</text>
<polyline fill="none" stroke="#000000" points="152,-245.5 235.3818,-245.5 "/>
<text text-anchor="middle" x="193.6909" y="-230.3" font-family="Times,serif" font-size="14.00" fill="#000000"> as=[0, 7, 0]</text>
<polyline fill="none" stroke="#000000" points="152,-223.5 235.3818,-223.5 "/>
<text text-anchor="middle" x="193.6909" y="-208.3" font-family="Times,serif" font-size="14.00" fill="#000000"> bs=</text>
<text text-anchor="middle" x="193.6909" y="-194.3" font-family="Times,serif" font-size="14.00" fill="#000000">[0. 0. 0.]</text>
<text text-anchor="middle" x="193.6909" y="-180.3" font-family="Times,serif" font-size="14.00" fill="#000000">[&#45;1. &#45;1. &#45;1.]</text>
<text text-anchor="middle" x="193.6909" y="-166.3" font-family="Times,serif" font-size="14.00" fill="#000000">[&#45;1. &#45;1. &#45;1.]</text>
</g>
<!-- name0&#45;&gt;name1 -->
<g id="edge4" class="edge">
<title>name0&#45;&gt;name1</title>
<path fill="none" stroke="#000000" d="M403.7954,-346.0659C359.9209,-318.3832 291.0077,-274.9022 244.1653,-245.3469"/>
<polygon fill="#000000" stroke="#000000" points="246.0116,-242.3734 235.6866,-239.9973 242.2763,-248.2935 246.0116,-242.3734"/>
<text text-anchor="middle" x="331.1909" y="-288.8" font-family="Times,serif" font-size="14.00" fill="#000000">0</text>
</g>
<!-- name5 -->
<g id="node6" class="node">
<title>name5</title>
<polygon fill="none" stroke="#000000" points="404,-159.5 404,-267.5 487.3818,-267.5 487.3818,-159.5 404,-159.5"/>
<text text-anchor="middle" x="445.6909" y="-252.3" font-family="Times,serif" font-size="14.00" fill="#000000">pe=0.077</text>
<polyline fill="none" stroke="#000000" points="404,-245.5 487.3818,-245.5 "/>
<text text-anchor="middle" x="445.6909" y="-230.3" font-family="Times,serif" font-size="14.00" fill="#000000"> as=[6, 0, 0]</text>
<polyline fill="none" stroke="#000000" points="404,-223.5 487.3818,-223.5 "/>
<text text-anchor="middle" x="445.6909" y="-208.3" font-family="Times,serif" font-size="14.00" fill="#000000"> bs=</text>
<text text-anchor="middle" x="445.6909" y="-194.3" font-family="Times,serif" font-size="14.00" fill="#000000">[0. 0. 0.]</text>
<text text-anchor="middle" x="445.6909" y="-180.3" font-family="Times,serif" font-size="14.00" fill="#000000">[&#45;1. &#45;1. &#45;1.]</text>
<text text-anchor="middle" x="445.6909" y="-166.3" font-family="Times,serif" font-size="14.00" fill="#000000">[&#45;1. &#45;1. &#45;1.]</text>
</g>
<!-- name0&#45;&gt;name5 -->
<g id="edge8" class="edge">
<title>name0&#45;&gt;name5</title>
<path fill="none" stroke="#000000" d="M445.6909,-318.2259C445.6909,-305.1785 445.6909,-291.1197 445.6909,-277.6695"/>
<polygon fill="#000000" stroke="#000000" points="449.191,-277.5294 445.6909,-267.5295 442.191,-277.5295 449.191,-277.5294"/>
<text text-anchor="middle" x="449.1909" y="-288.8" font-family="Times,serif" font-size="14.00" fill="#000000">1</text>
</g>
<!-- name9 -->
<g id="node10" class="node">
<title>name9</title>
<polygon fill="none" stroke="#000000" points="656,-159.5 656,-267.5 739.3818,-267.5 739.3818,-159.5 656,-159.5"/>
<text text-anchor="middle" x="697.6909" y="-252.3" font-family="Times,serif" font-size="14.00" fill="#000000">pe=1.000</text>
<polyline fill="none" stroke="#000000" points="656,-245.5 739.3818,-245.5 "/>
<text text-anchor="middle" x="697.6909" y="-230.3" font-family="Times,serif" font-size="14.00" fill="#000000"> as=[0, 0, 0]</text>
<polyline fill="none" stroke="#000000" points="656,-223.5 739.3818,-223.5 "/>
<text text-anchor="middle" x="697.6909" y="-208.3" font-family="Times,serif" font-size="14.00" fill="#000000"> bs=</text>
<text text-anchor="middle" x="697.6909" y="-194.3" font-family="Times,serif" font-size="14.00" fill="#000000">[0. 0. 0.]</text>
<text text-anchor="middle" x="697.6909" y="-180.3" font-family="Times,serif" font-size="14.00" fill="#000000">[&#45;1. &#45;1. &#45;1.]</text>
<text text-anchor="middle" x="697.6909" y="-166.3" font-family="Times,serif" font-size="14.00" fill="#000000">[&#45;1. &#45;1. &#45;1.]</text>
</g>
<!-- name0&#45;&gt;name9 -->
<g id="edge12" class="edge">
<title>name0&#45;&gt;name9</title>
<path fill="none" stroke="#000000" d="M487.5865,-346.0659C531.4609,-318.3832 600.3741,-274.9022 647.2165,-245.3469"/>
<polygon fill="#000000" stroke="#000000" points="649.1056,-248.2935 655.6952,-239.9973 645.3702,-242.3734 649.1056,-248.2935"/>
<text text-anchor="middle" x="583.1909" y="-288.8" font-family="Times,serif" font-size="14.00" fill="#000000">2</text>
</g>
<!-- name2 -->
<g id="node3" class="node">
<title>name2</title>
<polygon fill="none" stroke="#000000" points="0,-.5 0,-108.5 83.3818,-108.5 83.3818,-.5 0,-.5"/>
<text text-anchor="middle" x="41.6909" y="-93.3" font-family="Times,serif" font-size="14.00" fill="#000000">pe=1.000</text>
<polyline fill="none" stroke="#000000" points="0,-86.5 83.3818,-86.5 "/>
<text text-anchor="middle" x="41.6909" y="-71.3" font-family="Times,serif" font-size="14.00" fill="#000000"> as=[0, 0, 0]</text>
<polyline fill="none" stroke="#000000" points="0,-64.5 83.3818,-64.5 "/>
<text text-anchor="middle" x="41.6909" y="-49.3" font-family="Times,serif" font-size="14.00" fill="#000000"> bs=</text>
<text text-anchor="middle" x="41.6909" y="-35.3" font-family="Times,serif" font-size="14.00" fill="#000000">[&#45;1. &#45;1. &#45;1.]</text>
<text text-anchor="middle" x="41.6909" y="-21.3" font-family="Times,serif" font-size="14.00" fill="#000000">[&#45;1. &#45;1. &#45;1.]</text>
<text text-anchor="middle" x="41.6909" y="-7.3" font-family="Times,serif" font-size="14.00" fill="#000000">[&#45;1. &#45;1. &#45;1.]</text>
</g>
<!-- name1&#45;&gt;name2 -->
<g id="edge1" class="edge">
<title>name1&#45;&gt;name2</title>
<path fill="none" stroke="#000000" d="M151.9519,-171.3332C133.3668,-152.4053 111.2948,-129.7158 91.6909,-109 91.2772,-108.5628 90.8619,-108.1234 90.4451,-107.6819"/>
<polygon fill="#000000" stroke="#000000" points="92.9963,-105.2857 83.6013,-100.3883 87.8917,-110.0756 92.9963,-105.2857"/>
<text text-anchor="middle" x="126.1909" y="-129.8" font-family="Times,serif" font-size="14.00" fill="#000000">0</text>
</g>
<!-- name3 -->
<g id="node4" class="node">
<title>name3</title>
<polygon fill="none" stroke="#000000" points="101,-.5 101,-108.5 184.3818,-108.5 184.3818,-.5 101,-.5"/>
<text text-anchor="middle" x="142.6909" y="-93.3" font-family="Times,serif" font-size="14.00" fill="#000000">pe=0.077</text>
<polyline fill="none" stroke="#000000" points="101,-86.5 184.3818,-86.5 "/>
<text text-anchor="middle" x="142.6909" y="-71.3" font-family="Times,serif" font-size="14.00" fill="#000000"> as=[0, 6, 0]</text>
<polyline fill="none" stroke="#000000" points="101,-64.5 184.3818,-64.5 "/>
<text text-anchor="middle" x="142.6909" y="-49.3" font-family="Times,serif" font-size="14.00" fill="#000000"> bs=</text>
<text text-anchor="middle" x="142.6909" y="-35.3" font-family="Times,serif" font-size="14.00" fill="#000000">[&#45;1. &#45;1. &#45;1.]</text>
<text text-anchor="middle" x="142.6909" y="-21.3" font-family="Times,serif" font-size="14.00" fill="#000000">[&#45;1. &#45;1. &#45;1.]</text>
<text text-anchor="middle" x="142.6909" y="-7.3" font-family="Times,serif" font-size="14.00" fill="#000000">[&#45;1. &#45;1. &#45;1.]</text>
</g>
<!-- name1&#45;&gt;name3 -->
<g id="edge2" class="edge">
<title>name1&#45;&gt;name3</title>
<path fill="none" stroke="#000000" d="M176.2823,-159.2259C172.0562,-146.0506 167.4994,-131.844 163.1468,-118.2741"/>
<polygon fill="#000000" stroke="#000000" points="166.4082,-116.9826 160.0211,-108.5295 159.7427,-119.1206 166.4082,-116.9826"/>
<text text-anchor="middle" x="174.1909" y="-129.8" font-family="Times,serif" font-size="14.00" fill="#000000">1</text>
</g>
<!-- name4 -->
<g id="node5" class="node">
<title>name4</title>
<polygon fill="none" stroke="#000000" points="202,-.5 202,-108.5 285.3818,-108.5 285.3818,-.5 202,-.5"/>
<text text-anchor="middle" x="243.6909" y="-93.3" font-family="Times,serif" font-size="14.00" fill="#000000">pe=1.000</text>
<polyline fill="none" stroke="#000000" points="202,-86.5 285.3818,-86.5 "/>
<text text-anchor="middle" x="243.6909" y="-71.3" font-family="Times,serif" font-size="14.00" fill="#000000"> as=[0, 0, 0]</text>
<polyline fill="none" stroke="#000000" points="202,-64.5 285.3818,-64.5 "/>
<text text-anchor="middle" x="243.6909" y="-49.3" font-family="Times,serif" font-size="14.00" fill="#000000"> bs=</text>
<text text-anchor="middle" x="243.6909" y="-35.3" font-family="Times,serif" font-size="14.00" fill="#000000">[&#45;1. &#45;1. &#45;1.]</text>
<text text-anchor="middle" x="243.6909" y="-21.3" font-family="Times,serif" font-size="14.00" fill="#000000">[&#45;1. &#45;1. &#45;1.]</text>
<text text-anchor="middle" x="243.6909" y="-7.3" font-family="Times,serif" font-size="14.00" fill="#000000">[&#45;1. &#45;1. &#45;1.]</text>
</g>
<!-- name1&#45;&gt;name4 -->
<g id="edge3" class="edge">
<title>name1&#45;&gt;name4</title>
<path fill="none" stroke="#000000" d="M210.7582,-159.2259C214.9014,-146.0506 219.3689,-131.844 223.6362,-118.2741"/>
<polygon fill="#000000" stroke="#000000" points="227.0394,-119.1189 226.7005,-108.5295 220.3618,-117.019 227.0394,-119.1189"/>
<text text-anchor="middle" x="224.1909" y="-129.8" font-family="Times,serif" font-size="14.00" fill="#000000">2</text>
</g>
<!-- name6 -->
<g id="node7" class="node">
<title>name6</title>
<polygon fill="none" stroke="#000000" points="303,-.5 303,-108.5 386.3818,-108.5 386.3818,-.5 303,-.5"/>
<text text-anchor="middle" x="344.6909" y="-93.3" font-family="Times,serif" font-size="14.00" fill="#000000">pe=0.077</text>
<polyline fill="none" stroke="#000000" points="303,-86.5 386.3818,-86.5 "/>
<text text-anchor="middle" x="344.6909" y="-71.3" font-family="Times,serif" font-size="14.00" fill="#000000"> as=[6, 0, 0]</text>
<polyline fill="none" stroke="#000000" points="303,-64.5 386.3818,-64.5 "/>
<text text-anchor="middle" x="344.6909" y="-49.3" font-family="Times,serif" font-size="14.00" fill="#000000"> bs=</text>
<text text-anchor="middle" x="344.6909" y="-35.3" font-family="Times,serif" font-size="14.00" fill="#000000">[&#45;1. &#45;1. &#45;1.]</text>
<text text-anchor="middle" x="344.6909" y="-21.3" font-family="Times,serif" font-size="14.00" fill="#000000">[&#45;1. &#45;1. &#45;1.]</text>
<text text-anchor="middle" x="344.6909" y="-7.3" font-family="Times,serif" font-size="14.00" fill="#000000">[&#45;1. &#45;1. &#45;1.]</text>
</g>
<!-- name5&#45;&gt;name6 -->
<g id="edge5" class="edge">
<title>name5&#45;&gt;name6</title>
<path fill="none" stroke="#000000" d="M411.2149,-159.2259C402.6019,-145.6668 393.2951,-131.0155 384.4494,-117.09"/>
<polygon fill="#000000" stroke="#000000" points="387.3278,-115.0938 379.0115,-108.5295 381.4191,-118.8471 387.3278,-115.0938"/>
<text text-anchor="middle" x="402.1909" y="-129.8" font-family="Times,serif" font-size="14.00" fill="#000000">0</text>
</g>
<!-- name7 -->
<g id="node8" class="node">
<title>name7</title>
<polygon fill="none" stroke="#000000" points="404,-.5 404,-108.5 487.3818,-108.5 487.3818,-.5 404,-.5"/>
<text text-anchor="middle" x="445.6909" y="-93.3" font-family="Times,serif" font-size="14.00" fill="#000000">pe=1.000</text>
<polyline fill="none" stroke="#000000" points="404,-86.5 487.3818,-86.5 "/>
<text text-anchor="middle" x="445.6909" y="-71.3" font-family="Times,serif" font-size="14.00" fill="#000000"> as=[0, 0, 0]</text>
<polyline fill="none" stroke="#000000" points="404,-64.5 487.3818,-64.5 "/>
<text text-anchor="middle" x="445.6909" y="-49.3" font-family="Times,serif" font-size="14.00" fill="#000000"> bs=</text>
<text text-anchor="middle" x="445.6909" y="-35.3" font-family="Times,serif" font-size="14.00" fill="#000000">[&#45;1. &#45;1. &#45;1.]</text>
<text text-anchor="middle" x="445.6909" y="-21.3" font-family="Times,serif" font-size="14.00" fill="#000000">[&#45;1. &#45;1. &#45;1.]</text>
<text text-anchor="middle" x="445.6909" y="-7.3" font-family="Times,serif" font-size="14.00" fill="#000000">[&#45;1. &#45;1. &#45;1.]</text>
</g>
<!-- name5&#45;&gt;name7 -->
<g id="edge6" class="edge">
<title>name5&#45;&gt;name7</title>
<path fill="none" stroke="#000000" d="M445.6909,-159.2259C445.6909,-146.1785 445.6909,-132.1197 445.6909,-118.6695"/>
<polygon fill="#000000" stroke="#000000" points="449.191,-118.5294 445.6909,-108.5295 442.191,-118.5295 449.191,-118.5294"/>
<text text-anchor="middle" x="449.1909" y="-129.8" font-family="Times,serif" font-size="14.00" fill="#000000">1</text>
</g>
<!-- name8 -->
<g id="node9" class="node">
<title>name8</title>
<polygon fill="none" stroke="#000000" points="505,-.5 505,-108.5 588.3818,-108.5 588.3818,-.5 505,-.5"/>
<text text-anchor="middle" x="546.6909" y="-93.3" font-family="Times,serif" font-size="14.00" fill="#000000">pe=1.000</text>
<polyline fill="none" stroke="#000000" points="505,-86.5 588.3818,-86.5 "/>
<text text-anchor="middle" x="546.6909" y="-71.3" font-family="Times,serif" font-size="14.00" fill="#000000"> as=[0, 0, 0]</text>
<polyline fill="none" stroke="#000000" points="505,-64.5 588.3818,-64.5 "/>
<text text-anchor="middle" x="546.6909" y="-49.3" font-family="Times,serif" font-size="14.00" fill="#000000"> bs=</text>
<text text-anchor="middle" x="546.6909" y="-35.3" font-family="Times,serif" font-size="14.00" fill="#000000">[&#45;1. &#45;1. &#45;1.]</text>
<text text-anchor="middle" x="546.6909" y="-21.3" font-family="Times,serif" font-size="14.00" fill="#000000">[&#45;1. &#45;1. &#45;1.]</text>
<text text-anchor="middle" x="546.6909" y="-7.3" font-family="Times,serif" font-size="14.00" fill="#000000">[&#45;1. &#45;1. &#45;1.]</text>
</g>
<!-- name5&#45;&gt;name8 -->
<g id="edge7" class="edge">
<title>name5&#45;&gt;name8</title>
<path fill="none" stroke="#000000" d="M480.1669,-159.2259C488.7799,-145.6668 498.0867,-131.0155 506.9325,-117.09"/>
<polygon fill="#000000" stroke="#000000" points="509.9627,-118.8471 512.3703,-108.5295 504.054,-115.0938 509.9627,-118.8471"/>
<text text-anchor="middle" x="503.1909" y="-129.8" font-family="Times,serif" font-size="14.00" fill="#000000">2</text>
</g>
<!-- name10 -->
<g id="node11" class="node">
<title>name10</title>
<polygon fill="none" stroke="#000000" points="606,-.5 606,-108.5 689.3818,-108.5 689.3818,-.5 606,-.5"/>
<text text-anchor="middle" x="647.6909" y="-93.3" font-family="Times,serif" font-size="14.00" fill="#000000">pe=1.000</text>
<polyline fill="none" stroke="#000000" points="606,-86.5 689.3818,-86.5 "/>
<text text-anchor="middle" x="647.6909" y="-71.3" font-family="Times,serif" font-size="14.00" fill="#000000"> as=[0, 0, 0]</text>
<polyline fill="none" stroke="#000000" points="606,-64.5 689.3818,-64.5 "/>
<text text-anchor="middle" x="647.6909" y="-49.3" font-family="Times,serif" font-size="14.00" fill="#000000"> bs=</text>
<text text-anchor="middle" x="647.6909" y="-35.3" font-family="Times,serif" font-size="14.00" fill="#000000">[&#45;1. &#45;1. &#45;1.]</text>
<text text-anchor="middle" x="647.6909" y="-21.3" font-family="Times,serif" font-size="14.00" fill="#000000">[&#45;1. &#45;1. &#45;1.]</text>
<text text-anchor="middle" x="647.6909" y="-7.3" font-family="Times,serif" font-size="14.00" fill="#000000">[&#45;1. &#45;1. &#45;1.]</text>
</g>
<!-- name9&#45;&gt;name10 -->
<g id="edge9" class="edge">
<title>name9&#45;&gt;name10</title>
<path fill="none" stroke="#000000" d="M680.6236,-159.2259C676.4804,-146.0506 672.0129,-131.844 667.7457,-118.2741"/>
<polygon fill="#000000" stroke="#000000" points="671.02,-117.019 664.6813,-108.5295 664.3424,-119.1189 671.02,-117.019"/>
<text text-anchor="middle" x="677.1909" y="-129.8" font-family="Times,serif" font-size="14.00" fill="#000000">0</text>
</g>
<!-- name11 -->
<g id="node12" class="node">
<title>name11</title>
<polygon fill="none" stroke="#000000" points="707,-.5 707,-108.5 790.3818,-108.5 790.3818,-.5 707,-.5"/>
<text text-anchor="middle" x="748.6909" y="-93.3" font-family="Times,serif" font-size="14.00" fill="#000000">pe=1.000</text>
<polyline fill="none" stroke="#000000" points="707,-86.5 790.3818,-86.5 "/>
<text text-anchor="middle" x="748.6909" y="-71.3" font-family="Times,serif" font-size="14.00" fill="#000000"> as=[0, 0, 0]</text>
<polyline fill="none" stroke="#000000" points="707,-64.5 790.3818,-64.5 "/>
<text text-anchor="middle" x="748.6909" y="-49.3" font-family="Times,serif" font-size="14.00" fill="#000000"> bs=</text>
<text text-anchor="middle" x="748.6909" y="-35.3" font-family="Times,serif" font-size="14.00" fill="#000000">[&#45;1. &#45;1. &#45;1.]</text>
<text text-anchor="middle" x="748.6909" y="-21.3" font-family="Times,serif" font-size="14.00" fill="#000000">[&#45;1. &#45;1. &#45;1.]</text>
<text text-anchor="middle" x="748.6909" y="-7.3" font-family="Times,serif" font-size="14.00" fill="#000000">[&#45;1. &#45;1. &#45;1.]</text>
</g>
<!-- name9&#45;&gt;name11 -->
<g id="edge10" class="edge">
<title>name9&#45;&gt;name11</title>
<path fill="none" stroke="#000000" d="M715.0996,-159.2259C719.3256,-146.0506 723.8825,-131.844 728.2351,-118.2741"/>
<polygon fill="#000000" stroke="#000000" points="731.6391,-119.1206 731.3607,-108.5295 724.9736,-116.9826 731.6391,-119.1206"/>
<text text-anchor="middle" x="728.1909" y="-129.8" font-family="Times,serif" font-size="14.00" fill="#000000">1</text>
</g>
<!-- name12 -->
<g id="node13" class="node">
<title>name12</title>
<polygon fill="none" stroke="#000000" points="808,-.5 808,-108.5 891.3818,-108.5 891.3818,-.5 808,-.5"/>
<text text-anchor="middle" x="849.6909" y="-93.3" font-family="Times,serif" font-size="14.00" fill="#000000">pe=1.000</text>
<polyline fill="none" stroke="#000000" points="808,-86.5 891.3818,-86.5 "/>
<text text-anchor="middle" x="849.6909" y="-71.3" font-family="Times,serif" font-size="14.00" fill="#000000"> as=[0, 0, 0]</text>
<polyline fill="none" stroke="#000000" points="808,-64.5 891.3818,-64.5 "/>
<text text-anchor="middle" x="849.6909" y="-49.3" font-family="Times,serif" font-size="14.00" fill="#000000"> bs=</text>
<text text-anchor="middle" x="849.6909" y="-35.3" font-family="Times,serif" font-size="14.00" fill="#000000">[&#45;1. &#45;1. &#45;1.]</text>
<text text-anchor="middle" x="849.6909" y="-21.3" font-family="Times,serif" font-size="14.00" fill="#000000">[&#45;1. &#45;1. &#45;1.]</text>
<text text-anchor="middle" x="849.6909" y="-7.3" font-family="Times,serif" font-size="14.00" fill="#000000">[&#45;1. &#45;1. &#45;1.]</text>
</g>
<!-- name9&#45;&gt;name12 -->
<g id="edge11" class="edge">
<title>name9&#45;&gt;name12</title>
<path fill="none" stroke="#000000" d="M739.43,-171.3332C758.015,-152.4053 780.0871,-129.7158 799.6909,-109 800.1046,-108.5628 800.52,-108.1234 800.9367,-107.6819"/>
<polygon fill="#000000" stroke="#000000" points="803.4902,-110.0756 807.7806,-100.3883 798.3855,-105.2857 803.4902,-110.0756"/>
<text text-anchor="middle" x="783.1909" y="-129.8" font-family="Times,serif" font-size="14.00" fill="#000000">2</text>
</g>
</g>
</svg>
