<?xml version="1.0" encoding="UTF-8" standalone="no"?>
<!DOCTYPE svg PUBLIC "-//W3C//DTD SVG 1.1//EN"
 "http://www.w3.org/Graphics/SVG/1.1/DTD/svg11.dtd">
<!-- Generated by graphviz version 2.40.1 (20161225.0304)
 -->
<!-- Title: nodes Pages: 1 -->
<svg width="1520pt" height="219pt"
 viewBox="0.00 0.00 1519.99 219.00" xmlns="http://www.w3.org/2000/svg" xmlns:xlink="http://www.w3.org/1999/xlink">
<g id="graph0" class="graph" transform="scale(1 1) rotate(0) translate(4 215)">
<title>nodes</title>
<polygon fill="#ffffff" stroke="transparent" points="-4,4 -4,-215 1515.9912,-215 1515.9912,4 -4,4"/>
<!-- name0 -->
<g id="node1" class="node">
<title>name0</title>
<polygon fill="none" stroke="#000000" points="680,-174.5 680,-210.5 831.9912,-210.5 831.9912,-174.5 680,-174.5"/>
<text text-anchor="middle" x="714.3047" y="-188.3" font-family="Times,serif" font-size="14.00" fill="#000000">pe=1.000</text>
<polyline fill="none" stroke="#000000" points="748.6094,-174.5 748.6094,-210.5 "/>
<text text-anchor="middle" x="790.3003" y="-188.3" font-family="Times,serif" font-size="14.00" fill="#000000"> as=[0, 0, 0]</text>
</g>
<!-- name1 -->
<g id="node2" class="node">
<title>name1</title>
<polygon fill="none" stroke="#000000" points="255,-87.5 255,-123.5 406.9912,-123.5 406.9912,-87.5 255,-87.5"/>
<text text-anchor="middle" x="289.3047" y="-101.3" font-family="Times,serif" font-size="14.00" fill="#000000">pe=0.067</text>
<polyline fill="none" stroke="#000000" points="323.6094,-87.5 323.6094,-123.5 "/>
<text text-anchor="middle" x="365.3003" y="-101.3" font-family="Times,serif" font-size="14.00" fill="#000000"> as=[0, 7, 0]</text>
</g>
<!-- name0&#45;&gt;name1 -->
<g id="edge4" class="edge">
<title>name0&#45;&gt;name1</title>
<path fill="none" stroke="#000000" d="M679.5233,-176.8457C605.7624,-161.7464 494.2791,-138.9251 417.3568,-123.1786"/>
<polygon fill="#000000" stroke="#000000" points="417.7101,-119.6785 407.2113,-121.1018 416.3062,-126.5363 417.7101,-119.6785"/>
<text text-anchor="middle" x="572.4956" y="-144.8" font-family="Times,serif" font-size="14.00" fill="#000000">0</text>
</g>
<!-- name5 -->
<g id="node6" class="node">
<title>name5</title>
<polygon fill="none" stroke="#000000" points="680,-87.5 680,-123.5 831.9912,-123.5 831.9912,-87.5 680,-87.5"/>
<text text-anchor="middle" x="714.3047" y="-101.3" font-family="Times,serif" font-size="14.00" fill="#000000">pe=0.077</text>
<polyline fill="none" stroke="#000000" points="748.6094,-87.5 748.6094,-123.5 "/>
<text text-anchor="middle" x="790.3003" y="-101.3" font-family="Times,serif" font-size="14.00" fill="#000000"> as=[6, 0, 0]</text>
</g>
<!-- name0&#45;&gt;name5 -->
<g id="edge8" class="edge">
<title>name0&#45;&gt;name5</title>
<path fill="none" stroke="#000000" d="M755.9956,-174.4735C755.9956,-162.6918 755.9956,-147.0607 755.9956,-133.6581"/>
<polygon fill="#000000" stroke="#000000" points="759.4957,-133.5033 755.9956,-123.5034 752.4957,-133.5034 759.4957,-133.5033"/>
<text text-anchor="middle" x="759.4956" y="-144.8" font-family="Times,serif" font-size="14.00" fill="#000000">1</text>
</g>
<!-- name9 -->
<g id="node10" class="node">
<title>name9</title>
<polygon fill="none" stroke="#000000" points="1105,-87.5 1105,-123.5 1256.9912,-123.5 1256.9912,-87.5 1105,-87.5"/>
<text text-anchor="middle" x="1139.3047" y="-101.3" font-family="Times,serif" font-size="14.00" fill="#000000">pe=1.000</text>
<polyline fill="none" stroke="#000000" points="1173.6094,-87.5 1173.6094,-123.5 "/>
<text text-anchor="middle" x="1215.3003" y="-101.3" font-family="Times,serif" font-size="14.00" fill="#000000"> as=[0, 0, 0]</text>
</g>
<!-- name0&#45;&gt;name9 -->
<g id="edge12" class="edge">
<title>name0&#45;&gt;name9</title>
<path fill="none" stroke="#000000" d="M832.4679,-176.8457C906.2288,-161.7464 1017.7121,-138.9251 1094.6344,-123.1786"/>
<polygon fill="#000000" stroke="#000000" points="1095.685,-126.5363 1104.7799,-121.1018 1094.2811,-119.6785 1095.685,-126.5363"/>
<text text-anchor="middle" x="997.4956" y="-144.8" font-family="Times,serif" font-size="14.00" fill="#000000">2</text>
</g>
<!-- name2 -->
<g id="node3" class="node">
<title>name2</title>
<polygon fill="none" stroke="#000000" points="0,-.5 0,-36.5 151.9912,-36.5 151.9912,-.5 0,-.5"/>
<text text-anchor="middle" x="34.3047" y="-14.3" font-family="Times,serif" font-size="14.00" fill="#000000">pe=1.000</text>
<polyline fill="none" stroke="#000000" points="68.6094,-.5 68.6094,-36.5 "/>
<text text-anchor="middle" x="110.3003" y="-14.3" font-family="Times,serif" font-size="14.00" fill="#000000"> as=[0, 0, 0]</text>
</g>
<!-- name1&#45;&gt;name2 -->
<g id="edge1" class="edge">
<title>name1&#45;&gt;name2</title>
<path fill="none" stroke="#000000" d="M278.1594,-87.4735C237.4723,-73.5921 181.1227,-54.3669 138.2481,-39.7391"/>
<polygon fill="#000000" stroke="#000000" points="139.3586,-36.4199 128.7641,-36.5034 137.0982,-43.045 139.3586,-36.4199"/>
<text text-anchor="middle" x="222.4956" y="-57.8" font-family="Times,serif" font-size="14.00" fill="#000000">0</text>
</g>
<!-- name3 -->
<g id="node4" class="node">
<title>name3</title>
<polygon fill="none" stroke="#000000" points="170,-.5 170,-36.5 321.9912,-36.5 321.9912,-.5 170,-.5"/>
<text text-anchor="middle" x="204.3047" y="-14.3" font-family="Times,serif" font-size="14.00" fill="#000000">pe=0.077</text>
<polyline fill="none" stroke="#000000" points="238.6094,-.5 238.6094,-36.5 "/>
<text text-anchor="middle" x="280.3003" y="-14.3" font-family="Times,serif" font-size="14.00" fill="#000000"> as=[0, 6, 0]</text>
</g>
<!-- name1&#45;&gt;name3 -->
<g id="edge2" class="edge">
<title>name1&#45;&gt;name3</title>
<path fill="none" stroke="#000000" d="M313.3836,-87.4735C301.0748,-74.8752 284.4659,-57.8755 270.8171,-43.9055"/>
<polygon fill="#000000" stroke="#000000" points="273.077,-41.2103 263.5851,-36.5034 268.07,-46.1021 273.077,-41.2103"/>
<text text-anchor="middle" x="297.4956" y="-57.8" font-family="Times,serif" font-size="14.00" fill="#000000">1</text>
</g>
<!-- name4 -->
<g id="node5" class="node">
<title>name4</title>
<polygon fill="none" stroke="#000000" points="340,-.5 340,-36.5 491.9912,-36.5 491.9912,-.5 340,-.5"/>
<text text-anchor="middle" x="374.3047" y="-14.3" font-family="Times,serif" font-size="14.00" fill="#000000">pe=1.000</text>
<polyline fill="none" stroke="#000000" points="408.6094,-.5 408.6094,-36.5 "/>
<text text-anchor="middle" x="450.3003" y="-14.3" font-family="Times,serif" font-size="14.00" fill="#000000"> as=[0, 0, 0]</text>
</g>
<!-- name1&#45;&gt;name4 -->
<g id="edge3" class="edge">
<title>name1&#45;&gt;name4</title>
<path fill="none" stroke="#000000" d="M348.6077,-87.4735C360.9164,-74.8752 377.5253,-57.8755 391.1741,-43.9055"/>
<polygon fill="#000000" stroke="#000000" points="393.9212,-46.1021 398.4061,-36.5034 388.9142,-41.2103 393.9212,-46.1021"/>
<text text-anchor="middle" x="382.4956" y="-57.8" font-family="Times,serif" font-size="14.00" fill="#000000">2</text>
</g>
<!-- name6 -->
<g id="node7" class="node">
<title>name6</title>
<polygon fill="none" stroke="#000000" points="510,-.5 510,-36.5 661.9912,-36.5 661.9912,-.5 510,-.5"/>
<text text-anchor="middle" x="544.3047" y="-14.3" font-family="Times,serif" font-size="14.00" fill="#000000">pe=0.077</text>
<polyline fill="none" stroke="#000000" points="578.6094,-.5 578.6094,-36.5 "/>
<text text-anchor="middle" x="620.3003" y="-14.3" font-family="Times,serif" font-size="14.00" fill="#000000"> as=[6, 0, 0]</text>
</g>
<!-- name5&#45;&gt;name6 -->
<g id="edge5" class="edge">
<title>name5&#45;&gt;name6</title>
<path fill="none" stroke="#000000" d="M720.7715,-87.4735C694.5585,-74.0587 658.594,-55.6533 630.4093,-41.2294"/>
<polygon fill="#000000" stroke="#000000" points="631.6711,-37.9434 621.1746,-36.5034 628.4821,-44.1748 631.6711,-37.9434"/>
<text text-anchor="middle" x="685.4956" y="-57.8" font-family="Times,serif" font-size="14.00" fill="#000000">0</text>
</g>
<!-- name7 -->
<g id="node8" class="node">
<title>name7</title>
<polygon fill="none" stroke="#000000" points="680,-.5 680,-36.5 831.9912,-36.5 831.9912,-.5 680,-.5"/>
<text text-anchor="middle" x="714.3047" y="-14.3" font-family="Times,serif" font-size="14.00" fill="#000000">pe=1.000</text>
<polyline fill="none" stroke="#000000" points="748.6094,-.5 748.6094,-36.5 "/>
<text text-anchor="middle" x="790.3003" y="-14.3" font-family="Times,serif" font-size="14.00" fill="#000000"> as=[0, 0, 0]</text>
</g>
<!-- name5&#45;&gt;name7 -->
<g id="edge6" class="edge">
<title>name5&#45;&gt;name7</title>
<path fill="none" stroke="#000000" d="M755.9956,-87.4735C755.9956,-75.6918 755.9956,-60.0607 755.9956,-46.6581"/>
<polygon fill="#000000" stroke="#000000" points="759.4957,-46.5033 755.9956,-36.5034 752.4957,-46.5034 759.4957,-46.5033"/>
<text text-anchor="middle" x="759.4956" y="-57.8" font-family="Times,serif" font-size="14.00" fill="#000000">1</text>
</g>
<!-- name8 -->
<g id="node9" class="node">
<title>name8</title>
<polygon fill="none" stroke="#000000" points="850,-.5 850,-36.5 1001.9912,-36.5 1001.9912,-.5 850,-.5"/>
<text text-anchor="middle" x="884.3047" y="-14.3" font-family="Times,serif" font-size="14.00" fill="#000000">pe=1.000</text>
<polyline fill="none" stroke="#000000" points="918.6094,-.5 918.6094,-36.5 "/>
<text text-anchor="middle" x="960.3003" y="-14.3" font-family="Times,serif" font-size="14.00" fill="#000000"> as=[0, 0, 0]</text>
</g>
<!-- name5&#45;&gt;name8 -->
<g id="edge7" class="edge">
<title>name5&#45;&gt;name8</title>
<path fill="none" stroke="#000000" d="M791.2197,-87.4735C817.4327,-74.0587 853.3972,-55.6533 881.5819,-41.2294"/>
<polygon fill="#000000" stroke="#000000" points="883.5091,-44.1748 890.8166,-36.5034 880.3201,-37.9434 883.5091,-44.1748"/>
<text text-anchor="middle" x="855.4956" y="-57.8" font-family="Times,serif" font-size="14.00" fill="#000000">2</text>
</g>
<!-- name10 -->
<g id="node11" class="node">
<title>name10</title>
<polygon fill="none" stroke="#000000" points="1020,-.5 1020,-36.5 1171.9912,-36.5 1171.9912,-.5 1020,-.5"/>
<text text-anchor="middle" x="1054.3047" y="-14.3" font-family="Times,serif" font-size="14.00" fill="#000000">pe=1.000</text>
<polyline fill="none" stroke="#000000" points="1088.6094,-.5 1088.6094,-36.5 "/>
<text text-anchor="middle" x="1130.3003" y="-14.3" font-family="Times,serif" font-size="14.00" fill="#000000"> as=[0, 0, 0]</text>
</g>
<!-- name9&#45;&gt;name10 -->
<g id="edge9" class="edge">
<title>name9&#45;&gt;name10</title>
<path fill="none" stroke="#000000" d="M1163.3836,-87.4735C1151.0748,-74.8752 1134.4659,-57.8755 1120.8171,-43.9055"/>
<polygon fill="#000000" stroke="#000000" points="1123.077,-41.2103 1113.5851,-36.5034 1118.07,-46.1021 1123.077,-41.2103"/>
<text text-anchor="middle" x="1147.4956" y="-57.8" font-family="Times,serif" font-size="14.00" fill="#000000">0</text>
</g>
<!-- name11 -->
<g id="node12" class="node">
<title>name11</title>
<polygon fill="none" stroke="#000000" points="1190,-.5 1190,-36.5 1341.9912,-36.5 1341.9912,-.5 1190,-.5"/>
<text text-anchor="middle" x="1224.3047" y="-14.3" font-family="Times,serif" font-size="14.00" fill="#000000">pe=1.000</text>
<polyline fill="none" stroke="#000000" points="1258.6094,-.5 1258.6094,-36.5 "/>
<text text-anchor="middle" x="1300.3003" y="-14.3" font-family="Times,serif" font-size="14.00" fill="#000000"> as=[0, 0, 0]</text>
</g>
<!-- name9&#45;&gt;name11 -->
<g id="edge10" class="edge">
<title>name9&#45;&gt;name11</title>
<path fill="none" stroke="#000000" d="M1198.6077,-87.4735C1210.9164,-74.8752 1227.5253,-57.8755 1241.1741,-43.9055"/>
<polygon fill="#000000" stroke="#000000" points="1243.9212,-46.1021 1248.4061,-36.5034 1238.9142,-41.2103 1243.9212,-46.1021"/>
<text text-anchor="middle" x="1232.4956" y="-57.8" font-family="Times,serif" font-size="14.00" fill="#000000">1</text>
</g>
<!-- name12 -->
<g id="node13" class="node">
<title>name12</title>
<polygon fill="none" stroke="#000000" points="1360,-.5 1360,-36.5 1511.9912,-36.5 1511.9912,-.5 1360,-.5"/>
<text text-anchor="middle" x="1394.3047" y="-14.3" font-family="Times,serif" font-size="14.00" fill="#000000">pe=1.000</text>
<polyline fill="none" stroke="#000000" points="1428.6094,-.5 1428.6094,-36.5 "/>
<text text-anchor="middle" x="1470.3003" y="-14.3" font-family="Times,serif" font-size="14.00" fill="#000000"> as=[0, 0, 0]</text>
</g>
<!-- name9&#45;&gt;name12 -->
<g id="edge11" class="edge">
<title>name9&#45;&gt;name12</title>
<path fill="none" stroke="#000000" d="M1233.8318,-87.4735C1274.5189,-73.5921 1330.8685,-54.3669 1373.7431,-39.7391"/>
<polygon fill="#000000" stroke="#000000" points="1374.893,-43.045 1383.2271,-36.5034 1372.6326,-36.4199 1374.893,-43.045"/>
<text text-anchor="middle" x="1327.4956" y="-57.8" font-family="Times,serif" font-size="14.00" fill="#000000">2</text>
</g>
</g>
</svg>
