<?xml version="1.0" encoding="UTF-8" standalone="no"?>
<!DOCTYPE svg PUBLIC "-//W3C//DTD SVG 1.1//EN"
 "http://www.w3.org/Graphics/SVG/1.1/DTD/svg11.dtd">
<!-- Generated by graphviz version 2.40.1 (20161225.0304)
 -->
<!-- Title: Orga Pages: 1 -->
<svg width="228pt" height="134pt"
 viewBox="0.00 0.00 227.68 134.00" xmlns="http://www.w3.org/2000/svg" xmlns:xlink="http://www.w3.org/1999/xlink">
<g id="graph0" class="graph" transform="scale(1 1) rotate(0) translate(4 130)">
<title>Orga</title>
<polygon fill="#ffffff" stroke="transparent" points="-4,4 -4,-130 223.6758,-130 223.6758,4 -4,4"/>
<!-- Tree -->
<g id="node1" class="node">
<title>Tree</title>
<polygon fill="none" stroke="#000000" points="28.3916,-81.5 28.3916,-125.5 193.5498,-125.5 193.5498,-81.5 28.3916,-81.5"/>
<text text-anchor="middle" x="110.9707" y="-110.3" font-family="Times,serif" font-size="14.00" fill="#000000">Tree</text>
<polyline fill="none" stroke="#000000" points="28.3916,-103.5 193.5498,-103.5 "/>
<text text-anchor="middle" x="42.9985" y="-88.3" font-family="Times,serif" font-size="14.00" fill="#000000">pe</text>
<polyline fill="none" stroke="#000000" points="57.6055,-81.5 57.6055,-103.5 "/>
<text text-anchor="middle" x="75.9106" y="-88.3" font-family="Times,serif" font-size="14.00" fill="#000000"> pw</text>
<polyline fill="none" stroke="#000000" points="94.2158,-81.5 94.2158,-103.5 "/>
<text text-anchor="middle" x="116.5986" y="-88.3" font-family="Times,serif" font-size="14.00" fill="#000000">pi(T)</text>
<polyline fill="none" stroke="#000000" points="138.9814,-81.5 138.9814,-103.5 "/>
<text text-anchor="middle" x="166.2656" y="-88.3" font-family="Times,serif" font-size="14.00" fill="#000000">pi(T|x)</text>
</g>
<!-- ProbTree -->
<g id="node2" class="node">
<title>ProbTree</title>
<polygon fill="none" stroke="#000000" points="0,-.5 0,-44.5 103.9414,-44.5 103.9414,-.5 0,-.5"/>
<text text-anchor="middle" x="51.9707" y="-29.3" font-family="Times,serif" font-size="14.00" fill="#000000">ProbTree</text>
<polyline fill="none" stroke="#000000" points="0,-22.5 103.9414,-22.5 "/>
<text text-anchor="middle" x="16.9448" y="-7.3" font-family="Times,serif" font-size="14.00" fill="#000000">pm</text>
<polyline fill="none" stroke="#000000" points="33.8896,-.5 33.8896,-22.5 "/>
<text text-anchor="middle" x="68.9155" y="-7.3" font-family="Times,serif" font-size="14.00" fill="#000000">pruning...</text>
</g>
<!-- Tree&#45;&gt;ProbTree -->
<g id="edge1" class="edge">
<title>Tree&#45;&gt;ProbTree</title>
<path fill="none" stroke="#000000" d="M94.8487,-81.3664C88.4098,-72.5266 80.8922,-62.2058 73.9658,-52.6967"/>
<polygon fill="#000000" stroke="#000000" points="76.79,-50.6292 68.0732,-44.6068 71.1318,-54.7506 76.79,-50.6292"/>
</g>
<!-- kTree -->
<g id="node3" class="node">
<title>kTree</title>
<polygon fill="none" stroke="#000000" points="122.2656,-.5 122.2656,-44.5 219.6758,-44.5 219.6758,-.5 122.2656,-.5"/>
<text text-anchor="middle" x="170.9707" y="-29.3" font-family="Times,serif" font-size="14.00" fill="#000000">kTree</text>
<polyline fill="none" stroke="#000000" points="122.2656,-22.5 219.6758,-22.5 "/>
<text text-anchor="middle" x="133.7656" y="-7.3" font-family="Times,serif" font-size="14.00" fill="#000000">k</text>
<polyline fill="none" stroke="#000000" points="145.2656,-.5 145.2656,-22.5 "/>
<text text-anchor="middle" x="167.0776" y="-7.3" font-family="Times,serif" font-size="14.00" fill="#000000"> Pms</text>
<polyline fill="none" stroke="#000000" points="188.8896,-.5 188.8896,-22.5 "/>
<text text-anchor="middle" x="204.2827" y="-7.3" font-family="Times,serif" font-size="14.00" fill="#000000">Bs</text>
</g>
<!-- Tree&#45;&gt;kTree -->
<g id="edge2" class="edge">
<title>Tree&#45;&gt;kTree</title>
<path fill="none" stroke="#000000" d="M127.366,-81.3664C133.914,-72.5266 141.559,-62.2058 148.6028,-52.6967"/>
<polygon fill="#000000" stroke="#000000" points="151.4554,-54.7257 154.5953,-44.6068 145.8305,-50.5591 151.4554,-54.7257"/>
</g>
</g>
</svg>
