<?xml version="1.0" encoding="UTF-8" standalone="no"?>
<!DOCTYPE svg PUBLIC "-//W3C//DTD SVG 1.1//EN"
 "http://www.w3.org/Graphics/SVG/1.1/DTD/svg11.dtd">
<!-- Generated by graphviz version 2.40.1 (20161225.0304)
 -->
<!-- Title: root Pages: 1 -->
<svg width="2931pt" height="411pt"
 viewBox="0.00 0.00 2930.50 411.00" xmlns="http://www.w3.org/2000/svg" xmlns:xlink="http://www.w3.org/1999/xlink">
<g id="graph0" class="graph" transform="scale(1 1) rotate(0) translate(4 407)">
<title>root</title>
<polygon fill="#ffffff" stroke="transparent" points="-4,4 -4,-407 2926.5,-407 2926.5,4 -4,4"/>
<!-- name0 -->
<g id="node1" class="node">
<title>name0</title>
<polygon fill="none" stroke="#000000" points="617.5,-302.5 617.5,-402.5 760.5,-402.5 760.5,-302.5 617.5,-302.5"/>
<text text-anchor="middle" x="688.9409" y="-385.8" font-family="Times,serif" font-size="14.00" fill="#000000">pe=0.0</text>
<polyline fill="none" stroke="#000000" points="617.5,-377.5 760.3818,-377.5 "/>
<text text-anchor="middle" x="688.9409" y="-360.8" font-family="Times,serif" font-size="14.00" fill="#000000">pw=0.0</text>
<polyline fill="none" stroke="#000000" points="617.5,-352.5 760.3818,-352.5 "/>
<text text-anchor="middle" x="688.9409" y="-335.8" font-family="Times,serif" font-size="14.00" fill="#000000">pm=0.0</text>
<polyline fill="none" stroke="#000000" points="617.5,-327.5 760.3818,-327.5 "/>
<text text-anchor="middle" x="688.9409" y="-310.8" font-family="Times,serif" font-size="14.00" fill="#000000">as=[3380, 7337, 9283]</text>
</g>
<!-- name1 -->
<g id="node2" class="node">
<title>name1</title>
<polygon fill="none" stroke="#000000" points="199,-151.5 199,-251.5 335,-251.5 335,-151.5 199,-151.5"/>
<text text-anchor="middle" x="266.9409" y="-234.8" font-family="Times,serif" font-size="14.00" fill="#000000">pe=0.0</text>
<polyline fill="none" stroke="#000000" points="199,-226.5 334.8818,-226.5 "/>
<text text-anchor="middle" x="266.9409" y="-209.8" font-family="Times,serif" font-size="14.00" fill="#000000">pw=0.0</text>
<polyline fill="none" stroke="#000000" points="199,-201.5 334.8818,-201.5 "/>
<text text-anchor="middle" x="266.9409" y="-184.8" font-family="Times,serif" font-size="14.00" fill="#000000">pm=0.0</text>
<polyline fill="none" stroke="#000000" points="199,-176.5 334.8818,-176.5 "/>
<text text-anchor="middle" x="266.9409" y="-159.8" font-family="Times,serif" font-size="14.00" fill="#000000">as=[1015, 1710, 655]</text>
</g>
<!-- name0&#45;&gt;name1 -->
<g id="edge1" class="edge">
<title>name0&#45;&gt;name1</title>
<path fill="none" stroke="#000000" d="M617.4135,-326.8849C541.7554,-299.813 422.8117,-257.2525 344.8596,-229.3597"/>
<polygon fill="#000000" stroke="#000000" points="345.6837,-225.9373 335.0891,-225.8636 343.3253,-232.5281 345.6837,-225.9373"/>
<text text-anchor="middle" x="494.5" y="-272.8" font-family="Times,serif" font-size="14.00" fill="#000000">0</text>
</g>
<!-- name5 -->
<g id="node3" class="node">
<title>name5</title>
<polygon fill="none" stroke="#000000" points="621,-151.5 621,-251.5 757,-251.5 757,-151.5 621,-151.5"/>
<text text-anchor="middle" x="688.9409" y="-234.8" font-family="Times,serif" font-size="14.00" fill="#000000">pe=0.0</text>
<polyline fill="none" stroke="#000000" points="621,-226.5 756.8818,-226.5 "/>
<text text-anchor="middle" x="688.9409" y="-209.8" font-family="Times,serif" font-size="14.00" fill="#000000">pw=0.0</text>
<polyline fill="none" stroke="#000000" points="621,-201.5 756.8818,-201.5 "/>
<text text-anchor="middle" x="688.9409" y="-184.8" font-family="Times,serif" font-size="14.00" fill="#000000">pm=0.0</text>
<polyline fill="none" stroke="#000000" points="621,-176.5 756.8818,-176.5 "/>
<text text-anchor="middle" x="688.9409" y="-159.8" font-family="Times,serif" font-size="14.00" fill="#000000">as=[799, 3858, 2680]</text>
</g>
<!-- name0&#45;&gt;name5 -->
<g id="edge2" class="edge">
<title>name0&#45;&gt;name5</title>
<path fill="none" stroke="#000000" d="M689,-302.2192C689,-289.2296 689,-275.1148 689,-261.6762"/>
<polygon fill="#000000" stroke="#000000" points="692.5001,-261.5612 689,-251.5612 685.5001,-261.5613 692.5001,-261.5612"/>
<text text-anchor="middle" x="692.5" y="-272.8" font-family="Times,serif" font-size="14.00" fill="#000000">1</text>
</g>
<!-- name9 -->
<g id="node4" class="node">
<title>name9</title>
<polygon fill="none" stroke="#000000" points="1098.5,-151.5 1098.5,-251.5 1241.5,-251.5 1241.5,-151.5 1098.5,-151.5"/>
<text text-anchor="middle" x="1169.9409" y="-234.8" font-family="Times,serif" font-size="14.00" fill="#000000">pe=0.0</text>
<polyline fill="none" stroke="#000000" points="1098.5,-226.5 1241.3818,-226.5 "/>
<text text-anchor="middle" x="1169.9409" y="-209.8" font-family="Times,serif" font-size="14.00" fill="#000000">pw=0.0</text>
<polyline fill="none" stroke="#000000" points="1098.5,-201.5 1241.3818,-201.5 "/>
<text text-anchor="middle" x="1169.9409" y="-184.8" font-family="Times,serif" font-size="14.00" fill="#000000">pm=0.0</text>
<polyline fill="none" stroke="#000000" points="1098.5,-176.5 1241.3818,-176.5 "/>
<text text-anchor="middle" x="1169.9409" y="-159.8" font-family="Times,serif" font-size="14.00" fill="#000000">as=[1566, 1768, 5948]</text>
</g>
<!-- name0&#45;&gt;name9 -->
<g id="edge3" class="edge">
<title>name0&#45;&gt;name9</title>
<path fill="none" stroke="#000000" d="M760.7507,-329.9754C848.5204,-302.4219 996.7348,-255.893 1088.6575,-227.0358"/>
<polygon fill="#000000" stroke="#000000" points="1089.7075,-230.3747 1098.2001,-224.0401 1087.6109,-223.696 1089.7075,-230.3747"/>
<text text-anchor="middle" x="947.5" y="-272.8" font-family="Times,serif" font-size="14.00" fill="#000000">2</text>
</g>
<!-- name2 -->
<g id="node5" class="node">
<title>name2</title>
<polygon fill="none" stroke="#000000" points="0,-.5 0,-100.5 122,-100.5 122,-.5 0,-.5"/>
<text text-anchor="middle" x="60.9409" y="-83.8" font-family="Times,serif" font-size="14.00" fill="#000000">pe=0.0</text>
<polyline fill="none" stroke="#000000" points="0,-75.5 121.8818,-75.5 "/>
<text text-anchor="middle" x="60.9409" y="-58.8" font-family="Times,serif" font-size="14.00" fill="#000000">pw=0.0</text>
<polyline fill="none" stroke="#000000" points="0,-50.5 121.8818,-50.5 "/>
<text text-anchor="middle" x="60.9409" y="-33.8" font-family="Times,serif" font-size="14.00" fill="#000000">pm=0.0</text>
<polyline fill="none" stroke="#000000" points="0,-25.5 121.8818,-25.5 "/>
<text text-anchor="middle" x="60.9409" y="-8.8" font-family="Times,serif" font-size="14.00" fill="#000000">as=[309, 598, 108]</text>
</g>
<!-- name1&#45;&gt;name2 -->
<g id="edge4" class="edge">
<title>name1&#45;&gt;name2</title>
<path fill="none" stroke="#000000" d="M198.977,-151.6385C176.9464,-135.4898 152.4933,-117.5655 130.3664,-101.3462"/>
<polygon fill="#000000" stroke="#000000" points="132.1443,-98.3099 122.0098,-95.2208 128.0059,-103.9556 132.1443,-98.3099"/>
<text text-anchor="middle" x="174.5" y="-121.8" font-family="Times,serif" font-size="14.00" fill="#000000">0</text>
</g>
<!-- name3 -->
<g id="node6" class="node">
<title>name3</title>
<polygon fill="none" stroke="#000000" points="140.5,-.5 140.5,-100.5 255.5,-100.5 255.5,-.5 140.5,-.5"/>
<text text-anchor="middle" x="197.9409" y="-83.8" font-family="Times,serif" font-size="14.00" fill="#000000">pe=1.31046e&#45;319</text>
<polyline fill="none" stroke="#000000" points="140.5,-75.5 255.3818,-75.5 "/>
<text text-anchor="middle" x="197.9409" y="-58.8" font-family="Times,serif" font-size="14.00" fill="#000000">pw=1.2289e&#45;319</text>
<polyline fill="none" stroke="#000000" points="140.5,-50.5 255.3818,-50.5 "/>
<text text-anchor="middle" x="197.9409" y="-33.8" font-family="Times,serif" font-size="14.00" fill="#000000">pm=9.8284e&#45;320</text>
<polyline fill="none" stroke="#000000" points="140.5,-25.5 255.3818,-25.5 "/>
<text text-anchor="middle" x="197.9409" y="-8.8" font-family="Times,serif" font-size="14.00" fill="#000000">as=[244, 471, 84]</text>
</g>
<!-- name1&#45;&gt;name3 -->
<g id="edge5" class="edge">
<title>name1&#45;&gt;name3</title>
<path fill="none" stroke="#000000" d="M244.024,-151.2192C237.972,-137.9749 231.3854,-123.5608 225.1369,-109.8865"/>
<polygon fill="#000000" stroke="#000000" points="228.2153,-108.202 220.8757,-100.5612 221.8485,-111.1113 228.2153,-108.202"/>
<text text-anchor="middle" x="238.5" y="-121.8" font-family="Times,serif" font-size="14.00" fill="#000000">1</text>
</g>
<!-- name4 -->
<g id="node7" class="node">
<title>name4</title>
<polygon fill="none" stroke="#000000" points="274,-.5 274,-100.5 396,-100.5 396,-.5 274,-.5"/>
<text text-anchor="middle" x="334.9409" y="-83.8" font-family="Times,serif" font-size="14.00" fill="#000000">pe=0.0</text>
<polyline fill="none" stroke="#000000" points="274,-75.5 395.8818,-75.5 "/>
<text text-anchor="middle" x="334.9409" y="-58.8" font-family="Times,serif" font-size="14.00" fill="#000000">pw=0.0</text>
<polyline fill="none" stroke="#000000" points="274,-50.5 395.8818,-50.5 "/>
<text text-anchor="middle" x="334.9409" y="-33.8" font-family="Times,serif" font-size="14.00" fill="#000000">pm=0.0</text>
<polyline fill="none" stroke="#000000" points="274,-25.5 395.8818,-25.5 "/>
<text text-anchor="middle" x="334.9409" y="-8.8" font-family="Times,serif" font-size="14.00" fill="#000000">as=[462, 641, 463]</text>
</g>
<!-- name1&#45;&gt;name4 -->
<g id="edge6" class="edge">
<title>name1&#45;&gt;name4</title>
<path fill="none" stroke="#000000" d="M289.643,-151.2192C295.6073,-137.9749 302.0984,-123.5608 308.2564,-109.8865"/>
<polygon fill="#000000" stroke="#000000" points="311.541,-111.1165 312.4559,-100.5612 305.1583,-108.2422 311.541,-111.1165"/>
<text text-anchor="middle" x="307.5" y="-121.8" font-family="Times,serif" font-size="14.00" fill="#000000">2</text>
</g>
<!-- name6 -->
<g id="node8" class="node">
<title>name6</title>
<polygon fill="none" stroke="#000000" points="413.8574,-.5 413.8574,-100.5 606.1426,-100.5 606.1426,-.5 413.8574,-.5"/>
<text text-anchor="middle" x="510" y="-83.8" font-family="Times,serif" font-size="14.00" fill="#000000">pe=0.00029231218941829873</text>
<polyline fill="none" stroke="#000000" points="413.8574,-75.5 606.1426,-75.5 "/>
<text text-anchor="middle" x="510" y="-58.8" font-family="Times,serif" font-size="14.00" fill="#000000">pw=0.00021923423309847293</text>
<polyline fill="none" stroke="#000000" points="413.8574,-50.5 606.1426,-50.5 "/>
<text text-anchor="middle" x="510" y="-33.8" font-family="Times,serif" font-size="14.00" fill="#000000">pm=0.00021923414206372405</text>
<polyline fill="none" stroke="#000000" points="413.8574,-25.5 606.1426,-25.5 "/>
<text text-anchor="middle" x="510" y="-8.8" font-family="Times,serif" font-size="14.00" fill="#000000">as=[0, 1710, 0]</text>
</g>
<!-- name5&#45;&gt;name6 -->
<g id="edge7" class="edge">
<title>name5&#45;&gt;name6</title>
<path fill="none" stroke="#000000" d="M629.3956,-151.2192C612.6387,-137.0835 594.3021,-121.6152 577.138,-107.1359"/>
<polygon fill="#000000" stroke="#000000" points="579.2445,-104.334 569.3441,-100.5612 574.7309,-109.6845 579.2445,-104.334"/>
<text text-anchor="middle" x="608.5" y="-121.8" font-family="Times,serif" font-size="14.00" fill="#000000">0</text>
</g>
<!-- name7 -->
<g id="node9" class="node">
<title>name7</title>
<polygon fill="none" stroke="#000000" points="624.5,-.5 624.5,-100.5 753.5,-100.5 753.5,-.5 624.5,-.5"/>
<text text-anchor="middle" x="688.9409" y="-83.8" font-family="Times,serif" font-size="14.00" fill="#000000">pe=0.0</text>
<polyline fill="none" stroke="#000000" points="624.5,-75.5 753.3818,-75.5 "/>
<text text-anchor="middle" x="688.9409" y="-58.8" font-family="Times,serif" font-size="14.00" fill="#000000">pw=0.0</text>
<polyline fill="none" stroke="#000000" points="624.5,-50.5 753.3818,-50.5 "/>
<text text-anchor="middle" x="688.9409" y="-33.8" font-family="Times,serif" font-size="14.00" fill="#000000">pm=0.0</text>
<polyline fill="none" stroke="#000000" points="624.5,-25.5 753.3818,-25.5 "/>
<text text-anchor="middle" x="688.9409" y="-8.8" font-family="Times,serif" font-size="14.00" fill="#000000">as=[799, 379, 2680]</text>
</g>
<!-- name5&#45;&gt;name7 -->
<g id="edge8" class="edge">
<title>name5&#45;&gt;name7</title>
<path fill="none" stroke="#000000" d="M689,-151.2192C689,-138.2296 689,-124.1148 689,-110.6762"/>
<polygon fill="#000000" stroke="#000000" points="692.5001,-110.5612 689,-100.5612 685.5001,-110.5613 692.5001,-110.5612"/>
<text text-anchor="middle" x="692.5" y="-121.8" font-family="Times,serif" font-size="14.00" fill="#000000">1</text>
</g>
<!-- name8 -->
<g id="node10" class="node">
<title>name8</title>
<polygon fill="none" stroke="#000000" points="771.8574,-.5 771.8574,-100.5 964.1426,-100.5 964.1426,-.5 771.8574,-.5"/>
<text text-anchor="middle" x="868" y="-83.8" font-family="Times,serif" font-size="14.00" fill="#000000">pe=0.0002827254735651682</text>
<polyline fill="none" stroke="#000000" points="771.8574,-75.5 964.1426,-75.5 "/>
<text text-anchor="middle" x="868" y="-58.8" font-family="Times,serif" font-size="14.00" fill="#000000">pw=0.00021211863799044505</text>
<polyline fill="none" stroke="#000000" points="771.8574,-50.5 964.1426,-50.5 "/>
<text text-anchor="middle" x="868" y="-33.8" font-family="Times,serif" font-size="14.00" fill="#000000">pm=0.00021204410517387616</text>
<polyline fill="none" stroke="#000000" points="771.8574,-25.5 964.1426,-25.5 "/>
<text text-anchor="middle" x="868" y="-8.8" font-family="Times,serif" font-size="14.00" fill="#000000">as=[0, 1768, 0]</text>
</g>
<!-- name5&#45;&gt;name8 -->
<g id="edge9" class="edge">
<title>name5&#45;&gt;name8</title>
<path fill="none" stroke="#000000" d="M748.6044,-151.2192C765.3613,-137.0835 783.6979,-121.6152 800.862,-107.1359"/>
<polygon fill="#000000" stroke="#000000" points="803.2691,-109.6845 808.6559,-100.5612 798.7555,-104.334 803.2691,-109.6845"/>
<text text-anchor="middle" x="787.5" y="-121.8" font-family="Times,serif" font-size="14.00" fill="#000000">2</text>
</g>
<!-- name10 -->
<g id="node11" class="node">
<title>name10</title>
<polygon fill="none" stroke="#000000" points="981.9194,-.5 981.9194,-100.5 1178.0806,-100.5 1178.0806,-.5 981.9194,-.5"/>
<text text-anchor="middle" x="1080" y="-83.8" font-family="Times,serif" font-size="14.00" fill="#000000">pe=2.467017092190398e&#45;237</text>
<polyline fill="none" stroke="#000000" points="981.9194,-75.5 1178.0806,-75.5 "/>
<text text-anchor="middle" x="1080" y="-58.8" font-family="Times,serif" font-size="14.00" fill="#000000">pw=1.850871301511635e&#45;237</text>
<polyline fill="none" stroke="#000000" points="981.9194,-50.5 1178.0806,-50.5 "/>
<text text-anchor="middle" x="1080" y="-33.8" font-family="Times,serif" font-size="14.00" fill="#000000">pm=1.8502628191427987e&#45;237</text>
<polyline fill="none" stroke="#000000" points="981.9194,-25.5 1178.0806,-25.5 "/>
<text text-anchor="middle" x="1080" y="-8.8" font-family="Times,serif" font-size="14.00" fill="#000000">as=[148, 445, 62]</text>
</g>
<!-- name9&#45;&gt;name10 -->
<g id="edge10" class="edge">
<title>name9&#45;&gt;name10</title>
<path fill="none" stroke="#000000" d="M1140.0313,-151.2192C1132.0615,-137.8476 1123.3809,-123.2835 1115.1609,-109.4922"/>
<polygon fill="#000000" stroke="#000000" points="1117.9642,-107.3593 1109.8378,-100.5612 1111.9512,-110.9432 1117.9642,-107.3593"/>
<text text-anchor="middle" x="1131.5" y="-121.8" font-family="Times,serif" font-size="14.00" fill="#000000">0</text>
</g>
<!-- name11 -->
<g id="node12" class="node">
<title>name11</title>
<polygon fill="none" stroke="#000000" points="1196.5,-.5 1196.5,-100.5 1325.5,-100.5 1325.5,-.5 1196.5,-.5"/>
<text text-anchor="middle" x="1260.9409" y="-83.8" font-family="Times,serif" font-size="14.00" fill="#000000">pe=0.0</text>
<polyline fill="none" stroke="#000000" points="1196.5,-75.5 1325.3818,-75.5 "/>
<text text-anchor="middle" x="1260.9409" y="-58.8" font-family="Times,serif" font-size="14.00" fill="#000000">pw=0.0</text>
<polyline fill="none" stroke="#000000" points="1196.5,-50.5 1325.3818,-50.5 "/>
<text text-anchor="middle" x="1260.9409" y="-33.8" font-family="Times,serif" font-size="14.00" fill="#000000">pm=0.0</text>
<polyline fill="none" stroke="#000000" points="1196.5,-25.5 1325.3818,-25.5 "/>
<text text-anchor="middle" x="1260.9409" y="-8.8" font-family="Times,serif" font-size="14.00" fill="#000000">as=[805, 1323, 552]</text>
</g>
<!-- name9&#45;&gt;name11 -->
<g id="edge11" class="edge">
<title>name9&#45;&gt;name11</title>
<path fill="none" stroke="#000000" d="M1200.3017,-151.2192C1208.3601,-137.8476 1217.1371,-123.2835 1225.4484,-109.4922"/>
<polygon fill="#000000" stroke="#000000" points="1228.6667,-110.9328 1230.8306,-100.5612 1222.6712,-107.3196 1228.6667,-110.9328"/>
<text text-anchor="middle" x="1222.5" y="-121.8" font-family="Times,serif" font-size="14.00" fill="#000000">1</text>
</g>
<!-- name12 -->
<g id="node13" class="node">
<title>name12</title>
<polygon fill="none" stroke="#000000" points="1343.5,-.5 1343.5,-100.5 1458.5,-100.5 1458.5,-.5 1343.5,-.5"/>
<text text-anchor="middle" x="1400.9409" y="-83.8" font-family="Times,serif" font-size="14.00" fill="#000000">pe=0.0</text>
<polyline fill="none" stroke="#000000" points="1343.5,-75.5 1458.3818,-75.5 "/>
<text text-anchor="middle" x="1400.9409" y="-58.8" font-family="Times,serif" font-size="14.00" fill="#000000">pw=0.0</text>
<polyline fill="none" stroke="#000000" points="1343.5,-50.5 1458.3818,-50.5 "/>
<text text-anchor="middle" x="1400.9409" y="-33.8" font-family="Times,serif" font-size="14.00" fill="#000000">pm=0.0</text>
<polyline fill="none" stroke="#000000" points="1343.5,-25.5 1458.3818,-25.5 "/>
<text text-anchor="middle" x="1400.9409" y="-8.8" font-family="Times,serif" font-size="14.00" fill="#000000">as=[613, 0, 5334]</text>
</g>
<!-- name9&#45;&gt;name12 -->
<g id="edge12" class="edge">
<title>name9&#45;&gt;name12</title>
<path fill="none" stroke="#000000" d="M1241.5784,-159.6779C1270.6577,-142.1626 1304.3286,-121.205 1334,-101 1334.2822,-100.8078 1334.5648,-100.615 1334.8479,-100.4214"/>
<polygon fill="#000000" stroke="#000000" points="1336.9391,-103.2302 1343.1443,-94.6427 1332.9382,-97.4862 1336.9391,-103.2302"/>
<text text-anchor="middle" x="1307.5" y="-121.8" font-family="Times,serif" font-size="14.00" fill="#000000">2</text>
</g>
<!-- name0_gv1 -->
<g id="node14" class="node">
<title>name0_gv1</title>
<polygon fill="none" stroke="#000000" points="2086.5,-302.5 2086.5,-402.5 2229.5,-402.5 2229.5,-302.5 2086.5,-302.5"/>
<text text-anchor="middle" x="2157.9409" y="-385.8" font-family="Times,serif" font-size="14.00" fill="#000000">pe=0.0</text>
<polyline fill="none" stroke="#000000" points="2086.5,-377.5 2229.3818,-377.5 "/>
<text text-anchor="middle" x="2157.9409" y="-360.8" font-family="Times,serif" font-size="14.00" fill="#000000">pw=0.0</text>
<polyline fill="none" stroke="#000000" points="2086.5,-352.5 2229.3818,-352.5 "/>
<text text-anchor="middle" x="2157.9409" y="-335.8" font-family="Times,serif" font-size="14.00" fill="#000000">pm=0.0</text>
<polyline fill="none" stroke="#000000" points="2086.5,-327.5 2229.3818,-327.5 "/>
<text text-anchor="middle" x="2157.9409" y="-310.8" font-family="Times,serif" font-size="14.00" fill="#000000">as=[3325, 7513, 9162]</text>
</g>
<!-- name1_gv1 -->
<g id="node15" class="node">
<title>name1_gv1</title>
<polygon fill="none" stroke="#000000" points="1670.5,-151.5 1670.5,-251.5 1799.5,-251.5 1799.5,-151.5 1670.5,-151.5"/>
<text text-anchor="middle" x="1734.9409" y="-234.8" font-family="Times,serif" font-size="14.00" fill="#000000">pe=0.0</text>
<polyline fill="none" stroke="#000000" points="1670.5,-226.5 1799.3818,-226.5 "/>
<text text-anchor="middle" x="1734.9409" y="-209.8" font-family="Times,serif" font-size="14.00" fill="#000000">pw=0.0</text>
<polyline fill="none" stroke="#000000" points="1670.5,-201.5 1799.3818,-201.5 "/>
<text text-anchor="middle" x="1734.9409" y="-184.8" font-family="Times,serif" font-size="14.00" fill="#000000">pm=0.0</text>
<polyline fill="none" stroke="#000000" points="1670.5,-176.5 1799.3818,-176.5 "/>
<text text-anchor="middle" x="1734.9409" y="-159.8" font-family="Times,serif" font-size="14.00" fill="#000000">as=[977, 1705, 642]</text>
</g>
<!-- name0_gv1&#45;&gt;name1_gv1 -->
<g id="edge13" class="edge">
<title>name0_gv1&#45;&gt;name1_gv1</title>
<path fill="none" stroke="#000000" d="M2086.2438,-326.8849C2009.2763,-299.4095 1887.6176,-255.9805 1809.5783,-228.1225"/>
<polygon fill="#000000" stroke="#000000" points="1810.406,-224.7017 1799.8113,-224.636 1808.0526,-231.2943 1810.406,-224.7017"/>
<text text-anchor="middle" x="1963.5" y="-272.8" font-family="Times,serif" font-size="14.00" fill="#000000">0</text>
</g>
<!-- name5_gv1 -->
<g id="node16" class="node">
<title>name5_gv1</title>
<polygon fill="none" stroke="#000000" points="2090,-151.5 2090,-251.5 2226,-251.5 2226,-151.5 2090,-151.5"/>
<text text-anchor="middle" x="2157.9409" y="-234.8" font-family="Times,serif" font-size="14.00" fill="#000000">pe=0.0</text>
<polyline fill="none" stroke="#000000" points="2090,-226.5 2225.8818,-226.5 "/>
<text text-anchor="middle" x="2157.9409" y="-209.8" font-family="Times,serif" font-size="14.00" fill="#000000">pw=0.0</text>
<polyline fill="none" stroke="#000000" points="2090,-201.5 2225.8818,-201.5 "/>
<text text-anchor="middle" x="2157.9409" y="-184.8" font-family="Times,serif" font-size="14.00" fill="#000000">pm=0.0</text>
<polyline fill="none" stroke="#000000" points="2090,-176.5 2225.8818,-176.5 "/>
<text text-anchor="middle" x="2157.9409" y="-159.8" font-family="Times,serif" font-size="14.00" fill="#000000">as=[841, 3951, 2721]</text>
</g>
<!-- name0_gv1&#45;&gt;name5_gv1 -->
<g id="edge14" class="edge">
<title>name0_gv1&#45;&gt;name5_gv1</title>
<path fill="none" stroke="#000000" d="M2158,-302.2192C2158,-289.2296 2158,-275.1148 2158,-261.6762"/>
<polygon fill="#000000" stroke="#000000" points="2161.5001,-261.5612 2158,-251.5612 2154.5001,-261.5613 2161.5001,-261.5612"/>
<text text-anchor="middle" x="2161.5" y="-272.8" font-family="Times,serif" font-size="14.00" fill="#000000">1</text>
</g>
<!-- name9_gv1 -->
<g id="node17" class="node">
<title>name9_gv1</title>
<polygon fill="none" stroke="#000000" points="2564.5,-151.5 2564.5,-251.5 2707.5,-251.5 2707.5,-151.5 2564.5,-151.5"/>
<text text-anchor="middle" x="2635.9409" y="-234.8" font-family="Times,serif" font-size="14.00" fill="#000000">pe=0.0</text>
<polyline fill="none" stroke="#000000" points="2564.5,-226.5 2707.3818,-226.5 "/>
<text text-anchor="middle" x="2635.9409" y="-209.8" font-family="Times,serif" font-size="14.00" fill="#000000">pw=0.0</text>
<polyline fill="none" stroke="#000000" points="2564.5,-201.5 2707.3818,-201.5 "/>
<text text-anchor="middle" x="2635.9409" y="-184.8" font-family="Times,serif" font-size="14.00" fill="#000000">pm=0.0</text>
<polyline fill="none" stroke="#000000" points="2564.5,-176.5 2707.3818,-176.5 "/>
<text text-anchor="middle" x="2635.9409" y="-159.8" font-family="Times,serif" font-size="14.00" fill="#000000">as=[1507, 1857, 5798]</text>
</g>
<!-- name0_gv1&#45;&gt;name9_gv1 -->
<g id="edge15" class="edge">
<title>name0_gv1&#45;&gt;name9_gv1</title>
<path fill="none" stroke="#000000" d="M2229.5614,-329.8938C2316.6318,-302.3883 2463.285,-256.0606 2554.5863,-227.2185"/>
<polygon fill="#000000" stroke="#000000" points="2555.8594,-230.4869 2564.3406,-224.1372 2553.7508,-223.8121 2555.8594,-230.4869"/>
<text text-anchor="middle" x="2415.5" y="-272.8" font-family="Times,serif" font-size="14.00" fill="#000000">2</text>
</g>
<!-- name2_gv1 -->
<g id="node18" class="node">
<title>name2_gv1</title>
<polygon fill="none" stroke="#000000" points="1476.5,-.5 1476.5,-100.5 1591.5,-100.5 1591.5,-.5 1476.5,-.5"/>
<text text-anchor="middle" x="1533.9409" y="-83.8" font-family="Times,serif" font-size="14.00" fill="#000000">pe=0.0</text>
<polyline fill="none" stroke="#000000" points="1476.5,-75.5 1591.3818,-75.5 "/>
<text text-anchor="middle" x="1533.9409" y="-58.8" font-family="Times,serif" font-size="14.00" fill="#000000">pw=0.0</text>
<polyline fill="none" stroke="#000000" points="1476.5,-50.5 1591.3818,-50.5 "/>
<text text-anchor="middle" x="1533.9409" y="-33.8" font-family="Times,serif" font-size="14.00" fill="#000000">pm=0.0</text>
<polyline fill="none" stroke="#000000" points="1476.5,-25.5 1591.3818,-25.5 "/>
<text text-anchor="middle" x="1533.9409" y="-8.8" font-family="Times,serif" font-size="14.00" fill="#000000">as=[267, 620, 89]</text>
</g>
<!-- name1_gv1&#45;&gt;name2_gv1 -->
<g id="edge16" class="edge">
<title>name1_gv1&#45;&gt;name2_gv1</title>
<path fill="none" stroke="#000000" d="M1670.3224,-153.6202C1647.9958,-137.0209 1622.8555,-118.2501 1600,-101 1599.9136,-100.9348 1599.8272,-100.8696 1599.7407,-100.8043"/>
<polygon fill="#000000" stroke="#000000" points="1601.6449,-97.856 1591.5588,-94.6121 1597.4205,-103.4377 1601.6449,-97.856"/>
<text text-anchor="middle" x="1644.5" y="-121.8" font-family="Times,serif" font-size="14.00" fill="#000000">0</text>
</g>
<!-- name3_gv1 -->
<g id="node19" class="node">
<title>name3_gv1</title>
<polygon fill="none" stroke="#000000" points="1609.5,-.5 1609.5,-100.5 1724.5,-100.5 1724.5,-.5 1609.5,-.5"/>
<text text-anchor="middle" x="1666.9409" y="-83.8" font-family="Times,serif" font-size="14.00" fill="#000000">pe=0.0</text>
<polyline fill="none" stroke="#000000" points="1609.5,-75.5 1724.3818,-75.5 "/>
<text text-anchor="middle" x="1666.9409" y="-58.8" font-family="Times,serif" font-size="14.00" fill="#000000">pw=0.0</text>
<polyline fill="none" stroke="#000000" points="1609.5,-50.5 1724.3818,-50.5 "/>
<text text-anchor="middle" x="1666.9409" y="-33.8" font-family="Times,serif" font-size="14.00" fill="#000000">pm=0.0</text>
<polyline fill="none" stroke="#000000" points="1609.5,-25.5 1724.3818,-25.5 "/>
<text text-anchor="middle" x="1666.9409" y="-8.8" font-family="Times,serif" font-size="14.00" fill="#000000">as=[273, 486, 82]</text>
</g>
<!-- name1_gv1&#45;&gt;name3_gv1 -->
<g id="edge17" class="edge">
<title>name1_gv1&#45;&gt;name3_gv1</title>
<path fill="none" stroke="#000000" d="M1712.357,-151.2192C1706.3927,-137.9749 1699.9016,-123.5608 1693.7436,-109.8865"/>
<polygon fill="#000000" stroke="#000000" points="1696.8417,-108.2422 1689.5441,-100.5612 1690.459,-111.1165 1696.8417,-108.2422"/>
<text text-anchor="middle" x="1707.5" y="-121.8" font-family="Times,serif" font-size="14.00" fill="#000000">1</text>
</g>
<!-- name4_gv1 -->
<g id="node20" class="node">
<title>name4_gv1</title>
<polygon fill="none" stroke="#000000" points="1743,-.5 1743,-100.5 1865,-100.5 1865,-.5 1743,-.5"/>
<text text-anchor="middle" x="1803.9409" y="-83.8" font-family="Times,serif" font-size="14.00" fill="#000000">pe=0.0</text>
<polyline fill="none" stroke="#000000" points="1743,-75.5 1864.8818,-75.5 "/>
<text text-anchor="middle" x="1803.9409" y="-58.8" font-family="Times,serif" font-size="14.00" fill="#000000">pw=0.0</text>
<polyline fill="none" stroke="#000000" points="1743,-50.5 1864.8818,-50.5 "/>
<text text-anchor="middle" x="1803.9409" y="-33.8" font-family="Times,serif" font-size="14.00" fill="#000000">pm=0.0</text>
<polyline fill="none" stroke="#000000" points="1743,-25.5 1864.8818,-25.5 "/>
<text text-anchor="middle" x="1803.9409" y="-8.8" font-family="Times,serif" font-size="14.00" fill="#000000">as=[437, 599, 471]</text>
</g>
<!-- name1_gv1&#45;&gt;name4_gv1 -->
<g id="edge18" class="edge">
<title>name1_gv1&#45;&gt;name4_gv1</title>
<path fill="none" stroke="#000000" d="M1757.976,-151.2192C1764.028,-137.9749 1770.6146,-123.5608 1776.8631,-109.8865"/>
<polygon fill="#000000" stroke="#000000" points="1780.1515,-111.1113 1781.1243,-100.5612 1773.7847,-108.202 1780.1515,-111.1113"/>
<text text-anchor="middle" x="1775.5" y="-121.8" font-family="Times,serif" font-size="14.00" fill="#000000">2</text>
</g>
<!-- name6_gv1 -->
<g id="node21" class="node">
<title>name6_gv1</title>
<polygon fill="none" stroke="#000000" points="1883,-.5 1883,-100.5 2075,-100.5 2075,-.5 1883,-.5"/>
<text text-anchor="middle" x="1978.8862" y="-83.8" font-family="Times,serif" font-size="14.00" fill="#000000">pe=0.0002931691586045148</text>
<polyline fill="none" stroke="#000000" points="1883,-75.5 2074.7725,-75.5 "/>
<text text-anchor="middle" x="1978.8862" y="-58.8" font-family="Times,serif" font-size="14.00" fill="#000000">pw=0.00021987696001521002</text>
<polyline fill="none" stroke="#000000" points="1883,-50.5 2074.7725,-50.5 "/>
<text text-anchor="middle" x="1978.8862" y="-33.8" font-family="Times,serif" font-size="14.00" fill="#000000">pm=0.00021987686895338611</text>
<polyline fill="none" stroke="#000000" points="1883,-25.5 2074.7725,-25.5 "/>
<text text-anchor="middle" x="1978.8862" y="-8.8" font-family="Times,serif" font-size="14.00" fill="#000000">as=[0, 1705, 0]</text>
</g>
<!-- name5_gv1&#45;&gt;name6_gv1 -->
<g id="edge19" class="edge">
<title>name5_gv1&#45;&gt;name6_gv1</title>
<path fill="none" stroke="#000000" d="M2098.3956,-151.2192C2081.6387,-137.0835 2063.3021,-121.6152 2046.138,-107.1359"/>
<polygon fill="#000000" stroke="#000000" points="2048.2445,-104.334 2038.3441,-100.5612 2043.7309,-109.6845 2048.2445,-104.334"/>
<text text-anchor="middle" x="2077.5" y="-121.8" font-family="Times,serif" font-size="14.00" fill="#000000">0</text>
</g>
<!-- name7_gv1 -->
<g id="node22" class="node">
<title>name7_gv1</title>
<polygon fill="none" stroke="#000000" points="2093.5,-.5 2093.5,-100.5 2222.5,-100.5 2222.5,-.5 2093.5,-.5"/>
<text text-anchor="middle" x="2157.9409" y="-83.8" font-family="Times,serif" font-size="14.00" fill="#000000">pe=0.0</text>
<polyline fill="none" stroke="#000000" points="2093.5,-75.5 2222.3818,-75.5 "/>
<text text-anchor="middle" x="2157.9409" y="-58.8" font-family="Times,serif" font-size="14.00" fill="#000000">pw=0.0</text>
<polyline fill="none" stroke="#000000" points="2093.5,-50.5 2222.3818,-50.5 "/>
<text text-anchor="middle" x="2157.9409" y="-33.8" font-family="Times,serif" font-size="14.00" fill="#000000">pm=0.0</text>
<polyline fill="none" stroke="#000000" points="2093.5,-25.5 2222.3818,-25.5 "/>
<text text-anchor="middle" x="2157.9409" y="-8.8" font-family="Times,serif" font-size="14.00" fill="#000000">as=[841, 389, 2721]</text>
</g>
<!-- name5_gv1&#45;&gt;name7_gv1 -->
<g id="edge20" class="edge">
<title>name5_gv1&#45;&gt;name7_gv1</title>
<path fill="none" stroke="#000000" d="M2158,-151.2192C2158,-138.2296 2158,-124.1148 2158,-110.6762"/>
<polygon fill="#000000" stroke="#000000" points="2161.5001,-110.5612 2158,-100.5612 2154.5001,-110.5613 2161.5001,-110.5612"/>
<text text-anchor="middle" x="2161.5" y="-121.8" font-family="Times,serif" font-size="14.00" fill="#000000">1</text>
</g>
<!-- name8_gv1 -->
<g id="node23" class="node">
<title>name8_gv1</title>
<polygon fill="none" stroke="#000000" points="2241,-.5 2241,-100.5 2433,-100.5 2433,-.5 2241,-.5"/>
<text text-anchor="middle" x="2336.7529" y="-83.8" font-family="Times,serif" font-size="14.00" fill="#000000">pe=0.00026917900403768504</text>
<polyline fill="none" stroke="#000000" points="2241,-75.5 2432.5059,-75.5 "/>
<text text-anchor="middle" x="2336.7529" y="-58.8" font-family="Times,serif" font-size="14.00" fill="#000000">pw=0.00020195309266247025</text>
<polyline fill="none" stroke="#000000" points="2241,-50.5 2432.5059,-50.5 "/>
<text text-anchor="middle" x="2336.7529" y="-33.8" font-family="Times,serif" font-size="14.00" fill="#000000">pm=0.0002018842530282638</text>
<polyline fill="none" stroke="#000000" points="2241,-25.5 2432.5059,-25.5 "/>
<text text-anchor="middle" x="2336.7529" y="-8.8" font-family="Times,serif" font-size="14.00" fill="#000000">as=[0, 1857, 0]</text>
</g>
<!-- name5_gv1&#45;&gt;name8_gv1 -->
<g id="edge21" class="edge">
<title>name5_gv1&#45;&gt;name8_gv1</title>
<path fill="none" stroke="#000000" d="M2217.6044,-151.2192C2234.3613,-137.0835 2252.6979,-121.6152 2269.862,-107.1359"/>
<polygon fill="#000000" stroke="#000000" points="2272.2691,-109.6845 2277.6559,-100.5612 2267.7555,-104.334 2272.2691,-109.6845"/>
<text text-anchor="middle" x="2256.5" y="-121.8" font-family="Times,serif" font-size="14.00" fill="#000000">2</text>
</g>
<!-- name10_gv1 -->
<g id="node24" class="node">
<title>name10_gv1</title>
<polygon fill="none" stroke="#000000" points="2451.2573,-.5 2451.2573,-100.5 2642.7427,-100.5 2642.7427,-.5 2451.2573,-.5"/>
<text text-anchor="middle" x="2547" y="-83.8" font-family="Times,serif" font-size="14.00" fill="#000000">pe=2.2516945307306106e&#45;222</text>
<polyline fill="none" stroke="#000000" points="2451.2573,-75.5 2642.7427,-75.5 "/>
<text text-anchor="middle" x="2547" y="-58.8" font-family="Times,serif" font-size="14.00" fill="#000000">pw=1.689325448316147e&#45;222</text>
<polyline fill="none" stroke="#000000" points="2451.2573,-50.5 2642.7427,-50.5 "/>
<text text-anchor="middle" x="2547" y="-33.8" font-family="Times,serif" font-size="14.00" fill="#000000">pm=1.688770898047958e&#45;222</text>
<polyline fill="none" stroke="#000000" points="2451.2573,-25.5 2642.7427,-25.5 "/>
<text text-anchor="middle" x="2547" y="-8.8" font-family="Times,serif" font-size="14.00" fill="#000000">as=[128, 455, 59]</text>
</g>
<!-- name9_gv1&#45;&gt;name10_gv1 -->
<g id="edge22" class="edge">
<title>name9_gv1&#45;&gt;name10_gv1</title>
<path fill="none" stroke="#000000" d="M2606.3643,-151.2192C2598.483,-137.8476 2589.8989,-123.2835 2581.7703,-109.4922"/>
<polygon fill="#000000" stroke="#000000" points="2584.5993,-107.399 2576.5063,-100.5612 2578.5688,-110.9534 2584.5993,-107.399"/>
<text text-anchor="middle" x="2598.5" y="-121.8" font-family="Times,serif" font-size="14.00" fill="#000000">0</text>
</g>
<!-- name11_gv1 -->
<g id="node25" class="node">
<title>name11_gv1</title>
<polygon fill="none" stroke="#000000" points="2660.5,-.5 2660.5,-100.5 2789.5,-100.5 2789.5,-.5 2660.5,-.5"/>
<text text-anchor="middle" x="2724.9409" y="-83.8" font-family="Times,serif" font-size="14.00" fill="#000000">pe=0.0</text>
<polyline fill="none" stroke="#000000" points="2660.5,-75.5 2789.3818,-75.5 "/>
<text text-anchor="middle" x="2724.9409" y="-58.8" font-family="Times,serif" font-size="14.00" fill="#000000">pw=0.0</text>
<polyline fill="none" stroke="#000000" points="2660.5,-50.5 2789.3818,-50.5 "/>
<text text-anchor="middle" x="2724.9409" y="-33.8" font-family="Times,serif" font-size="14.00" fill="#000000">pm=0.0</text>
<polyline fill="none" stroke="#000000" points="2660.5,-25.5 2789.3818,-25.5 "/>
<text text-anchor="middle" x="2724.9409" y="-8.8" font-family="Times,serif" font-size="14.00" fill="#000000">as=[771, 1401, 549]</text>
</g>
<!-- name9_gv1&#45;&gt;name11_gv1 -->
<g id="edge23" class="edge">
<title>name9_gv1&#45;&gt;name11_gv1</title>
<path fill="none" stroke="#000000" d="M2665.6357,-151.2192C2673.517,-137.8476 2682.1011,-123.2835 2690.2297,-109.4922"/>
<polygon fill="#000000" stroke="#000000" points="2693.4312,-110.9534 2695.4937,-100.5612 2687.4007,-107.399 2693.4312,-110.9534"/>
<text text-anchor="middle" x="2687.5" y="-121.8" font-family="Times,serif" font-size="14.00" fill="#000000">1</text>
</g>
<!-- name12_gv1 -->
<g id="node26" class="node">
<title>name12_gv1</title>
<polygon fill="none" stroke="#000000" points="2807.5,-.5 2807.5,-100.5 2922.5,-100.5 2922.5,-.5 2807.5,-.5"/>
<text text-anchor="middle" x="2864.9409" y="-83.8" font-family="Times,serif" font-size="14.00" fill="#000000">pe=0.0</text>
<polyline fill="none" stroke="#000000" points="2807.5,-75.5 2922.3818,-75.5 "/>
<text text-anchor="middle" x="2864.9409" y="-58.8" font-family="Times,serif" font-size="14.00" fill="#000000">pw=0.0</text>
<polyline fill="none" stroke="#000000" points="2807.5,-50.5 2922.3818,-50.5 "/>
<text text-anchor="middle" x="2864.9409" y="-33.8" font-family="Times,serif" font-size="14.00" fill="#000000">pm=0.0</text>
<polyline fill="none" stroke="#000000" points="2807.5,-25.5 2922.3818,-25.5 "/>
<text text-anchor="middle" x="2864.9409" y="-8.8" font-family="Times,serif" font-size="14.00" fill="#000000">as=[608, 0, 5190]</text>
</g>
<!-- name9_gv1&#45;&gt;name12_gv1 -->
<g id="edge24" class="edge">
<title>name9_gv1&#45;&gt;name12_gv1</title>
<path fill="none" stroke="#000000" d="M2707.8656,-158.8428C2736.3065,-141.4643 2769.0558,-120.8262 2798,-101 2798.3906,-100.7325 2798.782,-100.4636 2799.1742,-100.1935"/>
<polygon fill="#000000" stroke="#000000" points="2801.3177,-102.9653 2807.499,-94.3605 2797.3008,-97.2325 2801.3177,-102.9653"/>
<text text-anchor="middle" x="2771.5" y="-121.8" font-family="Times,serif" font-size="14.00" fill="#000000">2</text>
</g>
</g>
</svg>
