<?xml version="1.0" encoding="UTF-8" standalone="no"?>
<!DOCTYPE svg PUBLIC "-//W3C//DTD SVG 1.1//EN"
 "http://www.w3.org/Graphics/SVG/1.1/DTD/svg11.dtd">
<!-- Generated by graphviz version 2.40.1 (20161225.0304)
 -->
<!-- Title: root Pages: 1 -->
<svg width="3073pt" height="411pt"
 viewBox="0.00 0.00 3072.50 411.00" xmlns="http://www.w3.org/2000/svg" xmlns:xlink="http://www.w3.org/1999/xlink">
<g id="graph0" class="graph" transform="scale(1 1) rotate(0) translate(4 407)">
<title>root</title>
<polygon fill="#ffffff" stroke="transparent" points="-4,4 -4,-407 3068.5,-407 3068.5,4 -4,4"/>
<!-- name0 -->
<g id="node1" class="node">
<title>name0</title>
<polygon fill="none" stroke="#000000" points="697.5,-302.5 697.5,-402.5 840.5,-402.5 840.5,-302.5 697.5,-302.5"/>
<text text-anchor="middle" x="768.9409" y="-385.8" font-family="Times,serif" font-size="14.00" fill="#000000">pe=0.0</text>
<polyline fill="none" stroke="#000000" points="697.5,-377.5 840.3818,-377.5 "/>
<text text-anchor="middle" x="768.9409" y="-360.8" font-family="Times,serif" font-size="14.00" fill="#000000">pw=0.0</text>
<polyline fill="none" stroke="#000000" points="697.5,-352.5 840.3818,-352.5 "/>
<text text-anchor="middle" x="768.9409" y="-335.8" font-family="Times,serif" font-size="14.00" fill="#000000">pm=0.0</text>
<polyline fill="none" stroke="#000000" points="697.5,-327.5 840.3818,-327.5 "/>
<text text-anchor="middle" x="768.9409" y="-310.8" font-family="Times,serif" font-size="14.00" fill="#000000">as=[3169, 7153, 9678]</text>
</g>
<!-- name1 -->
<g id="node2" class="node">
<title>name1</title>
<polygon fill="none" stroke="#000000" points="262.5,-151.5 262.5,-251.5 391.5,-251.5 391.5,-151.5 262.5,-151.5"/>
<text text-anchor="middle" x="326.9409" y="-234.8" font-family="Times,serif" font-size="14.00" fill="#000000">pe=0.0</text>
<polyline fill="none" stroke="#000000" points="262.5,-226.5 391.3818,-226.5 "/>
<text text-anchor="middle" x="326.9409" y="-209.8" font-family="Times,serif" font-size="14.00" fill="#000000">pw=0.0</text>
<polyline fill="none" stroke="#000000" points="262.5,-201.5 391.3818,-201.5 "/>
<text text-anchor="middle" x="326.9409" y="-184.8" font-family="Times,serif" font-size="14.00" fill="#000000">pm=0.0</text>
<polyline fill="none" stroke="#000000" points="262.5,-176.5 391.3818,-176.5 "/>
<text text-anchor="middle" x="326.9409" y="-159.8" font-family="Times,serif" font-size="14.00" fill="#000000">as=[941, 1623, 605]</text>
</g>
<!-- name0&#45;&gt;name1 -->
<g id="edge1" class="edge">
<title>name0&#45;&gt;name1</title>
<path fill="none" stroke="#000000" d="M697.4938,-328.0714C616.0587,-300.2508 483.642,-255.0134 401.1304,-226.8251"/>
<polygon fill="#000000" stroke="#000000" points="402.165,-223.48 391.5705,-223.5591 399.902,-230.1041 402.165,-223.48"/>
<text text-anchor="middle" x="565.5" y="-272.8" font-family="Times,serif" font-size="14.00" fill="#000000">0</text>
</g>
<!-- name5 -->
<g id="node3" class="node">
<title>name5</title>
<polygon fill="none" stroke="#000000" points="701,-151.5 701,-251.5 837,-251.5 837,-151.5 701,-151.5"/>
<text text-anchor="middle" x="768.9409" y="-234.8" font-family="Times,serif" font-size="14.00" fill="#000000">pe=0.0</text>
<polyline fill="none" stroke="#000000" points="701,-226.5 836.8818,-226.5 "/>
<text text-anchor="middle" x="768.9409" y="-209.8" font-family="Times,serif" font-size="14.00" fill="#000000">pw=0.0</text>
<polyline fill="none" stroke="#000000" points="701,-201.5 836.8818,-201.5 "/>
<text text-anchor="middle" x="768.9409" y="-184.8" font-family="Times,serif" font-size="14.00" fill="#000000">pm=0.0</text>
<polyline fill="none" stroke="#000000" points="701,-176.5 836.8818,-176.5 "/>
<text text-anchor="middle" x="768.9409" y="-159.8" font-family="Times,serif" font-size="14.00" fill="#000000">as=[733, 3752, 2667]</text>
</g>
<!-- name0&#45;&gt;name5 -->
<g id="edge2" class="edge">
<title>name0&#45;&gt;name5</title>
<path fill="none" stroke="#000000" d="M769,-302.2192C769,-289.2296 769,-275.1148 769,-261.6762"/>
<polygon fill="#000000" stroke="#000000" points="772.5001,-261.5612 769,-251.5612 765.5001,-261.5613 772.5001,-261.5612"/>
<text text-anchor="middle" x="772.5" y="-272.8" font-family="Times,serif" font-size="14.00" fill="#000000">1</text>
</g>
<!-- name9 -->
<g id="node4" class="node">
<title>name9</title>
<polygon fill="none" stroke="#000000" points="1174.5,-151.5 1174.5,-251.5 1317.5,-251.5 1317.5,-151.5 1174.5,-151.5"/>
<text text-anchor="middle" x="1245.9409" y="-234.8" font-family="Times,serif" font-size="14.00" fill="#000000">pe=0.0</text>
<polyline fill="none" stroke="#000000" points="1174.5,-226.5 1317.3818,-226.5 "/>
<text text-anchor="middle" x="1245.9409" y="-209.8" font-family="Times,serif" font-size="14.00" fill="#000000">pw=0.0</text>
<polyline fill="none" stroke="#000000" points="1174.5,-201.5 1317.3818,-201.5 "/>
<text text-anchor="middle" x="1245.9409" y="-184.8" font-family="Times,serif" font-size="14.00" fill="#000000">pm=0.0</text>
<polyline fill="none" stroke="#000000" points="1174.5,-176.5 1317.3818,-176.5 "/>
<text text-anchor="middle" x="1245.9409" y="-159.8" font-family="Times,serif" font-size="14.00" fill="#000000">as=[1495, 1777, 6406]</text>
</g>
<!-- name0&#45;&gt;name9 -->
<g id="edge3" class="edge">
<title>name0&#45;&gt;name9</title>
<path fill="none" stroke="#000000" d="M840.6698,-329.8121C927.4938,-302.3269 1073.4151,-256.1338 1164.4562,-227.3137"/>
<polygon fill="#000000" stroke="#000000" points="1165.7065,-230.5891 1174.1839,-224.2342 1163.5939,-223.9155 1165.7065,-230.5891"/>
<text text-anchor="middle" x="1025.5" y="-272.8" font-family="Times,serif" font-size="14.00" fill="#000000">2</text>
</g>
<!-- name2 -->
<g id="node5" class="node">
<title>name2</title>
<polygon fill="none" stroke="#000000" points="0,-.5 0,-100.5 122,-100.5 122,-.5 0,-.5"/>
<text text-anchor="middle" x="60.9409" y="-83.8" font-family="Times,serif" font-size="14.00" fill="#000000">pe=0.0</text>
<polyline fill="none" stroke="#000000" points="0,-75.5 121.8818,-75.5 "/>
<text text-anchor="middle" x="60.9409" y="-58.8" font-family="Times,serif" font-size="14.00" fill="#000000">pw=0.0</text>
<polyline fill="none" stroke="#000000" points="0,-50.5 121.8818,-50.5 "/>
<text text-anchor="middle" x="60.9409" y="-33.8" font-family="Times,serif" font-size="14.00" fill="#000000">pm=0.0</text>
<polyline fill="none" stroke="#000000" points="0,-25.5 121.8818,-25.5 "/>
<text text-anchor="middle" x="60.9409" y="-8.8" font-family="Times,serif" font-size="14.00" fill="#000000">as=[261, 579, 101]</text>
</g>
<!-- name1&#45;&gt;name2 -->
<g id="edge4" class="edge">
<title>name1&#45;&gt;name2</title>
<path fill="none" stroke="#000000" d="M262.1086,-171.2924C223.2778,-152.4685 173.3971,-126.9578 131,-101 130.9081,-100.9438 130.8163,-100.8874 130.7243,-100.831"/>
<polygon fill="#000000" stroke="#000000" points="132.424,-97.7648 122.1015,-95.3779 128.6825,-103.681 132.424,-97.7648"/>
<text text-anchor="middle" x="187.5" y="-121.8" font-family="Times,serif" font-size="14.00" fill="#000000">0</text>
</g>
<!-- name3 -->
<g id="node6" class="node">
<title>name3</title>
<polygon fill="none" stroke="#000000" points="139.9194,-.5 139.9194,-100.5 336.0806,-100.5 336.0806,-.5 139.9194,-.5"/>
<text text-anchor="middle" x="238" y="-83.8" font-family="Times,serif" font-size="14.00" fill="#000000">pe=4.007870223102264e&#45;298</text>
<polyline fill="none" stroke="#000000" points="139.9194,-75.5 336.0806,-75.5 "/>
<text text-anchor="middle" x="238" y="-58.8" font-family="Times,serif" font-size="14.00" fill="#000000">pw=3.7575558948045345e&#45;298</text>
<polyline fill="none" stroke="#000000" points="139.9194,-50.5 336.0806,-50.5 "/>
<text text-anchor="middle" x="238" y="-33.8" font-family="Times,serif" font-size="14.00" fill="#000000">pm=3.0059026673266983e&#45;298</text>
<polyline fill="none" stroke="#000000" points="139.9194,-25.5 336.0806,-25.5 "/>
<text text-anchor="middle" x="238" y="-8.8" font-family="Times,serif" font-size="14.00" fill="#000000">as=[225, 425, 83]</text>
</g>
<!-- name1&#45;&gt;name3 -->
<g id="edge5" class="edge">
<title>name1&#45;&gt;name3</title>
<path fill="none" stroke="#000000" d="M297.3643,-151.2192C289.483,-137.8476 280.8989,-123.2835 272.7703,-109.4922"/>
<polygon fill="#000000" stroke="#000000" points="275.5993,-107.399 267.5063,-100.5612 269.5688,-110.9534 275.5993,-107.399"/>
<text text-anchor="middle" x="289.5" y="-121.8" font-family="Times,serif" font-size="14.00" fill="#000000">1</text>
</g>
<!-- name4 -->
<g id="node7" class="node">
<title>name4</title>
<polygon fill="none" stroke="#000000" points="354,-.5 354,-100.5 476,-100.5 476,-.5 354,-.5"/>
<text text-anchor="middle" x="414.9409" y="-83.8" font-family="Times,serif" font-size="14.00" fill="#000000">pe=0.0</text>
<polyline fill="none" stroke="#000000" points="354,-75.5 475.8818,-75.5 "/>
<text text-anchor="middle" x="414.9409" y="-58.8" font-family="Times,serif" font-size="14.00" fill="#000000">pw=0.0</text>
<polyline fill="none" stroke="#000000" points="354,-50.5 475.8818,-50.5 "/>
<text text-anchor="middle" x="414.9409" y="-33.8" font-family="Times,serif" font-size="14.00" fill="#000000">pm=0.0</text>
<polyline fill="none" stroke="#000000" points="354,-25.5 475.8818,-25.5 "/>
<text text-anchor="middle" x="414.9409" y="-8.8" font-family="Times,serif" font-size="14.00" fill="#000000">as=[455, 619, 421]</text>
</g>
<!-- name1&#45;&gt;name4 -->
<g id="edge6" class="edge">
<title>name1&#45;&gt;name4</title>
<path fill="none" stroke="#000000" d="M356.3027,-151.2192C364.0955,-137.8476 372.5831,-123.2835 380.6204,-109.4922"/>
<polygon fill="#000000" stroke="#000000" points="383.814,-110.9634 385.8252,-100.5612 377.7661,-107.4388 383.814,-110.9634"/>
<text text-anchor="middle" x="377.5" y="-121.8" font-family="Times,serif" font-size="14.00" fill="#000000">2</text>
</g>
<!-- name6 -->
<g id="node8" class="node">
<title>name6</title>
<polygon fill="none" stroke="#000000" points="494,-.5 494,-100.5 686,-100.5 686,-.5 494,-.5"/>
<text text-anchor="middle" x="589.8862" y="-83.8" font-family="Times,serif" font-size="14.00" fill="#000000">pe=0.0003081664098613251</text>
<polyline fill="none" stroke="#000000" points="494,-75.5 685.7725,-75.5 "/>
<text text-anchor="middle" x="589.8862" y="-58.8" font-family="Times,serif" font-size="14.00" fill="#000000">pw=0.00023112491546647778</text>
<polyline fill="none" stroke="#000000" points="494,-50.5 685.7725,-50.5 "/>
<text text-anchor="middle" x="589.8862" y="-33.8" font-family="Times,serif" font-size="14.00" fill="#000000">pm=0.00023112480739599384</text>
<polyline fill="none" stroke="#000000" points="494,-25.5 685.7725,-25.5 "/>
<text text-anchor="middle" x="589.8862" y="-8.8" font-family="Times,serif" font-size="14.00" fill="#000000">as=[0, 1622, 0]</text>
</g>
<!-- name5&#45;&gt;name6 -->
<g id="edge7" class="edge">
<title>name5&#45;&gt;name6</title>
<path fill="none" stroke="#000000" d="M709.3956,-151.2192C692.6387,-137.0835 674.3021,-121.6152 657.138,-107.1359"/>
<polygon fill="#000000" stroke="#000000" points="659.2445,-104.334 649.3441,-100.5612 654.7309,-109.6845 659.2445,-104.334"/>
<text text-anchor="middle" x="688.5" y="-121.8" font-family="Times,serif" font-size="14.00" fill="#000000">0</text>
</g>
<!-- name7 -->
<g id="node9" class="node">
<title>name7</title>
<polygon fill="none" stroke="#000000" points="704.5,-.5 704.5,-100.5 833.5,-100.5 833.5,-.5 704.5,-.5"/>
<text text-anchor="middle" x="768.9409" y="-83.8" font-family="Times,serif" font-size="14.00" fill="#000000">pe=0.0</text>
<polyline fill="none" stroke="#000000" points="704.5,-75.5 833.3818,-75.5 "/>
<text text-anchor="middle" x="768.9409" y="-58.8" font-family="Times,serif" font-size="14.00" fill="#000000">pw=0.0</text>
<polyline fill="none" stroke="#000000" points="704.5,-50.5 833.3818,-50.5 "/>
<text text-anchor="middle" x="768.9409" y="-33.8" font-family="Times,serif" font-size="14.00" fill="#000000">pm=0.0</text>
<polyline fill="none" stroke="#000000" points="704.5,-25.5 833.3818,-25.5 "/>
<text text-anchor="middle" x="768.9409" y="-8.8" font-family="Times,serif" font-size="14.00" fill="#000000">as=[733, 352, 2667]</text>
</g>
<!-- name5&#45;&gt;name7 -->
<g id="edge8" class="edge">
<title>name5&#45;&gt;name7</title>
<path fill="none" stroke="#000000" d="M769,-151.2192C769,-138.2296 769,-124.1148 769,-110.6762"/>
<polygon fill="#000000" stroke="#000000" points="772.5001,-110.5612 769,-100.5612 765.5001,-110.5613 772.5001,-110.5612"/>
<text text-anchor="middle" x="772.5" y="-121.8" font-family="Times,serif" font-size="14.00" fill="#000000">1</text>
</g>
<!-- name8 -->
<g id="node10" class="node">
<title>name8</title>
<polygon fill="none" stroke="#000000" points="852,-.5 852,-100.5 1040,-100.5 1040,-.5 852,-.5"/>
<text text-anchor="middle" x="945.8047" y="-83.8" font-family="Times,serif" font-size="14.00" fill="#000000">pe=0.00028129395218002813</text>
<polyline fill="none" stroke="#000000" points="852,-75.5 1039.6094,-75.5 "/>
<text text-anchor="middle" x="945.8047" y="-58.8" font-family="Times,serif" font-size="14.00" fill="#000000">pw=0.0002110469504165986</text>
<polyline fill="none" stroke="#000000" points="852,-50.5 1039.6094,-50.5 "/>
<text text-anchor="middle" x="945.8047" y="-33.8" font-family="Times,serif" font-size="14.00" fill="#000000">pm=0.0002109704641350211</text>
<polyline fill="none" stroke="#000000" points="852,-25.5 1039.6094,-25.5 "/>
<text text-anchor="middle" x="945.8047" y="-8.8" font-family="Times,serif" font-size="14.00" fill="#000000">as=[0, 1777, 0]</text>
</g>
<!-- name5&#45;&gt;name8 -->
<g id="edge9" class="edge">
<title>name5&#45;&gt;name8</title>
<path fill="none" stroke="#000000" d="M827.9384,-151.2192C844.5081,-137.0835 862.6398,-121.6152 879.6122,-107.1359"/>
<polygon fill="#000000" stroke="#000000" points="881.9828,-109.7142 887.3189,-100.5612 877.4396,-104.3888 881.9828,-109.7142"/>
<text text-anchor="middle" x="866.5" y="-121.8" font-family="Times,serif" font-size="14.00" fill="#000000">2</text>
</g>
<!-- name10 -->
<g id="node11" class="node">
<title>name10</title>
<polygon fill="none" stroke="#000000" points="1058,-.5 1058,-100.5 1254,-100.5 1254,-.5 1058,-.5"/>
<text text-anchor="middle" x="1155.5679" y="-83.8" font-family="Times,serif" font-size="14.00" fill="#000000">pe=1.882381387721581e&#45;213</text>
<polyline fill="none" stroke="#000000" points="1058,-75.5 1253.1357,-75.5 "/>
<text text-anchor="middle" x="1155.5679" y="-58.8" font-family="Times,serif" font-size="14.00" fill="#000000">pw=1.4119413217020312e&#45;213</text>
<polyline fill="none" stroke="#000000" points="1058,-50.5 1253.1357,-50.5 "/>
<text text-anchor="middle" x="1155.5679" y="-33.8" font-family="Times,serif" font-size="14.00" fill="#000000">pm=1.4117860407911856e&#45;213</text>
<polyline fill="none" stroke="#000000" points="1058,-25.5 1253.1357,-25.5 "/>
<text text-anchor="middle" x="1155.5679" y="-8.8" font-family="Times,serif" font-size="14.00" fill="#000000">as=[122, 424, 59]</text>
</g>
<!-- name9&#45;&gt;name10 -->
<g id="edge10" class="edge">
<title>name9&#45;&gt;name10</title>
<path fill="none" stroke="#000000" d="M1216.0313,-151.2192C1208.0615,-137.8476 1199.3809,-123.2835 1191.1609,-109.4922"/>
<polygon fill="#000000" stroke="#000000" points="1193.9642,-107.3593 1185.8378,-100.5612 1187.9512,-110.9432 1193.9642,-107.3593"/>
<text text-anchor="middle" x="1207.5" y="-121.8" font-family="Times,serif" font-size="14.00" fill="#000000">0</text>
</g>
<!-- name11 -->
<g id="node12" class="node">
<title>name11</title>
<polygon fill="none" stroke="#000000" points="1272.5,-.5 1272.5,-100.5 1401.5,-100.5 1401.5,-.5 1272.5,-.5"/>
<text text-anchor="middle" x="1336.9409" y="-83.8" font-family="Times,serif" font-size="14.00" fill="#000000">pe=0.0</text>
<polyline fill="none" stroke="#000000" points="1272.5,-75.5 1401.3818,-75.5 "/>
<text text-anchor="middle" x="1336.9409" y="-58.8" font-family="Times,serif" font-size="14.00" fill="#000000">pw=0.0</text>
<polyline fill="none" stroke="#000000" points="1272.5,-50.5 1401.3818,-50.5 "/>
<text text-anchor="middle" x="1336.9409" y="-33.8" font-family="Times,serif" font-size="14.00" fill="#000000">pm=0.0</text>
<polyline fill="none" stroke="#000000" points="1272.5,-25.5 1401.3818,-25.5 "/>
<text text-anchor="middle" x="1336.9409" y="-8.8" font-family="Times,serif" font-size="14.00" fill="#000000">as=[753, 1353, 561]</text>
</g>
<!-- name9&#45;&gt;name11 -->
<g id="edge11" class="edge">
<title>name9&#45;&gt;name11</title>
<path fill="none" stroke="#000000" d="M1276.3017,-151.2192C1284.3601,-137.8476 1293.1371,-123.2835 1301.4484,-109.4922"/>
<polygon fill="#000000" stroke="#000000" points="1304.6667,-110.9328 1306.8306,-100.5612 1298.6712,-107.3196 1304.6667,-110.9328"/>
<text text-anchor="middle" x="1298.5" y="-121.8" font-family="Times,serif" font-size="14.00" fill="#000000">1</text>
</g>
<!-- name12 -->
<g id="node13" class="node">
<title>name12</title>
<polygon fill="none" stroke="#000000" points="1419.5,-.5 1419.5,-100.5 1534.5,-100.5 1534.5,-.5 1419.5,-.5"/>
<text text-anchor="middle" x="1476.9409" y="-83.8" font-family="Times,serif" font-size="14.00" fill="#000000">pe=0.0</text>
<polyline fill="none" stroke="#000000" points="1419.5,-75.5 1534.3818,-75.5 "/>
<text text-anchor="middle" x="1476.9409" y="-58.8" font-family="Times,serif" font-size="14.00" fill="#000000">pw=0.0</text>
<polyline fill="none" stroke="#000000" points="1419.5,-50.5 1534.3818,-50.5 "/>
<text text-anchor="middle" x="1476.9409" y="-33.8" font-family="Times,serif" font-size="14.00" fill="#000000">pm=0.0</text>
<polyline fill="none" stroke="#000000" points="1419.5,-25.5 1534.3818,-25.5 "/>
<text text-anchor="middle" x="1476.9409" y="-8.8" font-family="Times,serif" font-size="14.00" fill="#000000">as=[620, 0, 5786]</text>
</g>
<!-- name9&#45;&gt;name12 -->
<g id="edge12" class="edge">
<title>name9&#45;&gt;name12</title>
<path fill="none" stroke="#000000" d="M1317.5784,-159.6779C1346.6577,-142.1626 1380.3286,-121.205 1410,-101 1410.2822,-100.8078 1410.5648,-100.615 1410.8479,-100.4214"/>
<polygon fill="#000000" stroke="#000000" points="1412.9391,-103.2302 1419.1443,-94.6427 1408.9382,-97.4862 1412.9391,-103.2302"/>
<text text-anchor="middle" x="1383.5" y="-121.8" font-family="Times,serif" font-size="14.00" fill="#000000">2</text>
</g>
<!-- name0_gv1 -->
<g id="node14" class="node">
<title>name0_gv1</title>
<polygon fill="none" stroke="#000000" points="2232.5,-302.5 2232.5,-402.5 2375.5,-402.5 2375.5,-302.5 2232.5,-302.5"/>
<text text-anchor="middle" x="2303.9409" y="-385.8" font-family="Times,serif" font-size="14.00" fill="#000000">pe=0.0</text>
<polyline fill="none" stroke="#000000" points="2232.5,-377.5 2375.3818,-377.5 "/>
<text text-anchor="middle" x="2303.9409" y="-360.8" font-family="Times,serif" font-size="14.00" fill="#000000">pw=0.0</text>
<polyline fill="none" stroke="#000000" points="2232.5,-352.5 2375.3818,-352.5 "/>
<text text-anchor="middle" x="2303.9409" y="-335.8" font-family="Times,serif" font-size="14.00" fill="#000000">pm=0.0</text>
<polyline fill="none" stroke="#000000" points="2232.5,-327.5 2375.3818,-327.5 "/>
<text text-anchor="middle" x="2303.9409" y="-310.8" font-family="Times,serif" font-size="14.00" fill="#000000">as=[3323, 7422, 9255]</text>
</g>
<!-- name1_gv1 -->
<g id="node15" class="node">
<title>name1_gv1</title>
<polygon fill="none" stroke="#000000" points="1801,-151.5 1801,-251.5 1937,-251.5 1937,-151.5 1801,-151.5"/>
<text text-anchor="middle" x="1868.9409" y="-234.8" font-family="Times,serif" font-size="14.00" fill="#000000">pe=0.0</text>
<polyline fill="none" stroke="#000000" points="1801,-226.5 1936.8818,-226.5 "/>
<text text-anchor="middle" x="1868.9409" y="-209.8" font-family="Times,serif" font-size="14.00" fill="#000000">pw=0.0</text>
<polyline fill="none" stroke="#000000" points="1801,-201.5 1936.8818,-201.5 "/>
<text text-anchor="middle" x="1868.9409" y="-184.8" font-family="Times,serif" font-size="14.00" fill="#000000">pm=0.0</text>
<polyline fill="none" stroke="#000000" points="1801,-176.5 1936.8818,-176.5 "/>
<text text-anchor="middle" x="1868.9409" y="-159.8" font-family="Times,serif" font-size="14.00" fill="#000000">as=[1052, 1672, 599]</text>
</g>
<!-- name0_gv1&#45;&gt;name1_gv1 -->
<g id="edge13" class="edge">
<title>name0_gv1&#45;&gt;name1_gv1</title>
<path fill="none" stroke="#000000" d="M2232.1686,-327.5654C2153.559,-300.278 2027.9657,-256.6812 1946.9969,-228.5748"/>
<polygon fill="#000000" stroke="#000000" points="1947.9448,-225.199 1937.35,-225.2261 1945.6492,-231.8119 1947.9448,-225.199"/>
<text text-anchor="middle" x="2103.5" y="-272.8" font-family="Times,serif" font-size="14.00" fill="#000000">0</text>
</g>
<!-- name5_gv1 -->
<g id="node16" class="node">
<title>name5_gv1</title>
<polygon fill="none" stroke="#000000" points="2236,-151.5 2236,-251.5 2372,-251.5 2372,-151.5 2236,-151.5"/>
<text text-anchor="middle" x="2303.9409" y="-234.8" font-family="Times,serif" font-size="14.00" fill="#000000">pe=0.0</text>
<polyline fill="none" stroke="#000000" points="2236,-226.5 2371.8818,-226.5 "/>
<text text-anchor="middle" x="2303.9409" y="-209.8" font-family="Times,serif" font-size="14.00" fill="#000000">pw=0.0</text>
<polyline fill="none" stroke="#000000" points="2236,-201.5 2371.8818,-201.5 "/>
<text text-anchor="middle" x="2303.9409" y="-184.8" font-family="Times,serif" font-size="14.00" fill="#000000">pm=0.0</text>
<polyline fill="none" stroke="#000000" points="2236,-176.5 2371.8818,-176.5 "/>
<text text-anchor="middle" x="2303.9409" y="-159.8" font-family="Times,serif" font-size="14.00" fill="#000000">as=[788, 3906, 2727]</text>
</g>
<!-- name0_gv1&#45;&gt;name5_gv1 -->
<g id="edge14" class="edge">
<title>name0_gv1&#45;&gt;name5_gv1</title>
<path fill="none" stroke="#000000" d="M2304,-302.2192C2304,-289.2296 2304,-275.1148 2304,-261.6762"/>
<polygon fill="#000000" stroke="#000000" points="2307.5001,-261.5612 2304,-251.5612 2300.5001,-261.5613 2307.5001,-261.5612"/>
<text text-anchor="middle" x="2307.5" y="-272.8" font-family="Times,serif" font-size="14.00" fill="#000000">1</text>
</g>
<!-- name9_gv1 -->
<g id="node17" class="node">
<title>name9_gv1</title>
<polygon fill="none" stroke="#000000" points="2706.5,-151.5 2706.5,-251.5 2849.5,-251.5 2849.5,-151.5 2706.5,-151.5"/>
<text text-anchor="middle" x="2777.9409" y="-234.8" font-family="Times,serif" font-size="14.00" fill="#000000">pe=0.0</text>
<polyline fill="none" stroke="#000000" points="2706.5,-226.5 2849.3818,-226.5 "/>
<text text-anchor="middle" x="2777.9409" y="-209.8" font-family="Times,serif" font-size="14.00" fill="#000000">pw=0.0</text>
<polyline fill="none" stroke="#000000" points="2706.5,-201.5 2849.3818,-201.5 "/>
<text text-anchor="middle" x="2777.9409" y="-184.8" font-family="Times,serif" font-size="14.00" fill="#000000">pm=0.0</text>
<polyline fill="none" stroke="#000000" points="2706.5,-176.5 2849.3818,-176.5 "/>
<text text-anchor="middle" x="2777.9409" y="-159.8" font-family="Times,serif" font-size="14.00" fill="#000000">as=[1483, 1844, 5928]</text>
</g>
<!-- name0_gv1&#45;&gt;name9_gv1 -->
<g id="edge15" class="edge">
<title>name0_gv1&#45;&gt;name9_gv1</title>
<path fill="none" stroke="#000000" d="M2375.7329,-329.6484C2462.0066,-302.1645 2606.4616,-256.1462 2696.7645,-227.3788"/>
<polygon fill="#000000" stroke="#000000" points="2697.9487,-230.675 2706.4145,-224.3047 2695.8239,-224.0052 2697.9487,-230.675"/>
<text text-anchor="middle" x="2559.5" y="-272.8" font-family="Times,serif" font-size="14.00" fill="#000000">2</text>
</g>
<!-- name2_gv1 -->
<g id="node18" class="node">
<title>name2_gv1</title>
<polygon fill="none" stroke="#000000" points="1553,-.5 1553,-100.5 1675,-100.5 1675,-.5 1553,-.5"/>
<text text-anchor="middle" x="1613.6846" y="-83.8" font-family="Times,serif" font-size="14.00" fill="#000000">pe=0.0</text>
<polyline fill="none" stroke="#000000" points="1553,-75.5 1674.3691,-75.5 "/>
<text text-anchor="middle" x="1613.6846" y="-58.8" font-family="Times,serif" font-size="14.00" fill="#000000">pw=0.0</text>
<polyline fill="none" stroke="#000000" points="1553,-50.5 1674.3691,-50.5 "/>
<text text-anchor="middle" x="1613.6846" y="-33.8" font-family="Times,serif" font-size="14.00" fill="#000000">pm=0.0</text>
<polyline fill="none" stroke="#000000" points="1553,-25.5 1674.3691,-25.5 "/>
<text text-anchor="middle" x="1613.6846" y="-8.8" font-family="Times,serif" font-size="14.00" fill="#000000">as=[314, 620, 118]</text>
</g>
<!-- name1_gv1&#45;&gt;name2_gv1 -->
<g id="edge16" class="edge">
<title>name1_gv1&#45;&gt;name2_gv1</title>
<path fill="none" stroke="#000000" d="M1800.5934,-167.0011C1765.1769,-148.4773 1721.5957,-124.6389 1684,-101 1683.9088,-100.9427 1683.8176,-100.8853 1683.7263,-100.8278"/>
<polygon fill="#000000" stroke="#000000" points="1685.4544,-97.7773 1675.1553,-95.2911 1681.6561,-103.6572 1685.4544,-97.7773"/>
<text text-anchor="middle" x="1737.5" y="-121.8" font-family="Times,serif" font-size="14.00" fill="#000000">0</text>
</g>
<!-- name3_gv1 -->
<g id="node19" class="node">
<title>name3_gv1</title>
<polygon fill="none" stroke="#000000" points="1693.3091,-.5 1693.3091,-100.5 1874.6909,-100.5 1874.6909,-.5 1693.3091,-.5"/>
<text text-anchor="middle" x="1784" y="-83.8" font-family="Times,serif" font-size="14.00" fill="#000000">pe=2.78101974086293e&#45;310</text>
<polyline fill="none" stroke="#000000" points="1693.3091,-75.5 1874.6909,-75.5 "/>
<text text-anchor="middle" x="1784" y="-58.8" font-family="Times,serif" font-size="14.00" fill="#000000">pw=2.60722485006524e&#45;310</text>
<polyline fill="none" stroke="#000000" points="1693.3091,-50.5 1874.6909,-50.5 "/>
<text text-anchor="middle" x="1784" y="-33.8" font-family="Times,serif" font-size="14.00" fill="#000000">pm=2.0857648056472e&#45;310</text>
<polyline fill="none" stroke="#000000" points="1693.3091,-25.5 1874.6909,-25.5 "/>
<text text-anchor="middle" x="1784" y="-8.8" font-family="Times,serif" font-size="14.00" fill="#000000">as=[278, 445, 65]</text>
</g>
<!-- name1_gv1&#45;&gt;name3_gv1 -->
<g id="edge17" class="edge">
<title>name1_gv1&#45;&gt;name3_gv1</title>
<path fill="none" stroke="#000000" d="M1840.6962,-151.2192C1833.1692,-137.8476 1824.9709,-123.2835 1817.2075,-109.4922"/>
<polygon fill="#000000" stroke="#000000" points="1820.1356,-107.5586 1812.1802,-100.5612 1814.0356,-110.9924 1820.1356,-107.5586"/>
<text text-anchor="middle" x="1833.5" y="-121.8" font-family="Times,serif" font-size="14.00" fill="#000000">1</text>
</g>
<!-- name4_gv1 -->
<g id="node20" class="node">
<title>name4_gv1</title>
<polygon fill="none" stroke="#000000" points="1893,-.5 1893,-100.5 2015,-100.5 2015,-.5 1893,-.5"/>
<text text-anchor="middle" x="1953.9409" y="-83.8" font-family="Times,serif" font-size="14.00" fill="#000000">pe=0.0</text>
<polyline fill="none" stroke="#000000" points="1893,-75.5 2014.8818,-75.5 "/>
<text text-anchor="middle" x="1953.9409" y="-58.8" font-family="Times,serif" font-size="14.00" fill="#000000">pw=0.0</text>
<polyline fill="none" stroke="#000000" points="1893,-50.5 2014.8818,-50.5 "/>
<text text-anchor="middle" x="1953.9409" y="-33.8" font-family="Times,serif" font-size="14.00" fill="#000000">pm=0.0</text>
<polyline fill="none" stroke="#000000" points="1893,-25.5 2014.8818,-25.5 "/>
<text text-anchor="middle" x="1953.9409" y="-8.8" font-family="Times,serif" font-size="14.00" fill="#000000">as=[460, 607, 416]</text>
</g>
<!-- name1_gv1&#45;&gt;name4_gv1 -->
<g id="edge18" class="edge">
<title>name1_gv1&#45;&gt;name4_gv1</title>
<path fill="none" stroke="#000000" d="M1897.3038,-151.2192C1904.8308,-137.8476 1913.0291,-123.2835 1920.7925,-109.4922"/>
<polygon fill="#000000" stroke="#000000" points="1923.9644,-110.9924 1925.8198,-100.5612 1917.8644,-107.5586 1923.9644,-110.9924"/>
<text text-anchor="middle" x="1918.5" y="-121.8" font-family="Times,serif" font-size="14.00" fill="#000000">2</text>
</g>
<!-- name6_gv1 -->
<g id="node21" class="node">
<title>name6_gv1</title>
<polygon fill="none" stroke="#000000" points="2033,-.5 2033,-100.5 2221,-100.5 2221,-.5 2033,-.5"/>
<text text-anchor="middle" x="2126.8047" y="-83.8" font-family="Times,serif" font-size="14.00" fill="#000000">pe=0.00029895366218236175</text>
<polyline fill="none" stroke="#000000" points="2033,-75.5 2220.6094,-75.5 "/>
<text text-anchor="middle" x="2126.8047" y="-58.8" font-family="Times,serif" font-size="14.00" fill="#000000">pw=0.0002242153447696423</text>
<polyline fill="none" stroke="#000000" points="2033,-50.5 2220.6094,-50.5 "/>
<text text-anchor="middle" x="2126.8047" y="-33.8" font-family="Times,serif" font-size="14.00" fill="#000000">pm=0.0002242152466367713</text>
<polyline fill="none" stroke="#000000" points="2033,-25.5 2220.6094,-25.5 "/>
<text text-anchor="middle" x="2126.8047" y="-8.8" font-family="Times,serif" font-size="14.00" fill="#000000">as=[0, 1672, 0]</text>
</g>
<!-- name5_gv1&#45;&gt;name6_gv1 -->
<g id="edge19" class="edge">
<title>name5_gv1&#45;&gt;name6_gv1</title>
<path fill="none" stroke="#000000" d="M2245.0616,-151.2192C2228.4919,-137.0835 2210.3602,-121.6152 2193.3878,-107.1359"/>
<polygon fill="#000000" stroke="#000000" points="2195.5604,-104.3888 2185.6811,-100.5612 2191.0172,-109.7142 2195.5604,-104.3888"/>
<text text-anchor="middle" x="2224.5" y="-121.8" font-family="Times,serif" font-size="14.00" fill="#000000">0</text>
</g>
<!-- name7_gv1 -->
<g id="node22" class="node">
<title>name7_gv1</title>
<polygon fill="none" stroke="#000000" points="2239.5,-.5 2239.5,-100.5 2368.5,-100.5 2368.5,-.5 2239.5,-.5"/>
<text text-anchor="middle" x="2303.9409" y="-83.8" font-family="Times,serif" font-size="14.00" fill="#000000">pe=0.0</text>
<polyline fill="none" stroke="#000000" points="2239.5,-75.5 2368.3818,-75.5 "/>
<text text-anchor="middle" x="2303.9409" y="-58.8" font-family="Times,serif" font-size="14.00" fill="#000000">pw=0.0</text>
<polyline fill="none" stroke="#000000" points="2239.5,-50.5 2368.3818,-50.5 "/>
<text text-anchor="middle" x="2303.9409" y="-33.8" font-family="Times,serif" font-size="14.00" fill="#000000">pm=0.0</text>
<polyline fill="none" stroke="#000000" points="2239.5,-25.5 2368.3818,-25.5 "/>
<text text-anchor="middle" x="2303.9409" y="-8.8" font-family="Times,serif" font-size="14.00" fill="#000000">as=[788, 391, 2727]</text>
</g>
<!-- name5_gv1&#45;&gt;name7_gv1 -->
<g id="edge20" class="edge">
<title>name5_gv1&#45;&gt;name7_gv1</title>
<path fill="none" stroke="#000000" d="M2304,-151.2192C2304,-138.2296 2304,-124.1148 2304,-110.6762"/>
<polygon fill="#000000" stroke="#000000" points="2307.5001,-110.5612 2304,-100.5612 2300.5001,-110.5613 2307.5001,-110.5612"/>
<text text-anchor="middle" x="2307.5" y="-121.8" font-family="Times,serif" font-size="14.00" fill="#000000">1</text>
</g>
<!-- name8_gv1 -->
<g id="node23" class="node">
<title>name8_gv1</title>
<polygon fill="none" stroke="#000000" points="2387,-.5 2387,-100.5 2575,-100.5 2575,-.5 2387,-.5"/>
<text text-anchor="middle" x="2480.8047" y="-83.8" font-family="Times,serif" font-size="14.00" fill="#000000">pe=0.00027122321670735016</text>
<polyline fill="none" stroke="#000000" points="2387,-75.5 2574.6094,-75.5 "/>
<text text-anchor="middle" x="2480.8047" y="-58.8" font-family="Times,serif" font-size="14.00" fill="#000000">pw=0.0002034930198809929</text>
<polyline fill="none" stroke="#000000" points="2387,-50.5 2574.6094,-50.5 "/>
<text text-anchor="middle" x="2480.8047" y="-33.8" font-family="Times,serif" font-size="14.00" fill="#000000">pm=0.0002034174125305126</text>
<polyline fill="none" stroke="#000000" points="2387,-25.5 2574.6094,-25.5 "/>
<text text-anchor="middle" x="2480.8047" y="-8.8" font-family="Times,serif" font-size="14.00" fill="#000000">as=[0, 1843, 0]</text>
</g>
<!-- name5_gv1&#45;&gt;name8_gv1 -->
<g id="edge21" class="edge">
<title>name5_gv1&#45;&gt;name8_gv1</title>
<path fill="none" stroke="#000000" d="M2362.9384,-151.2192C2379.5081,-137.0835 2397.6398,-121.6152 2414.6122,-107.1359"/>
<polygon fill="#000000" stroke="#000000" points="2416.9828,-109.7142 2422.3189,-100.5612 2412.4396,-104.3888 2416.9828,-109.7142"/>
<text text-anchor="middle" x="2401.5" y="-121.8" font-family="Times,serif" font-size="14.00" fill="#000000">2</text>
</g>
<!-- name10_gv1 -->
<g id="node24" class="node">
<title>name10_gv1</title>
<polygon fill="none" stroke="#000000" points="2593.2573,-.5 2593.2573,-100.5 2784.7427,-100.5 2784.7427,-.5 2593.2573,-.5"/>
<text text-anchor="middle" x="2689" y="-83.8" font-family="Times,serif" font-size="14.00" fill="#000000">pe=1.1565316939301417e&#45;219</text>
<polyline fill="none" stroke="#000000" points="2593.2573,-75.5 2784.7427,-75.5 "/>
<text text-anchor="middle" x="2689" y="-58.8" font-family="Times,serif" font-size="14.00" fill="#000000">pw=8.683271384822718e&#45;220</text>
<polyline fill="none" stroke="#000000" points="2593.2573,-50.5 2784.7427,-50.5 "/>
<text text-anchor="middle" x="2689" y="-33.8" font-family="Times,serif" font-size="14.00" fill="#000000">pm=8.673987704476063e&#45;220</text>
<polyline fill="none" stroke="#000000" points="2593.2573,-25.5 2784.7427,-25.5 "/>
<text text-anchor="middle" x="2689" y="-8.8" font-family="Times,serif" font-size="14.00" fill="#000000">as=[138, 403, 58]</text>
</g>
<!-- name9_gv1&#45;&gt;name10_gv1 -->
<g id="edge22" class="edge">
<title>name9_gv1&#45;&gt;name10_gv1</title>
<path fill="none" stroke="#000000" d="M2748.3643,-151.2192C2740.483,-137.8476 2731.8989,-123.2835 2723.7703,-109.4922"/>
<polygon fill="#000000" stroke="#000000" points="2726.5993,-107.399 2718.5063,-100.5612 2720.5688,-110.9534 2726.5993,-107.399"/>
<text text-anchor="middle" x="2740.5" y="-121.8" font-family="Times,serif" font-size="14.00" fill="#000000">0</text>
</g>
<!-- name11_gv1 -->
<g id="node25" class="node">
<title>name11_gv1</title>
<polygon fill="none" stroke="#000000" points="2802.5,-.5 2802.5,-100.5 2931.5,-100.5 2931.5,-.5 2802.5,-.5"/>
<text text-anchor="middle" x="2866.9409" y="-83.8" font-family="Times,serif" font-size="14.00" fill="#000000">pe=0.0</text>
<polyline fill="none" stroke="#000000" points="2802.5,-75.5 2931.3818,-75.5 "/>
<text text-anchor="middle" x="2866.9409" y="-58.8" font-family="Times,serif" font-size="14.00" fill="#000000">pw=0.0</text>
<polyline fill="none" stroke="#000000" points="2802.5,-50.5 2931.3818,-50.5 "/>
<text text-anchor="middle" x="2866.9409" y="-33.8" font-family="Times,serif" font-size="14.00" fill="#000000">pm=0.0</text>
<polyline fill="none" stroke="#000000" points="2802.5,-25.5 2931.3818,-25.5 "/>
<text text-anchor="middle" x="2866.9409" y="-8.8" font-family="Times,serif" font-size="14.00" fill="#000000">as=[744, 1441, 542]</text>
</g>
<!-- name9_gv1&#45;&gt;name11_gv1 -->
<g id="edge23" class="edge">
<title>name9_gv1&#45;&gt;name11_gv1</title>
<path fill="none" stroke="#000000" d="M2807.6357,-151.2192C2815.517,-137.8476 2824.1011,-123.2835 2832.2297,-109.4922"/>
<polygon fill="#000000" stroke="#000000" points="2835.4312,-110.9534 2837.4937,-100.5612 2829.4007,-107.399 2835.4312,-110.9534"/>
<text text-anchor="middle" x="2829.5" y="-121.8" font-family="Times,serif" font-size="14.00" fill="#000000">1</text>
</g>
<!-- name12_gv1 -->
<g id="node26" class="node">
<title>name12_gv1</title>
<polygon fill="none" stroke="#000000" points="2949.5,-.5 2949.5,-100.5 3064.5,-100.5 3064.5,-.5 2949.5,-.5"/>
<text text-anchor="middle" x="3006.9409" y="-83.8" font-family="Times,serif" font-size="14.00" fill="#000000">pe=0.0</text>
<polyline fill="none" stroke="#000000" points="2949.5,-75.5 3064.3818,-75.5 "/>
<text text-anchor="middle" x="3006.9409" y="-58.8" font-family="Times,serif" font-size="14.00" fill="#000000">pw=0.0</text>
<polyline fill="none" stroke="#000000" points="2949.5,-50.5 3064.3818,-50.5 "/>
<text text-anchor="middle" x="3006.9409" y="-33.8" font-family="Times,serif" font-size="14.00" fill="#000000">pm=0.0</text>
<polyline fill="none" stroke="#000000" points="2949.5,-25.5 3064.3818,-25.5 "/>
<text text-anchor="middle" x="3006.9409" y="-8.8" font-family="Times,serif" font-size="14.00" fill="#000000">as=[601, 0, 5327]</text>
</g>
<!-- name9_gv1&#45;&gt;name12_gv1 -->
<g id="edge24" class="edge">
<title>name9_gv1&#45;&gt;name12_gv1</title>
<path fill="none" stroke="#000000" d="M2849.8656,-158.8428C2878.3065,-141.4643 2911.0558,-120.8262 2940,-101 2940.3906,-100.7325 2940.782,-100.4636 2941.1742,-100.1935"/>
<polygon fill="#000000" stroke="#000000" points="2943.3177,-102.9653 2949.499,-94.3605 2939.3008,-97.2325 2943.3177,-102.9653"/>
<text text-anchor="middle" x="2913.5" y="-121.8" font-family="Times,serif" font-size="14.00" fill="#000000">2</text>
</g>
</g>
</svg>
