<?xml version="1.0" encoding="UTF-8" standalone="no"?>
<!DOCTYPE svg PUBLIC "-//W3C//DTD SVG 1.1//EN"
 "http://www.w3.org/Graphics/SVG/1.1/DTD/svg11.dtd">
<!-- Generated by graphviz version 2.40.1 (20161225.0304)
 -->
<!-- Title: root Pages: 1 -->
<svg width="3055pt" height="411pt"
 viewBox="0.00 0.00 3054.50 411.00" xmlns="http://www.w3.org/2000/svg" xmlns:xlink="http://www.w3.org/1999/xlink">
<g id="graph0" class="graph" transform="scale(1 1) rotate(0) translate(4 407)">
<title>root</title>
<polygon fill="#ffffff" stroke="transparent" points="-4,4 -4,-407 3050.5,-407 3050.5,4 -4,4"/>
<!-- name0 -->
<g id="node1" class="node">
<title>name0</title>
<polygon fill="none" stroke="#000000" points="663.5,-302.5 663.5,-402.5 806.5,-402.5 806.5,-302.5 663.5,-302.5"/>
<text text-anchor="middle" x="734.9409" y="-385.8" font-family="Times,serif" font-size="14.00" fill="#000000">pe=0.0</text>
<polyline fill="none" stroke="#000000" points="663.5,-377.5 806.3818,-377.5 "/>
<text text-anchor="middle" x="734.9409" y="-360.8" font-family="Times,serif" font-size="14.00" fill="#000000">pw=0.0</text>
<polyline fill="none" stroke="#000000" points="663.5,-352.5 806.3818,-352.5 "/>
<text text-anchor="middle" x="734.9409" y="-335.8" font-family="Times,serif" font-size="14.00" fill="#000000">pm=0.0</text>
<polyline fill="none" stroke="#000000" points="663.5,-327.5 806.3818,-327.5 "/>
<text text-anchor="middle" x="734.9409" y="-310.8" font-family="Times,serif" font-size="14.00" fill="#000000">as=[3341, 7225, 9434]</text>
</g>
<!-- name1 -->
<g id="node2" class="node">
<title>name1</title>
<polygon fill="none" stroke="#000000" points="233,-151.5 233,-251.5 369,-251.5 369,-151.5 233,-151.5"/>
<text text-anchor="middle" x="300.9409" y="-234.8" font-family="Times,serif" font-size="14.00" fill="#000000">pe=0.0</text>
<polyline fill="none" stroke="#000000" points="233,-226.5 368.8818,-226.5 "/>
<text text-anchor="middle" x="300.9409" y="-209.8" font-family="Times,serif" font-size="14.00" fill="#000000">pw=0.0</text>
<polyline fill="none" stroke="#000000" points="233,-201.5 368.8818,-201.5 "/>
<text text-anchor="middle" x="300.9409" y="-184.8" font-family="Times,serif" font-size="14.00" fill="#000000">pm=0.0</text>
<polyline fill="none" stroke="#000000" points="233,-176.5 368.8818,-176.5 "/>
<text text-anchor="middle" x="300.9409" y="-159.8" font-family="Times,serif" font-size="14.00" fill="#000000">as=[1030, 1682, 629]</text>
</g>
<!-- name0&#45;&gt;name1 -->
<g id="edge1" class="edge">
<title>name0&#45;&gt;name1</title>
<path fill="none" stroke="#000000" d="M663.3337,-327.5654C584.9049,-300.278 459.6003,-256.6812 378.8175,-228.5748"/>
<polygon fill="#000000" stroke="#000000" points="379.7877,-225.2066 369.1928,-225.2261 377.4874,-231.8178 379.7877,-225.2066"/>
<text text-anchor="middle" x="535.5" y="-272.8" font-family="Times,serif" font-size="14.00" fill="#000000">0</text>
</g>
<!-- name5 -->
<g id="node3" class="node">
<title>name5</title>
<polygon fill="none" stroke="#000000" points="667,-151.5 667,-251.5 803,-251.5 803,-151.5 667,-151.5"/>
<text text-anchor="middle" x="734.9409" y="-234.8" font-family="Times,serif" font-size="14.00" fill="#000000">pe=0.0</text>
<polyline fill="none" stroke="#000000" points="667,-226.5 802.8818,-226.5 "/>
<text text-anchor="middle" x="734.9409" y="-209.8" font-family="Times,serif" font-size="14.00" fill="#000000">pw=0.0</text>
<polyline fill="none" stroke="#000000" points="667,-201.5 802.8818,-201.5 "/>
<text text-anchor="middle" x="734.9409" y="-184.8" font-family="Times,serif" font-size="14.00" fill="#000000">pm=0.0</text>
<polyline fill="none" stroke="#000000" points="667,-176.5 802.8818,-176.5 "/>
<text text-anchor="middle" x="734.9409" y="-159.8" font-family="Times,serif" font-size="14.00" fill="#000000">as=[789, 3806, 2630]</text>
</g>
<!-- name0&#45;&gt;name5 -->
<g id="edge2" class="edge">
<title>name0&#45;&gt;name5</title>
<path fill="none" stroke="#000000" d="M735,-302.2192C735,-289.2296 735,-275.1148 735,-261.6762"/>
<polygon fill="#000000" stroke="#000000" points="738.5001,-261.5612 735,-251.5612 731.5001,-261.5613 738.5001,-261.5612"/>
<text text-anchor="middle" x="738.5" y="-272.8" font-family="Times,serif" font-size="14.00" fill="#000000">1</text>
</g>
<!-- name9 -->
<g id="node4" class="node">
<title>name9</title>
<polygon fill="none" stroke="#000000" points="1144.5,-151.5 1144.5,-251.5 1287.5,-251.5 1287.5,-151.5 1144.5,-151.5"/>
<text text-anchor="middle" x="1215.9409" y="-234.8" font-family="Times,serif" font-size="14.00" fill="#000000">pe=0.0</text>
<polyline fill="none" stroke="#000000" points="1144.5,-226.5 1287.3818,-226.5 "/>
<text text-anchor="middle" x="1215.9409" y="-209.8" font-family="Times,serif" font-size="14.00" fill="#000000">pw=0.0</text>
<polyline fill="none" stroke="#000000" points="1144.5,-201.5 1287.3818,-201.5 "/>
<text text-anchor="middle" x="1215.9409" y="-184.8" font-family="Times,serif" font-size="14.00" fill="#000000">pm=0.0</text>
<polyline fill="none" stroke="#000000" points="1144.5,-176.5 1287.3818,-176.5 "/>
<text text-anchor="middle" x="1215.9409" y="-159.8" font-family="Times,serif" font-size="14.00" fill="#000000">as=[1522, 1736, 6175]</text>
</g>
<!-- name0&#45;&gt;name9 -->
<g id="edge3" class="edge">
<title>name0&#45;&gt;name9</title>
<path fill="none" stroke="#000000" d="M806.7507,-329.9754C894.5204,-302.4219 1042.7348,-255.893 1134.6575,-227.0358"/>
<polygon fill="#000000" stroke="#000000" points="1135.7075,-230.3747 1144.2001,-224.0401 1133.6109,-223.696 1135.7075,-230.3747"/>
<text text-anchor="middle" x="993.5" y="-272.8" font-family="Times,serif" font-size="14.00" fill="#000000">2</text>
</g>
<!-- name2 -->
<g id="node5" class="node">
<title>name2</title>
<polygon fill="none" stroke="#000000" points="0,-.5 0,-100.5 122,-100.5 122,-.5 0,-.5"/>
<text text-anchor="middle" x="60.9409" y="-83.8" font-family="Times,serif" font-size="14.00" fill="#000000">pe=0.0</text>
<polyline fill="none" stroke="#000000" points="0,-75.5 121.8818,-75.5 "/>
<text text-anchor="middle" x="60.9409" y="-58.8" font-family="Times,serif" font-size="14.00" fill="#000000">pw=0.0</text>
<polyline fill="none" stroke="#000000" points="0,-50.5 121.8818,-50.5 "/>
<text text-anchor="middle" x="60.9409" y="-33.8" font-family="Times,serif" font-size="14.00" fill="#000000">pm=0.0</text>
<polyline fill="none" stroke="#000000" points="0,-25.5 121.8818,-25.5 "/>
<text text-anchor="middle" x="60.9409" y="-8.8" font-family="Times,serif" font-size="14.00" fill="#000000">as=[318, 603, 109]</text>
</g>
<!-- name1&#45;&gt;name2 -->
<g id="edge4" class="edge">
<title>name1&#45;&gt;name2</title>
<path fill="none" stroke="#000000" d="M232.7103,-163.0311C201.3216,-144.8669 163.8491,-122.4952 131,-101 130.9099,-100.941 130.8197,-100.882 130.7295,-100.8229"/>
<polygon fill="#000000" stroke="#000000" points="132.5007,-97.7972 122.2392,-95.1604 128.6167,-103.6208 132.5007,-97.7972"/>
<text text-anchor="middle" x="185.5" y="-121.8" font-family="Times,serif" font-size="14.00" fill="#000000">0</text>
</g>
<!-- name3 -->
<g id="node6" class="node">
<title>name3</title>
<polygon fill="none" stroke="#000000" points="140.4194,-.5 140.4194,-100.5 301.5806,-100.5 301.5806,-.5 140.4194,-.5"/>
<text text-anchor="middle" x="221" y="-83.8" font-family="Times,serif" font-size="14.00" fill="#000000">pe=2.6767588803e&#45;313</text>
<polyline fill="none" stroke="#000000" points="140.4194,-75.5 301.5806,-75.5 "/>
<text text-anchor="middle" x="221" y="-58.8" font-family="Times,serif" font-size="14.00" fill="#000000">pw=2.5094700032e&#45;313</text>
<polyline fill="none" stroke="#000000" points="140.4194,-50.5 301.5806,-50.5 "/>
<text text-anchor="middle" x="221" y="-33.8" font-family="Times,serif" font-size="14.00" fill="#000000">pm=2.00756916023e&#45;313</text>
<polyline fill="none" stroke="#000000" points="140.4194,-25.5 301.5806,-25.5 "/>
<text text-anchor="middle" x="221" y="-8.8" font-family="Times,serif" font-size="14.00" fill="#000000">as=[246, 465, 78]</text>
</g>
<!-- name1&#45;&gt;name3 -->
<g id="edge5" class="edge">
<title>name1&#45;&gt;name3</title>
<path fill="none" stroke="#000000" d="M274.3612,-151.2192C267.2768,-137.8476 259.5608,-123.2835 252.2542,-109.4922"/>
<polygon fill="#000000" stroke="#000000" points="255.2969,-107.7591 247.5225,-100.5612 249.1114,-111.0363 255.2969,-107.7591"/>
<text text-anchor="middle" x="267.5" y="-121.8" font-family="Times,serif" font-size="14.00" fill="#000000">1</text>
</g>
<!-- name4 -->
<g id="node7" class="node">
<title>name4</title>
<polygon fill="none" stroke="#000000" points="320,-.5 320,-100.5 442,-100.5 442,-.5 320,-.5"/>
<text text-anchor="middle" x="380.9409" y="-83.8" font-family="Times,serif" font-size="14.00" fill="#000000">pe=0.0</text>
<polyline fill="none" stroke="#000000" points="320,-75.5 441.8818,-75.5 "/>
<text text-anchor="middle" x="380.9409" y="-58.8" font-family="Times,serif" font-size="14.00" fill="#000000">pw=0.0</text>
<polyline fill="none" stroke="#000000" points="320,-50.5 441.8818,-50.5 "/>
<text text-anchor="middle" x="380.9409" y="-33.8" font-family="Times,serif" font-size="14.00" fill="#000000">pm=0.0</text>
<polyline fill="none" stroke="#000000" points="320,-25.5 441.8818,-25.5 "/>
<text text-anchor="middle" x="380.9409" y="-8.8" font-family="Times,serif" font-size="14.00" fill="#000000">as=[466, 614, 442]</text>
</g>
<!-- name1&#45;&gt;name4 -->
<g id="edge6" class="edge">
<title>name1&#45;&gt;name4</title>
<path fill="none" stroke="#000000" d="M327.6388,-151.2192C334.7232,-137.8476 342.4392,-123.2835 349.7458,-109.4922"/>
<polygon fill="#000000" stroke="#000000" points="352.8886,-111.0363 354.4775,-100.5612 346.7031,-107.7591 352.8886,-111.0363"/>
<text text-anchor="middle" x="347.5" y="-121.8" font-family="Times,serif" font-size="14.00" fill="#000000">2</text>
</g>
<!-- name6 -->
<g id="node8" class="node">
<title>name6</title>
<polygon fill="none" stroke="#000000" points="459.8574,-.5 459.8574,-100.5 652.1426,-100.5 652.1426,-.5 459.8574,-.5"/>
<text text-anchor="middle" x="556" y="-83.8" font-family="Times,serif" font-size="14.00" fill="#000000">pe=0.00029717682020802375</text>
<polyline fill="none" stroke="#000000" points="459.8574,-75.5 652.1426,-75.5 "/>
<text text-anchor="middle" x="556" y="-58.8" font-family="Times,serif" font-size="14.00" fill="#000000">pw=0.0002228827106182871</text>
<polyline fill="none" stroke="#000000" points="459.8574,-50.5 652.1426,-50.5 "/>
<text text-anchor="middle" x="556" y="-33.8" font-family="Times,serif" font-size="14.00" fill="#000000">pm=0.00022288261515601782</text>
<polyline fill="none" stroke="#000000" points="459.8574,-25.5 652.1426,-25.5 "/>
<text text-anchor="middle" x="556" y="-8.8" font-family="Times,serif" font-size="14.00" fill="#000000">as=[0, 1682, 0]</text>
</g>
<!-- name5&#45;&gt;name6 -->
<g id="edge7" class="edge">
<title>name5&#45;&gt;name6</title>
<path fill="none" stroke="#000000" d="M675.3956,-151.2192C658.6387,-137.0835 640.3021,-121.6152 623.138,-107.1359"/>
<polygon fill="#000000" stroke="#000000" points="625.2445,-104.334 615.3441,-100.5612 620.7309,-109.6845 625.2445,-104.334"/>
<text text-anchor="middle" x="654.5" y="-121.8" font-family="Times,serif" font-size="14.00" fill="#000000">0</text>
</g>
<!-- name7 -->
<g id="node9" class="node">
<title>name7</title>
<polygon fill="none" stroke="#000000" points="670.5,-.5 670.5,-100.5 799.5,-100.5 799.5,-.5 670.5,-.5"/>
<text text-anchor="middle" x="734.9409" y="-83.8" font-family="Times,serif" font-size="14.00" fill="#000000">pe=0.0</text>
<polyline fill="none" stroke="#000000" points="670.5,-75.5 799.3818,-75.5 "/>
<text text-anchor="middle" x="734.9409" y="-58.8" font-family="Times,serif" font-size="14.00" fill="#000000">pw=0.0</text>
<polyline fill="none" stroke="#000000" points="670.5,-50.5 799.3818,-50.5 "/>
<text text-anchor="middle" x="734.9409" y="-33.8" font-family="Times,serif" font-size="14.00" fill="#000000">pm=0.0</text>
<polyline fill="none" stroke="#000000" points="670.5,-25.5 799.3818,-25.5 "/>
<text text-anchor="middle" x="734.9409" y="-8.8" font-family="Times,serif" font-size="14.00" fill="#000000">as=[789, 387, 2630]</text>
</g>
<!-- name5&#45;&gt;name7 -->
<g id="edge8" class="edge">
<title>name5&#45;&gt;name7</title>
<path fill="none" stroke="#000000" d="M735,-151.2192C735,-138.2296 735,-124.1148 735,-110.6762"/>
<polygon fill="#000000" stroke="#000000" points="738.5001,-110.5612 735,-100.5612 731.5001,-110.5613 738.5001,-110.5612"/>
<text text-anchor="middle" x="738.5" y="-121.8" font-family="Times,serif" font-size="14.00" fill="#000000">1</text>
</g>
<!-- name8 -->
<g id="node10" class="node">
<title>name8</title>
<polygon fill="none" stroke="#000000" points="817.8574,-.5 817.8574,-100.5 1010.1426,-100.5 1010.1426,-.5 817.8574,-.5"/>
<text text-anchor="middle" x="914" y="-83.8" font-family="Times,serif" font-size="14.00" fill="#000000">pe=0.00028793550244745177</text>
<polyline fill="none" stroke="#000000" points="817.8574,-75.5 1010.1426,-75.5 "/>
<text text-anchor="middle" x="914" y="-58.8" font-family="Times,serif" font-size="14.00" fill="#000000">pw=0.00021602939814948573</text>
<polyline fill="none" stroke="#000000" points="817.8574,-50.5 1010.1426,-50.5 "/>
<text text-anchor="middle" x="914" y="-33.8" font-family="Times,serif" font-size="14.00" fill="#000000">pm=0.00021595162683558884</text>
<polyline fill="none" stroke="#000000" points="817.8574,-25.5 1010.1426,-25.5 "/>
<text text-anchor="middle" x="914" y="-8.8" font-family="Times,serif" font-size="14.00" fill="#000000">as=[0, 1736, 0]</text>
</g>
<!-- name5&#45;&gt;name8 -->
<g id="edge9" class="edge">
<title>name5&#45;&gt;name8</title>
<path fill="none" stroke="#000000" d="M794.6044,-151.2192C811.3613,-137.0835 829.6979,-121.6152 846.862,-107.1359"/>
<polygon fill="#000000" stroke="#000000" points="849.2691,-109.6845 854.6559,-100.5612 844.7555,-104.334 849.2691,-109.6845"/>
<text text-anchor="middle" x="833.5" y="-121.8" font-family="Times,serif" font-size="14.00" fill="#000000">2</text>
</g>
<!-- name10 -->
<g id="node11" class="node">
<title>name10</title>
<polygon fill="none" stroke="#000000" points="1028.3091,-.5 1028.3091,-100.5 1223.6909,-100.5 1223.6909,-.5 1028.3091,-.5"/>
<text text-anchor="middle" x="1126" y="-83.8" font-family="Times,serif" font-size="14.00" fill="#000000">pe=6.054371669911189e&#45;228</text>
<polyline fill="none" stroke="#000000" points="1028.3091,-75.5 1223.6909,-75.5 "/>
<text text-anchor="middle" x="1126" y="-58.8" font-family="Times,serif" font-size="14.00" fill="#000000">pw=4.5412082538229183e&#45;228</text>
<polyline fill="none" stroke="#000000" points="1028.3091,-50.5 1223.6909,-50.5 "/>
<text text-anchor="middle" x="1126" y="-33.8" font-family="Times,serif" font-size="14.00" fill="#000000">pm=4.540778752433392e&#45;228</text>
<polyline fill="none" stroke="#000000" points="1028.3091,-25.5 1223.6909,-25.5 "/>
<text text-anchor="middle" x="1126" y="-8.8" font-family="Times,serif" font-size="14.00" fill="#000000">as=[128, 433, 68]</text>
</g>
<!-- name9&#45;&gt;name10 -->
<g id="edge10" class="edge">
<title>name9&#45;&gt;name10</title>
<path fill="none" stroke="#000000" d="M1186.0313,-151.2192C1178.0615,-137.8476 1169.3809,-123.2835 1161.1609,-109.4922"/>
<polygon fill="#000000" stroke="#000000" points="1163.9642,-107.3593 1155.8378,-100.5612 1157.9512,-110.9432 1163.9642,-107.3593"/>
<text text-anchor="middle" x="1177.5" y="-121.8" font-family="Times,serif" font-size="14.00" fill="#000000">0</text>
</g>
<!-- name11 -->
<g id="node12" class="node">
<title>name11</title>
<polygon fill="none" stroke="#000000" points="1241.5,-.5 1241.5,-100.5 1370.5,-100.5 1370.5,-.5 1241.5,-.5"/>
<text text-anchor="middle" x="1305.9409" y="-83.8" font-family="Times,serif" font-size="14.00" fill="#000000">pe=0.0</text>
<polyline fill="none" stroke="#000000" points="1241.5,-75.5 1370.3818,-75.5 "/>
<text text-anchor="middle" x="1305.9409" y="-58.8" font-family="Times,serif" font-size="14.00" fill="#000000">pw=0.0</text>
<polyline fill="none" stroke="#000000" points="1241.5,-50.5 1370.3818,-50.5 "/>
<text text-anchor="middle" x="1305.9409" y="-33.8" font-family="Times,serif" font-size="14.00" fill="#000000">pm=0.0</text>
<polyline fill="none" stroke="#000000" points="1241.5,-25.5 1370.3818,-25.5 "/>
<text text-anchor="middle" x="1305.9409" y="-8.8" font-family="Times,serif" font-size="14.00" fill="#000000">as=[776, 1303, 551]</text>
</g>
<!-- name9&#45;&gt;name11 -->
<g id="edge11" class="edge">
<title>name9&#45;&gt;name11</title>
<path fill="none" stroke="#000000" d="M1245.9687,-151.2192C1253.9385,-137.8476 1262.6191,-123.2835 1270.8391,-109.4922"/>
<polygon fill="#000000" stroke="#000000" points="1274.0488,-110.9432 1276.1622,-100.5612 1268.0358,-107.3593 1274.0488,-110.9432"/>
<text text-anchor="middle" x="1267.5" y="-121.8" font-family="Times,serif" font-size="14.00" fill="#000000">1</text>
</g>
<!-- name12 -->
<g id="node13" class="node">
<title>name12</title>
<polygon fill="none" stroke="#000000" points="1388.5,-.5 1388.5,-100.5 1503.5,-100.5 1503.5,-.5 1388.5,-.5"/>
<text text-anchor="middle" x="1445.9409" y="-83.8" font-family="Times,serif" font-size="14.00" fill="#000000">pe=0.0</text>
<polyline fill="none" stroke="#000000" points="1388.5,-75.5 1503.3818,-75.5 "/>
<text text-anchor="middle" x="1445.9409" y="-58.8" font-family="Times,serif" font-size="14.00" fill="#000000">pw=0.0</text>
<polyline fill="none" stroke="#000000" points="1388.5,-50.5 1503.3818,-50.5 "/>
<text text-anchor="middle" x="1445.9409" y="-33.8" font-family="Times,serif" font-size="14.00" fill="#000000">pm=0.0</text>
<polyline fill="none" stroke="#000000" points="1388.5,-25.5 1503.3818,-25.5 "/>
<text text-anchor="middle" x="1445.9409" y="-8.8" font-family="Times,serif" font-size="14.00" fill="#000000">as=[618, 0, 5556]</text>
</g>
<!-- name9&#45;&gt;name12 -->
<g id="edge12" class="edge">
<title>name9&#45;&gt;name12</title>
<path fill="none" stroke="#000000" d="M1287.5232,-159.3835C1316.3297,-141.9107 1349.6248,-121.0621 1379,-101 1379.2819,-100.8075 1379.5643,-100.6142 1379.8471,-100.4203"/>
<polygon fill="#000000" stroke="#000000" points="1381.9414,-103.2268 1388.1375,-94.6326 1377.9344,-97.4871 1381.9414,-103.2268"/>
<text text-anchor="middle" x="1352.5" y="-121.8" font-family="Times,serif" font-size="14.00" fill="#000000">2</text>
</g>
<!-- name0_gv1 -->
<g id="node14" class="node">
<title>name0_gv1</title>
<polygon fill="none" stroke="#000000" points="2205.5,-302.5 2205.5,-402.5 2348.5,-402.5 2348.5,-302.5 2205.5,-302.5"/>
<text text-anchor="middle" x="2276.9409" y="-385.8" font-family="Times,serif" font-size="14.00" fill="#000000">pe=0.0</text>
<polyline fill="none" stroke="#000000" points="2205.5,-377.5 2348.3818,-377.5 "/>
<text text-anchor="middle" x="2276.9409" y="-360.8" font-family="Times,serif" font-size="14.00" fill="#000000">pw=0.0</text>
<polyline fill="none" stroke="#000000" points="2205.5,-352.5 2348.3818,-352.5 "/>
<text text-anchor="middle" x="2276.9409" y="-335.8" font-family="Times,serif" font-size="14.00" fill="#000000">pm=0.0</text>
<polyline fill="none" stroke="#000000" points="2205.5,-327.5 2348.3818,-327.5 "/>
<text text-anchor="middle" x="2276.9409" y="-310.8" font-family="Times,serif" font-size="14.00" fill="#000000">as=[3292, 7255, 9453]</text>
</g>
<!-- name1_gv1 -->
<g id="node15" class="node">
<title>name1_gv1</title>
<polygon fill="none" stroke="#000000" points="1773.5,-151.5 1773.5,-251.5 1902.5,-251.5 1902.5,-151.5 1773.5,-151.5"/>
<text text-anchor="middle" x="1837.9409" y="-234.8" font-family="Times,serif" font-size="14.00" fill="#000000">pe=0.0</text>
<polyline fill="none" stroke="#000000" points="1773.5,-226.5 1902.3818,-226.5 "/>
<text text-anchor="middle" x="1837.9409" y="-209.8" font-family="Times,serif" font-size="14.00" fill="#000000">pw=0.0</text>
<polyline fill="none" stroke="#000000" points="1773.5,-201.5 1902.3818,-201.5 "/>
<text text-anchor="middle" x="1837.9409" y="-184.8" font-family="Times,serif" font-size="14.00" fill="#000000">pm=0.0</text>
<polyline fill="none" stroke="#000000" points="1773.5,-176.5 1902.3818,-176.5 "/>
<text text-anchor="middle" x="1837.9409" y="-159.8" font-family="Times,serif" font-size="14.00" fill="#000000">as=[992, 1682, 618]</text>
</g>
<!-- name0_gv1&#45;&gt;name1_gv1 -->
<g id="edge13" class="edge">
<title>name0_gv1&#45;&gt;name1_gv1</title>
<path fill="none" stroke="#000000" d="M2205.49,-327.9032C2124.8261,-300.1577 1994.2519,-255.2449 1912.4131,-227.0954"/>
<polygon fill="#000000" stroke="#000000" points="1913.2757,-223.6909 1902.681,-223.7479 1910.9988,-230.3103 1913.2757,-223.6909"/>
<text text-anchor="middle" x="2074.5" y="-272.8" font-family="Times,serif" font-size="14.00" fill="#000000">0</text>
</g>
<!-- name5_gv1 -->
<g id="node16" class="node">
<title>name5_gv1</title>
<polygon fill="none" stroke="#000000" points="2209,-151.5 2209,-251.5 2345,-251.5 2345,-151.5 2209,-151.5"/>
<text text-anchor="middle" x="2276.9409" y="-234.8" font-family="Times,serif" font-size="14.00" fill="#000000">pe=0.0</text>
<polyline fill="none" stroke="#000000" points="2209,-226.5 2344.8818,-226.5 "/>
<text text-anchor="middle" x="2276.9409" y="-209.8" font-family="Times,serif" font-size="14.00" fill="#000000">pw=0.0</text>
<polyline fill="none" stroke="#000000" points="2209,-201.5 2344.8818,-201.5 "/>
<text text-anchor="middle" x="2276.9409" y="-184.8" font-family="Times,serif" font-size="14.00" fill="#000000">pm=0.0</text>
<polyline fill="none" stroke="#000000" points="2209,-176.5 2344.8818,-176.5 "/>
<text text-anchor="middle" x="2276.9409" y="-159.8" font-family="Times,serif" font-size="14.00" fill="#000000">as=[788, 3819, 2647]</text>
</g>
<!-- name0_gv1&#45;&gt;name5_gv1 -->
<g id="edge14" class="edge">
<title>name0_gv1&#45;&gt;name5_gv1</title>
<path fill="none" stroke="#000000" d="M2277,-302.2192C2277,-289.2296 2277,-275.1148 2277,-261.6762"/>
<polygon fill="#000000" stroke="#000000" points="2280.5001,-261.5612 2277,-251.5612 2273.5001,-261.5613 2280.5001,-261.5612"/>
<text text-anchor="middle" x="2280.5" y="-272.8" font-family="Times,serif" font-size="14.00" fill="#000000">1</text>
</g>
<!-- name9_gv1 -->
<g id="node17" class="node">
<title>name9_gv1</title>
<polygon fill="none" stroke="#000000" points="2687.5,-151.5 2687.5,-251.5 2830.5,-251.5 2830.5,-151.5 2687.5,-151.5"/>
<text text-anchor="middle" x="2758.9409" y="-234.8" font-family="Times,serif" font-size="14.00" fill="#000000">pe=0.0</text>
<polyline fill="none" stroke="#000000" points="2687.5,-226.5 2830.3818,-226.5 "/>
<text text-anchor="middle" x="2758.9409" y="-209.8" font-family="Times,serif" font-size="14.00" fill="#000000">pw=0.0</text>
<polyline fill="none" stroke="#000000" points="2687.5,-201.5 2830.3818,-201.5 "/>
<text text-anchor="middle" x="2758.9409" y="-184.8" font-family="Times,serif" font-size="14.00" fill="#000000">pm=0.0</text>
<polyline fill="none" stroke="#000000" points="2687.5,-176.5 2830.3818,-176.5 "/>
<text text-anchor="middle" x="2758.9409" y="-159.8" font-family="Times,serif" font-size="14.00" fill="#000000">as=[1512, 1754, 6187]</text>
</g>
<!-- name0_gv1&#45;&gt;name9_gv1 -->
<g id="edge15" class="edge">
<title>name0_gv1&#45;&gt;name9_gv1</title>
<path fill="none" stroke="#000000" d="M2348.6398,-330.0568C2436.6557,-302.4834 2585.6111,-255.8189 2677.7925,-226.9405"/>
<polygon fill="#000000" stroke="#000000" points="2678.8644,-230.2725 2687.3607,-223.943 2676.7717,-223.5927 2678.8644,-230.2725"/>
<text text-anchor="middle" x="2536.5" y="-272.8" font-family="Times,serif" font-size="14.00" fill="#000000">2</text>
</g>
<!-- name2_gv1 -->
<g id="node18" class="node">
<title>name2_gv1</title>
<polygon fill="none" stroke="#000000" points="1522,-.5 1522,-100.5 1644,-100.5 1644,-.5 1522,-.5"/>
<text text-anchor="middle" x="1582.9409" y="-83.8" font-family="Times,serif" font-size="14.00" fill="#000000">pe=0.0</text>
<polyline fill="none" stroke="#000000" points="1522,-75.5 1643.8818,-75.5 "/>
<text text-anchor="middle" x="1582.9409" y="-58.8" font-family="Times,serif" font-size="14.00" fill="#000000">pw=0.0</text>
<polyline fill="none" stroke="#000000" points="1522,-50.5 1643.8818,-50.5 "/>
<text text-anchor="middle" x="1582.9409" y="-33.8" font-family="Times,serif" font-size="14.00" fill="#000000">pm=0.0</text>
<polyline fill="none" stroke="#000000" points="1522,-25.5 1643.8818,-25.5 "/>
<text text-anchor="middle" x="1582.9409" y="-8.8" font-family="Times,serif" font-size="14.00" fill="#000000">as=[306, 580, 106]</text>
</g>
<!-- name1_gv1&#45;&gt;name2_gv1 -->
<g id="edge16" class="edge">
<title>name1_gv1&#45;&gt;name2_gv1</title>
<path fill="none" stroke="#000000" d="M1773.4943,-169.0372C1737.4133,-150.2434 1691.9882,-125.5144 1653,-101 1652.9088,-100.9427 1652.8176,-100.8853 1652.7263,-100.8278"/>
<polygon fill="#000000" stroke="#000000" points="1654.4544,-97.7773 1644.1553,-95.2911 1650.6561,-103.6572 1654.4544,-97.7773"/>
<text text-anchor="middle" x="1706.5" y="-121.8" font-family="Times,serif" font-size="14.00" fill="#000000">0</text>
</g>
<!-- name3_gv1 -->
<g id="node19" class="node">
<title>name3_gv1</title>
<polygon fill="none" stroke="#000000" points="1661.9194,-.5 1661.9194,-100.5 1844.0806,-100.5 1844.0806,-.5 1661.9194,-.5"/>
<text text-anchor="middle" x="1753" y="-83.8" font-family="Times,serif" font-size="14.00" fill="#000000">pe=2.7398093744052e&#45;310</text>
<polyline fill="none" stroke="#000000" points="1661.9194,-75.5 1844.0806,-75.5 "/>
<text text-anchor="middle" x="1753" y="-58.8" font-family="Times,serif" font-size="14.00" fill="#000000">pw=2.5685798690254e&#45;310</text>
<polyline fill="none" stroke="#000000" points="1661.9194,-50.5 1844.0806,-50.5 "/>
<text text-anchor="middle" x="1753" y="-33.8" font-family="Times,serif" font-size="14.00" fill="#000000">pm=2.05485703080395e&#45;310</text>
<polyline fill="none" stroke="#000000" points="1661.9194,-25.5 1844.0806,-25.5 "/>
<text text-anchor="middle" x="1753" y="-8.8" font-family="Times,serif" font-size="14.00" fill="#000000">as=[239, 472, 77]</text>
</g>
<!-- name1_gv1&#45;&gt;name3_gv1 -->
<g id="edge17" class="edge">
<title>name1_gv1&#45;&gt;name3_gv1</title>
<path fill="none" stroke="#000000" d="M1809.6962,-151.2192C1802.1692,-137.8476 1793.9709,-123.2835 1786.2075,-109.4922"/>
<polygon fill="#000000" stroke="#000000" points="1789.1356,-107.5586 1781.1802,-100.5612 1783.0356,-110.9924 1789.1356,-107.5586"/>
<text text-anchor="middle" x="1802.5" y="-121.8" font-family="Times,serif" font-size="14.00" fill="#000000">1</text>
</g>
<!-- name4_gv1 -->
<g id="node20" class="node">
<title>name4_gv1</title>
<polygon fill="none" stroke="#000000" points="1862,-.5 1862,-100.5 1984,-100.5 1984,-.5 1862,-.5"/>
<text text-anchor="middle" x="1922.9409" y="-83.8" font-family="Times,serif" font-size="14.00" fill="#000000">pe=0.0</text>
<polyline fill="none" stroke="#000000" points="1862,-75.5 1983.8818,-75.5 "/>
<text text-anchor="middle" x="1922.9409" y="-58.8" font-family="Times,serif" font-size="14.00" fill="#000000">pw=0.0</text>
<polyline fill="none" stroke="#000000" points="1862,-50.5 1983.8818,-50.5 "/>
<text text-anchor="middle" x="1922.9409" y="-33.8" font-family="Times,serif" font-size="14.00" fill="#000000">pm=0.0</text>
<polyline fill="none" stroke="#000000" points="1862,-25.5 1983.8818,-25.5 "/>
<text text-anchor="middle" x="1922.9409" y="-8.8" font-family="Times,serif" font-size="14.00" fill="#000000">as=[447, 630, 435]</text>
</g>
<!-- name1_gv1&#45;&gt;name4_gv1 -->
<g id="edge18" class="edge">
<title>name1_gv1&#45;&gt;name4_gv1</title>
<path fill="none" stroke="#000000" d="M1866.3038,-151.2192C1873.8308,-137.8476 1882.0291,-123.2835 1889.7925,-109.4922"/>
<polygon fill="#000000" stroke="#000000" points="1892.9644,-110.9924 1894.8198,-100.5612 1886.8644,-107.5586 1892.9644,-110.9924"/>
<text text-anchor="middle" x="1887.5" y="-121.8" font-family="Times,serif" font-size="14.00" fill="#000000">2</text>
</g>
<!-- name6_gv1 -->
<g id="node21" class="node">
<title>name6_gv1</title>
<polygon fill="none" stroke="#000000" points="2001.8574,-.5 2001.8574,-100.5 2194.1426,-100.5 2194.1426,-.5 2001.8574,-.5"/>
<text text-anchor="middle" x="2098" y="-83.8" font-family="Times,serif" font-size="14.00" fill="#000000">pe=0.0002973535533749628</text>
<polyline fill="none" stroke="#000000" points="2001.8574,-75.5 2194.1426,-75.5 "/>
<text text-anchor="middle" x="2098" y="-58.8" font-family="Times,serif" font-size="14.00" fill="#000000">pw=0.00022301526052640808</text>
<polyline fill="none" stroke="#000000" points="2001.8574,-50.5 2194.1426,-50.5 "/>
<text text-anchor="middle" x="2098" y="-33.8" font-family="Times,serif" font-size="14.00" fill="#000000">pm=0.00022301516503122213</text>
<polyline fill="none" stroke="#000000" points="2001.8574,-25.5 2194.1426,-25.5 "/>
<text text-anchor="middle" x="2098" y="-8.8" font-family="Times,serif" font-size="14.00" fill="#000000">as=[0, 1681, 0]</text>
</g>
<!-- name5_gv1&#45;&gt;name6_gv1 -->
<g id="edge19" class="edge">
<title>name5_gv1&#45;&gt;name6_gv1</title>
<path fill="none" stroke="#000000" d="M2217.3956,-151.2192C2200.6387,-137.0835 2182.3021,-121.6152 2165.138,-107.1359"/>
<polygon fill="#000000" stroke="#000000" points="2167.2445,-104.334 2157.3441,-100.5612 2162.7309,-109.6845 2167.2445,-104.334"/>
<text text-anchor="middle" x="2196.5" y="-121.8" font-family="Times,serif" font-size="14.00" fill="#000000">0</text>
</g>
<!-- name7_gv1 -->
<g id="node22" class="node">
<title>name7_gv1</title>
<polygon fill="none" stroke="#000000" points="2212.5,-.5 2212.5,-100.5 2341.5,-100.5 2341.5,-.5 2212.5,-.5"/>
<text text-anchor="middle" x="2276.9409" y="-83.8" font-family="Times,serif" font-size="14.00" fill="#000000">pe=0.0</text>
<polyline fill="none" stroke="#000000" points="2212.5,-75.5 2341.3818,-75.5 "/>
<text text-anchor="middle" x="2276.9409" y="-58.8" font-family="Times,serif" font-size="14.00" fill="#000000">pw=0.0</text>
<polyline fill="none" stroke="#000000" points="2212.5,-50.5 2341.3818,-50.5 "/>
<text text-anchor="middle" x="2276.9409" y="-33.8" font-family="Times,serif" font-size="14.00" fill="#000000">pm=0.0</text>
<polyline fill="none" stroke="#000000" points="2212.5,-25.5 2341.3818,-25.5 "/>
<text text-anchor="middle" x="2276.9409" y="-8.8" font-family="Times,serif" font-size="14.00" fill="#000000">as=[788, 384, 2647]</text>
</g>
<!-- name5_gv1&#45;&gt;name7_gv1 -->
<g id="edge20" class="edge">
<title>name5_gv1&#45;&gt;name7_gv1</title>
<path fill="none" stroke="#000000" d="M2277,-151.2192C2277,-138.2296 2277,-124.1148 2277,-110.6762"/>
<polygon fill="#000000" stroke="#000000" points="2280.5001,-110.5612 2277,-100.5612 2273.5001,-110.5613 2280.5001,-110.5612"/>
<text text-anchor="middle" x="2280.5" y="-121.8" font-family="Times,serif" font-size="14.00" fill="#000000">1</text>
</g>
<!-- name8_gv1 -->
<g id="node23" class="node">
<title>name8_gv1</title>
<polygon fill="none" stroke="#000000" points="2359.8574,-.5 2359.8574,-100.5 2552.1426,-100.5 2552.1426,-.5 2359.8574,-.5"/>
<text text-anchor="middle" x="2456" y="-83.8" font-family="Times,serif" font-size="14.00" fill="#000000">pe=0.00028498147620404675</text>
<polyline fill="none" stroke="#000000" points="2359.8574,-75.5 2552.1426,-75.5 "/>
<text text-anchor="middle" x="2456" y="-58.8" font-family="Times,serif" font-size="14.00" fill="#000000">pw=0.00021381258268470763</text>
<polyline fill="none" stroke="#000000" points="2359.8574,-50.5 2552.1426,-50.5 "/>
<text text-anchor="middle" x="2456" y="-33.8" font-family="Times,serif" font-size="14.00" fill="#000000">pm=0.00021373610715303505</text>
<polyline fill="none" stroke="#000000" points="2359.8574,-25.5 2552.1426,-25.5 "/>
<text text-anchor="middle" x="2456" y="-8.8" font-family="Times,serif" font-size="14.00" fill="#000000">as=[0, 1754, 0]</text>
</g>
<!-- name5_gv1&#45;&gt;name8_gv1 -->
<g id="edge21" class="edge">
<title>name5_gv1&#45;&gt;name8_gv1</title>
<path fill="none" stroke="#000000" d="M2336.6044,-151.2192C2353.3613,-137.0835 2371.6979,-121.6152 2388.862,-107.1359"/>
<polygon fill="#000000" stroke="#000000" points="2391.2691,-109.6845 2396.6559,-100.5612 2386.7555,-104.334 2391.2691,-109.6845"/>
<text text-anchor="middle" x="2375.5" y="-121.8" font-family="Times,serif" font-size="14.00" fill="#000000">2</text>
</g>
<!-- name10_gv1 -->
<g id="node24" class="node">
<title>name10_gv1</title>
<polygon fill="none" stroke="#000000" points="2569.9194,-.5 2569.9194,-100.5 2766.0806,-100.5 2766.0806,-.5 2569.9194,-.5"/>
<text text-anchor="middle" x="2668" y="-83.8" font-family="Times,serif" font-size="14.00" fill="#000000">pe=2.764460889999047e&#45;218</text>
<polyline fill="none" stroke="#000000" points="2569.9194,-75.5 2766.0806,-75.5 "/>
<text text-anchor="middle" x="2668" y="-58.8" font-family="Times,serif" font-size="14.00" fill="#000000">pw=2.0735422770602197e&#45;218</text>
<polyline fill="none" stroke="#000000" points="2569.9194,-50.5 2766.0806,-50.5 "/>
<text text-anchor="middle" x="2668" y="-33.8" font-family="Times,serif" font-size="14.00" fill="#000000">pm=2.0733456674992853e&#45;218</text>
<polyline fill="none" stroke="#000000" points="2569.9194,-25.5 2766.0806,-25.5 "/>
<text text-anchor="middle" x="2668" y="-8.8" font-family="Times,serif" font-size="14.00" fill="#000000">as=[118, 435, 65]</text>
</g>
<!-- name9_gv1&#45;&gt;name10_gv1 -->
<g id="edge22" class="edge">
<title>name9_gv1&#45;&gt;name10_gv1</title>
<path fill="none" stroke="#000000" d="M2728.6983,-151.2192C2720.6399,-137.8476 2711.8629,-123.2835 2703.5516,-109.4922"/>
<polygon fill="#000000" stroke="#000000" points="2706.3288,-107.3196 2698.1694,-100.5612 2700.3333,-110.9328 2706.3288,-107.3196"/>
<text text-anchor="middle" x="2720.5" y="-121.8" font-family="Times,serif" font-size="14.00" fill="#000000">0</text>
</g>
<!-- name11_gv1 -->
<g id="node25" class="node">
<title>name11_gv1</title>
<polygon fill="none" stroke="#000000" points="2784.5,-.5 2784.5,-100.5 2913.5,-100.5 2913.5,-.5 2784.5,-.5"/>
<text text-anchor="middle" x="2848.9409" y="-83.8" font-family="Times,serif" font-size="14.00" fill="#000000">pe=0.0</text>
<polyline fill="none" stroke="#000000" points="2784.5,-75.5 2913.3818,-75.5 "/>
<text text-anchor="middle" x="2848.9409" y="-58.8" font-family="Times,serif" font-size="14.00" fill="#000000">pw=0.0</text>
<polyline fill="none" stroke="#000000" points="2784.5,-50.5 2913.3818,-50.5 "/>
<text text-anchor="middle" x="2848.9409" y="-33.8" font-family="Times,serif" font-size="14.00" fill="#000000">pm=0.0</text>
<polyline fill="none" stroke="#000000" points="2784.5,-25.5 2913.3818,-25.5 "/>
<text text-anchor="middle" x="2848.9409" y="-8.8" font-family="Times,serif" font-size="14.00" fill="#000000">as=[784, 1319, 544]</text>
</g>
<!-- name9_gv1&#45;&gt;name11_gv1 -->
<g id="edge23" class="edge">
<title>name9_gv1&#45;&gt;name11_gv1</title>
<path fill="none" stroke="#000000" d="M2788.9687,-151.2192C2796.9385,-137.8476 2805.6191,-123.2835 2813.8391,-109.4922"/>
<polygon fill="#000000" stroke="#000000" points="2817.0488,-110.9432 2819.1622,-100.5612 2811.0358,-107.3593 2817.0488,-110.9432"/>
<text text-anchor="middle" x="2810.5" y="-121.8" font-family="Times,serif" font-size="14.00" fill="#000000">1</text>
</g>
<!-- name12_gv1 -->
<g id="node26" class="node">
<title>name12_gv1</title>
<polygon fill="none" stroke="#000000" points="2931.5,-.5 2931.5,-100.5 3046.5,-100.5 3046.5,-.5 2931.5,-.5"/>
<text text-anchor="middle" x="2988.9409" y="-83.8" font-family="Times,serif" font-size="14.00" fill="#000000">pe=0.0</text>
<polyline fill="none" stroke="#000000" points="2931.5,-75.5 3046.3818,-75.5 "/>
<text text-anchor="middle" x="2988.9409" y="-58.8" font-family="Times,serif" font-size="14.00" fill="#000000">pw=0.0</text>
<polyline fill="none" stroke="#000000" points="2931.5,-50.5 3046.3818,-50.5 "/>
<text text-anchor="middle" x="2988.9409" y="-33.8" font-family="Times,serif" font-size="14.00" fill="#000000">pm=0.0</text>
<polyline fill="none" stroke="#000000" points="2931.5,-25.5 3046.3818,-25.5 "/>
<text text-anchor="middle" x="2988.9409" y="-8.8" font-family="Times,serif" font-size="14.00" fill="#000000">as=[610, 0, 5577]</text>
</g>
<!-- name9_gv1&#45;&gt;name12_gv1 -->
<g id="edge24" class="edge">
<title>name9_gv1&#45;&gt;name12_gv1</title>
<path fill="none" stroke="#000000" d="M2830.5232,-159.3835C2859.3297,-141.9107 2892.6248,-121.0621 2922,-101 2922.2819,-100.8075 2922.5643,-100.6142 2922.8471,-100.4203"/>
<polygon fill="#000000" stroke="#000000" points="2924.9414,-103.2268 2931.1375,-94.6326 2920.9344,-97.4871 2924.9414,-103.2268"/>
<text text-anchor="middle" x="2895.5" y="-121.8" font-family="Times,serif" font-size="14.00" fill="#000000">2</text>
</g>
</g>
</svg>
