<?xml version="1.0" encoding="UTF-8" standalone="no"?>
<!DOCTYPE svg PUBLIC "-//W3C//DTD SVG 1.1//EN"
 "http://www.w3.org/Graphics/SVG/1.1/DTD/svg11.dtd">
<!-- Generated by graphviz version 2.40.1 (20161225.0304)
 -->
<!-- Title: root Pages: 1 -->
<svg width="2076pt" height="864pt"
 viewBox="0.00 0.00 2075.64 864.00" xmlns="http://www.w3.org/2000/svg" xmlns:xlink="http://www.w3.org/1999/xlink">
<g id="graph0" class="graph" transform="scale(1 1) rotate(0) translate(4 860)">
<title>root</title>
<polygon fill="#ffffff" stroke="transparent" points="-4,4 -4,-860 2071.6426,-860 2071.6426,4 -4,4"/>
<!-- name0 -->
<g id="node1" class="node">
<title>name0</title>
<polygon fill="none" stroke="#000000" points="733.1426,-755.5 733.1426,-855.5 904.1426,-855.5 904.1426,-755.5 733.1426,-755.5"/>
<text text-anchor="middle" x="818.5835" y="-838.8" font-family="Times,serif" font-size="14.00" fill="#000000">pe=0.0</text>
<polyline fill="none" stroke="#000000" points="733.1426,-830.5 904.0244,-830.5 "/>
<text text-anchor="middle" x="818.5835" y="-813.8" font-family="Times,serif" font-size="14.00" fill="#000000">pw=0.0</text>
<polyline fill="none" stroke="#000000" points="733.1426,-805.5 904.0244,-805.5 "/>
<text text-anchor="middle" x="818.5835" y="-788.8" font-family="Times,serif" font-size="14.00" fill="#000000">pm=0.0</text>
<polyline fill="none" stroke="#000000" points="733.1426,-780.5 904.0244,-780.5 "/>
<text text-anchor="middle" x="818.5835" y="-763.8" font-family="Times,serif" font-size="14.00" fill="#000000">as=[76, 187, 1965, 249, 59]</text>
</g>
<!-- name1 -->
<g id="node2" class="node">
<title>name1</title>
<polygon fill="none" stroke="#000000" points="319.4517,-604.5 319.4517,-704.5 507.8335,-704.5 507.8335,-604.5 319.4517,-604.5"/>
<text text-anchor="middle" x="413.6426" y="-687.8" font-family="Times,serif" font-size="14.00" fill="#000000">pe=1.2030940880480354e&#45;49</text>
<polyline fill="none" stroke="#000000" points="319.4517,-679.5 507.8335,-679.5 "/>
<text text-anchor="middle" x="413.6426" y="-662.8" font-family="Times,serif" font-size="14.00" fill="#000000">pw=6.6850431969624555e&#45;50</text>
<polyline fill="none" stroke="#000000" points="319.4517,-654.5 507.8335,-654.5 "/>
<text text-anchor="middle" x="413.6426" y="-637.8" font-family="Times,serif" font-size="14.00" fill="#000000">pm=6.015470440240177e&#45;50</text>
<polyline fill="none" stroke="#000000" points="319.4517,-629.5 507.8335,-629.5 "/>
<text text-anchor="middle" x="413.6426" y="-612.8" font-family="Times,serif" font-size="14.00" fill="#000000">as=[9, 10, 37, 14, 6]</text>
</g>
<!-- name0&#45;&gt;name1 -->
<g id="edge1" class="edge">
<title>name0&#45;&gt;name1</title>
<path fill="none" stroke="#000000" d="M732.9142,-780.3484C674.23,-762.3488 594.734,-736.4284 517.4091,-705.2045"/>
<polygon fill="#000000" stroke="#000000" points="518.5731,-701.8995 507.9915,-701.3706 515.9337,-708.3829 518.5731,-701.8995"/>
<text text-anchor="middle" x="602.1426" y="-725.8" font-family="Times,serif" font-size="14.00" fill="#000000">0</text>
</g>
<!-- name2 -->
<g id="node3" class="node">
<title>name2</title>
<polygon fill="none" stroke="#000000" points="526.1426,-604.5 526.1426,-704.5 715.1426,-704.5 715.1426,-604.5 526.1426,-604.5"/>
<text text-anchor="middle" x="620.4668" y="-687.8" font-family="Times,serif" font-size="14.00" fill="#000000">pe=4.2969935584060234e&#45;92</text>
<polyline fill="none" stroke="#000000" points="526.1426,-679.5 714.791,-679.5 "/>
<text text-anchor="middle" x="620.4668" y="-662.8" font-family="Times,serif" font-size="14.00" fill="#000000">pw=2.156380622734239e&#45;92</text>
<polyline fill="none" stroke="#000000" points="526.1426,-654.5 714.791,-654.5 "/>
<text text-anchor="middle" x="620.4668" y="-637.8" font-family="Times,serif" font-size="14.00" fill="#000000">pm=2.1484967792030117e&#45;92</text>
<polyline fill="none" stroke="#000000" points="526.1426,-629.5 714.791,-629.5 "/>
<text text-anchor="middle" x="620.4668" y="-612.8" font-family="Times,serif" font-size="14.00" fill="#000000">as=[7, 18, 123, 28, 11]</text>
</g>
<!-- name0&#45;&gt;name2 -->
<g id="edge2" class="edge">
<title>name0&#45;&gt;name2</title>
<path fill="none" stroke="#000000" d="M752.9865,-755.4289C734.2717,-741.1565 713.7569,-725.5114 694.5842,-710.8899"/>
<polygon fill="#000000" stroke="#000000" points="696.5327,-707.9742 686.4587,-704.6931 692.2879,-713.5403 696.5327,-707.9742"/>
<text text-anchor="middle" x="729.1426" y="-725.8" font-family="Times,serif" font-size="14.00" fill="#000000">1</text>
</g>
<!-- name3 -->
<g id="node4" class="node">
<title>name3</title>
<polygon fill="none" stroke="#000000" points="733.1426,-604.5 733.1426,-704.5 904.1426,-704.5 904.1426,-604.5 733.1426,-604.5"/>
<text text-anchor="middle" x="818.5835" y="-687.8" font-family="Times,serif" font-size="14.00" fill="#000000">pe=0.0</text>
<polyline fill="none" stroke="#000000" points="733.1426,-679.5 904.0244,-679.5 "/>
<text text-anchor="middle" x="818.5835" y="-662.8" font-family="Times,serif" font-size="14.00" fill="#000000">pw=0.0</text>
<polyline fill="none" stroke="#000000" points="733.1426,-654.5 904.0244,-654.5 "/>
<text text-anchor="middle" x="818.5835" y="-637.8" font-family="Times,serif" font-size="14.00" fill="#000000">pm=0.0</text>
<polyline fill="none" stroke="#000000" points="733.1426,-629.5 904.0244,-629.5 "/>
<text text-anchor="middle" x="818.5835" y="-612.8" font-family="Times,serif" font-size="14.00" fill="#000000">as=[47, 122, 1586, 173, 36]</text>
</g>
<!-- name0&#45;&gt;name3 -->
<g id="edge3" class="edge">
<title>name0&#45;&gt;name3</title>
<path fill="none" stroke="#000000" d="M818.6426,-755.2192C818.6426,-742.2296 818.6426,-728.1148 818.6426,-714.6762"/>
<polygon fill="#000000" stroke="#000000" points="822.1427,-714.5612 818.6426,-704.5612 815.1427,-714.5613 822.1427,-714.5612"/>
<text text-anchor="middle" x="822.1426" y="-725.8" font-family="Times,serif" font-size="14.00" fill="#000000">2</text>
</g>
<!-- name29 -->
<g id="node5" class="node">
<title>name29</title>
<polygon fill="none" stroke="#000000" points="922.562,-604.5 922.562,-704.5 1118.7231,-704.5 1118.7231,-604.5 922.562,-604.5"/>
<text text-anchor="middle" x="1020.6426" y="-687.8" font-family="Times,serif" font-size="14.00" fill="#000000">pe=2.2997528637362743e&#45;107</text>
<polyline fill="none" stroke="#000000" points="922.562,-679.5 1118.7231,-679.5 "/>
<text text-anchor="middle" x="1020.6426" y="-662.8" font-family="Times,serif" font-size="14.00" fill="#000000">pw=7.431241169303256e&#45;107</text>
<polyline fill="none" stroke="#000000" points="922.562,-654.5 1118.7231,-654.5 "/>
<text text-anchor="middle" x="1020.6426" y="-637.8" font-family="Times,serif" font-size="14.00" fill="#000000">pm=1.1498764318681372e&#45;107</text>
<polyline fill="none" stroke="#000000" points="922.562,-629.5 1118.7231,-629.5 "/>
<text text-anchor="middle" x="1020.6426" y="-612.8" font-family="Times,serif" font-size="14.00" fill="#000000">as=[10, 30, 176, 29, 4]</text>
</g>
<!-- name0&#45;&gt;name29 -->
<g id="edge4" class="edge">
<title>name0&#45;&gt;name29</title>
<path fill="none" stroke="#000000" d="M885.6251,-755.4289C904.8032,-741.0928 925.8341,-725.3717 945.469,-710.6941"/>
<polygon fill="#000000" stroke="#000000" points="947.5829,-713.4838 953.4968,-704.6931 943.3917,-707.8771 947.5829,-713.4838"/>
<text text-anchor="middle" x="930.1426" y="-725.8" font-family="Times,serif" font-size="14.00" fill="#000000">3</text>
</g>
<!-- name30 -->
<g id="node6" class="node">
<title>name30</title>
<polygon fill="none" stroke="#000000" points="1137.1426,-604.5 1137.1426,-704.5 1318.1426,-704.5 1318.1426,-604.5 1137.1426,-604.5"/>
<text text-anchor="middle" x="1227.5771" y="-687.8" font-family="Times,serif" font-size="14.00" fill="#000000">pe=1.03502573907548e&#45;27</text>
<polyline fill="none" stroke="#000000" points="1137.1426,-679.5 1318.0117,-679.5 "/>
<text text-anchor="middle" x="1227.5771" y="-662.8" font-family="Times,serif" font-size="14.00" fill="#000000">pw=5.181129489614375e&#45;28</text>
<polyline fill="none" stroke="#000000" points="1137.1426,-654.5 1318.0117,-654.5 "/>
<text text-anchor="middle" x="1227.5771" y="-637.8" font-family="Times,serif" font-size="14.00" fill="#000000">pm=5.1751286953774e&#45;28</text>
<polyline fill="none" stroke="#000000" points="1137.1426,-629.5 1318.0117,-629.5 "/>
<text text-anchor="middle" x="1227.5771" y="-612.8" font-family="Times,serif" font-size="14.00" fill="#000000">as=[3, 7, 43, 4, 2]</text>
</g>
<!-- name0&#45;&gt;name30 -->
<g id="edge5" class="edge">
<title>name0&#45;&gt;name30</title>
<path fill="none" stroke="#000000" d="M904.17,-781.5274C966.9184,-763.0175 1053.7151,-735.4787 1127.6426,-705 1127.7381,-704.9606 1127.8337,-704.9212 1127.9293,-704.8817"/>
<polygon fill="#000000" stroke="#000000" points="1129.0675,-708.2011 1136.8998,-701.0662 1126.3277,-701.7595 1129.0675,-708.2011"/>
<text text-anchor="middle" x="1082.1426" y="-725.8" font-family="Times,serif" font-size="14.00" fill="#000000">4</text>
</g>
<!-- name4 -->
<g id="node7" class="node">
<title>name4</title>
<polygon fill="none" stroke="#000000" points="330.6426,-453.5 330.6426,-553.5 512.6426,-553.5 512.6426,-453.5 330.6426,-453.5"/>
<text text-anchor="middle" x="421.4668" y="-536.8" font-family="Times,serif" font-size="14.00" fill="#000000">pe=2.881533916230122e&#45;26</text>
<polyline fill="none" stroke="#000000" points="330.6426,-528.5 512.291,-528.5 "/>
<text text-anchor="middle" x="421.4668" y="-511.8" font-family="Times,serif" font-size="14.00" fill="#000000">pw=4.821941987933464e&#45;26</text>
<polyline fill="none" stroke="#000000" points="330.6426,-503.5 512.291,-503.5 "/>
<text text-anchor="middle" x="421.4668" y="-486.8" font-family="Times,serif" font-size="14.00" fill="#000000">pm=1.440766958115061e&#45;26</text>
<polyline fill="none" stroke="#000000" points="330.6426,-478.5 512.291,-478.5 "/>
<text text-anchor="middle" x="421.4668" y="-461.8" font-family="Times,serif" font-size="14.00" fill="#000000">as=[6, 5, 17, 6, 3]</text>
</g>
<!-- name3&#45;&gt;name4 -->
<g id="edge6" class="edge">
<title>name3&#45;&gt;name4</title>
<path fill="none" stroke="#000000" d="M733.1272,-607.8308C729.9505,-606.4847 726.7825,-605.2021 723.6426,-604 640.2208,-572.0635 610.4017,-585.1756 522.3936,-554.054"/>
<polygon fill="#000000" stroke="#000000" points="523.4205,-550.7033 512.8264,-550.5797 521.0311,-557.2829 523.4205,-550.7033"/>
<text text-anchor="middle" x="666.1426" y="-574.8" font-family="Times,serif" font-size="14.00" fill="#000000">0</text>
</g>
<!-- name5 -->
<g id="node8" class="node">
<title>name5</title>
<polygon fill="none" stroke="#000000" points="530.4517,-453.5 530.4517,-553.5 718.8335,-553.5 718.8335,-453.5 530.4517,-453.5"/>
<text text-anchor="middle" x="624.6426" y="-536.8" font-family="Times,serif" font-size="14.00" fill="#000000">pe=1.3367593199102936e&#45;67</text>
<polyline fill="none" stroke="#000000" points="530.4517,-528.5 718.8335,-528.5 "/>
<text text-anchor="middle" x="624.6426" y="-511.8" font-family="Times,serif" font-size="14.00" fill="#000000">pw=6.7094472124506996e&#45;68</text>
<polyline fill="none" stroke="#000000" points="530.4517,-503.5 718.8335,-503.5 "/>
<text text-anchor="middle" x="624.6426" y="-486.8" font-family="Times,serif" font-size="14.00" fill="#000000">pm=6.683796599551468e&#45;68</text>
<polyline fill="none" stroke="#000000" points="530.4517,-478.5 718.8335,-478.5 "/>
<text text-anchor="middle" x="624.6426" y="-461.8" font-family="Times,serif" font-size="14.00" fill="#000000">as=[3, 14, 67, 32, 7]</text>
</g>
<!-- name3&#45;&gt;name5 -->
<g id="edge7" class="edge">
<title>name3&#45;&gt;name5</title>
<path fill="none" stroke="#000000" d="M754.3129,-604.4289C735.9761,-590.1565 715.8758,-574.5114 697.0905,-559.8899"/>
<polygon fill="#000000" stroke="#000000" points="699.1703,-557.0734 689.1291,-553.6931 694.8707,-562.5974 699.1703,-557.0734"/>
<text text-anchor="middle" x="731.1426" y="-574.8" font-family="Times,serif" font-size="14.00" fill="#000000">1</text>
</g>
<!-- name6 -->
<g id="node9" class="node">
<title>name6</title>
<polygon fill="none" stroke="#000000" points="736.6426,-453.5 736.6426,-553.5 900.6426,-553.5 900.6426,-453.5 736.6426,-453.5"/>
<text text-anchor="middle" x="818.3271" y="-536.8" font-family="Times,serif" font-size="14.00" fill="#000000">pe=0.0</text>
<polyline fill="none" stroke="#000000" points="736.6426,-528.5 900.0117,-528.5 "/>
<text text-anchor="middle" x="818.3271" y="-511.8" font-family="Times,serif" font-size="14.00" fill="#000000">pw=0.0</text>
<polyline fill="none" stroke="#000000" points="736.6426,-503.5 900.0117,-503.5 "/>
<text text-anchor="middle" x="818.3271" y="-486.8" font-family="Times,serif" font-size="14.00" fill="#000000">pm=0.0</text>
<polyline fill="none" stroke="#000000" points="736.6426,-478.5 900.0117,-478.5 "/>
<text text-anchor="middle" x="818.3271" y="-461.8" font-family="Times,serif" font-size="14.00" fill="#000000">as=[32, 89, 1333, 113, 18]</text>
</g>
<!-- name3&#45;&gt;name6 -->
<g id="edge8" class="edge">
<title>name3&#45;&gt;name6</title>
<path fill="none" stroke="#000000" d="M818.6426,-604.2192C818.6426,-591.2296 818.6426,-577.1148 818.6426,-563.6762"/>
<polygon fill="#000000" stroke="#000000" points="822.1427,-563.5612 818.6426,-553.5612 815.1427,-563.5613 822.1427,-563.5612"/>
<text text-anchor="middle" x="822.1426" y="-574.8" font-family="Times,serif" font-size="14.00" fill="#000000">2</text>
</g>
<!-- name22 -->
<g id="node10" class="node">
<title>name22</title>
<polygon fill="none" stroke="#000000" points="1338.062,-453.5 1338.062,-553.5 1527.2231,-553.5 1527.2231,-453.5 1338.062,-453.5"/>
<text text-anchor="middle" x="1432.6426" y="-536.8" font-family="Times,serif" font-size="14.00" fill="#000000">pe=8.22607588100523e&#45;64</text>
<polyline fill="none" stroke="#000000" points="1338.062,-528.5 1527.2231,-528.5 "/>
<text text-anchor="middle" x="1432.6426" y="-511.8" font-family="Times,serif" font-size="14.00" fill="#000000">pw=7.621526917142583e&#45;62</text>
<polyline fill="none" stroke="#000000" points="1338.062,-503.5 1527.2231,-503.5 "/>
<text text-anchor="middle" x="1432.6426" y="-486.8" font-family="Times,serif" font-size="14.00" fill="#000000">pm=1.5662496217157523e&#45;63</text>
<polyline fill="none" stroke="#000000" points="1338.062,-478.5 1527.2231,-478.5 "/>
<text text-anchor="middle" x="1432.6426" y="-461.8" font-family="Times,serif" font-size="14.00" fill="#000000">as=[4, 11, 139, 17, 5]</text>
</g>
<!-- name3&#45;&gt;name22 -->
<g id="edge9" class="edge">
<title>name3&#45;&gt;name22</title>
<path fill="none" stroke="#000000" d="M904.3472,-607.5136C907.4566,-606.2667 910.5609,-605.0899 913.6426,-604 1052.3683,-554.9381 1220.898,-527.9104 1327.4881,-514.5611"/>
<polygon fill="#000000" stroke="#000000" points="1328.1112,-518.0108 1337.6068,-513.3116 1327.2533,-511.0636 1328.1112,-518.0108"/>
<text text-anchor="middle" x="1014.1426" y="-574.8" font-family="Times,serif" font-size="14.00" fill="#000000">3</text>
</g>
<!-- name28 -->
<g id="node11" class="node">
<title>name28</title>
<polygon fill="none" stroke="#000000" points="1545.3999,-453.5 1545.3999,-553.5 1729.8853,-553.5 1729.8853,-453.5 1545.3999,-453.5"/>
<text text-anchor="middle" x="1637.6426" y="-536.8" font-family="Times,serif" font-size="14.00" fill="#000000">pe=1.5837900731967032e&#45;22</text>
<polyline fill="none" stroke="#000000" points="1545.3999,-528.5 1729.8853,-528.5 "/>
<text text-anchor="middle" x="1637.6426" y="-511.8" font-family="Times,serif" font-size="14.00" fill="#000000">pw=8.102013807828658e&#45;23</text>
<polyline fill="none" stroke="#000000" points="1545.3999,-503.5 1729.8853,-503.5 "/>
<text text-anchor="middle" x="1637.6426" y="-486.8" font-family="Times,serif" font-size="14.00" fill="#000000">pm=7.918950365983516e&#45;23</text>
<polyline fill="none" stroke="#000000" points="1545.3999,-478.5 1729.8853,-478.5 "/>
<text text-anchor="middle" x="1637.6426" y="-461.8" font-family="Times,serif" font-size="14.00" fill="#000000">as=[2, 3, 30, 5, 3]</text>
</g>
<!-- name3&#45;&gt;name28 -->
<g id="edge10" class="edge">
<title>name3&#45;&gt;name28</title>
<path fill="none" stroke="#000000" d="M904.2019,-607.0633C907.3526,-605.9445 910.5051,-604.917 913.6426,-604 1043.9611,-565.9135 1386.9789,-590.1494 1535.2653,-553.9903"/>
<polygon fill="#000000" stroke="#000000" points="1536.3836,-557.3157 1545.1735,-551.4007 1534.6134,-550.5432 1536.3836,-557.3157"/>
<text text-anchor="middle" x="1398.1426" y="-574.8" font-family="Times,serif" font-size="14.00" fill="#000000">4</text>
</g>
<!-- name7 -->
<g id="node12" class="node">
<title>name7</title>
<polygon fill="none" stroke="#000000" points="144.6426,-302.5 144.6426,-402.5 326.6426,-402.5 326.6426,-302.5 144.6426,-302.5"/>
<text text-anchor="middle" x="235.4668" y="-385.8" font-family="Times,serif" font-size="14.00" fill="#000000">pe=6.30665024823683e&#45;12</text>
<polyline fill="none" stroke="#000000" points="144.6426,-377.5 326.291,-377.5 "/>
<text text-anchor="middle" x="235.4668" y="-360.8" font-family="Times,serif" font-size="14.00" fill="#000000">pw=3.571766475377984e&#45;12</text>
<polyline fill="none" stroke="#000000" points="144.6426,-352.5 326.291,-352.5 "/>
<text text-anchor="middle" x="235.4668" y="-335.8" font-family="Times,serif" font-size="14.00" fill="#000000">pm=3.153325124118415e&#45;12</text>
<polyline fill="none" stroke="#000000" points="144.6426,-327.5 326.291,-327.5 "/>
<text text-anchor="middle" x="235.4668" y="-310.8" font-family="Times,serif" font-size="14.00" fill="#000000">as=[0, 2, 8, 5, 2]</text>
</g>
<!-- name6&#45;&gt;name7 -->
<g id="edge11" class="edge">
<title>name6&#45;&gt;name7</title>
<path fill="none" stroke="#000000" d="M736.4252,-456.1402C733.4938,-455.0091 730.5614,-453.9567 727.6426,-453 708.1659,-446.6158 401.6857,-414.1768 336.6884,-402.2472"/>
<polygon fill="#000000" stroke="#000000" points="337.1944,-398.7745 326.6742,-400.0296 335.6809,-405.609 337.1944,-398.7745"/>
<text text-anchor="middle" x="591.1426" y="-423.8" font-family="Times,serif" font-size="14.00" fill="#000000">0</text>
</g>
<!-- name8 -->
<g id="node13" class="node">
<title>name8</title>
<polygon fill="none" stroke="#000000" points="345.1426,-302.5 345.1426,-402.5 534.1426,-402.5 534.1426,-302.5 345.1426,-302.5"/>
<text text-anchor="middle" x="439.4668" y="-385.8" font-family="Times,serif" font-size="14.00" fill="#000000">pe=3.8228970353821523e&#45;35</text>
<polyline fill="none" stroke="#000000" points="345.1426,-377.5 533.791,-377.5 "/>
<text text-anchor="middle" x="439.4668" y="-360.8" font-family="Times,serif" font-size="14.00" fill="#000000">pw=1.9487401811994485e&#45;35</text>
<polyline fill="none" stroke="#000000" points="345.1426,-352.5 533.791,-352.5 "/>
<text text-anchor="middle" x="439.4668" y="-335.8" font-family="Times,serif" font-size="14.00" fill="#000000">pm=1.9114485176910762e&#45;35</text>
<polyline fill="none" stroke="#000000" points="345.1426,-327.5 533.791,-327.5 "/>
<text text-anchor="middle" x="439.4668" y="-310.8" font-family="Times,serif" font-size="14.00" fill="#000000">as=[4, 8, 44, 9, 2]</text>
</g>
<!-- name6&#45;&gt;name8 -->
<g id="edge12" class="edge">
<title>name6&#45;&gt;name8</title>
<path fill="none" stroke="#000000" d="M736.4898,-456.7701C733.5275,-455.4503 730.5727,-454.1884 727.6426,-453 651.6435,-422.1772 624.3864,-432.1661 543.7556,-403.2269"/>
<polygon fill="#000000" stroke="#000000" points="544.7829,-399.8754 534.1895,-399.7029 542.3632,-406.4439 544.7829,-399.8754"/>
<text text-anchor="middle" x="675.1426" y="-423.8" font-family="Times,serif" font-size="14.00" fill="#000000">1</text>
</g>
<!-- name9 -->
<g id="node14" class="node">
<title>name9</title>
<polygon fill="none" stroke="#000000" points="552.1426,-302.5 552.1426,-402.5 709.1426,-402.5 709.1426,-302.5 552.1426,-302.5"/>
<text text-anchor="middle" x="630.3271" y="-385.8" font-family="Times,serif" font-size="14.00" fill="#000000">pe=2.36425e&#45;318</text>
<polyline fill="none" stroke="#000000" points="552.1426,-377.5 708.5117,-377.5 "/>
<text text-anchor="middle" x="630.3271" y="-360.8" font-family="Times,serif" font-size="14.00" fill="#000000">pw=7.3374249804e&#45;314</text>
<polyline fill="none" stroke="#000000" points="552.1426,-352.5 708.5117,-352.5 "/>
<text text-anchor="middle" x="630.3271" y="-335.8" font-family="Times,serif" font-size="14.00" fill="#000000">pm=3.04835366e&#45;316</text>
<polyline fill="none" stroke="#000000" points="552.1426,-327.5 708.5117,-327.5 "/>
<text text-anchor="middle" x="630.3271" y="-310.8" font-family="Times,serif" font-size="14.00" fill="#000000">as=[21, 63, 1157, 81, 10]</text>
</g>
<!-- name6&#45;&gt;name9 -->
<g id="edge13" class="edge">
<title>name6&#45;&gt;name9</title>
<path fill="none" stroke="#000000" d="M756.3024,-453.4289C738.6915,-439.284 719.4018,-423.7907 701.3377,-409.2817"/>
<polygon fill="#000000" stroke="#000000" points="703.123,-406.2265 693.1347,-402.6931 698.7395,-411.6841 703.123,-406.2265"/>
<text text-anchor="middle" x="734.1426" y="-423.8" font-family="Times,serif" font-size="14.00" fill="#000000">2</text>
</g>
<!-- name20 -->
<g id="node15" class="node">
<title>name20</title>
<polygon fill="none" stroke="#000000" points="727.562,-302.5 727.562,-402.5 909.7231,-402.5 909.7231,-302.5 727.562,-302.5"/>
<text text-anchor="middle" x="818.6426" y="-385.8" font-family="Times,serif" font-size="14.00" fill="#000000">pe=1.466922756247625e&#45;54</text>
<polyline fill="none" stroke="#000000" points="727.562,-377.5 909.7231,-377.5 "/>
<text text-anchor="middle" x="818.6426" y="-360.8" font-family="Times,serif" font-size="14.00" fill="#000000">pw=7.340833902662742e&#45;55</text>
<polyline fill="none" stroke="#000000" points="727.562,-352.5 909.7231,-352.5 "/>
<text text-anchor="middle" x="818.6426" y="-335.8" font-family="Times,serif" font-size="14.00" fill="#000000">pm=7.334613781238125e&#45;55</text>
<polyline fill="none" stroke="#000000" points="727.562,-327.5 909.7231,-327.5 "/>
<text text-anchor="middle" x="818.6426" y="-310.8" font-family="Times,serif" font-size="14.00" fill="#000000">as=[5, 11, 106, 15, 2]</text>
</g>
<!-- name6&#45;&gt;name20 -->
<g id="edge14" class="edge">
<title>name6&#45;&gt;name20</title>
<path fill="none" stroke="#000000" d="M818.6426,-453.2192C818.6426,-440.2296 818.6426,-426.1148 818.6426,-412.6762"/>
<polygon fill="#000000" stroke="#000000" points="822.1427,-412.5612 818.6426,-402.5612 815.1427,-412.5613 822.1427,-412.5612"/>
<text text-anchor="middle" x="822.1426" y="-423.8" font-family="Times,serif" font-size="14.00" fill="#000000">3</text>
</g>
<!-- name21 -->
<g id="node16" class="node">
<title>name21</title>
<polygon fill="none" stroke="#000000" points="928.062,-302.5 928.062,-402.5 1117.2231,-402.5 1117.2231,-302.5 928.062,-302.5"/>
<text text-anchor="middle" x="1022.6426" y="-385.8" font-family="Times,serif" font-size="14.00" fill="#000000">pe=7.555370213028093e&#45;19</text>
<polyline fill="none" stroke="#000000" points="928.062,-377.5 1117.2231,-377.5 "/>
<text text-anchor="middle" x="1022.6426" y="-360.8" font-family="Times,serif" font-size="14.00" fill="#000000">pw=9.859449410161331e&#45;19</text>
<polyline fill="none" stroke="#000000" points="928.062,-352.5 1117.2231,-352.5 "/>
<text text-anchor="middle" x="1022.6426" y="-335.8" font-family="Times,serif" font-size="14.00" fill="#000000">pm=3.7776851065140466e&#45;19</text>
<polyline fill="none" stroke="#000000" points="928.062,-327.5 1117.2231,-327.5 "/>
<text text-anchor="middle" x="1022.6426" y="-310.8" font-family="Times,serif" font-size="14.00" fill="#000000">as=[2, 5, 18, 3, 2]</text>
</g>
<!-- name6&#45;&gt;name21 -->
<g id="edge15" class="edge">
<title>name6&#45;&gt;name21</title>
<path fill="none" stroke="#000000" d="M886.2883,-453.4289C905.6563,-439.0928 926.8954,-423.3717 946.7247,-408.6941"/>
<polygon fill="#000000" stroke="#000000" points="948.8766,-411.4558 954.832,-402.6931 944.712,-405.8294 948.8766,-411.4558"/>
<text text-anchor="middle" x="931.1426" y="-423.8" font-family="Times,serif" font-size="14.00" fill="#000000">4</text>
</g>
<!-- name23 -->
<g id="node17" class="node">
<title>name23</title>
<polygon fill="none" stroke="#000000" points="1135,-302.5 1135,-402.5 1320.2852,-402.5 1320.2852,-302.5 1135,-302.5"/>
<text text-anchor="middle" x="1227.6426" y="-385.8" font-family="Times,serif" font-size="14.00" fill="#000000">pe=0.0002886002886002886</text>
<polyline fill="none" stroke="#000000" points="1135,-377.5 1320.2852,-377.5 "/>
<text text-anchor="middle" x="1227.6426" y="-360.8" font-family="Times,serif" font-size="14.00" fill="#000000">pw=0.0006157287157287157</text>
<polyline fill="none" stroke="#000000" points="1135,-352.5 1320.2852,-352.5 "/>
<text text-anchor="middle" x="1227.6426" y="-335.8" font-family="Times,serif" font-size="14.00" fill="#000000">pm=0.0001443001443001443</text>
<polyline fill="none" stroke="#000000" points="1135,-327.5 1320.2852,-327.5 "/>
<text text-anchor="middle" x="1227.6426" y="-310.8" font-family="Times,serif" font-size="14.00" fill="#000000">as=[1, 1, 0, 1, 1]</text>
</g>
<!-- name22&#45;&gt;name23 -->
<g id="edge16" class="edge">
<title>name22&#45;&gt;name23</title>
<path fill="none" stroke="#000000" d="M1364.6653,-453.4289C1345.2023,-439.0928 1323.8591,-423.3717 1303.9326,-408.6941"/>
<polygon fill="#000000" stroke="#000000" points="1305.9129,-405.8058 1295.7856,-402.6931 1301.7614,-411.4419 1305.9129,-405.8058"/>
<text text-anchor="middle" x="1339.1426" y="-423.8" font-family="Times,serif" font-size="14.00" fill="#000000">0</text>
</g>
<!-- name24 -->
<g id="node18" class="node">
<title>name24</title>
<polygon fill="none" stroke="#000000" points="1338.1426,-302.5 1338.1426,-402.5 1527.1426,-402.5 1527.1426,-302.5 1338.1426,-302.5"/>
<text text-anchor="middle" x="1432.4668" y="-385.8" font-family="Times,serif" font-size="14.00" fill="#000000">pe=2.5927339909418082e&#45;11</text>
<polyline fill="none" stroke="#000000" points="1338.1426,-377.5 1526.791,-377.5 "/>
<text text-anchor="middle" x="1432.4668" y="-360.8" font-family="Times,serif" font-size="14.00" fill="#000000">pw=4.153317067927774e&#45;11</text>
<polyline fill="none" stroke="#000000" points="1338.1426,-352.5 1526.791,-352.5 "/>
<text text-anchor="middle" x="1432.4668" y="-335.8" font-family="Times,serif" font-size="14.00" fill="#000000">pm=1.2963669954709041e&#45;11</text>
<polyline fill="none" stroke="#000000" points="1338.1426,-327.5 1526.791,-327.5 "/>
<text text-anchor="middle" x="1432.4668" y="-310.8" font-family="Times,serif" font-size="14.00" fill="#000000">as=[1, 1, 8, 5, 1]</text>
</g>
<!-- name22&#45;&gt;name24 -->
<g id="edge17" class="edge">
<title>name22&#45;&gt;name24</title>
<path fill="none" stroke="#000000" d="M1432.6426,-453.2192C1432.6426,-440.2296 1432.6426,-426.1148 1432.6426,-412.6762"/>
<polygon fill="#000000" stroke="#000000" points="1436.1427,-412.5612 1432.6426,-402.5612 1429.1427,-412.5613 1436.1427,-412.5612"/>
<text text-anchor="middle" x="1436.1426" y="-423.8" font-family="Times,serif" font-size="14.00" fill="#000000">1</text>
</g>
<!-- name25 -->
<g id="node19" class="node">
<title>name25</title>
<polygon fill="none" stroke="#000000" points="1545.062,-302.5 1545.062,-402.5 1734.2231,-402.5 1734.2231,-302.5 1545.062,-302.5"/>
<text text-anchor="middle" x="1639.6426" y="-385.8" font-family="Times,serif" font-size="14.00" fill="#000000">pe=3.0834255436799034e&#45;36</text>
<polyline fill="none" stroke="#000000" points="1545.062,-377.5 1734.2231,-377.5 "/>
<text text-anchor="middle" x="1639.6426" y="-360.8" font-family="Times,serif" font-size="14.00" fill="#000000">pw=1.5417154098686175e&#45;36</text>
<polyline fill="none" stroke="#000000" points="1545.062,-352.5 1734.2231,-352.5 "/>
<text text-anchor="middle" x="1639.6426" y="-335.8" font-family="Times,serif" font-size="14.00" fill="#000000">pm=1.5417127718399517e&#45;36</text>
<polyline fill="none" stroke="#000000" points="1545.062,-327.5 1734.2231,-327.5 "/>
<text text-anchor="middle" x="1639.6426" y="-310.8" font-family="Times,serif" font-size="14.00" fill="#000000">as=[0, 9, 114, 8, 2]</text>
</g>
<!-- name22&#45;&gt;name25 -->
<g id="edge18" class="edge">
<title>name22&#45;&gt;name25</title>
<path fill="none" stroke="#000000" d="M1501.2831,-453.4289C1520.9359,-439.0928 1542.4873,-423.3717 1562.6083,-408.6941"/>
<polygon fill="#000000" stroke="#000000" points="1564.8185,-411.4141 1570.8348,-402.6931 1560.6932,-405.7589 1564.8185,-411.4141"/>
<text text-anchor="middle" x="1545.1426" y="-423.8" font-family="Times,serif" font-size="14.00" fill="#000000">2</text>
</g>
<!-- name26 -->
<g id="node20" class="node">
<title>name26</title>
<polygon fill="none" stroke="#000000" points="1752.1426,-302.5 1752.1426,-402.5 1941.1426,-402.5 1941.1426,-302.5 1752.1426,-302.5"/>
<text text-anchor="middle" x="1846.4668" y="-385.8" font-family="Times,serif" font-size="14.00" fill="#000000">pe=2.1723148405182172e&#45;11</text>
<polyline fill="none" stroke="#000000" points="1752.1426,-377.5 1940.791,-377.5 "/>
<text text-anchor="middle" x="1846.4668" y="-360.8" font-family="Times,serif" font-size="14.00" fill="#000000">pw=1.9226632100809305e&#45;11</text>
<polyline fill="none" stroke="#000000" points="1752.1426,-352.5 1940.791,-352.5 "/>
<text text-anchor="middle" x="1846.4668" y="-335.8" font-family="Times,serif" font-size="14.00" fill="#000000">pm=1.0861574202591086e&#45;11</text>
<polyline fill="none" stroke="#000000" points="1752.1426,-327.5 1940.791,-327.5 "/>
<text text-anchor="middle" x="1846.4668" y="-310.8" font-family="Times,serif" font-size="14.00" fill="#000000">as=[2, 0, 16, 3, 1]</text>
</g>
<!-- name22&#45;&gt;name26 -->
<g id="edge19" class="edge">
<title>name22&#45;&gt;name26</title>
<path fill="none" stroke="#000000" d="M1527.5045,-456.4271C1530.5687,-455.231 1533.6198,-454.0847 1536.6426,-453 1622.7688,-422.0949 1652.6345,-434.2504 1742.6417,-403.1628"/>
<polygon fill="#000000" stroke="#000000" points="1743.8737,-406.4396 1752.1327,-399.8034 1741.5379,-399.8408 1743.8737,-406.4396"/>
<text text-anchor="middle" x="1683.1426" y="-423.8" font-family="Times,serif" font-size="14.00" fill="#000000">3</text>
</g>
<!-- name27 -->
<g id="node21" class="node">
<title>name27</title>
<polygon fill="none" stroke="#000000" points="1959.6426,-302.5 1959.6426,-402.5 2067.6426,-402.5 2067.6426,-302.5 1959.6426,-302.5"/>
<text text-anchor="middle" x="2013.5835" y="-385.8" font-family="Times,serif" font-size="14.00" fill="#000000">pe=0.2</text>
<polyline fill="none" stroke="#000000" points="1959.6426,-377.5 2067.5244,-377.5 "/>
<text text-anchor="middle" x="2013.5835" y="-360.8" font-family="Times,serif" font-size="14.00" fill="#000000">pw=0.2</text>
<polyline fill="none" stroke="#000000" points="1959.6426,-352.5 2067.5244,-352.5 "/>
<text text-anchor="middle" x="2013.5835" y="-335.8" font-family="Times,serif" font-size="14.00" fill="#000000">pm=0.1</text>
<polyline fill="none" stroke="#000000" points="1959.6426,-327.5 2067.5244,-327.5 "/>
<text text-anchor="middle" x="2013.5835" y="-310.8" font-family="Times,serif" font-size="14.00" fill="#000000">as=[0, 0, 1, 0, 0]</text>
</g>
<!-- name22&#45;&gt;name27 -->
<g id="edge20" class="edge">
<title>name22&#45;&gt;name27</title>
<path fill="none" stroke="#000000" d="M1527.3466,-455.9414C1530.4564,-454.8856 1533.5599,-453.9005 1536.6426,-453 1602.7887,-433.6783 1622.2229,-443.2089 1690.6426,-435 1803.0801,-421.5099 1841.2755,-446.7889 1950.11,-402.6284"/>
<polygon fill="#000000" stroke="#000000" points="1951.5721,-405.8109 1959.4595,-398.737 1948.8823,-399.3484 1951.5721,-405.8109"/>
<text text-anchor="middle" x="1902.1426" y="-423.8" font-family="Times,serif" font-size="14.00" fill="#000000">4</text>
</g>
<!-- name10 -->
<g id="node22" class="node">
<title>name10</title>
<polygon fill="none" stroke="#000000" points="120.4517,-151.5 120.4517,-251.5 308.8335,-251.5 308.8335,-151.5 120.4517,-151.5"/>
<text text-anchor="middle" x="214.6426" y="-234.8" font-family="Times,serif" font-size="14.00" fill="#000000">pe=1.0309607832827647e&#45;06</text>
<polyline fill="none" stroke="#000000" points="120.4517,-226.5 308.8335,-226.5 "/>
<text text-anchor="middle" x="214.6426" y="-209.8" font-family="Times,serif" font-size="14.00" fill="#000000">pw=1.5555070316680224e&#45;06</text>
<polyline fill="none" stroke="#000000" points="120.4517,-201.5 308.8335,-201.5 "/>
<text text-anchor="middle" x="214.6426" y="-184.8" font-family="Times,serif" font-size="14.00" fill="#000000">pm=5.154803916413823e&#45;07</text>
<polyline fill="none" stroke="#000000" points="120.4517,-176.5 308.8335,-176.5 "/>
<text text-anchor="middle" x="214.6426" y="-159.8" font-family="Times,serif" font-size="14.00" fill="#000000">as=[1, 1, 3, 3, 0]</text>
</g>
<!-- name9&#45;&gt;name10 -->
<g id="edge21" class="edge">
<title>name9&#45;&gt;name10</title>
<path fill="none" stroke="#000000" d="M552.0484,-305.9036C548.9052,-304.518 545.7631,-303.2097 542.6426,-302 450.1138,-266.1302 416.4234,-284.6463 318.5216,-252.0773"/>
<polygon fill="#000000" stroke="#000000" points="319.4373,-248.6914 308.8427,-248.7625 317.1692,-255.3138 319.4373,-248.6914"/>
<text text-anchor="middle" x="487.1426" y="-272.8" font-family="Times,serif" font-size="14.00" fill="#000000">0</text>
</g>
<!-- name11 -->
<g id="node23" class="node">
<title>name11</title>
<polygon fill="none" stroke="#000000" points="326.4517,-151.5 326.4517,-251.5 514.8335,-251.5 514.8335,-151.5 326.4517,-151.5"/>
<text text-anchor="middle" x="420.6426" y="-234.8" font-family="Times,serif" font-size="14.00" fill="#000000">pe=1.3328649228255627e&#45;26</text>
<polyline fill="none" stroke="#000000" points="326.4517,-226.5 514.8335,-226.5 "/>
<text text-anchor="middle" x="420.6426" y="-209.8" font-family="Times,serif" font-size="14.00" fill="#000000">pw=3.1340149181878756e&#45;24</text>
<polyline fill="none" stroke="#000000" points="326.4517,-201.5 514.8335,-201.5 "/>
<text text-anchor="middle" x="420.6426" y="-184.8" font-family="Times,serif" font-size="14.00" fill="#000000">pm=3.972639238433879e&#45;26</text>
<polyline fill="none" stroke="#000000" points="326.4517,-176.5 514.8335,-176.5 "/>
<text text-anchor="middle" x="420.6426" y="-159.8" font-family="Times,serif" font-size="14.00" fill="#000000">as=[4, 3, 26, 8, 3]</text>
</g>
<!-- name9&#45;&gt;name11 -->
<g id="edge22" class="edge">
<title>name9&#45;&gt;name11</title>
<path fill="none" stroke="#000000" d="M561.0073,-302.4289C541.0697,-288.0928 519.2059,-272.3717 498.7933,-257.6941"/>
<polygon fill="#000000" stroke="#000000" points="500.6099,-254.6895 490.4476,-251.6931 496.5233,-260.3728 500.6099,-254.6895"/>
<text text-anchor="middle" x="536.1426" y="-272.8" font-family="Times,serif" font-size="14.00" fill="#000000">1</text>
</g>
<!-- name17 -->
<g id="node24" class="node">
<title>name17</title>
<polygon fill="none" stroke="#000000" points="532.562,-151.5 532.562,-251.5 728.7231,-251.5 728.7231,-151.5 532.562,-151.5"/>
<text text-anchor="middle" x="630.6426" y="-234.8" font-family="Times,serif" font-size="14.00" fill="#000000">pe=6.093167763921049e&#45;246</text>
<polyline fill="none" stroke="#000000" points="532.562,-226.5 728.7231,-226.5 "/>
<text text-anchor="middle" x="630.6426" y="-209.8" font-family="Times,serif" font-size="14.00" fill="#000000">pw=3.066258795090243e&#45;246</text>
<polyline fill="none" stroke="#000000" points="532.562,-201.5 728.7231,-201.5 "/>
<text text-anchor="middle" x="630.6426" y="-184.8" font-family="Times,serif" font-size="14.00" fill="#000000">pm=3.0465838819605243e&#45;246</text>
<polyline fill="none" stroke="#000000" points="532.562,-176.5 728.7231,-176.5 "/>
<text text-anchor="middle" x="630.6426" y="-159.8" font-family="Times,serif" font-size="14.00" fill="#000000">as=[12, 58, 1023, 59, 4]</text>
</g>
<!-- name9&#45;&gt;name17 -->
<g id="edge23" class="edge">
<title>name9&#45;&gt;name17</title>
<path fill="none" stroke="#000000" d="M630.6426,-302.2192C630.6426,-289.2296 630.6426,-275.1148 630.6426,-261.6762"/>
<polygon fill="#000000" stroke="#000000" points="634.1427,-261.5612 630.6426,-251.5612 627.1427,-261.5613 634.1427,-261.5612"/>
<text text-anchor="middle" x="634.1426" y="-272.8" font-family="Times,serif" font-size="14.00" fill="#000000">2</text>
</g>
<!-- name18 -->
<g id="node25" class="node">
<title>name18</title>
<polygon fill="none" stroke="#000000" points="746.4517,-151.5 746.4517,-251.5 934.8335,-251.5 934.8335,-151.5 746.4517,-151.5"/>
<text text-anchor="middle" x="840.6426" y="-234.8" font-family="Times,serif" font-size="14.00" fill="#000000">pe=4.48795421147022e&#45;32</text>
<polyline fill="none" stroke="#000000" points="746.4517,-226.5 934.8335,-226.5 "/>
<text text-anchor="middle" x="840.6426" y="-209.8" font-family="Times,serif" font-size="14.00" fill="#000000">pw=2.2514720000032584e&#45;32</text>
<polyline fill="none" stroke="#000000" points="746.4517,-201.5 934.8335,-201.5 "/>
<text text-anchor="middle" x="840.6426" y="-184.8" font-family="Times,serif" font-size="14.00" fill="#000000">pm=2.24397710573511e&#45;32</text>
<polyline fill="none" stroke="#000000" points="746.4517,-176.5 934.8335,-176.5 "/>
<text text-anchor="middle" x="840.6426" y="-159.8" font-family="Times,serif" font-size="14.00" fill="#000000">as=[4, 1, 90, 8, 3]</text>
</g>
<!-- name9&#45;&gt;name18 -->
<g id="edge24" class="edge">
<title>name9&#45;&gt;name18</title>
<path fill="none" stroke="#000000" d="M700.2778,-302.4289C720.2155,-288.0928 742.0793,-272.3717 762.4919,-257.6941"/>
<polygon fill="#000000" stroke="#000000" points="764.7618,-260.3728 770.8376,-251.6931 760.6752,-254.6895 764.7618,-260.3728"/>
<text text-anchor="middle" x="746.1426" y="-272.8" font-family="Times,serif" font-size="14.00" fill="#000000">3</text>
</g>
<!-- name19 -->
<g id="node26" class="node">
<title>name19</title>
<polygon fill="none" stroke="#000000" points="952.4517,-151.5 952.4517,-251.5 1140.8335,-251.5 1140.8335,-151.5 952.4517,-151.5"/>
<text text-anchor="middle" x="1046.6426" y="-234.8" font-family="Times,serif" font-size="14.00" fill="#000000">pe=8.709686129040968e&#45;07</text>
<polyline fill="none" stroke="#000000" points="952.4517,-226.5 1140.8335,-226.5 "/>
<text text-anchor="middle" x="1046.6426" y="-209.8" font-family="Times,serif" font-size="14.00" fill="#000000">pw=4.3603191408733564e&#45;07</text>
<polyline fill="none" stroke="#000000" points="952.4517,-201.5 1140.8335,-201.5 "/>
<text text-anchor="middle" x="1046.6426" y="-184.8" font-family="Times,serif" font-size="14.00" fill="#000000">pm=4.354843064520484e&#45;07</text>
<polyline fill="none" stroke="#000000" points="952.4517,-176.5 1140.8335,-176.5 "/>
<text text-anchor="middle" x="1046.6426" y="-159.8" font-family="Times,serif" font-size="14.00" fill="#000000">as=[0, 0, 15, 3, 0]</text>
</g>
<!-- name9&#45;&gt;name19 -->
<g id="edge25" class="edge">
<title>name9&#45;&gt;name19</title>
<path fill="none" stroke="#000000" d="M709.2368,-305.9036C712.38,-304.518 715.5221,-303.2097 718.6426,-302 811.1713,-266.1302 844.8618,-284.6463 942.7635,-252.0773"/>
<polygon fill="#000000" stroke="#000000" points="944.1159,-255.3138 952.4425,-248.7625 941.8479,-248.6914 944.1159,-255.3138"/>
<text text-anchor="middle" x="879.1426" y="-272.8" font-family="Times,serif" font-size="14.00" fill="#000000">4</text>
</g>
<!-- name12 -->
<g id="node27" class="node">
<title>name12</title>
<polygon fill="none" stroke="#000000" points="0,-.5 0,-100.5 185.2852,-100.5 185.2852,-.5 0,-.5"/>
<text text-anchor="middle" x="92.6426" y="-83.8" font-family="Times,serif" font-size="14.00" fill="#000000">pe=0.0031746031746031746</text>
<polyline fill="none" stroke="#000000" points="0,-75.5 185.2852,-75.5 "/>
<text text-anchor="middle" x="92.6426" y="-58.8" font-family="Times,serif" font-size="14.00" fill="#000000">pw=0.003492063492063492</text>
<polyline fill="none" stroke="#000000" points="0,-50.5 185.2852,-50.5 "/>
<text text-anchor="middle" x="92.6426" y="-33.8" font-family="Times,serif" font-size="14.00" fill="#000000">pm=0.0015873015873015873</text>
<polyline fill="none" stroke="#000000" points="0,-25.5 185.2852,-25.5 "/>
<text text-anchor="middle" x="92.6426" y="-8.8" font-family="Times,serif" font-size="14.00" fill="#000000">as=[1, 1, 0, 0, 1]</text>
</g>
<!-- name11&#45;&gt;name12 -->
<g id="edge26" class="edge">
<title>name11&#45;&gt;name12</title>
<path fill="none" stroke="#000000" d="M326.1893,-154.873C323.3138,-153.5553 320.46,-152.2615 317.6426,-151 263.784,-126.8852 248.4544,-125.2189 194.6426,-101 194.5469,-100.9569 194.4511,-100.9138 194.3553,-100.8706"/>
<polygon fill="#000000" stroke="#000000" points="195.8937,-97.7255 185.3432,-96.7566 192.9867,-104.0934 195.8937,-97.7255"/>
<text text-anchor="middle" x="277.1426" y="-121.8" font-family="Times,serif" font-size="14.00" fill="#000000">0</text>
</g>
<!-- name13 -->
<g id="node28" class="node">
<title>name13</title>
<polygon fill="none" stroke="#000000" points="203.6426,-.5 203.6426,-100.5 311.6426,-100.5 311.6426,-.5 203.6426,-.5"/>
<text text-anchor="middle" x="257.5835" y="-83.8" font-family="Times,serif" font-size="14.00" fill="#000000">pe=0.2</text>
<polyline fill="none" stroke="#000000" points="203.6426,-75.5 311.5244,-75.5 "/>
<text text-anchor="middle" x="257.5835" y="-58.8" font-family="Times,serif" font-size="14.00" fill="#000000">pw=0.2</text>
<polyline fill="none" stroke="#000000" points="203.6426,-50.5 311.5244,-50.5 "/>
<text text-anchor="middle" x="257.5835" y="-33.8" font-family="Times,serif" font-size="14.00" fill="#000000">pm=0.1</text>
<polyline fill="none" stroke="#000000" points="203.6426,-25.5 311.5244,-25.5 "/>
<text text-anchor="middle" x="257.5835" y="-8.8" font-family="Times,serif" font-size="14.00" fill="#000000">as=[0, 0, 0, 1, 0]</text>
</g>
<!-- name11&#45;&gt;name13 -->
<g id="edge27" class="edge">
<title>name11&#45;&gt;name13</title>
<path fill="none" stroke="#000000" d="M366.3659,-151.2192C351.2443,-137.2108 334.7101,-121.8938 319.2021,-107.5275"/>
<polygon fill="#000000" stroke="#000000" points="321.3967,-104.7896 311.6822,-100.5612 316.6396,-109.9247 321.3967,-104.7896"/>
<text text-anchor="middle" x="348.1426" y="-121.8" font-family="Times,serif" font-size="14.00" fill="#000000">1</text>
</g>
<!-- name14 -->
<g id="node29" class="node">
<title>name14</title>
<polygon fill="none" stroke="#000000" points="329.562,-.5 329.562,-100.5 511.7231,-100.5 511.7231,-.5 329.562,-.5"/>
<text text-anchor="middle" x="420.6426" y="-83.8" font-family="Times,serif" font-size="14.00" fill="#000000">pe=4.294740827886098e&#45;17</text>
<polyline fill="none" stroke="#000000" points="329.562,-75.5 511.7231,-75.5 "/>
<text text-anchor="middle" x="420.6426" y="-58.8" font-family="Times,serif" font-size="14.00" fill="#000000">pw=1.575484791485303e&#45;16</text>
<polyline fill="none" stroke="#000000" points="329.562,-50.5 511.7231,-50.5 "/>
<text text-anchor="middle" x="420.6426" y="-33.8" font-family="Times,serif" font-size="14.00" fill="#000000">pm=2.147370413943049e&#45;17</text>
<polyline fill="none" stroke="#000000" points="329.562,-25.5 511.7231,-25.5 "/>
<text text-anchor="middle" x="420.6426" y="-8.8" font-family="Times,serif" font-size="14.00" fill="#000000">as=[3, 2, 24, 2, 2]</text>
</g>
<!-- name11&#45;&gt;name14 -->
<g id="edge28" class="edge">
<title>name11&#45;&gt;name14</title>
<path fill="none" stroke="#000000" d="M420.6426,-151.2192C420.6426,-138.2296 420.6426,-124.1148 420.6426,-110.6762"/>
<polygon fill="#000000" stroke="#000000" points="424.1427,-110.5612 420.6426,-100.5612 417.1427,-110.5613 424.1427,-110.5612"/>
<text text-anchor="middle" x="424.1426" y="-121.8" font-family="Times,serif" font-size="14.00" fill="#000000">2</text>
</g>
<!-- name15 -->
<g id="node30" class="node">
<title>name15</title>
<polygon fill="none" stroke="#000000" points="530,-.5 530,-100.5 715.2852,-100.5 715.2852,-.5 530,-.5"/>
<text text-anchor="middle" x="622.6426" y="-83.8" font-family="Times,serif" font-size="14.00" fill="#000000">pe=0.0004662004662004662</text>
<polyline fill="none" stroke="#000000" points="530,-75.5 715.2852,-75.5 "/>
<text text-anchor="middle" x="622.6426" y="-58.8" font-family="Times,serif" font-size="14.00" fill="#000000">pw=0.0002842171162171162</text>
<polyline fill="none" stroke="#000000" points="530,-50.5 715.2852,-50.5 "/>
<text text-anchor="middle" x="622.6426" y="-33.8" font-family="Times,serif" font-size="14.00" fill="#000000">pm=0.0002331002331002331</text>
<polyline fill="none" stroke="#000000" points="530,-25.5 715.2852,-25.5 "/>
<text text-anchor="middle" x="622.6426" y="-8.8" font-family="Times,serif" font-size="14.00" fill="#000000">as=[0, 0, 2, 4, 0]</text>
</g>
<!-- name11&#45;&gt;name15 -->
<g id="edge29" class="edge">
<title>name11&#45;&gt;name15</title>
<path fill="none" stroke="#000000" d="M487.6251,-151.4289C506.8032,-137.0928 527.8341,-121.3717 547.469,-106.6941"/>
<polygon fill="#000000" stroke="#000000" points="549.5829,-109.4838 555.4968,-100.6931 545.3917,-103.8771 549.5829,-109.4838"/>
<text text-anchor="middle" x="532.1426" y="-121.8" font-family="Times,serif" font-size="14.00" fill="#000000">3</text>
</g>
<!-- name16 -->
<g id="node31" class="node">
<title>name16</title>
<polygon fill="none" stroke="#000000" points="733.6426,-.5 733.6426,-100.5 841.6426,-100.5 841.6426,-.5 733.6426,-.5"/>
<text text-anchor="middle" x="787.5835" y="-83.8" font-family="Times,serif" font-size="14.00" fill="#000000">pe=0.2</text>
<polyline fill="none" stroke="#000000" points="733.6426,-75.5 841.5244,-75.5 "/>
<text text-anchor="middle" x="787.5835" y="-58.8" font-family="Times,serif" font-size="14.00" fill="#000000">pw=0.2</text>
<polyline fill="none" stroke="#000000" points="733.6426,-50.5 841.5244,-50.5 "/>
<text text-anchor="middle" x="787.5835" y="-33.8" font-family="Times,serif" font-size="14.00" fill="#000000">pm=0.1</text>
<polyline fill="none" stroke="#000000" points="733.6426,-25.5 841.5244,-25.5 "/>
<text text-anchor="middle" x="787.5835" y="-8.8" font-family="Times,serif" font-size="14.00" fill="#000000">as=[0, 0, 0, 1, 0]</text>
</g>
<!-- name11&#45;&gt;name16 -->
<g id="edge30" class="edge">
<title>name11&#45;&gt;name16</title>
<path fill="none" stroke="#000000" d="M514.8773,-154.3343C517.8163,-153.173 520.7426,-152.058 523.6426,-151 610.1227,-119.449 642.1458,-141.848 724.6426,-101 724.7368,-100.9533 724.831,-100.9065 724.9252,-100.8596"/>
<polygon fill="#000000" stroke="#000000" points="726.5523,-103.9592 733.6282,-96.0736 723.1792,-97.8254 726.5523,-103.9592"/>
<text text-anchor="middle" x="680.1426" y="-121.8" font-family="Times,serif" font-size="14.00" fill="#000000">4</text>
</g>
</g>
</svg>
