<?xml version="1.0" encoding="UTF-8" standalone="no"?>
<!DOCTYPE svg PUBLIC "-//W3C//DTD SVG 1.1//EN"
 "http://www.w3.org/Graphics/SVG/1.1/DTD/svg11.dtd">
<!-- Generated by graphviz version 2.40.1 (20161225.0304)
 -->
<!-- Title: nodes Pages: 1 -->
<svg width="2074pt" height="792pt"
 viewBox="0.00 0.00 2073.58 792.00" xmlns="http://www.w3.org/2000/svg" xmlns:xlink="http://www.w3.org/1999/xlink">
<g id="graph0" class="graph" transform="scale(1 1) rotate(0) translate(4 788)">
<title>nodes</title>
<polygon fill="#ffffff" stroke="transparent" points="-4,4 -4,-788 2069.5835,-788 2069.5835,4 -4,4"/>
<!-- name0 -->
<g id="node1" class="node">
<title>name0</title>
<polygon fill="none" stroke="#000000" points="732.2017,-695.5 732.2017,-783.5 903.0835,-783.5 903.0835,-695.5 732.2017,-695.5"/>
<text text-anchor="middle" x="817.6426" y="-768.3" font-family="Times,serif" font-size="14.00" fill="#000000">pe=0.0</text>
<polyline fill="none" stroke="#000000" points="732.2017,-761.5 903.0835,-761.5 "/>
<text text-anchor="middle" x="817.6426" y="-746.3" font-family="Times,serif" font-size="14.00" fill="#000000">pw=0.0</text>
<polyline fill="none" stroke="#000000" points="732.2017,-739.5 903.0835,-739.5 "/>
<text text-anchor="middle" x="817.6426" y="-724.3" font-family="Times,serif" font-size="14.00" fill="#000000">pm=0.0</text>
<polyline fill="none" stroke="#000000" points="732.2017,-717.5 903.0835,-717.5 "/>
<text text-anchor="middle" x="817.6426" y="-702.3" font-family="Times,serif" font-size="14.00" fill="#000000">as=[76, 187, 1965, 249, 59]</text>
</g>
<!-- name1 -->
<g id="node2" class="node">
<title>name1</title>
<polygon fill="none" stroke="#000000" points="318.4517,-556.5 318.4517,-644.5 506.8335,-644.5 506.8335,-556.5 318.4517,-556.5"/>
<text text-anchor="middle" x="412.6426" y="-629.3" font-family="Times,serif" font-size="14.00" fill="#000000">pe=1.2030940880480354e&#45;49</text>
<polyline fill="none" stroke="#000000" points="318.4517,-622.5 506.8335,-622.5 "/>
<text text-anchor="middle" x="412.6426" y="-607.3" font-family="Times,serif" font-size="14.00" fill="#000000">pw=6.6850431969624555e&#45;50</text>
<polyline fill="none" stroke="#000000" points="318.4517,-600.5 506.8335,-600.5 "/>
<text text-anchor="middle" x="412.6426" y="-585.3" font-family="Times,serif" font-size="14.00" fill="#000000">pm=6.015470440240177e&#45;50</text>
<polyline fill="none" stroke="#000000" points="318.4517,-578.5 506.8335,-578.5 "/>
<text text-anchor="middle" x="412.6426" y="-563.3" font-family="Times,serif" font-size="14.00" fill="#000000">as=[9, 10, 37, 14, 6]</text>
</g>
<!-- name0&#45;&gt;name1 -->
<g id="edge1" class="edge">
<title>name0&#45;&gt;name1</title>
<path fill="none" stroke="#000000" d="M731.8931,-715.0679C671.2452,-697.1847 588.3047,-671.5052 516.6426,-645 516.5418,-644.9627 516.4411,-644.9254 516.3403,-644.8881"/>
<polygon fill="#000000" stroke="#000000" points="517.4493,-641.5656 506.8577,-641.3002 514.972,-648.1126 517.4493,-641.5656"/>
<text text-anchor="middle" x="611.1426" y="-665.8" font-family="Times,serif" font-size="14.00" fill="#000000">0</text>
</g>
<!-- name2 -->
<g id="node3" class="node">
<title>name2</title>
<polygon fill="none" stroke="#000000" points="525.3184,-556.5 525.3184,-644.5 713.9668,-644.5 713.9668,-556.5 525.3184,-556.5"/>
<text text-anchor="middle" x="619.6426" y="-629.3" font-family="Times,serif" font-size="14.00" fill="#000000">pe=4.2969935584060234e&#45;92</text>
<polyline fill="none" stroke="#000000" points="525.3184,-622.5 713.9668,-622.5 "/>
<text text-anchor="middle" x="619.6426" y="-607.3" font-family="Times,serif" font-size="14.00" fill="#000000">pw=2.156380622734239e&#45;92</text>
<polyline fill="none" stroke="#000000" points="525.3184,-600.5 713.9668,-600.5 "/>
<text text-anchor="middle" x="619.6426" y="-585.3" font-family="Times,serif" font-size="14.00" fill="#000000">pm=2.1484967792030117e&#45;92</text>
<polyline fill="none" stroke="#000000" points="525.3184,-578.5 713.9668,-578.5 "/>
<text text-anchor="middle" x="619.6426" y="-563.3" font-family="Times,serif" font-size="14.00" fill="#000000">as=[7, 18, 123, 28, 11]</text>
</g>
<!-- name0&#45;&gt;name2 -->
<g id="edge2" class="edge">
<title>name0&#45;&gt;name2</title>
<path fill="none" stroke="#000000" d="M754.7221,-695.3285C734.3288,-681.0121 711.5694,-665.0345 690.6314,-650.3356"/>
<polygon fill="#000000" stroke="#000000" points="692.595,-647.4377 682.3994,-644.5565 688.5729,-653.1669 692.595,-647.4377"/>
<text text-anchor="middle" x="728.1426" y="-665.8" font-family="Times,serif" font-size="14.00" fill="#000000">1</text>
</g>
<!-- name3 -->
<g id="node4" class="node">
<title>name3</title>
<polygon fill="none" stroke="#000000" points="732.2017,-556.5 732.2017,-644.5 903.0835,-644.5 903.0835,-556.5 732.2017,-556.5"/>
<text text-anchor="middle" x="817.6426" y="-629.3" font-family="Times,serif" font-size="14.00" fill="#000000">pe=0.0</text>
<polyline fill="none" stroke="#000000" points="732.2017,-622.5 903.0835,-622.5 "/>
<text text-anchor="middle" x="817.6426" y="-607.3" font-family="Times,serif" font-size="14.00" fill="#000000">pw=0.0</text>
<polyline fill="none" stroke="#000000" points="732.2017,-600.5 903.0835,-600.5 "/>
<text text-anchor="middle" x="817.6426" y="-585.3" font-family="Times,serif" font-size="14.00" fill="#000000">pm=0.0</text>
<polyline fill="none" stroke="#000000" points="732.2017,-578.5 903.0835,-578.5 "/>
<text text-anchor="middle" x="817.6426" y="-563.3" font-family="Times,serif" font-size="14.00" fill="#000000">as=[47, 122, 1586, 173, 36]</text>
</g>
<!-- name0&#45;&gt;name3 -->
<g id="edge28" class="edge">
<title>name0&#45;&gt;name3</title>
<path fill="none" stroke="#000000" d="M817.6426,-695.1374C817.6426,-682.3481 817.6426,-668.2464 817.6426,-654.9215"/>
<polygon fill="#000000" stroke="#000000" points="821.1427,-654.9179 817.6426,-644.9179 814.1427,-654.918 821.1427,-654.9179"/>
<text text-anchor="middle" x="821.1426" y="-665.8" font-family="Times,serif" font-size="14.00" fill="#000000">2</text>
</g>
<!-- name29 -->
<g id="node30" class="node">
<title>name29</title>
<polygon fill="none" stroke="#000000" points="921.562,-556.5 921.562,-644.5 1117.7231,-644.5 1117.7231,-556.5 921.562,-556.5"/>
<text text-anchor="middle" x="1019.6426" y="-629.3" font-family="Times,serif" font-size="14.00" fill="#000000">pe=2.2997528637362743e&#45;107</text>
<polyline fill="none" stroke="#000000" points="921.562,-622.5 1117.7231,-622.5 "/>
<text text-anchor="middle" x="1019.6426" y="-607.3" font-family="Times,serif" font-size="14.00" fill="#000000">pw=7.431241169303256e&#45;107</text>
<polyline fill="none" stroke="#000000" points="921.562,-600.5 1117.7231,-600.5 "/>
<text text-anchor="middle" x="1019.6426" y="-585.3" font-family="Times,serif" font-size="14.00" fill="#000000">pm=1.1498764318681372e&#45;107</text>
<polyline fill="none" stroke="#000000" points="921.562,-578.5 1117.7231,-578.5 "/>
<text text-anchor="middle" x="1019.6426" y="-563.3" font-family="Times,serif" font-size="14.00" fill="#000000">as=[10, 30, 176, 29, 4]</text>
</g>
<!-- name0&#45;&gt;name29 -->
<g id="edge29" class="edge">
<title>name0&#45;&gt;name29</title>
<path fill="none" stroke="#000000" d="M881.8342,-695.3285C902.6394,-681.0121 925.8587,-665.0345 947.2196,-650.3356"/>
<polygon fill="#000000" stroke="#000000" points="949.364,-653.1087 955.618,-644.5565 945.3958,-647.342 949.364,-653.1087"/>
<text text-anchor="middle" x="929.1426" y="-665.8" font-family="Times,serif" font-size="14.00" fill="#000000">3</text>
</g>
<!-- name30 -->
<g id="node31" class="node">
<title>name30</title>
<polygon fill="none" stroke="#000000" points="1136.208,-556.5 1136.208,-644.5 1317.0771,-644.5 1317.0771,-556.5 1136.208,-556.5"/>
<text text-anchor="middle" x="1226.6426" y="-629.3" font-family="Times,serif" font-size="14.00" fill="#000000">pe=1.03502573907548e&#45;27</text>
<polyline fill="none" stroke="#000000" points="1136.208,-622.5 1317.0771,-622.5 "/>
<text text-anchor="middle" x="1226.6426" y="-607.3" font-family="Times,serif" font-size="14.00" fill="#000000">pw=5.181129489614375e&#45;28</text>
<polyline fill="none" stroke="#000000" points="1136.208,-600.5 1317.0771,-600.5 "/>
<text text-anchor="middle" x="1226.6426" y="-585.3" font-family="Times,serif" font-size="14.00" fill="#000000">pm=5.1751286953774e&#45;28</text>
<polyline fill="none" stroke="#000000" points="1136.208,-578.5 1317.0771,-578.5 "/>
<text text-anchor="middle" x="1226.6426" y="-563.3" font-family="Times,serif" font-size="14.00" fill="#000000">as=[3, 7, 43, 4, 2]</text>
</g>
<!-- name0&#45;&gt;name30 -->
<g id="edge30" class="edge">
<title>name0&#45;&gt;name30</title>
<path fill="none" stroke="#000000" d="M903.1681,-716.3785C965.7265,-698.735 1052.2887,-672.7954 1126.6426,-645 1126.7399,-644.9636 1126.8373,-644.9272 1126.9347,-644.8907"/>
<polygon fill="#000000" stroke="#000000" points="1128.012,-648.2263 1136.0914,-641.3726 1125.5013,-641.692 1128.012,-648.2263"/>
<text text-anchor="middle" x="1072.1426" y="-665.8" font-family="Times,serif" font-size="14.00" fill="#000000">4</text>
</g>
<!-- name4 -->
<g id="node5" class="node">
<title>name4</title>
<polygon fill="none" stroke="#000000" points="329.8184,-417.5 329.8184,-505.5 511.4668,-505.5 511.4668,-417.5 329.8184,-417.5"/>
<text text-anchor="middle" x="420.6426" y="-490.3" font-family="Times,serif" font-size="14.00" fill="#000000">pe=2.881533916230122e&#45;26</text>
<polyline fill="none" stroke="#000000" points="329.8184,-483.5 511.4668,-483.5 "/>
<text text-anchor="middle" x="420.6426" y="-468.3" font-family="Times,serif" font-size="14.00" fill="#000000">pw=4.821941987933464e&#45;26</text>
<polyline fill="none" stroke="#000000" points="329.8184,-461.5 511.4668,-461.5 "/>
<text text-anchor="middle" x="420.6426" y="-446.3" font-family="Times,serif" font-size="14.00" fill="#000000">pm=1.440766958115061e&#45;26</text>
<polyline fill="none" stroke="#000000" points="329.8184,-439.5 511.4668,-439.5 "/>
<text text-anchor="middle" x="420.6426" y="-424.3" font-family="Times,serif" font-size="14.00" fill="#000000">as=[6, 5, 17, 6, 3]</text>
</g>
<!-- name3&#45;&gt;name4 -->
<g id="edge3" class="edge">
<title>name3&#45;&gt;name4</title>
<path fill="none" stroke="#000000" d="M731.9984,-559.4667C728.8582,-558.2549 725.7328,-557.0944 722.6426,-556 638.4407,-526.1809 610.0583,-535.3318 521.3165,-506.0526"/>
<polygon fill="#000000" stroke="#000000" points="522.2572,-502.6762 511.6631,-502.7963 520.0198,-509.309 522.2572,-502.6762"/>
<text text-anchor="middle" x="661.1426" y="-526.8" font-family="Times,serif" font-size="14.00" fill="#000000">0</text>
</g>
<!-- name5 -->
<g id="node6" class="node">
<title>name5</title>
<polygon fill="none" stroke="#000000" points="529.4517,-417.5 529.4517,-505.5 717.8335,-505.5 717.8335,-417.5 529.4517,-417.5"/>
<text text-anchor="middle" x="623.6426" y="-490.3" font-family="Times,serif" font-size="14.00" fill="#000000">pe=1.3367593199102936e&#45;67</text>
<polyline fill="none" stroke="#000000" points="529.4517,-483.5 717.8335,-483.5 "/>
<text text-anchor="middle" x="623.6426" y="-468.3" font-family="Times,serif" font-size="14.00" fill="#000000">pw=6.7094472124506996e&#45;68</text>
<polyline fill="none" stroke="#000000" points="529.4517,-461.5 717.8335,-461.5 "/>
<text text-anchor="middle" x="623.6426" y="-446.3" font-family="Times,serif" font-size="14.00" fill="#000000">pm=6.683796599551468e&#45;68</text>
<polyline fill="none" stroke="#000000" points="529.4517,-439.5 717.8335,-439.5 "/>
<text text-anchor="middle" x="623.6426" y="-424.3" font-family="Times,serif" font-size="14.00" fill="#000000">as=[3, 14, 67, 32, 7]</text>
</g>
<!-- name3&#45;&gt;name5 -->
<g id="edge4" class="edge">
<title>name3&#45;&gt;name5</title>
<path fill="none" stroke="#000000" d="M755.9932,-556.3285C736.1004,-542.0754 713.9095,-526.1758 693.4697,-511.5308"/>
<polygon fill="#000000" stroke="#000000" points="695.2989,-508.5358 685.1316,-505.5565 691.2219,-514.2259 695.2989,-508.5358"/>
<text text-anchor="middle" x="730.1426" y="-526.8" font-family="Times,serif" font-size="14.00" fill="#000000">1</text>
</g>
<!-- name6 -->
<g id="node7" class="node">
<title>name6</title>
<polygon fill="none" stroke="#000000" points="735.958,-417.5 735.958,-505.5 899.3271,-505.5 899.3271,-417.5 735.958,-417.5"/>
<text text-anchor="middle" x="817.6426" y="-490.3" font-family="Times,serif" font-size="14.00" fill="#000000">pe=0.0</text>
<polyline fill="none" stroke="#000000" points="735.958,-483.5 899.3271,-483.5 "/>
<text text-anchor="middle" x="817.6426" y="-468.3" font-family="Times,serif" font-size="14.00" fill="#000000">pw=0.0</text>
<polyline fill="none" stroke="#000000" points="735.958,-461.5 899.3271,-461.5 "/>
<text text-anchor="middle" x="817.6426" y="-446.3" font-family="Times,serif" font-size="14.00" fill="#000000">pm=0.0</text>
<polyline fill="none" stroke="#000000" points="735.958,-439.5 899.3271,-439.5 "/>
<text text-anchor="middle" x="817.6426" y="-424.3" font-family="Times,serif" font-size="14.00" fill="#000000">as=[32, 89, 1333, 113, 18]</text>
</g>
<!-- name3&#45;&gt;name6 -->
<g id="edge20" class="edge">
<title>name3&#45;&gt;name6</title>
<path fill="none" stroke="#000000" d="M817.6426,-556.1374C817.6426,-543.3481 817.6426,-529.2464 817.6426,-515.9215"/>
<polygon fill="#000000" stroke="#000000" points="821.1427,-515.9179 817.6426,-505.9179 814.1427,-515.918 821.1427,-515.9179"/>
<text text-anchor="middle" x="821.1426" y="-526.8" font-family="Times,serif" font-size="14.00" fill="#000000">2</text>
</g>
<!-- name22 -->
<g id="node23" class="node">
<title>name22</title>
<polygon fill="none" stroke="#000000" points="1337.062,-417.5 1337.062,-505.5 1526.2231,-505.5 1526.2231,-417.5 1337.062,-417.5"/>
<text text-anchor="middle" x="1431.6426" y="-490.3" font-family="Times,serif" font-size="14.00" fill="#000000">pe=8.22607588100523e&#45;64</text>
<polyline fill="none" stroke="#000000" points="1337.062,-483.5 1526.2231,-483.5 "/>
<text text-anchor="middle" x="1431.6426" y="-468.3" font-family="Times,serif" font-size="14.00" fill="#000000">pw=7.621526917142583e&#45;62</text>
<polyline fill="none" stroke="#000000" points="1337.062,-461.5 1526.2231,-461.5 "/>
<text text-anchor="middle" x="1431.6426" y="-446.3" font-family="Times,serif" font-size="14.00" fill="#000000">pm=1.5662496217157523e&#45;63</text>
<polyline fill="none" stroke="#000000" points="1337.062,-439.5 1526.2231,-439.5 "/>
<text text-anchor="middle" x="1431.6426" y="-424.3" font-family="Times,serif" font-size="14.00" fill="#000000">as=[4, 11, 139, 17, 5]</text>
</g>
<!-- name3&#45;&gt;name22 -->
<g id="edge26" class="edge">
<title>name3&#45;&gt;name22</title>
<path fill="none" stroke="#000000" d="M903.2019,-559.2148C906.3662,-558.0742 909.5196,-556.9972 912.6426,-556 1052.5217,-511.3336 1220.7601,-485.5491 1326.9714,-472.5151"/>
<polygon fill="#000000" stroke="#000000" points="1327.5469,-475.9711 1337.0532,-471.2934 1326.7047,-469.0219 1327.5469,-475.9711"/>
<text text-anchor="middle" x="1028.1426" y="-526.8" font-family="Times,serif" font-size="14.00" fill="#000000">3</text>
</g>
<!-- name28 -->
<g id="node29" class="node">
<title>name28</title>
<polygon fill="none" stroke="#000000" points="1544.3999,-417.5 1544.3999,-505.5 1728.8853,-505.5 1728.8853,-417.5 1544.3999,-417.5"/>
<text text-anchor="middle" x="1636.6426" y="-490.3" font-family="Times,serif" font-size="14.00" fill="#000000">pe=1.5837900731967032e&#45;22</text>
<polyline fill="none" stroke="#000000" points="1544.3999,-483.5 1728.8853,-483.5 "/>
<text text-anchor="middle" x="1636.6426" y="-468.3" font-family="Times,serif" font-size="14.00" fill="#000000">pw=8.102013807828658e&#45;23</text>
<polyline fill="none" stroke="#000000" points="1544.3999,-461.5 1728.8853,-461.5 "/>
<text text-anchor="middle" x="1636.6426" y="-446.3" font-family="Times,serif" font-size="14.00" fill="#000000">pm=7.918950365983516e&#45;23</text>
<polyline fill="none" stroke="#000000" points="1544.3999,-439.5 1728.8853,-439.5 "/>
<text text-anchor="middle" x="1636.6426" y="-424.3" font-family="Times,serif" font-size="14.00" fill="#000000">as=[2, 3, 30, 5, 3]</text>
</g>
<!-- name3&#45;&gt;name28 -->
<g id="edge27" class="edge">
<title>name3&#45;&gt;name28</title>
<path fill="none" stroke="#000000" d="M903.3493,-558.7216C906.4581,-557.7294 909.5617,-556.8165 912.6426,-556 1043.8815,-521.2174 1385.1913,-539.1781 1534.3594,-505.9746"/>
<polygon fill="#000000" stroke="#000000" points="1535.4132,-509.3217 1544.3325,-503.6036 1533.7941,-502.5115 1535.4132,-509.3217"/>
<text text-anchor="middle" x="1383.1426" y="-526.8" font-family="Times,serif" font-size="14.00" fill="#000000">4</text>
</g>
<!-- name7 -->
<g id="node8" class="node">
<title>name7</title>
<polygon fill="none" stroke="#000000" points="145.8184,-278.5 145.8184,-366.5 327.4668,-366.5 327.4668,-278.5 145.8184,-278.5"/>
<text text-anchor="middle" x="236.6426" y="-351.3" font-family="Times,serif" font-size="14.00" fill="#000000">pe=6.30665024823683e&#45;12</text>
<polyline fill="none" stroke="#000000" points="145.8184,-344.5 327.4668,-344.5 "/>
<text text-anchor="middle" x="236.6426" y="-329.3" font-family="Times,serif" font-size="14.00" fill="#000000">pw=3.571766475377984e&#45;12</text>
<polyline fill="none" stroke="#000000" points="145.8184,-322.5 327.4668,-322.5 "/>
<text text-anchor="middle" x="236.6426" y="-307.3" font-family="Times,serif" font-size="14.00" fill="#000000">pm=3.153325124118415e&#45;12</text>
<polyline fill="none" stroke="#000000" points="145.8184,-300.5 327.4668,-300.5 "/>
<text text-anchor="middle" x="236.6426" y="-285.3" font-family="Times,serif" font-size="14.00" fill="#000000">as=[0, 2, 8, 5, 2]</text>
</g>
<!-- name6&#45;&gt;name7 -->
<g id="edge5" class="edge">
<title>name6&#45;&gt;name7</title>
<path fill="none" stroke="#000000" d="M735.7917,-419.9854C732.7307,-418.9097 729.6749,-417.9087 726.6426,-417 707.1075,-411.1457 402.4587,-377.7778 337.5462,-366.339"/>
<polygon fill="#000000" stroke="#000000" points="338.0261,-362.8639 327.5222,-364.2487 336.5971,-369.7165 338.0261,-362.8639"/>
<text text-anchor="middle" x="590.1426" y="-387.8" font-family="Times,serif" font-size="14.00" fill="#000000">0</text>
</g>
<!-- name8 -->
<g id="node9" class="node">
<title>name8</title>
<polygon fill="none" stroke="#000000" points="345.3184,-278.5 345.3184,-366.5 533.9668,-366.5 533.9668,-278.5 345.3184,-278.5"/>
<text text-anchor="middle" x="439.6426" y="-351.3" font-family="Times,serif" font-size="14.00" fill="#000000">pe=3.8228970353821523e&#45;35</text>
<polyline fill="none" stroke="#000000" points="345.3184,-344.5 533.9668,-344.5 "/>
<text text-anchor="middle" x="439.6426" y="-329.3" font-family="Times,serif" font-size="14.00" fill="#000000">pw=1.9487401811994485e&#45;35</text>
<polyline fill="none" stroke="#000000" points="345.3184,-322.5 533.9668,-322.5 "/>
<text text-anchor="middle" x="439.6426" y="-307.3" font-family="Times,serif" font-size="14.00" fill="#000000">pm=1.9114485176910762e&#45;35</text>
<polyline fill="none" stroke="#000000" points="345.3184,-300.5 533.9668,-300.5 "/>
<text text-anchor="middle" x="439.6426" y="-285.3" font-family="Times,serif" font-size="14.00" fill="#000000">as=[4, 8, 44, 9, 2]</text>
</g>
<!-- name6&#45;&gt;name8 -->
<g id="edge6" class="edge">
<title>name6&#45;&gt;name8</title>
<path fill="none" stroke="#000000" d="M735.8595,-420.629C732.766,-419.3633 729.6866,-418.1485 726.6426,-417 647.7557,-387.2377 623.2559,-394.7609 543.6426,-367 543.5441,-366.9656 543.4455,-366.9312 543.3469,-366.8968"/>
<polygon fill="#000000" stroke="#000000" points="544.679,-363.6565 534.0846,-363.563 542.3084,-370.2429 544.679,-363.6565"/>
<text text-anchor="middle" x="671.1426" y="-387.8" font-family="Times,serif" font-size="14.00" fill="#000000">1</text>
</g>
<!-- name9 -->
<g id="node10" class="node">
<title>name9</title>
<polygon fill="none" stroke="#000000" points="552.458,-278.5 552.458,-366.5 708.8271,-366.5 708.8271,-278.5 552.458,-278.5"/>
<text text-anchor="middle" x="630.6426" y="-351.3" font-family="Times,serif" font-size="14.00" fill="#000000">pe=2.36425e&#45;318</text>
<polyline fill="none" stroke="#000000" points="552.458,-344.5 708.8271,-344.5 "/>
<text text-anchor="middle" x="630.6426" y="-329.3" font-family="Times,serif" font-size="14.00" fill="#000000">pw=7.3374249804e&#45;314</text>
<polyline fill="none" stroke="#000000" points="552.458,-322.5 708.8271,-322.5 "/>
<text text-anchor="middle" x="630.6426" y="-307.3" font-family="Times,serif" font-size="14.00" fill="#000000">pm=3.04835366e&#45;316</text>
<polyline fill="none" stroke="#000000" points="552.458,-300.5 708.8271,-300.5 "/>
<text text-anchor="middle" x="630.6426" y="-285.3" font-family="Times,serif" font-size="14.00" fill="#000000">as=[21, 63, 1157, 81, 10]</text>
</g>
<!-- name6&#45;&gt;name9 -->
<g id="edge17" class="edge">
<title>name6&#45;&gt;name9</title>
<path fill="none" stroke="#000000" d="M758.2177,-417.3285C739.0426,-403.0754 717.6525,-387.1758 697.9502,-372.5308"/>
<polygon fill="#000000" stroke="#000000" points="700.0266,-369.7132 689.9129,-366.5565 695.8506,-375.3312 700.0266,-369.7132"/>
<text text-anchor="middle" x="734.1426" y="-387.8" font-family="Times,serif" font-size="14.00" fill="#000000">2</text>
</g>
<!-- name20 -->
<g id="node21" class="node">
<title>name20</title>
<polygon fill="none" stroke="#000000" points="726.562,-278.5 726.562,-366.5 908.7231,-366.5 908.7231,-278.5 726.562,-278.5"/>
<text text-anchor="middle" x="817.6426" y="-351.3" font-family="Times,serif" font-size="14.00" fill="#000000">pe=1.466922756247625e&#45;54</text>
<polyline fill="none" stroke="#000000" points="726.562,-344.5 908.7231,-344.5 "/>
<text text-anchor="middle" x="817.6426" y="-329.3" font-family="Times,serif" font-size="14.00" fill="#000000">pw=7.340833902662742e&#45;55</text>
<polyline fill="none" stroke="#000000" points="726.562,-322.5 908.7231,-322.5 "/>
<text text-anchor="middle" x="817.6426" y="-307.3" font-family="Times,serif" font-size="14.00" fill="#000000">pm=7.334613781238125e&#45;55</text>
<polyline fill="none" stroke="#000000" points="726.562,-300.5 908.7231,-300.5 "/>
<text text-anchor="middle" x="817.6426" y="-285.3" font-family="Times,serif" font-size="14.00" fill="#000000">as=[5, 11, 106, 15, 2]</text>
</g>
<!-- name6&#45;&gt;name20 -->
<g id="edge18" class="edge">
<title>name6&#45;&gt;name20</title>
<path fill="none" stroke="#000000" d="M817.6426,-417.1374C817.6426,-404.3481 817.6426,-390.2464 817.6426,-376.9215"/>
<polygon fill="#000000" stroke="#000000" points="821.1427,-376.9179 817.6426,-366.9179 814.1427,-376.918 821.1427,-376.9179"/>
<text text-anchor="middle" x="821.1426" y="-387.8" font-family="Times,serif" font-size="14.00" fill="#000000">3</text>
</g>
<!-- name21 -->
<g id="node22" class="node">
<title>name21</title>
<polygon fill="none" stroke="#000000" points="927.062,-278.5 927.062,-366.5 1116.2231,-366.5 1116.2231,-278.5 927.062,-278.5"/>
<text text-anchor="middle" x="1021.6426" y="-351.3" font-family="Times,serif" font-size="14.00" fill="#000000">pe=7.555370213028093e&#45;19</text>
<polyline fill="none" stroke="#000000" points="927.062,-344.5 1116.2231,-344.5 "/>
<text text-anchor="middle" x="1021.6426" y="-329.3" font-family="Times,serif" font-size="14.00" fill="#000000">pw=9.859449410161331e&#45;19</text>
<polyline fill="none" stroke="#000000" points="927.062,-322.5 1116.2231,-322.5 "/>
<text text-anchor="middle" x="1021.6426" y="-307.3" font-family="Times,serif" font-size="14.00" fill="#000000">pm=3.7776851065140466e&#45;19</text>
<polyline fill="none" stroke="#000000" points="927.062,-300.5 1116.2231,-300.5 "/>
<text text-anchor="middle" x="1021.6426" y="-285.3" font-family="Times,serif" font-size="14.00" fill="#000000">as=[2, 5, 18, 3, 2]</text>
</g>
<!-- name6&#45;&gt;name21 -->
<g id="edge19" class="edge">
<title>name6&#45;&gt;name21</title>
<path fill="none" stroke="#000000" d="M882.4698,-417.3285C903.481,-403.0121 926.9301,-387.0345 948.5026,-372.3356"/>
<polygon fill="#000000" stroke="#000000" points="950.6909,-375.0798 956.9841,-366.5565 946.7492,-369.295 950.6909,-375.0798"/>
<text text-anchor="middle" x="930.1426" y="-387.8" font-family="Times,serif" font-size="14.00" fill="#000000">4</text>
</g>
<!-- name10 -->
<g id="node11" class="node">
<title>name10</title>
<polygon fill="none" stroke="#000000" points="120.4517,-139.5 120.4517,-227.5 308.8335,-227.5 308.8335,-139.5 120.4517,-139.5"/>
<text text-anchor="middle" x="214.6426" y="-212.3" font-family="Times,serif" font-size="14.00" fill="#000000">pe=1.0309607832827647e&#45;06</text>
<polyline fill="none" stroke="#000000" points="120.4517,-205.5 308.8335,-205.5 "/>
<text text-anchor="middle" x="214.6426" y="-190.3" font-family="Times,serif" font-size="14.00" fill="#000000">pw=1.5555070316680224e&#45;06</text>
<polyline fill="none" stroke="#000000" points="120.4517,-183.5 308.8335,-183.5 "/>
<text text-anchor="middle" x="214.6426" y="-168.3" font-family="Times,serif" font-size="14.00" fill="#000000">pm=5.154803916413823e&#45;07</text>
<polyline fill="none" stroke="#000000" points="120.4517,-161.5 308.8335,-161.5 "/>
<text text-anchor="middle" x="214.6426" y="-146.3" font-family="Times,serif" font-size="14.00" fill="#000000">as=[1, 1, 3, 3, 0]</text>
</g>
<!-- name9&#45;&gt;name10 -->
<g id="edge7" class="edge">
<title>name9&#45;&gt;name10</title>
<path fill="none" stroke="#000000" d="M552.39,-281.7118C549.1241,-280.3973 545.8667,-279.1529 542.6426,-278 449.1993,-244.585 417.104,-258.6119 318.6859,-228.1562"/>
<polygon fill="#000000" stroke="#000000" points="319.5405,-224.7555 308.9502,-225.0669 317.4233,-231.4276 319.5405,-224.7555"/>
<text text-anchor="middle" x="482.1426" y="-248.8" font-family="Times,serif" font-size="14.00" fill="#000000">0</text>
</g>
<!-- name11 -->
<g id="node12" class="node">
<title>name11</title>
<polygon fill="none" stroke="#000000" points="326.4517,-139.5 326.4517,-227.5 514.8335,-227.5 514.8335,-139.5 326.4517,-139.5"/>
<text text-anchor="middle" x="420.6426" y="-212.3" font-family="Times,serif" font-size="14.00" fill="#000000">pe=1.3328649228255627e&#45;26</text>
<polyline fill="none" stroke="#000000" points="326.4517,-205.5 514.8335,-205.5 "/>
<text text-anchor="middle" x="420.6426" y="-190.3" font-family="Times,serif" font-size="14.00" fill="#000000">pw=3.1340149181878756e&#45;24</text>
<polyline fill="none" stroke="#000000" points="326.4517,-183.5 514.8335,-183.5 "/>
<text text-anchor="middle" x="420.6426" y="-168.3" font-family="Times,serif" font-size="14.00" fill="#000000">pm=3.972639238433879e&#45;26</text>
<polyline fill="none" stroke="#000000" points="326.4517,-161.5 514.8335,-161.5 "/>
<text text-anchor="middle" x="420.6426" y="-146.3" font-family="Times,serif" font-size="14.00" fill="#000000">as=[4, 3, 26, 8, 3]</text>
</g>
<!-- name9&#45;&gt;name11 -->
<g id="edge13" class="edge">
<title>name9&#45;&gt;name11</title>
<path fill="none" stroke="#000000" d="M563.9087,-278.3285C542.1838,-263.9487 517.927,-247.893 495.6391,-233.1406"/>
<polygon fill="#000000" stroke="#000000" points="497.4735,-230.1575 487.2028,-227.5565 493.6098,-235.9946 497.4735,-230.1575"/>
<text text-anchor="middle" x="536.1426" y="-248.8" font-family="Times,serif" font-size="14.00" fill="#000000">1</text>
</g>
<!-- name17 -->
<g id="node18" class="node">
<title>name17</title>
<polygon fill="none" stroke="#000000" points="532.562,-139.5 532.562,-227.5 728.7231,-227.5 728.7231,-139.5 532.562,-139.5"/>
<text text-anchor="middle" x="630.6426" y="-212.3" font-family="Times,serif" font-size="14.00" fill="#000000">pe=6.093167763921049e&#45;246</text>
<polyline fill="none" stroke="#000000" points="532.562,-205.5 728.7231,-205.5 "/>
<text text-anchor="middle" x="630.6426" y="-190.3" font-family="Times,serif" font-size="14.00" fill="#000000">pw=3.066258795090243e&#45;246</text>
<polyline fill="none" stroke="#000000" points="532.562,-183.5 728.7231,-183.5 "/>
<text text-anchor="middle" x="630.6426" y="-168.3" font-family="Times,serif" font-size="14.00" fill="#000000">pm=3.0465838819605243e&#45;246</text>
<polyline fill="none" stroke="#000000" points="532.562,-161.5 728.7231,-161.5 "/>
<text text-anchor="middle" x="630.6426" y="-146.3" font-family="Times,serif" font-size="14.00" fill="#000000">as=[12, 58, 1023, 59, 4]</text>
</g>
<!-- name9&#45;&gt;name17 -->
<g id="edge14" class="edge">
<title>name9&#45;&gt;name17</title>
<path fill="none" stroke="#000000" d="M630.6426,-278.1374C630.6426,-265.3481 630.6426,-251.2464 630.6426,-237.9215"/>
<polygon fill="#000000" stroke="#000000" points="634.1427,-237.9179 630.6426,-227.9179 627.1427,-237.918 634.1427,-237.9179"/>
<text text-anchor="middle" x="634.1426" y="-248.8" font-family="Times,serif" font-size="14.00" fill="#000000">2</text>
</g>
<!-- name18 -->
<g id="node19" class="node">
<title>name18</title>
<polygon fill="none" stroke="#000000" points="746.4517,-139.5 746.4517,-227.5 934.8335,-227.5 934.8335,-139.5 746.4517,-139.5"/>
<text text-anchor="middle" x="840.6426" y="-212.3" font-family="Times,serif" font-size="14.00" fill="#000000">pe=4.48795421147022e&#45;32</text>
<polyline fill="none" stroke="#000000" points="746.4517,-205.5 934.8335,-205.5 "/>
<text text-anchor="middle" x="840.6426" y="-190.3" font-family="Times,serif" font-size="14.00" fill="#000000">pw=2.2514720000032584e&#45;32</text>
<polyline fill="none" stroke="#000000" points="746.4517,-183.5 934.8335,-183.5 "/>
<text text-anchor="middle" x="840.6426" y="-168.3" font-family="Times,serif" font-size="14.00" fill="#000000">pm=2.24397710573511e&#45;32</text>
<polyline fill="none" stroke="#000000" points="746.4517,-161.5 934.8335,-161.5 "/>
<text text-anchor="middle" x="840.6426" y="-146.3" font-family="Times,serif" font-size="14.00" fill="#000000">as=[4, 1, 90, 8, 3]</text>
</g>
<!-- name9&#45;&gt;name18 -->
<g id="edge15" class="edge">
<title>name9&#45;&gt;name18</title>
<path fill="none" stroke="#000000" d="M697.3764,-278.3285C719.1013,-263.9487 743.3582,-247.893 765.6461,-233.1406"/>
<polygon fill="#000000" stroke="#000000" points="767.6754,-235.9946 774.0823,-227.5565 763.8117,-230.1575 767.6754,-235.9946"/>
<text text-anchor="middle" x="746.1426" y="-248.8" font-family="Times,serif" font-size="14.00" fill="#000000">3</text>
</g>
<!-- name19 -->
<g id="node20" class="node">
<title>name19</title>
<polygon fill="none" stroke="#000000" points="952.4517,-139.5 952.4517,-227.5 1140.8335,-227.5 1140.8335,-139.5 952.4517,-139.5"/>
<text text-anchor="middle" x="1046.6426" y="-212.3" font-family="Times,serif" font-size="14.00" fill="#000000">pe=8.709686129040968e&#45;07</text>
<polyline fill="none" stroke="#000000" points="952.4517,-205.5 1140.8335,-205.5 "/>
<text text-anchor="middle" x="1046.6426" y="-190.3" font-family="Times,serif" font-size="14.00" fill="#000000">pw=4.3603191408733564e&#45;07</text>
<polyline fill="none" stroke="#000000" points="952.4517,-183.5 1140.8335,-183.5 "/>
<text text-anchor="middle" x="1046.6426" y="-168.3" font-family="Times,serif" font-size="14.00" fill="#000000">pm=4.354843064520484e&#45;07</text>
<polyline fill="none" stroke="#000000" points="952.4517,-161.5 1140.8335,-161.5 "/>
<text text-anchor="middle" x="1046.6426" y="-146.3" font-family="Times,serif" font-size="14.00" fill="#000000">as=[0, 0, 15, 3, 0]</text>
</g>
<!-- name9&#45;&gt;name19 -->
<g id="edge16" class="edge">
<title>name9&#45;&gt;name19</title>
<path fill="none" stroke="#000000" d="M708.9617,-281.309C711.8695,-280.1417 714.769,-279.0335 717.6426,-278 811.4198,-244.2709 843.7392,-258.6747 942.5608,-228.1663"/>
<polygon fill="#000000" stroke="#000000" points="943.8594,-231.4264 952.3361,-225.0705 941.746,-224.753 943.8594,-231.4264"/>
<text text-anchor="middle" x="874.1426" y="-248.8" font-family="Times,serif" font-size="14.00" fill="#000000">4</text>
</g>
<!-- name12 -->
<g id="node13" class="node">
<title>name12</title>
<polygon fill="none" stroke="#000000" points="0,-.5 0,-88.5 185.2852,-88.5 185.2852,-.5 0,-.5"/>
<text text-anchor="middle" x="92.6426" y="-73.3" font-family="Times,serif" font-size="14.00" fill="#000000">pe=0.0031746031746031746</text>
<polyline fill="none" stroke="#000000" points="0,-66.5 185.2852,-66.5 "/>
<text text-anchor="middle" x="92.6426" y="-51.3" font-family="Times,serif" font-size="14.00" fill="#000000">pw=0.003492063492063492</text>
<polyline fill="none" stroke="#000000" points="0,-44.5 185.2852,-44.5 "/>
<text text-anchor="middle" x="92.6426" y="-29.3" font-family="Times,serif" font-size="14.00" fill="#000000">pm=0.0015873015873015873</text>
<polyline fill="none" stroke="#000000" points="0,-22.5 185.2852,-22.5 "/>
<text text-anchor="middle" x="92.6426" y="-7.3" font-family="Times,serif" font-size="14.00" fill="#000000">as=[1, 1, 0, 0, 1]</text>
</g>
<!-- name11&#45;&gt;name12 -->
<g id="edge8" class="edge">
<title>name11&#45;&gt;name12</title>
<path fill="none" stroke="#000000" d="M326.3782,-142.6769C323.4344,-141.4332 320.5169,-140.205 317.6426,-139 265.9841,-117.3441 250.5695,-112.3933 194.755,-89.0181"/>
<polygon fill="#000000" stroke="#000000" points="196.0136,-85.7505 185.4385,-85.1029 193.3016,-92.2039 196.0136,-85.7505"/>
<text text-anchor="middle" x="277.1426" y="-109.8" font-family="Times,serif" font-size="14.00" fill="#000000">0</text>
</g>
<!-- name13 -->
<g id="node14" class="node">
<title>name13</title>
<polygon fill="none" stroke="#000000" points="203.7017,-.5 203.7017,-88.5 311.5835,-88.5 311.5835,-.5 203.7017,-.5"/>
<text text-anchor="middle" x="257.6426" y="-73.3" font-family="Times,serif" font-size="14.00" fill="#000000">pe=0.2</text>
<polyline fill="none" stroke="#000000" points="203.7017,-66.5 311.5835,-66.5 "/>
<text text-anchor="middle" x="257.6426" y="-51.3" font-family="Times,serif" font-size="14.00" fill="#000000">pw=0.2</text>
<polyline fill="none" stroke="#000000" points="203.7017,-44.5 311.5835,-44.5 "/>
<text text-anchor="middle" x="257.6426" y="-29.3" font-family="Times,serif" font-size="14.00" fill="#000000">pm=0.1</text>
<polyline fill="none" stroke="#000000" points="203.7017,-22.5 311.5835,-22.5 "/>
<text text-anchor="middle" x="257.6426" y="-7.3" font-family="Times,serif" font-size="14.00" fill="#000000">as=[0, 0, 0, 1, 0]</text>
</g>
<!-- name11&#45;&gt;name13 -->
<g id="edge9" class="edge">
<title>name11&#45;&gt;name13</title>
<path fill="none" stroke="#000000" d="M368.6202,-139.1374C352.2186,-125.1507 333.9763,-109.5944 317.0978,-95.2011"/>
<polygon fill="#000000" stroke="#000000" points="319.3305,-92.5052 309.4504,-88.6797 314.7884,-97.8315 319.3305,-92.5052"/>
<text text-anchor="middle" x="348.1426" y="-109.8" font-family="Times,serif" font-size="14.00" fill="#000000">1</text>
</g>
<!-- name14 -->
<g id="node15" class="node">
<title>name14</title>
<polygon fill="none" stroke="#000000" points="329.562,-.5 329.562,-88.5 511.7231,-88.5 511.7231,-.5 329.562,-.5"/>
<text text-anchor="middle" x="420.6426" y="-73.3" font-family="Times,serif" font-size="14.00" fill="#000000">pe=4.294740827886098e&#45;17</text>
<polyline fill="none" stroke="#000000" points="329.562,-66.5 511.7231,-66.5 "/>
<text text-anchor="middle" x="420.6426" y="-51.3" font-family="Times,serif" font-size="14.00" fill="#000000">pw=1.575484791485303e&#45;16</text>
<polyline fill="none" stroke="#000000" points="329.562,-44.5 511.7231,-44.5 "/>
<text text-anchor="middle" x="420.6426" y="-29.3" font-family="Times,serif" font-size="14.00" fill="#000000">pm=2.147370413943049e&#45;17</text>
<polyline fill="none" stroke="#000000" points="329.562,-22.5 511.7231,-22.5 "/>
<text text-anchor="middle" x="420.6426" y="-7.3" font-family="Times,serif" font-size="14.00" fill="#000000">as=[3, 2, 24, 2, 2]</text>
</g>
<!-- name11&#45;&gt;name14 -->
<g id="edge10" class="edge">
<title>name11&#45;&gt;name14</title>
<path fill="none" stroke="#000000" d="M420.6426,-139.1374C420.6426,-126.3481 420.6426,-112.2464 420.6426,-98.9215"/>
<polygon fill="#000000" stroke="#000000" points="424.1427,-98.9179 420.6426,-88.9179 417.1427,-98.918 424.1427,-98.9179"/>
<text text-anchor="middle" x="424.1426" y="-109.8" font-family="Times,serif" font-size="14.00" fill="#000000">2</text>
</g>
<!-- name15 -->
<g id="node16" class="node">
<title>name15</title>
<polygon fill="none" stroke="#000000" points="530,-.5 530,-88.5 715.2852,-88.5 715.2852,-.5 530,-.5"/>
<text text-anchor="middle" x="622.6426" y="-73.3" font-family="Times,serif" font-size="14.00" fill="#000000">pe=0.0004662004662004662</text>
<polyline fill="none" stroke="#000000" points="530,-66.5 715.2852,-66.5 "/>
<text text-anchor="middle" x="622.6426" y="-51.3" font-family="Times,serif" font-size="14.00" fill="#000000">pw=0.0002842171162171162</text>
<polyline fill="none" stroke="#000000" points="530,-44.5 715.2852,-44.5 "/>
<text text-anchor="middle" x="622.6426" y="-29.3" font-family="Times,serif" font-size="14.00" fill="#000000">pm=0.0002331002331002331</text>
<polyline fill="none" stroke="#000000" points="530,-22.5 715.2852,-22.5 "/>
<text text-anchor="middle" x="622.6426" y="-7.3" font-family="Times,serif" font-size="14.00" fill="#000000">as=[0, 0, 2, 4, 0]</text>
</g>
<!-- name11&#45;&gt;name15 -->
<g id="edge11" class="edge">
<title>name11&#45;&gt;name15</title>
<path fill="none" stroke="#000000" d="M484.8342,-139.3285C505.6394,-125.0121 528.8587,-109.0345 550.2196,-94.3356"/>
<polygon fill="#000000" stroke="#000000" points="552.364,-97.1087 558.618,-88.5565 548.3958,-91.342 552.364,-97.1087"/>
<text text-anchor="middle" x="532.1426" y="-109.8" font-family="Times,serif" font-size="14.00" fill="#000000">3</text>
</g>
<!-- name16 -->
<g id="node17" class="node">
<title>name16</title>
<polygon fill="none" stroke="#000000" points="733.7017,-.5 733.7017,-88.5 841.5835,-88.5 841.5835,-.5 733.7017,-.5"/>
<text text-anchor="middle" x="787.6426" y="-73.3" font-family="Times,serif" font-size="14.00" fill="#000000">pe=0.2</text>
<polyline fill="none" stroke="#000000" points="733.7017,-66.5 841.5835,-66.5 "/>
<text text-anchor="middle" x="787.6426" y="-51.3" font-family="Times,serif" font-size="14.00" fill="#000000">pw=0.2</text>
<polyline fill="none" stroke="#000000" points="733.7017,-44.5 841.5835,-44.5 "/>
<text text-anchor="middle" x="787.6426" y="-29.3" font-family="Times,serif" font-size="14.00" fill="#000000">pm=0.1</text>
<polyline fill="none" stroke="#000000" points="733.7017,-22.5 841.5835,-22.5 "/>
<text text-anchor="middle" x="787.6426" y="-7.3" font-family="Times,serif" font-size="14.00" fill="#000000">as=[0, 0, 0, 1, 0]</text>
</g>
<!-- name11&#45;&gt;name16 -->
<g id="edge12" class="edge">
<title>name11&#45;&gt;name16</title>
<path fill="none" stroke="#000000" d="M514.9818,-142.0285C517.8904,-140.9789 520.7821,-139.9664 523.6426,-139 607.8745,-110.542 638.8201,-126.1635 724.1329,-88.7762"/>
<polygon fill="#000000" stroke="#000000" points="725.7184,-91.9008 733.3994,-84.6034 722.8442,-85.5181 725.7184,-91.9008"/>
<text text-anchor="middle" x="680.1426" y="-109.8" font-family="Times,serif" font-size="14.00" fill="#000000">4</text>
</g>
<!-- name23 -->
<g id="node24" class="node">
<title>name23</title>
<polygon fill="none" stroke="#000000" points="1134,-278.5 1134,-366.5 1319.2852,-366.5 1319.2852,-278.5 1134,-278.5"/>
<text text-anchor="middle" x="1226.6426" y="-351.3" font-family="Times,serif" font-size="14.00" fill="#000000">pe=0.0002886002886002886</text>
<polyline fill="none" stroke="#000000" points="1134,-344.5 1319.2852,-344.5 "/>
<text text-anchor="middle" x="1226.6426" y="-329.3" font-family="Times,serif" font-size="14.00" fill="#000000">pw=0.0006157287157287157</text>
<polyline fill="none" stroke="#000000" points="1134,-322.5 1319.2852,-322.5 "/>
<text text-anchor="middle" x="1226.6426" y="-307.3" font-family="Times,serif" font-size="14.00" fill="#000000">pm=0.0001443001443001443</text>
<polyline fill="none" stroke="#000000" points="1134,-300.5 1319.2852,-300.5 "/>
<text text-anchor="middle" x="1226.6426" y="-285.3" font-family="Times,serif" font-size="14.00" fill="#000000">as=[1, 1, 0, 1, 1]</text>
</g>
<!-- name22&#45;&gt;name23 -->
<g id="edge21" class="edge">
<title>name22&#45;&gt;name23</title>
<path fill="none" stroke="#000000" d="M1366.4976,-417.3285C1345.3834,-403.0121 1321.8193,-387.0345 1300.1411,-372.3356"/>
<polygon fill="#000000" stroke="#000000" points="1301.8591,-369.2718 1291.6181,-366.5565 1297.9306,-375.0655 1301.8591,-369.2718"/>
<text text-anchor="middle" x="1338.1426" y="-387.8" font-family="Times,serif" font-size="14.00" fill="#000000">0</text>
</g>
<!-- name24 -->
<g id="node25" class="node">
<title>name24</title>
<polygon fill="none" stroke="#000000" points="1337.3184,-278.5 1337.3184,-366.5 1525.9668,-366.5 1525.9668,-278.5 1337.3184,-278.5"/>
<text text-anchor="middle" x="1431.6426" y="-351.3" font-family="Times,serif" font-size="14.00" fill="#000000">pe=2.5927339909418082e&#45;11</text>
<polyline fill="none" stroke="#000000" points="1337.3184,-344.5 1525.9668,-344.5 "/>
<text text-anchor="middle" x="1431.6426" y="-329.3" font-family="Times,serif" font-size="14.00" fill="#000000">pw=4.153317067927774e&#45;11</text>
<polyline fill="none" stroke="#000000" points="1337.3184,-322.5 1525.9668,-322.5 "/>
<text text-anchor="middle" x="1431.6426" y="-307.3" font-family="Times,serif" font-size="14.00" fill="#000000">pm=1.2963669954709041e&#45;11</text>
<polyline fill="none" stroke="#000000" points="1337.3184,-300.5 1525.9668,-300.5 "/>
<text text-anchor="middle" x="1431.6426" y="-285.3" font-family="Times,serif" font-size="14.00" fill="#000000">as=[1, 1, 8, 5, 1]</text>
</g>
<!-- name22&#45;&gt;name24 -->
<g id="edge22" class="edge">
<title>name22&#45;&gt;name24</title>
<path fill="none" stroke="#000000" d="M1431.6426,-417.1374C1431.6426,-404.3481 1431.6426,-390.2464 1431.6426,-376.9215"/>
<polygon fill="#000000" stroke="#000000" points="1435.1427,-376.9179 1431.6426,-366.9179 1428.1427,-376.918 1435.1427,-376.9179"/>
<text text-anchor="middle" x="1435.1426" y="-387.8" font-family="Times,serif" font-size="14.00" fill="#000000">1</text>
</g>
<!-- name25 -->
<g id="node26" class="node">
<title>name25</title>
<polygon fill="none" stroke="#000000" points="1544.062,-278.5 1544.062,-366.5 1733.2231,-366.5 1733.2231,-278.5 1544.062,-278.5"/>
<text text-anchor="middle" x="1638.6426" y="-351.3" font-family="Times,serif" font-size="14.00" fill="#000000">pe=3.0834255436799034e&#45;36</text>
<polyline fill="none" stroke="#000000" points="1544.062,-344.5 1733.2231,-344.5 "/>
<text text-anchor="middle" x="1638.6426" y="-329.3" font-family="Times,serif" font-size="14.00" fill="#000000">pw=1.5417154098686175e&#45;36</text>
<polyline fill="none" stroke="#000000" points="1544.062,-322.5 1733.2231,-322.5 "/>
<text text-anchor="middle" x="1638.6426" y="-307.3" font-family="Times,serif" font-size="14.00" fill="#000000">pm=1.5417127718399517e&#45;36</text>
<polyline fill="none" stroke="#000000" points="1544.062,-300.5 1733.2231,-300.5 "/>
<text text-anchor="middle" x="1638.6426" y="-285.3" font-family="Times,serif" font-size="14.00" fill="#000000">as=[0, 9, 114, 8, 2]</text>
</g>
<!-- name22&#45;&gt;name25 -->
<g id="edge23" class="edge">
<title>name22&#45;&gt;name25</title>
<path fill="none" stroke="#000000" d="M1497.4231,-417.3285C1518.8376,-402.9487 1542.7479,-386.893 1564.7174,-372.1406"/>
<polygon fill="#000000" stroke="#000000" points="1566.6824,-375.037 1573.0332,-366.5565 1562.7801,-369.2256 1566.6824,-375.037"/>
<text text-anchor="middle" x="1544.1426" y="-387.8" font-family="Times,serif" font-size="14.00" fill="#000000">2</text>
</g>
<!-- name26 -->
<g id="node27" class="node">
<title>name26</title>
<polygon fill="none" stroke="#000000" points="1751.3184,-278.5 1751.3184,-366.5 1939.9668,-366.5 1939.9668,-278.5 1751.3184,-278.5"/>
<text text-anchor="middle" x="1845.6426" y="-351.3" font-family="Times,serif" font-size="14.00" fill="#000000">pe=2.1723148405182172e&#45;11</text>
<polyline fill="none" stroke="#000000" points="1751.3184,-344.5 1939.9668,-344.5 "/>
<text text-anchor="middle" x="1845.6426" y="-329.3" font-family="Times,serif" font-size="14.00" fill="#000000">pw=1.9226632100809305e&#45;11</text>
<polyline fill="none" stroke="#000000" points="1751.3184,-322.5 1939.9668,-322.5 "/>
<text text-anchor="middle" x="1845.6426" y="-307.3" font-family="Times,serif" font-size="14.00" fill="#000000">pm=1.0861574202591086e&#45;11</text>
<polyline fill="none" stroke="#000000" points="1751.3184,-300.5 1939.9668,-300.5 "/>
<text text-anchor="middle" x="1845.6426" y="-285.3" font-family="Times,serif" font-size="14.00" fill="#000000">as=[2, 0, 16, 3, 1]</text>
</g>
<!-- name22&#45;&gt;name26 -->
<g id="edge24" class="edge">
<title>name22&#45;&gt;name26</title>
<path fill="none" stroke="#000000" d="M1526.3273,-420.2126C1529.4564,-419.0959 1532.5673,-418.0214 1535.6426,-417 1622.4817,-388.1589 1650.9845,-396.3806 1741.7366,-367.145"/>
<polygon fill="#000000" stroke="#000000" points="1742.9052,-370.4452 1751.312,-363.9973 1740.7191,-363.7953 1742.9052,-370.4452"/>
<text text-anchor="middle" x="1678.1426" y="-387.8" font-family="Times,serif" font-size="14.00" fill="#000000">3</text>
</g>
<!-- name27 -->
<g id="node28" class="node">
<title>name27</title>
<polygon fill="none" stroke="#000000" points="1957.7017,-278.5 1957.7017,-366.5 2065.5835,-366.5 2065.5835,-278.5 1957.7017,-278.5"/>
<text text-anchor="middle" x="2011.6426" y="-351.3" font-family="Times,serif" font-size="14.00" fill="#000000">pe=0.2</text>
<polyline fill="none" stroke="#000000" points="1957.7017,-344.5 2065.5835,-344.5 "/>
<text text-anchor="middle" x="2011.6426" y="-329.3" font-family="Times,serif" font-size="14.00" fill="#000000">pw=0.2</text>
<polyline fill="none" stroke="#000000" points="1957.7017,-322.5 2065.5835,-322.5 "/>
<text text-anchor="middle" x="2011.6426" y="-307.3" font-family="Times,serif" font-size="14.00" fill="#000000">pm=0.1</text>
<polyline fill="none" stroke="#000000" points="1957.7017,-300.5 2065.5835,-300.5 "/>
<text text-anchor="middle" x="2011.6426" y="-285.3" font-family="Times,serif" font-size="14.00" fill="#000000">as=[0, 0, 1, 0, 0]</text>
</g>
<!-- name22&#45;&gt;name27 -->
<g id="edge25" class="edge">
<title>name22&#45;&gt;name27</title>
<path fill="none" stroke="#000000" d="M1526.4719,-419.6447C1529.5455,-418.6991 1532.6075,-417.8135 1535.6426,-417 1622.061,-393.8377 1847.2347,-399.8291 1947.9504,-366.5127"/>
<polygon fill="#000000" stroke="#000000" points="1949.3598,-369.7255 1957.5881,-363.0512 1946.9936,-363.1375 1949.3598,-369.7255"/>
<text text-anchor="middle" x="1859.1426" y="-387.8" font-family="Times,serif" font-size="14.00" fill="#000000">4</text>
</g>
</g>
</svg>
