<?xml version="1.0" encoding="UTF-8" standalone="no"?>
<!DOCTYPE svg PUBLIC "-//W3C//DTD SVG 1.1//EN"
 "http://www.w3.org/Graphics/SVG/1.1/DTD/svg11.dtd">
<!-- Generated by graphviz version 2.40.1 (20161225.0304)
 -->
<!-- Title: nodes Pages: 1 -->
<svg width="1495pt" height="792pt"
 viewBox="0.00 0.00 1495.16 792.00" xmlns="http://www.w3.org/2000/svg" xmlns:xlink="http://www.w3.org/1999/xlink">
<g id="graph0" class="graph" transform="scale(1 1) rotate(0) translate(4 788)">
<title>nodes</title>
<polygon fill="#ffffff" stroke="transparent" points="-4,4 -4,-788 1491.1611,-788 1491.1611,4 -4,4"/>
<!-- name0 -->
<g id="node1" class="node">
<title>name0</title>
<polygon fill="none" stroke="#000000" points="626.6396,-695.5 626.6396,-783.5 860.5215,-783.5 860.5215,-695.5 626.6396,-695.5"/>
<text text-anchor="middle" x="743.5806" y="-768.3" font-family="Times,serif" font-size="14.00" fill="#000000">pe=0.0</text>
<polyline fill="none" stroke="#000000" points="626.6396,-761.5 860.5215,-761.5 "/>
<text text-anchor="middle" x="743.5806" y="-746.3" font-family="Times,serif" font-size="14.00" fill="#000000">pw=0.0</text>
<polyline fill="none" stroke="#000000" points="626.6396,-739.5 860.5215,-739.5 "/>
<text text-anchor="middle" x="743.5806" y="-724.3" font-family="Times,serif" font-size="14.00" fill="#000000">pm=0.0</text>
<polyline fill="none" stroke="#000000" points="626.6396,-717.5 860.5215,-717.5 "/>
<text text-anchor="middle" x="743.5806" y="-702.3" font-family="Times,serif" font-size="14.00" fill="#000000">as=[24, 81, 1601, 13953, 1698, 89, 17]</text>
</g>
<!-- name1 -->
<g id="node2" class="node">
<title>name1</title>
<polygon fill="none" stroke="#000000" points="0,-556.5 0,-644.5 189.1611,-644.5 189.1611,-556.5 0,-556.5"/>
<text text-anchor="middle" x="94.5806" y="-629.3" font-family="Times,serif" font-size="14.00" fill="#000000">pe=2.836433314306501e&#45;20</text>
<polyline fill="none" stroke="#000000" points="0,-622.5 189.1611,-622.5 "/>
<text text-anchor="middle" x="94.5806" y="-607.3" font-family="Times,serif" font-size="14.00" fill="#000000">pw=1.674186717625909e&#45;20</text>
<polyline fill="none" stroke="#000000" points="0,-600.5 189.1611,-600.5 "/>
<text text-anchor="middle" x="94.5806" y="-585.3" font-family="Times,serif" font-size="14.00" fill="#000000">pm=1.4182166571532505e&#45;20</text>
<polyline fill="none" stroke="#000000" points="0,-578.5 189.1611,-578.5 "/>
<text text-anchor="middle" x="94.5806" y="-563.3" font-family="Times,serif" font-size="14.00" fill="#000000">as=[3, 0, 3, 0, 6, 7, 5]</text>
</g>
<!-- name0&#45;&gt;name1 -->
<g id="edge1" class="edge">
<title>name0&#45;&gt;name1</title>
<path fill="none" stroke="#000000" d="M626.4443,-727.3515C517.0187,-714.1505 349.5916,-689.1979 199.2754,-645.35"/>
<polygon fill="#000000" stroke="#000000" points="199.9816,-641.9093 189.3998,-642.4345 197.9995,-648.6228 199.9816,-641.9093"/>
<text text-anchor="middle" x="319.0806" y="-665.8" font-family="Times,serif" font-size="14.00" fill="#000000">0</text>
</g>
<!-- name2 -->
<g id="node3" class="node">
<title>name2</title>
<polygon fill="none" stroke="#000000" points="207,-556.5 207,-644.5 396.1611,-644.5 396.1611,-556.5 207,-556.5"/>
<text text-anchor="middle" x="301.5806" y="-629.3" font-family="Times,serif" font-size="14.00" fill="#000000">pe=6.780463032313947e&#45;56</text>
<polyline fill="none" stroke="#000000" points="207,-622.5 396.1611,-622.5 "/>
<text text-anchor="middle" x="301.5806" y="-607.3" font-family="Times,serif" font-size="14.00" fill="#000000">pw=3.399038251806725e&#45;56</text>
<polyline fill="none" stroke="#000000" points="207,-600.5 396.1611,-600.5 "/>
<text text-anchor="middle" x="301.5806" y="-585.3" font-family="Times,serif" font-size="14.00" fill="#000000">pm=3.3902315161569733e&#45;56</text>
<polyline fill="none" stroke="#000000" points="207,-578.5 396.1611,-578.5 "/>
<text text-anchor="middle" x="301.5806" y="-563.3" font-family="Times,serif" font-size="14.00" fill="#000000">as=[2, 4, 19, 36, 16, 3, 1]</text>
</g>
<!-- name0&#45;&gt;name2 -->
<g id="edge2" class="edge">
<title>name0&#45;&gt;name2</title>
<path fill="none" stroke="#000000" d="M626.2525,-710.762C563.2413,-694.3571 484.2985,-672.2482 405.8746,-644.9933"/>
<polygon fill="#000000" stroke="#000000" points="406.9092,-641.6472 396.3143,-641.644 404.5947,-648.2536 406.9092,-641.6472"/>
<text text-anchor="middle" x="501.0806" y="-665.8" font-family="Times,serif" font-size="14.00" fill="#000000">1</text>
</g>
<!-- name3 -->
<g id="node4" class="node">
<title>name3</title>
<polygon fill="none" stroke="#000000" points="414.1396,-556.5 414.1396,-644.5 613.0215,-644.5 613.0215,-556.5 414.1396,-556.5"/>
<text text-anchor="middle" x="513.5806" y="-629.3" font-family="Times,serif" font-size="14.00" fill="#000000">pe=0.0</text>
<polyline fill="none" stroke="#000000" points="414.1396,-622.5 613.0215,-622.5 "/>
<text text-anchor="middle" x="513.5806" y="-607.3" font-family="Times,serif" font-size="14.00" fill="#000000">pw=0.0</text>
<polyline fill="none" stroke="#000000" points="414.1396,-600.5 613.0215,-600.5 "/>
<text text-anchor="middle" x="513.5806" y="-585.3" font-family="Times,serif" font-size="14.00" fill="#000000">pm=0.0</text>
<polyline fill="none" stroke="#000000" points="414.1396,-578.5 613.0215,-578.5 "/>
<text text-anchor="middle" x="513.5806" y="-563.3" font-family="Times,serif" font-size="14.00" fill="#000000">as=[6, 18, 252, 1078, 223, 17, 7]</text>
</g>
<!-- name0&#45;&gt;name3 -->
<g id="edge3" class="edge">
<title>name0&#45;&gt;name3</title>
<path fill="none" stroke="#000000" d="M670.4911,-695.3285C646.4875,-680.822 619.6618,-664.61 595.0749,-649.7509"/>
<polygon fill="#000000" stroke="#000000" points="596.8487,-646.7334 586.4799,-644.5565 593.228,-652.7244 596.8487,-646.7334"/>
<text text-anchor="middle" x="639.0806" y="-665.8" font-family="Times,serif" font-size="14.00" fill="#000000">2</text>
</g>
<!-- name4 -->
<g id="node5" class="node">
<title>name4</title>
<polygon fill="none" stroke="#000000" points="630.9087,-556.5 630.9087,-644.5 856.2524,-644.5 856.2524,-556.5 630.9087,-556.5"/>
<text text-anchor="middle" x="743.5806" y="-629.3" font-family="Times,serif" font-size="14.00" fill="#000000">pe=0.0</text>
<polyline fill="none" stroke="#000000" points="630.9087,-622.5 856.2524,-622.5 "/>
<text text-anchor="middle" x="743.5806" y="-607.3" font-family="Times,serif" font-size="14.00" fill="#000000">pw=0.0</text>
<polyline fill="none" stroke="#000000" points="630.9087,-600.5 856.2524,-600.5 "/>
<text text-anchor="middle" x="743.5806" y="-585.3" font-family="Times,serif" font-size="14.00" fill="#000000">pm=0.0</text>
<polyline fill="none" stroke="#000000" points="630.9087,-578.5 856.2524,-578.5 "/>
<text text-anchor="middle" x="743.5806" y="-563.3" font-family="Times,serif" font-size="14.00" fill="#000000">as=[12, 39, 1158, 11509, 1187, 46, 1]</text>
</g>
<!-- name0&#45;&gt;name4 -->
<g id="edge26" class="edge">
<title>name0&#45;&gt;name4</title>
<path fill="none" stroke="#000000" d="M743.5806,-695.1374C743.5806,-682.3481 743.5806,-668.2464 743.5806,-654.9215"/>
<polygon fill="#000000" stroke="#000000" points="747.0807,-654.9179 743.5806,-644.9179 740.0807,-654.918 747.0807,-654.9179"/>
<text text-anchor="middle" x="747.0806" y="-665.8" font-family="Times,serif" font-size="14.00" fill="#000000">3</text>
</g>
<!-- name27 -->
<g id="node28" class="node">
<title>name27</title>
<polygon fill="none" stroke="#000000" points="874.1396,-556.5 874.1396,-644.5 1073.0215,-644.5 1073.0215,-556.5 874.1396,-556.5"/>
<text text-anchor="middle" x="973.5806" y="-629.3" font-family="Times,serif" font-size="14.00" fill="#000000">pe=0.0</text>
<polyline fill="none" stroke="#000000" points="874.1396,-622.5 1073.0215,-622.5 "/>
<text text-anchor="middle" x="973.5806" y="-607.3" font-family="Times,serif" font-size="14.00" fill="#000000">pw=0.0</text>
<polyline fill="none" stroke="#000000" points="874.1396,-600.5 1073.0215,-600.5 "/>
<text text-anchor="middle" x="973.5806" y="-585.3" font-family="Times,serif" font-size="14.00" fill="#000000">pm=0.0</text>
<polyline fill="none" stroke="#000000" points="874.1396,-578.5 1073.0215,-578.5 "/>
<text text-anchor="middle" x="973.5806" y="-563.3" font-family="Times,serif" font-size="14.00" fill="#000000">as=[0, 13, 149, 1277, 245, 13, 1]</text>
</g>
<!-- name0&#45;&gt;name27 -->
<g id="edge27" class="edge">
<title>name0&#45;&gt;name27</title>
<path fill="none" stroke="#000000" d="M816.67,-695.3285C840.6736,-680.822 867.4993,-664.61 892.0862,-649.7509"/>
<polygon fill="#000000" stroke="#000000" points="893.9331,-652.7244 900.6813,-644.5565 890.3125,-646.7334 893.9331,-652.7244"/>
<text text-anchor="middle" x="869.0806" y="-665.8" font-family="Times,serif" font-size="14.00" fill="#000000">4</text>
</g>
<!-- name28 -->
<g id="node29" class="node">
<title>name28</title>
<polygon fill="none" stroke="#000000" points="1091,-556.5 1091,-644.5 1280.1611,-644.5 1280.1611,-556.5 1091,-556.5"/>
<text text-anchor="middle" x="1185.5806" y="-629.3" font-family="Times,serif" font-size="14.00" fill="#000000">pe=3.2647573979461045e&#45;56</text>
<polyline fill="none" stroke="#000000" points="1091,-622.5 1280.1611,-622.5 "/>
<text text-anchor="middle" x="1185.5806" y="-607.3" font-family="Times,serif" font-size="14.00" fill="#000000">pw=1.6323886892446878e&#45;56</text>
<polyline fill="none" stroke="#000000" points="1091,-600.5 1280.1611,-600.5 "/>
<text text-anchor="middle" x="1185.5806" y="-585.3" font-family="Times,serif" font-size="14.00" fill="#000000">pm=1.6323786989730523e&#45;56</text>
<polyline fill="none" stroke="#000000" points="1091,-578.5 1280.1611,-578.5 "/>
<text text-anchor="middle" x="1185.5806" y="-563.3" font-family="Times,serif" font-size="14.00" fill="#000000">as=[1, 5, 16, 45, 19, 3, 0]</text>
</g>
<!-- name0&#45;&gt;name28 -->
<g id="edge28" class="edge">
<title>name0&#45;&gt;name28</title>
<path fill="none" stroke="#000000" d="M860.9087,-710.762C923.9198,-694.3571 1002.8626,-672.2482 1081.2866,-644.9933"/>
<polygon fill="#000000" stroke="#000000" points="1082.5664,-648.2536 1090.8468,-641.644 1080.252,-641.6472 1082.5664,-648.2536"/>
<text text-anchor="middle" x="1031.0806" y="-665.8" font-family="Times,serif" font-size="14.00" fill="#000000">5</text>
</g>
<!-- name29 -->
<g id="node30" class="node">
<title>name29</title>
<polygon fill="none" stroke="#000000" points="1298,-556.5 1298,-644.5 1487.1611,-644.5 1487.1611,-556.5 1298,-556.5"/>
<text text-anchor="middle" x="1392.5806" y="-629.3" font-family="Times,serif" font-size="14.00" fill="#000000">pe=8.983832262445627e&#45;14</text>
<polyline fill="none" stroke="#000000" points="1298,-622.5 1487.1611,-622.5 "/>
<text text-anchor="middle" x="1392.5806" y="-607.3" font-family="Times,serif" font-size="14.00" fill="#000000">pw=5.828157841083062e&#45;14</text>
<polyline fill="none" stroke="#000000" points="1298,-600.5 1487.1611,-600.5 "/>
<text text-anchor="middle" x="1392.5806" y="-585.3" font-family="Times,serif" font-size="14.00" fill="#000000">pm=4.4919161312228135e&#45;14</text>
<polyline fill="none" stroke="#000000" points="1298,-578.5 1487.1611,-578.5 "/>
<text text-anchor="middle" x="1392.5806" y="-563.3" font-family="Times,serif" font-size="14.00" fill="#000000">as=[0, 2, 4, 8, 1, 0, 2]</text>
</g>
<!-- name0&#45;&gt;name29 -->
<g id="edge29" class="edge">
<title>name0&#45;&gt;name29</title>
<path fill="none" stroke="#000000" d="M860.7169,-727.3515C970.1425,-714.1505 1137.5696,-689.1979 1287.8858,-645.35"/>
<polygon fill="#000000" stroke="#000000" points="1289.1616,-648.6228 1297.7613,-642.4345 1287.1795,-641.9093 1289.1616,-648.6228"/>
<text text-anchor="middle" x="1221.0806" y="-665.8" font-family="Times,serif" font-size="14.00" fill="#000000">6</text>
</g>
<!-- name5 -->
<g id="node6" class="node">
<title>name5</title>
<polygon fill="none" stroke="#000000" points="131,-417.5 131,-505.5 320.1611,-505.5 320.1611,-417.5 131,-417.5"/>
<text text-anchor="middle" x="225.5806" y="-490.3" font-family="Times,serif" font-size="14.00" fill="#000000">pe=1.1594743615306917e&#45;24</text>
<polyline fill="none" stroke="#000000" points="131,-483.5 320.1611,-483.5 "/>
<text text-anchor="middle" x="225.5806" y="-468.3" font-family="Times,serif" font-size="14.00" fill="#000000">pw=5.916513853137446e&#45;25</text>
<polyline fill="none" stroke="#000000" points="131,-461.5 320.1611,-461.5 "/>
<text text-anchor="middle" x="225.5806" y="-446.3" font-family="Times,serif" font-size="14.00" fill="#000000">pm=5.7973718076534585e&#45;25</text>
<polyline fill="none" stroke="#000000" points="131,-439.5 320.1611,-439.5 "/>
<text text-anchor="middle" x="225.5806" y="-424.3" font-family="Times,serif" font-size="14.00" fill="#000000">as=[2, 0, 8, 17, 8, 1, 0]</text>
</g>
<!-- name4&#45;&gt;name5 -->
<g id="edge4" class="edge">
<title>name4&#45;&gt;name5</title>
<path fill="none" stroke="#000000" d="M630.8133,-558.5574C627.7129,-557.6653 624.6311,-556.8104 621.5806,-556 497.435,-523.0181 457.7946,-542.2691 329.9462,-505.8979"/>
<polygon fill="#000000" stroke="#000000" points="330.7589,-502.4893 320.1795,-503.0611 328.8064,-509.2115 330.7589,-502.4893"/>
<text text-anchor="middle" x="530.0806" y="-526.8" font-family="Times,serif" font-size="14.00" fill="#000000">1</text>
</g>
<!-- name6 -->
<g id="node7" class="node">
<title>name6</title>
<polygon fill="none" stroke="#000000" points="338.396,-417.5 338.396,-505.5 522.7651,-505.5 522.7651,-417.5 338.396,-417.5"/>
<text text-anchor="middle" x="430.5806" y="-490.3" font-family="Times,serif" font-size="14.00" fill="#000000">pe=0.0</text>
<polyline fill="none" stroke="#000000" points="338.396,-483.5 522.7651,-483.5 "/>
<text text-anchor="middle" x="430.5806" y="-468.3" font-family="Times,serif" font-size="14.00" fill="#000000">pw=0.0</text>
<polyline fill="none" stroke="#000000" points="338.396,-461.5 522.7651,-461.5 "/>
<text text-anchor="middle" x="430.5806" y="-446.3" font-family="Times,serif" font-size="14.00" fill="#000000">pm=0.0</text>
<polyline fill="none" stroke="#000000" points="338.396,-439.5 522.7651,-439.5 "/>
<text text-anchor="middle" x="430.5806" y="-424.3" font-family="Times,serif" font-size="14.00" fill="#000000">as=[2, 9, 166, 696, 194, 11, 0]</text>
</g>
<!-- name4&#45;&gt;name6 -->
<g id="edge5" class="edge">
<title>name4&#45;&gt;name6</title>
<path fill="none" stroke="#000000" d="M644.1153,-556.3285C608.4575,-540.4933 568.2234,-522.6257 532.3714,-506.7042"/>
<polygon fill="#000000" stroke="#000000" points="533.4313,-503.3453 522.8714,-502.4854 530.5902,-509.7429 533.4313,-503.3453"/>
<text text-anchor="middle" x="600.0806" y="-526.8" font-family="Times,serif" font-size="14.00" fill="#000000">2</text>
</g>
<!-- name7 -->
<g id="node8" class="node">
<title>name7</title>
<polygon fill="none" stroke="#000000" points="541.1396,-417.5 541.1396,-505.5 740.0215,-505.5 740.0215,-417.5 541.1396,-417.5"/>
<text text-anchor="middle" x="640.5806" y="-490.3" font-family="Times,serif" font-size="14.00" fill="#000000">pe=0.0</text>
<polyline fill="none" stroke="#000000" points="541.1396,-483.5 740.0215,-483.5 "/>
<text text-anchor="middle" x="640.5806" y="-468.3" font-family="Times,serif" font-size="14.00" fill="#000000">pw=0.0</text>
<polyline fill="none" stroke="#000000" points="541.1396,-461.5 740.0215,-461.5 "/>
<text text-anchor="middle" x="640.5806" y="-446.3" font-family="Times,serif" font-size="14.00" fill="#000000">pm=0.0</text>
<polyline fill="none" stroke="#000000" points="541.1396,-439.5 740.0215,-439.5 "/>
<text text-anchor="middle" x="640.5806" y="-424.3" font-family="Times,serif" font-size="14.00" fill="#000000">as=[5, 22, 860, 9771, 829, 20, 1]</text>
</g>
<!-- name4&#45;&gt;name7 -->
<g id="edge22" class="edge">
<title>name4&#45;&gt;name7</title>
<path fill="none" stroke="#000000" d="M710.7075,-556.1374C700.766,-542.7212 689.7543,-527.8607 679.4596,-513.9678"/>
<polygon fill="#000000" stroke="#000000" points="682.2604,-511.8687 673.4946,-505.9179 676.6362,-516.0363 682.2604,-511.8687"/>
<text text-anchor="middle" x="699.0806" y="-526.8" font-family="Times,serif" font-size="14.00" fill="#000000">3</text>
</g>
<!-- name24 -->
<g id="node25" class="node">
<title>name24</title>
<polygon fill="none" stroke="#000000" points="757.896,-417.5 757.896,-505.5 935.2651,-505.5 935.2651,-417.5 757.896,-417.5"/>
<text text-anchor="middle" x="846.5806" y="-490.3" font-family="Times,serif" font-size="14.00" fill="#000000">pe=0.0</text>
<polyline fill="none" stroke="#000000" points="757.896,-483.5 935.2651,-483.5 "/>
<text text-anchor="middle" x="846.5806" y="-468.3" font-family="Times,serif" font-size="14.00" fill="#000000">pw=0.0</text>
<polyline fill="none" stroke="#000000" points="757.896,-461.5 935.2651,-461.5 "/>
<text text-anchor="middle" x="846.5806" y="-446.3" font-family="Times,serif" font-size="14.00" fill="#000000">pm=0.0</text>
<polyline fill="none" stroke="#000000" points="757.896,-439.5 935.2651,-439.5 "/>
<text text-anchor="middle" x="846.5806" y="-424.3" font-family="Times,serif" font-size="14.00" fill="#000000">as=[1, 7, 115, 999, 147, 8, 0]</text>
</g>
<!-- name4&#45;&gt;name24 -->
<g id="edge23" class="edge">
<title>name4&#45;&gt;name24</title>
<path fill="none" stroke="#000000" d="M776.4536,-556.1374C786.3951,-542.7212 797.4068,-527.8607 807.7015,-513.9678"/>
<polygon fill="#000000" stroke="#000000" points="810.525,-516.0363 813.6666,-505.9179 804.9008,-511.8687 810.525,-516.0363"/>
<text text-anchor="middle" x="802.0806" y="-526.8" font-family="Times,serif" font-size="14.00" fill="#000000">4</text>
</g>
<!-- name25 -->
<g id="node26" class="node">
<title>name25</title>
<polygon fill="none" stroke="#000000" points="953.5,-417.5 953.5,-505.5 1135.6611,-505.5 1135.6611,-417.5 953.5,-417.5"/>
<text text-anchor="middle" x="1044.5806" y="-490.3" font-family="Times,serif" font-size="14.00" fill="#000000">pe=8.883103883274332e&#45;29</text>
<polyline fill="none" stroke="#000000" points="953.5,-483.5 1135.6611,-483.5 "/>
<text text-anchor="middle" x="1044.5806" y="-468.3" font-family="Times,serif" font-size="14.00" fill="#000000">pw=4.441819549357487e&#45;29</text>
<polyline fill="none" stroke="#000000" points="953.5,-461.5 1135.6611,-461.5 "/>
<text text-anchor="middle" x="1044.5806" y="-446.3" font-family="Times,serif" font-size="14.00" fill="#000000">pm=4.441551941637166e&#45;29</text>
<polyline fill="none" stroke="#000000" points="953.5,-439.5 1135.6611,-439.5 "/>
<text text-anchor="middle" x="1044.5806" y="-424.3" font-family="Times,serif" font-size="14.00" fill="#000000">as=[1, 0, 7, 25, 8, 4, 0]</text>
</g>
<!-- name4&#45;&gt;name25 -->
<g id="edge24" class="edge">
<title>name4&#45;&gt;name25</title>
<path fill="none" stroke="#000000" d="M839.2324,-556.3285C872.5905,-540.924 910.1133,-523.5962 943.8698,-508.0076"/>
<polygon fill="#000000" stroke="#000000" points="945.6731,-511.0301 953.2845,-503.66 942.7383,-504.675 945.6731,-511.0301"/>
<text text-anchor="middle" x="907.0806" y="-526.8" font-family="Times,serif" font-size="14.00" fill="#000000">5</text>
</g>
<!-- name26 -->
<g id="node27" class="node">
<title>name26</title>
<polygon fill="none" stroke="#000000" points="1153.5,-417.5 1153.5,-505.5 1335.6611,-505.5 1335.6611,-417.5 1153.5,-417.5"/>
<text text-anchor="middle" x="1244.5806" y="-490.3" font-family="Times,serif" font-size="14.00" fill="#000000">pe=9.818674126502522e&#45;09</text>
<polyline fill="none" stroke="#000000" points="1153.5,-483.5 1335.6611,-483.5 "/>
<text text-anchor="middle" x="1244.5806" y="-468.3" font-family="Times,serif" font-size="14.00" fill="#000000">pw=4.666418093528877e&#45;08</text>
<polyline fill="none" stroke="#000000" points="1153.5,-461.5 1335.6611,-461.5 "/>
<text text-anchor="middle" x="1244.5806" y="-446.3" font-family="Times,serif" font-size="14.00" fill="#000000">pm=4.909337063251261e&#45;09</text>
<polyline fill="none" stroke="#000000" points="1153.5,-439.5 1335.6611,-439.5 "/>
<text text-anchor="middle" x="1244.5806" y="-424.3" font-family="Times,serif" font-size="14.00" fill="#000000">as=[1, 1, 2, 1, 1, 2, 0]</text>
</g>
<!-- name4&#45;&gt;name26 -->
<g id="edge25" class="edge">
<title>name4&#45;&gt;name26</title>
<path fill="none" stroke="#000000" d="M856.3563,-558.589C859.4542,-557.6876 862.5332,-556.8222 865.5806,-556 984.1183,-524.0162 1022.2267,-542.0167 1143.7004,-506.0677"/>
<polygon fill="#000000" stroke="#000000" points="1144.807,-509.3897 1153.3669,-503.1464 1142.782,-502.689 1144.807,-509.3897"/>
<text text-anchor="middle" x="1074.0806" y="-526.8" font-family="Times,serif" font-size="14.00" fill="#000000">6</text>
</g>
<!-- name8 -->
<g id="node9" class="node">
<title>name8</title>
<polygon fill="none" stroke="#000000" points="16,-278.5 16,-366.5 205.1611,-366.5 205.1611,-278.5 16,-278.5"/>
<text text-anchor="middle" x="110.5806" y="-351.3" font-family="Times,serif" font-size="14.00" fill="#000000">pe=3.6363130586089446e&#45;13</text>
<polyline fill="none" stroke="#000000" points="16,-344.5 205.1611,-344.5 "/>
<text text-anchor="middle" x="110.5806" y="-329.3" font-family="Times,serif" font-size="14.00" fill="#000000">pw=1.9072370265788624e&#45;13</text>
<polyline fill="none" stroke="#000000" points="16,-322.5 205.1611,-322.5 "/>
<text text-anchor="middle" x="110.5806" y="-307.3" font-family="Times,serif" font-size="14.00" fill="#000000">pm=1.8181565293044723e&#45;13</text>
<polyline fill="none" stroke="#000000" points="16,-300.5 205.1611,-300.5 "/>
<text text-anchor="middle" x="110.5806" y="-285.3" font-family="Times,serif" font-size="14.00" fill="#000000">as=[1, 1, 3, 9, 3, 0, 0]</text>
</g>
<!-- name7&#45;&gt;name8 -->
<g id="edge6" class="edge">
<title>name7&#45;&gt;name8</title>
<path fill="none" stroke="#000000" d="M541.1107,-419.8166C537.9128,-418.8214 534.7307,-417.8787 531.5806,-417 397.2803,-379.5388 353.6011,-405.2532 214.8789,-366.8641"/>
<polygon fill="#000000" stroke="#000000" points="215.7391,-363.4701 205.1638,-364.1148 213.8329,-370.2056 215.7391,-363.4701"/>
<text text-anchor="middle" x="450.0806" y="-387.8" font-family="Times,serif" font-size="14.00" fill="#000000">1</text>
</g>
<!-- name9 -->
<g id="node10" class="node">
<title>name9</title>
<polygon fill="none" stroke="#000000" points="223.5,-278.5 223.5,-366.5 419.6611,-366.5 419.6611,-278.5 223.5,-278.5"/>
<text text-anchor="middle" x="321.5806" y="-351.3" font-family="Times,serif" font-size="14.00" fill="#000000">pe=2.007420690095419e&#45;257</text>
<polyline fill="none" stroke="#000000" points="223.5,-344.5 419.6611,-344.5 "/>
<text text-anchor="middle" x="321.5806" y="-329.3" font-family="Times,serif" font-size="14.00" fill="#000000">pw=1.0037103451354687e&#45;257</text>
<polyline fill="none" stroke="#000000" points="223.5,-322.5 419.6611,-322.5 "/>
<text text-anchor="middle" x="321.5806" y="-307.3" font-family="Times,serif" font-size="14.00" fill="#000000">pm=1.0037103450477095e&#45;257</text>
<polyline fill="none" stroke="#000000" points="223.5,-300.5 419.6611,-300.5 "/>
<text text-anchor="middle" x="321.5806" y="-285.3" font-family="Times,serif" font-size="14.00" fill="#000000">as=[0, 3, 95, 507, 85, 6, 0]</text>
</g>
<!-- name7&#45;&gt;name9 -->
<g id="edge7" class="edge">
<title>name7&#45;&gt;name9</title>
<path fill="none" stroke="#000000" d="M540.9591,-418.0913C505.5506,-402.6625 465.5364,-385.2268 429.4686,-369.5108"/>
<polygon fill="#000000" stroke="#000000" points="430.4656,-366.1274 419.9,-365.3414 427.6693,-372.5447 430.4656,-366.1274"/>
<text text-anchor="middle" x="495.0806" y="-387.8" font-family="Times,serif" font-size="14.00" fill="#000000">2</text>
</g>
<!-- name10 -->
<g id="node11" class="node">
<title>name10</title>
<polygon fill="none" stroke="#000000" points="438.1396,-278.5 438.1396,-366.5 637.0215,-366.5 637.0215,-278.5 438.1396,-278.5"/>
<text text-anchor="middle" x="537.5806" y="-351.3" font-family="Times,serif" font-size="14.00" fill="#000000">pe=0.0</text>
<polyline fill="none" stroke="#000000" points="438.1396,-344.5 637.0215,-344.5 "/>
<text text-anchor="middle" x="537.5806" y="-329.3" font-family="Times,serif" font-size="14.00" fill="#000000">pw=0.0</text>
<polyline fill="none" stroke="#000000" points="438.1396,-322.5 637.0215,-322.5 "/>
<text text-anchor="middle" x="537.5806" y="-307.3" font-family="Times,serif" font-size="14.00" fill="#000000">pm=0.0</text>
<polyline fill="none" stroke="#000000" points="438.1396,-300.5 637.0215,-300.5 "/>
<text text-anchor="middle" x="537.5806" y="-285.3" font-family="Times,serif" font-size="14.00" fill="#000000">as=[3, 14, 640, 8471, 631, 10, 1]</text>
</g>
<!-- name7&#45;&gt;name10 -->
<g id="edge18" class="edge">
<title>name7&#45;&gt;name10</title>
<path fill="none" stroke="#000000" d="M607.7075,-417.1374C597.766,-403.7212 586.7543,-388.8607 576.4596,-374.9678"/>
<polygon fill="#000000" stroke="#000000" points="579.2604,-372.8687 570.4946,-366.9179 573.6362,-377.0363 579.2604,-372.8687"/>
<text text-anchor="middle" x="596.0806" y="-387.8" font-family="Times,serif" font-size="14.00" fill="#000000">3</text>
</g>
<!-- name21 -->
<g id="node22" class="node">
<title>name21</title>
<polygon fill="none" stroke="#000000" points="654.896,-278.5 654.896,-366.5 832.2651,-366.5 832.2651,-278.5 654.896,-278.5"/>
<text text-anchor="middle" x="743.5806" y="-351.3" font-family="Times,serif" font-size="14.00" fill="#000000">pe=3.5e&#45;323</text>
<polyline fill="none" stroke="#000000" points="654.896,-344.5 832.2651,-344.5 "/>
<text text-anchor="middle" x="743.5806" y="-329.3" font-family="Times,serif" font-size="14.00" fill="#000000">pw=1.5e&#45;323</text>
<polyline fill="none" stroke="#000000" points="654.896,-322.5 832.2651,-322.5 "/>
<text text-anchor="middle" x="743.5806" y="-307.3" font-family="Times,serif" font-size="14.00" fill="#000000">pm=1.5e&#45;323</text>
<polyline fill="none" stroke="#000000" points="654.896,-300.5 832.2651,-300.5 "/>
<text text-anchor="middle" x="743.5806" y="-285.3" font-family="Times,serif" font-size="14.00" fill="#000000">as=[1, 3, 116, 771, 106, 2, 0]</text>
</g>
<!-- name7&#45;&gt;name21 -->
<g id="edge19" class="edge">
<title>name7&#45;&gt;name21</title>
<path fill="none" stroke="#000000" d="M673.4536,-417.1374C683.3951,-403.7212 694.4068,-388.8607 704.7015,-374.9678"/>
<polygon fill="#000000" stroke="#000000" points="707.525,-377.0363 710.6666,-366.9179 701.9008,-372.8687 707.525,-377.0363"/>
<text text-anchor="middle" x="699.0806" y="-387.8" font-family="Times,serif" font-size="14.00" fill="#000000">4</text>
</g>
<!-- name22 -->
<g id="node23" class="node">
<title>name22</title>
<polygon fill="none" stroke="#000000" points="850,-278.5 850,-366.5 1039.1611,-366.5 1039.1611,-278.5 850,-278.5"/>
<text text-anchor="middle" x="944.5806" y="-351.3" font-family="Times,serif" font-size="14.00" fill="#000000">pe=4.0634446733851506e&#45;18</text>
<polyline fill="none" stroke="#000000" points="850,-344.5 1039.1611,-344.5 "/>
<text text-anchor="middle" x="944.5806" y="-329.3" font-family="Times,serif" font-size="14.00" fill="#000000">pw=2.6677028837600508e&#45;18</text>
<polyline fill="none" stroke="#000000" points="850,-322.5 1039.1611,-322.5 "/>
<text text-anchor="middle" x="944.5806" y="-307.3" font-family="Times,serif" font-size="14.00" fill="#000000">pm=2.0317223366925753e&#45;18</text>
<polyline fill="none" stroke="#000000" points="850,-300.5 1039.1611,-300.5 "/>
<text text-anchor="middle" x="944.5806" y="-285.3" font-family="Times,serif" font-size="14.00" fill="#000000">as=[0, 1, 5, 13, 4, 2, 0]</text>
</g>
<!-- name7&#45;&gt;name22 -->
<g id="edge20" class="edge">
<title>name7&#45;&gt;name22</title>
<path fill="none" stroke="#000000" d="M737.1858,-417.3285C770.0817,-402.2873 806.9878,-385.4125 840.4476,-370.1134"/>
<polygon fill="#000000" stroke="#000000" points="842.1484,-373.1844 849.7874,-365.8429 839.2375,-366.8182 842.1484,-373.1844"/>
<text text-anchor="middle" x="806.0806" y="-387.8" font-family="Times,serif" font-size="14.00" fill="#000000">5</text>
</g>
<!-- name23 -->
<g id="node24" class="node">
<title>name23</title>
<polygon fill="none" stroke="#000000" points="1056.938,-278.5 1056.938,-366.5 1228.2231,-366.5 1228.2231,-278.5 1056.938,-278.5"/>
<text text-anchor="middle" x="1142.5806" y="-351.3" font-family="Times,serif" font-size="14.00" fill="#000000">pe=0.14285714285714285</text>
<polyline fill="none" stroke="#000000" points="1056.938,-344.5 1228.2231,-344.5 "/>
<text text-anchor="middle" x="1142.5806" y="-329.3" font-family="Times,serif" font-size="14.00" fill="#000000">pw=0.14285714285714285</text>
<polyline fill="none" stroke="#000000" points="1056.938,-322.5 1228.2231,-322.5 "/>
<text text-anchor="middle" x="1142.5806" y="-307.3" font-family="Times,serif" font-size="14.00" fill="#000000">pm=0.07142857142857142</text>
<polyline fill="none" stroke="#000000" points="1056.938,-300.5 1228.2231,-300.5 "/>
<text text-anchor="middle" x="1142.5806" y="-285.3" font-family="Times,serif" font-size="14.00" fill="#000000">as=[0, 0, 1, 0, 0, 0, 0]</text>
</g>
<!-- name7&#45;&gt;name23 -->
<g id="edge21" class="edge">
<title>name7&#45;&gt;name23</title>
<path fill="none" stroke="#000000" d="M740.0313,-419.5665C742.8992,-418.6653 745.753,-417.807 748.5806,-417 875.3901,-380.8106 917.5355,-406.1121 1047.0174,-367.2618"/>
<polygon fill="#000000" stroke="#000000" points="1048.3747,-370.5063 1056.905,-364.2227 1046.318,-363.8153 1048.3747,-370.5063"/>
<text text-anchor="middle" x="978.0806" y="-387.8" font-family="Times,serif" font-size="14.00" fill="#000000">6</text>
</g>
<!-- name11 -->
<g id="node12" class="node">
<title>name11</title>
<polygon fill="none" stroke="#000000" points="23,-139.5 23,-227.5 212.1611,-227.5 212.1611,-139.5 23,-139.5"/>
<text text-anchor="middle" x="117.5806" y="-212.3" font-family="Times,serif" font-size="14.00" fill="#000000">pe=2.2412190940929668e&#45;07</text>
<polyline fill="none" stroke="#000000" points="23,-205.5 212.1611,-205.5 "/>
<text text-anchor="middle" x="117.5806" y="-190.3" font-family="Times,serif" font-size="14.00" fill="#000000">pw=1.2284813750349294e&#45;07</text>
<polyline fill="none" stroke="#000000" points="23,-183.5 212.1611,-183.5 "/>
<text text-anchor="middle" x="117.5806" y="-168.3" font-family="Times,serif" font-size="14.00" fill="#000000">pm=1.1206095470464834e&#45;07</text>
<polyline fill="none" stroke="#000000" points="23,-161.5 212.1611,-161.5 "/>
<text text-anchor="middle" x="117.5806" y="-146.3" font-family="Times,serif" font-size="14.00" fill="#000000">as=[0, 2, 3, 4, 0, 0, 0]</text>
</g>
<!-- name10&#45;&gt;name11 -->
<g id="edge8" class="edge">
<title>name10&#45;&gt;name11</title>
<path fill="none" stroke="#000000" d="M438.0107,-281.1492C434.8417,-280.0579 431.6928,-279.0048 428.5806,-278 341.5035,-249.8853 313.2718,-257.2817 221.907,-227.9431"/>
<polygon fill="#000000" stroke="#000000" points="222.8579,-224.5717 212.2653,-224.7874 220.6805,-231.2244 222.8579,-224.5717"/>
<text text-anchor="middle" x="361.0806" y="-248.8" font-family="Times,serif" font-size="14.00" fill="#000000">1</text>
</g>
<!-- name12 -->
<g id="node13" class="node">
<title>name12</title>
<polygon fill="none" stroke="#000000" points="230.5,-139.5 230.5,-227.5 426.6611,-227.5 426.6611,-139.5 230.5,-139.5"/>
<text text-anchor="middle" x="328.5806" y="-212.3" font-family="Times,serif" font-size="14.00" fill="#000000">pe=2.5221186638413977e&#45;190</text>
<polyline fill="none" stroke="#000000" points="230.5,-205.5 426.6611,-205.5 "/>
<text text-anchor="middle" x="328.5806" y="-190.3" font-family="Times,serif" font-size="14.00" fill="#000000">pw=1.283715239519033e&#45;190</text>
<polyline fill="none" stroke="#000000" points="230.5,-183.5 426.6611,-183.5 "/>
<text text-anchor="middle" x="328.5806" y="-168.3" font-family="Times,serif" font-size="14.00" fill="#000000">pm=1.2610593319206989e&#45;190</text>
<polyline fill="none" stroke="#000000" points="230.5,-161.5 426.6611,-161.5 "/>
<text text-anchor="middle" x="328.5806" y="-146.3" font-family="Times,serif" font-size="14.00" fill="#000000">as=[0, 4, 55, 370, 74, 4, 0]</text>
</g>
<!-- name10&#45;&gt;name12 -->
<g id="edge9" class="edge">
<title>name10&#45;&gt;name12</title>
<path fill="none" stroke="#000000" d="M471.1645,-278.3285C449.543,-263.9487 425.4017,-247.893 403.22,-233.1406"/>
<polygon fill="#000000" stroke="#000000" points="405.0887,-230.1801 394.8239,-227.5565 401.2123,-236.0087 405.0887,-230.1801"/>
<text text-anchor="middle" x="443.0806" y="-248.8" font-family="Times,serif" font-size="14.00" fill="#000000">2</text>
</g>
<!-- name13 -->
<g id="node14" class="node">
<title>name13</title>
<polygon fill="none" stroke="#000000" points="445.1396,-139.5 445.1396,-227.5 630.0215,-227.5 630.0215,-139.5 445.1396,-139.5"/>
<text text-anchor="middle" x="537.5806" y="-212.3" font-family="Times,serif" font-size="14.00" fill="#000000">pe=0.0</text>
<polyline fill="none" stroke="#000000" points="445.1396,-205.5 630.0215,-205.5 "/>
<text text-anchor="middle" x="537.5806" y="-190.3" font-family="Times,serif" font-size="14.00" fill="#000000">pw=0.0</text>
<polyline fill="none" stroke="#000000" points="445.1396,-183.5 630.0215,-183.5 "/>
<text text-anchor="middle" x="537.5806" y="-168.3" font-family="Times,serif" font-size="14.00" fill="#000000">pm=0.0</text>
<polyline fill="none" stroke="#000000" points="445.1396,-161.5 630.0215,-161.5 "/>
<text text-anchor="middle" x="537.5806" y="-146.3" font-family="Times,serif" font-size="14.00" fill="#000000">as=[3, 7, 502, 7477, 477, 4, 0]</text>
</g>
<!-- name10&#45;&gt;name13 -->
<g id="edge15" class="edge">
<title>name10&#45;&gt;name13</title>
<path fill="none" stroke="#000000" d="M537.5806,-278.1374C537.5806,-265.3481 537.5806,-251.2464 537.5806,-237.9215"/>
<polygon fill="#000000" stroke="#000000" points="541.0807,-237.9179 537.5806,-227.9179 534.0807,-237.918 541.0807,-237.9179"/>
<text text-anchor="middle" x="541.0806" y="-248.8" font-family="Times,serif" font-size="14.00" fill="#000000">3</text>
</g>
<!-- name19 -->
<g id="node20" class="node">
<title>name19</title>
<polygon fill="none" stroke="#000000" points="648.5,-139.5 648.5,-227.5 844.6611,-227.5 844.6611,-139.5 648.5,-139.5"/>
<text text-anchor="middle" x="746.5806" y="-212.3" font-family="Times,serif" font-size="14.00" fill="#000000">pe=2.725816833389301e&#45;232</text>
<polyline fill="none" stroke="#000000" points="648.5,-205.5 844.6611,-205.5 "/>
<text text-anchor="middle" x="746.5806" y="-190.3" font-family="Times,serif" font-size="14.00" fill="#000000">pw=1.362908490019475e&#45;232</text>
<polyline fill="none" stroke="#000000" points="648.5,-183.5 844.6611,-183.5 "/>
<text text-anchor="middle" x="746.5806" y="-168.3" font-family="Times,serif" font-size="14.00" fill="#000000">pm=1.3629084166946505e&#45;232</text>
<polyline fill="none" stroke="#000000" points="648.5,-161.5 844.6611,-161.5 "/>
<text text-anchor="middle" x="746.5806" y="-146.3" font-family="Times,serif" font-size="14.00" fill="#000000">as=[0, 1, 79, 613, 76, 2, 0]</text>
</g>
<!-- name10&#45;&gt;name19 -->
<g id="edge16" class="edge">
<title>name10&#45;&gt;name19</title>
<path fill="none" stroke="#000000" d="M603.9966,-278.3285C625.6181,-263.9487 649.7594,-247.893 671.9412,-233.1406"/>
<polygon fill="#000000" stroke="#000000" points="673.9489,-236.0087 680.3373,-227.5565 670.0724,-230.1801 673.9489,-236.0087"/>
<text text-anchor="middle" x="652.0806" y="-248.8" font-family="Times,serif" font-size="14.00" fill="#000000">4</text>
</g>
<!-- name20 -->
<g id="node21" class="node">
<title>name20</title>
<polygon fill="none" stroke="#000000" points="862.5942,-139.5 862.5942,-227.5 1046.5669,-227.5 1046.5669,-139.5 862.5942,-139.5"/>
<text text-anchor="middle" x="954.5806" y="-212.3" font-family="Times,serif" font-size="14.00" fill="#000000">pe=1.1091139850139957e&#45;09</text>
<polyline fill="none" stroke="#000000" points="862.5942,-205.5 1046.5669,-205.5 "/>
<text text-anchor="middle" x="954.5806" y="-190.3" font-family="Times,serif" font-size="14.00" fill="#000000">pw=8.086634657601686e&#45;10</text>
<polyline fill="none" stroke="#000000" points="862.5942,-183.5 1046.5669,-183.5 "/>
<text text-anchor="middle" x="954.5806" y="-168.3" font-family="Times,serif" font-size="14.00" fill="#000000">pm=5.545569925069978e&#45;10</text>
<polyline fill="none" stroke="#000000" points="862.5942,-161.5 1046.5669,-161.5 "/>
<text text-anchor="middle" x="954.5806" y="-146.3" font-family="Times,serif" font-size="14.00" fill="#000000">as=[0, 0, 1, 7, 4, 0, 1]</text>
</g>
<!-- name10&#45;&gt;name20 -->
<g id="edge17" class="edge">
<title>name10&#45;&gt;name20</title>
<path fill="none" stroke="#000000" d="M637.1122,-280.8322C639.9564,-279.853 642.7833,-278.9065 645.5806,-278 733.0249,-249.6635 761.6005,-257.7985 852.756,-228.1111"/>
<polygon fill="#000000" stroke="#000000" points="853.9878,-231.3901 862.3741,-224.9156 851.7806,-224.7471 853.9878,-231.3901"/>
<text text-anchor="middle" x="790.0806" y="-248.8" font-family="Times,serif" font-size="14.00" fill="#000000">5</text>
</g>
<!-- name14 -->
<g id="node15" class="node">
<title>name14</title>
<polygon fill="none" stroke="#000000" points="41.438,-.5 41.438,-88.5 219.7231,-88.5 219.7231,-.5 41.438,-.5"/>
<text text-anchor="middle" x="130.5806" y="-73.3" font-family="Times,serif" font-size="14.00" fill="#000000">pe=0.001665001665001665</text>
<polyline fill="none" stroke="#000000" points="41.438,-66.5 219.7231,-66.5 "/>
<text text-anchor="middle" x="130.5806" y="-51.3" font-family="Times,serif" font-size="14.00" fill="#000000">pw=0.001665001665001665</text>
<polyline fill="none" stroke="#000000" points="41.438,-44.5 219.7231,-44.5 "/>
<text text-anchor="middle" x="130.5806" y="-29.3" font-family="Times,serif" font-size="14.00" fill="#000000">pm=0.001665001665001665</text>
<polyline fill="none" stroke="#000000" points="41.438,-22.5 219.7231,-22.5 "/>
<text text-anchor="middle" x="130.5806" y="-7.3" font-family="Times,serif" font-size="14.00" fill="#000000">as=[0, 0, 1, 3, 0, 0, 0]</text>
</g>
<!-- name13&#45;&gt;name14 -->
<g id="edge10" class="edge">
<title>name13&#45;&gt;name14</title>
<path fill="none" stroke="#000000" d="M445.011,-142.2983C441.8436,-141.1498 438.6939,-140.0462 435.5806,-139 348.8439,-109.8521 319.9836,-119.132 229.3217,-89.0728"/>
<polygon fill="#000000" stroke="#000000" points="230.3515,-85.7264 219.7572,-85.8335 228.106,-92.3565 230.3515,-85.7264"/>
<text text-anchor="middle" x="372.0806" y="-109.8" font-family="Times,serif" font-size="14.00" fill="#000000">1</text>
</g>
<!-- name15 -->
<g id="node16" class="node">
<title>name15</title>
<polygon fill="none" stroke="#000000" points="238,-.5 238,-88.5 427.1611,-88.5 427.1611,-.5 238,-.5"/>
<text text-anchor="middle" x="332.5806" y="-73.3" font-family="Times,serif" font-size="14.00" fill="#000000">pe=2.946982425892868e&#45;122</text>
<polyline fill="none" stroke="#000000" points="238,-66.5 427.1611,-66.5 "/>
<text text-anchor="middle" x="332.5806" y="-51.3" font-family="Times,serif" font-size="14.00" fill="#000000">pw=2.946982425892868e&#45;122</text>
<polyline fill="none" stroke="#000000" points="238,-44.5 427.1611,-44.5 "/>
<text text-anchor="middle" x="332.5806" y="-29.3" font-family="Times,serif" font-size="14.00" fill="#000000">pm=2.946982425892868e&#45;122</text>
<polyline fill="none" stroke="#000000" points="238,-22.5 427.1611,-22.5 "/>
<text text-anchor="middle" x="332.5806" y="-7.3" font-family="Times,serif" font-size="14.00" fill="#000000">as=[0, 0, 49, 283, 36, 1, 0]</text>
</g>
<!-- name13&#45;&gt;name15 -->
<g id="edge11" class="edge">
<title>name13&#45;&gt;name15</title>
<path fill="none" stroke="#000000" d="M472.4356,-139.3285C451.3214,-125.0121 427.7573,-109.0345 406.0791,-94.3356"/>
<polygon fill="#000000" stroke="#000000" points="407.7971,-91.2718 397.556,-88.5565 403.8686,-97.0655 407.7971,-91.2718"/>
<text text-anchor="middle" x="445.0806" y="-109.8" font-family="Times,serif" font-size="14.00" fill="#000000">2</text>
</g>
<!-- name16 -->
<g id="node17" class="node">
<title>name16</title>
<polygon fill="none" stroke="#000000" points="445.1396,-.5 445.1396,-88.5 630.0215,-88.5 630.0215,-.5 445.1396,-.5"/>
<text text-anchor="middle" x="537.5806" y="-73.3" font-family="Times,serif" font-size="14.00" fill="#000000">pe=0.0</text>
<polyline fill="none" stroke="#000000" points="445.1396,-66.5 630.0215,-66.5 "/>
<text text-anchor="middle" x="537.5806" y="-51.3" font-family="Times,serif" font-size="14.00" fill="#000000">pw=0.0</text>
<polyline fill="none" stroke="#000000" points="445.1396,-44.5 630.0215,-44.5 "/>
<text text-anchor="middle" x="537.5806" y="-29.3" font-family="Times,serif" font-size="14.00" fill="#000000">pm=0.0</text>
<polyline fill="none" stroke="#000000" points="445.1396,-22.5 630.0215,-22.5 "/>
<text text-anchor="middle" x="537.5806" y="-7.3" font-family="Times,serif" font-size="14.00" fill="#000000">as=[3, 7, 387, 6690, 387, 3, 0]</text>
</g>
<!-- name13&#45;&gt;name16 -->
<g id="edge12" class="edge">
<title>name13&#45;&gt;name16</title>
<path fill="none" stroke="#000000" d="M537.5806,-139.1374C537.5806,-126.3481 537.5806,-112.2464 537.5806,-98.9215"/>
<polygon fill="#000000" stroke="#000000" points="541.0807,-98.9179 537.5806,-88.9179 534.0807,-98.918 541.0807,-98.9179"/>
<text text-anchor="middle" x="541.0806" y="-109.8" font-family="Times,serif" font-size="14.00" fill="#000000">3</text>
</g>
<!-- name17 -->
<g id="node18" class="node">
<title>name17</title>
<polygon fill="none" stroke="#000000" points="648.2563,-.5 648.2563,-88.5 836.9048,-88.5 836.9048,-.5 648.2563,-.5"/>
<text text-anchor="middle" x="742.5806" y="-73.3" font-family="Times,serif" font-size="14.00" fill="#000000">pe=2.943918888445114e&#45;174</text>
<polyline fill="none" stroke="#000000" points="648.2563,-66.5 836.9048,-66.5 "/>
<text text-anchor="middle" x="742.5806" y="-51.3" font-family="Times,serif" font-size="14.00" fill="#000000">pw=2.943918888445114e&#45;174</text>
<polyline fill="none" stroke="#000000" points="648.2563,-44.5 836.9048,-44.5 "/>
<text text-anchor="middle" x="742.5806" y="-29.3" font-family="Times,serif" font-size="14.00" fill="#000000">pm=2.943918888445114e&#45;174</text>
<polyline fill="none" stroke="#000000" points="648.2563,-22.5 836.9048,-22.5 "/>
<text text-anchor="middle" x="742.5806" y="-7.3" font-family="Times,serif" font-size="14.00" fill="#000000">as=[0, 0, 64, 495, 54, 0, 0]</text>
</g>
<!-- name13&#45;&gt;name17 -->
<g id="edge13" class="edge">
<title>name13&#45;&gt;name17</title>
<path fill="none" stroke="#000000" d="M602.7255,-139.3285C623.8397,-125.0121 647.4039,-109.0345 669.082,-94.3356"/>
<polygon fill="#000000" stroke="#000000" points="671.2925,-97.0655 677.6051,-88.5565 667.3641,-91.2718 671.2925,-97.0655"/>
<text text-anchor="middle" x="650.0806" y="-109.8" font-family="Times,serif" font-size="14.00" fill="#000000">4</text>
</g>
<!-- name18 -->
<g id="node19" class="node">
<title>name18</title>
<polygon fill="none" stroke="#000000" points="854.438,-.5 854.438,-88.5 1046.7231,-88.5 1046.7231,-.5 854.438,-.5"/>
<text text-anchor="middle" x="950.5806" y="-73.3" font-family="Times,serif" font-size="14.00" fill="#000000">pe=0.00023815194093831864</text>
<polyline fill="none" stroke="#000000" points="854.438,-66.5 1046.7231,-66.5 "/>
<text text-anchor="middle" x="950.5806" y="-51.3" font-family="Times,serif" font-size="14.00" fill="#000000">pw=0.00023815194093831864</text>
<polyline fill="none" stroke="#000000" points="854.438,-44.5 1046.7231,-44.5 "/>
<text text-anchor="middle" x="950.5806" y="-29.3" font-family="Times,serif" font-size="14.00" fill="#000000">pm=0.00023815194093831864</text>
<polyline fill="none" stroke="#000000" points="854.438,-22.5 1046.7231,-22.5 "/>
<text text-anchor="middle" x="950.5806" y="-7.3" font-family="Times,serif" font-size="14.00" fill="#000000">as=[0, 0, 1, 6, 0, 0, 0]</text>
</g>
<!-- name13&#45;&gt;name18 -->
<g id="edge14" class="edge">
<title>name13&#45;&gt;name18</title>
<path fill="none" stroke="#000000" d="M630.1517,-142.3029C633.3186,-141.153 636.4678,-140.048 639.5806,-139 725.9053,-109.9373 754.2554,-117.9936 844.8444,-89.0901"/>
<polygon fill="#000000" stroke="#000000" points="845.9775,-92.4021 854.4029,-85.9784 843.8106,-85.7459 845.9775,-92.4021"/>
<text text-anchor="middle" x="782.0806" y="-109.8" font-family="Times,serif" font-size="14.00" fill="#000000">5</text>
</g>
</g>
</svg>
