<?xml version="1.0" encoding="UTF-8" standalone="no"?>
<!DOCTYPE svg PUBLIC "-//W3C//DTD SVG 1.1//EN"
 "http://www.w3.org/Graphics/SVG/1.1/DTD/svg11.dtd">
<!-- Generated by graphviz version 2.40.1 (20161225.0304)
 -->
<!-- Title: root Pages: 1 -->
<svg width="3583pt" height="411pt"
 viewBox="0.00 0.00 3582.66 411.00" xmlns="http://www.w3.org/2000/svg" xmlns:xlink="http://www.w3.org/1999/xlink">
<g id="graph0" class="graph" transform="scale(1 1) rotate(0) translate(4 407)">
<title>root</title>
<polygon fill="#ffffff" stroke="transparent" points="-4,4 -4,-407 3578.6611,-407 3578.6611,4 -4,4"/>
<!-- name0 -->
<g id="node1" class="node">
<title>name0</title>
<polygon fill="none" stroke="#000000" points="823.5806,-302.5 823.5806,-402.5 959.5806,-402.5 959.5806,-302.5 823.5806,-302.5"/>
<text text-anchor="middle" x="891.5215" y="-385.8" font-family="Times,serif" font-size="14.00" fill="#000000">pe=0.0</text>
<polyline fill="none" stroke="#000000" points="823.5806,-377.5 959.4624,-377.5 "/>
<text text-anchor="middle" x="891.5215" y="-360.8" font-family="Times,serif" font-size="14.00" fill="#000000">pw=0.0</text>
<polyline fill="none" stroke="#000000" points="823.5806,-352.5 959.4624,-352.5 "/>
<text text-anchor="middle" x="891.5215" y="-335.8" font-family="Times,serif" font-size="14.00" fill="#000000">pm=0.0</text>
<polyline fill="none" stroke="#000000" points="823.5806,-327.5 959.4624,-327.5 "/>
<text text-anchor="middle" x="891.5215" y="-310.8" font-family="Times,serif" font-size="14.00" fill="#000000">as=[816, 1752, 2432]</text>
</g>
<!-- name1 -->
<g id="node2" class="node">
<title>name1</title>
<polygon fill="none" stroke="#000000" points="345.5806,-151.5 345.5806,-251.5 467.5806,-251.5 467.5806,-151.5 345.5806,-151.5"/>
<text text-anchor="middle" x="406.5215" y="-234.8" font-family="Times,serif" font-size="14.00" fill="#000000">pe=0.0</text>
<polyline fill="none" stroke="#000000" points="345.5806,-226.5 467.4624,-226.5 "/>
<text text-anchor="middle" x="406.5215" y="-209.8" font-family="Times,serif" font-size="14.00" fill="#000000">pw=0.0</text>
<polyline fill="none" stroke="#000000" points="345.5806,-201.5 467.4624,-201.5 "/>
<text text-anchor="middle" x="406.5215" y="-184.8" font-family="Times,serif" font-size="14.00" fill="#000000">pm=0.0</text>
<polyline fill="none" stroke="#000000" points="345.5806,-176.5 467.4624,-176.5 "/>
<text text-anchor="middle" x="406.5215" y="-159.8" font-family="Times,serif" font-size="14.00" fill="#000000">as=[251, 417, 148]</text>
</g>
<!-- name0&#45;&gt;name1 -->
<g id="edge1" class="edge">
<title>name0&#45;&gt;name1</title>
<path fill="none" stroke="#000000" d="M823.3768,-331.2654C731.9043,-302.7864 570.2743,-252.4644 477.4578,-223.5669"/>
<polygon fill="#000000" stroke="#000000" points="478.4568,-220.2123 467.8684,-220.5814 476.3759,-226.8959 478.4568,-220.2123"/>
<text text-anchor="middle" x="668.0806" y="-272.8" font-family="Times,serif" font-size="14.00" fill="#000000">0</text>
</g>
<!-- name5 -->
<g id="node3" class="node">
<title>name5</title>
<polygon fill="none" stroke="#000000" points="830.5806,-151.5 830.5806,-251.5 952.5806,-251.5 952.5806,-151.5 830.5806,-151.5"/>
<text text-anchor="middle" x="891.5215" y="-234.8" font-family="Times,serif" font-size="14.00" fill="#000000">pe=0.0</text>
<polyline fill="none" stroke="#000000" points="830.5806,-226.5 952.4624,-226.5 "/>
<text text-anchor="middle" x="891.5215" y="-209.8" font-family="Times,serif" font-size="14.00" fill="#000000">pw=0.0</text>
<polyline fill="none" stroke="#000000" points="830.5806,-201.5 952.4624,-201.5 "/>
<text text-anchor="middle" x="891.5215" y="-184.8" font-family="Times,serif" font-size="14.00" fill="#000000">pm=0.0</text>
<polyline fill="none" stroke="#000000" points="830.5806,-176.5 952.4624,-176.5 "/>
<text text-anchor="middle" x="891.5215" y="-159.8" font-family="Times,serif" font-size="14.00" fill="#000000">as=[189, 926, 636]</text>
</g>
<!-- name0&#45;&gt;name5 -->
<g id="edge2" class="edge">
<title>name0&#45;&gt;name5</title>
<path fill="none" stroke="#000000" d="M891.5806,-302.2192C891.5806,-289.2296 891.5806,-275.1148 891.5806,-261.6762"/>
<polygon fill="#000000" stroke="#000000" points="895.0807,-261.5612 891.5806,-251.5612 888.0807,-261.5613 895.0807,-261.5612"/>
<text text-anchor="middle" x="895.0806" y="-272.8" font-family="Times,serif" font-size="14.00" fill="#000000">1</text>
</g>
<!-- name9 -->
<g id="node4" class="node">
<title>name9</title>
<polygon fill="none" stroke="#000000" points="1309.0806,-151.5 1309.0806,-251.5 1438.0806,-251.5 1438.0806,-151.5 1309.0806,-151.5"/>
<text text-anchor="middle" x="1373.5215" y="-234.8" font-family="Times,serif" font-size="14.00" fill="#000000">pe=0.0</text>
<polyline fill="none" stroke="#000000" points="1309.0806,-226.5 1437.9624,-226.5 "/>
<text text-anchor="middle" x="1373.5215" y="-209.8" font-family="Times,serif" font-size="14.00" fill="#000000">pw=0.0</text>
<polyline fill="none" stroke="#000000" points="1309.0806,-201.5 1437.9624,-201.5 "/>
<text text-anchor="middle" x="1373.5215" y="-184.8" font-family="Times,serif" font-size="14.00" fill="#000000">pm=0.0</text>
<polyline fill="none" stroke="#000000" points="1309.0806,-176.5 1437.9624,-176.5 "/>
<text text-anchor="middle" x="1373.5215" y="-159.8" font-family="Times,serif" font-size="14.00" fill="#000000">as=[376, 408, 1648]</text>
</g>
<!-- name0&#45;&gt;name9 -->
<g id="edge3" class="edge">
<title>name0&#45;&gt;name9</title>
<path fill="none" stroke="#000000" d="M959.6171,-331.1857C1049.3425,-303.0767 1206.672,-253.7888 1299.377,-224.7463"/>
<polygon fill="#000000" stroke="#000000" points="1300.4743,-228.0704 1308.9707,-221.7409 1298.3816,-221.3905 1300.4743,-228.0704"/>
<text text-anchor="middle" x="1151.0806" y="-272.8" font-family="Times,serif" font-size="14.00" fill="#000000">2</text>
</g>
<!-- name2 -->
<g id="node5" class="node">
<title>name2</title>
<polygon fill="none" stroke="#000000" points="0,-.5 0,-100.5 189.1611,-100.5 189.1611,-.5 0,-.5"/>
<text text-anchor="middle" x="94.5806" y="-83.8" font-family="Times,serif" font-size="14.00" fill="#000000">pe=9.447167180847275e&#45;102</text>
<polyline fill="none" stroke="#000000" points="0,-75.5 189.1611,-75.5 "/>
<text text-anchor="middle" x="94.5806" y="-58.8" font-family="Times,serif" font-size="14.00" fill="#000000">pw=7.090192299857559e&#45;102</text>
<polyline fill="none" stroke="#000000" points="0,-50.5 189.1611,-50.5 "/>
<text text-anchor="middle" x="94.5806" y="-33.8" font-family="Times,serif" font-size="14.00" fill="#000000">pm=7.085375385635457e&#45;102</text>
<polyline fill="none" stroke="#000000" points="0,-25.5 189.1611,-25.5 "/>
<text text-anchor="middle" x="94.5806" y="-8.8" font-family="Times,serif" font-size="14.00" fill="#000000">as=[73, 151, 27]</text>
</g>
<!-- name1&#45;&gt;name2 -->
<g id="edge4" class="edge">
<title>name1&#45;&gt;name2</title>
<path fill="none" stroke="#000000" d="M345.2485,-172.1592C305.7643,-153.235 253.1032,-127.9303 198.544,-101.4614"/>
<polygon fill="#000000" stroke="#000000" points="199.9409,-98.249 189.4163,-97.0309 196.8842,-104.5463 199.9409,-98.249"/>
<text text-anchor="middle" x="265.0806" y="-121.8" font-family="Times,serif" font-size="14.00" fill="#000000">0</text>
</g>
<!-- name3 -->
<g id="node6" class="node">
<title>name3</title>
<polygon fill="none" stroke="#000000" points="207,-.5 207,-100.5 396.1611,-100.5 396.1611,-.5 207,-.5"/>
<text text-anchor="middle" x="301.5806" y="-83.8" font-family="Times,serif" font-size="14.00" fill="#000000">pe=7.773287393945814e&#45;67</text>
<polyline fill="none" stroke="#000000" points="207,-75.5 396.1611,-75.5 "/>
<text text-anchor="middle" x="301.5806" y="-58.8" font-family="Times,serif" font-size="14.00" fill="#000000">pw=7.287847522702877e&#45;67</text>
<polyline fill="none" stroke="#000000" points="207,-50.5 396.1611,-50.5 "/>
<text text-anchor="middle" x="301.5806" y="-33.8" font-family="Times,serif" font-size="14.00" fill="#000000">pm=5.8299655454593606e&#45;67</text>
<polyline fill="none" stroke="#000000" points="207,-25.5 396.1611,-25.5 "/>
<text text-anchor="middle" x="301.5806" y="-8.8" font-family="Times,serif" font-size="14.00" fill="#000000">as=[55, 125, 9]</text>
</g>
<!-- name1&#45;&gt;name3 -->
<g id="edge5" class="edge">
<title>name1&#45;&gt;name3</title>
<path fill="none" stroke="#000000" d="M371.6171,-151.2192C362.2304,-137.7202 351.9987,-123.006 342.3278,-109.0984"/>
<polygon fill="#000000" stroke="#000000" points="344.974,-106.7732 336.3914,-100.5612 339.2269,-110.7696 344.974,-106.7732"/>
<text text-anchor="middle" x="361.0806" y="-121.8" font-family="Times,serif" font-size="14.00" fill="#000000">1</text>
</g>
<!-- name4 -->
<g id="node7" class="node">
<title>name4</title>
<polygon fill="none" stroke="#000000" points="413.8896,-.5 413.8896,-100.5 609.2715,-100.5 609.2715,-.5 413.8896,-.5"/>
<text text-anchor="middle" x="511.5806" y="-83.8" font-family="Times,serif" font-size="14.00" fill="#000000">pe=5.8057530797994365e&#45;182</text>
<polyline fill="none" stroke="#000000" points="413.8896,-75.5 609.2715,-75.5 "/>
<text text-anchor="middle" x="511.5806" y="-58.8" font-family="Times,serif" font-size="14.00" fill="#000000">pw=4.3575973639502054e&#45;182</text>
<polyline fill="none" stroke="#000000" points="413.8896,-50.5 609.2715,-50.5 "/>
<text text-anchor="middle" x="511.5806" y="-33.8" font-family="Times,serif" font-size="14.00" fill="#000000">pm=4.354314809849578e&#45;182</text>
<polyline fill="none" stroke="#000000" points="413.8896,-25.5 609.2715,-25.5 "/>
<text text-anchor="middle" x="511.5806" y="-8.8" font-family="Times,serif" font-size="14.00" fill="#000000">as=[123, 141, 112]</text>
</g>
<!-- name1&#45;&gt;name4 -->
<g id="edge6" class="edge">
<title>name1&#45;&gt;name4</title>
<path fill="none" stroke="#000000" d="M441.544,-151.2192C450.9308,-137.7202 461.1625,-123.006 470.8333,-109.0984"/>
<polygon fill="#000000" stroke="#000000" points="473.9342,-110.7696 476.7698,-100.5612 468.1871,-106.7732 473.9342,-110.7696"/>
<text text-anchor="middle" x="466.0806" y="-121.8" font-family="Times,serif" font-size="14.00" fill="#000000">2</text>
</g>
<!-- name6 -->
<g id="node8" class="node">
<title>name6</title>
<polygon fill="none" stroke="#000000" points="626.938,-.5 626.938,-100.5 812.2231,-100.5 812.2231,-.5 626.938,-.5"/>
<text text-anchor="middle" x="719.5806" y="-83.8" font-family="Times,serif" font-size="14.00" fill="#000000">pe=0.0011976047904191617</text>
<polyline fill="none" stroke="#000000" points="626.938,-75.5 812.2231,-75.5 "/>
<text text-anchor="middle" x="719.5806" y="-58.8" font-family="Times,serif" font-size="14.00" fill="#000000">pw=0.000898209719711596</text>
<polyline fill="none" stroke="#000000" points="626.938,-50.5 812.2231,-50.5 "/>
<text text-anchor="middle" x="719.5806" y="-33.8" font-family="Times,serif" font-size="14.00" fill="#000000">pm=0.0008982035928143712</text>
<polyline fill="none" stroke="#000000" points="626.938,-25.5 812.2231,-25.5 "/>
<text text-anchor="middle" x="719.5806" y="-8.8" font-family="Times,serif" font-size="14.00" fill="#000000">as=[0, 417, 0]</text>
</g>
<!-- name5&#45;&gt;name6 -->
<g id="edge7" class="edge">
<title>name5&#45;&gt;name6</title>
<path fill="none" stroke="#000000" d="M834.3071,-151.2192C818.3505,-137.2108 800.9033,-121.8938 784.5391,-107.5275"/>
<polygon fill="#000000" stroke="#000000" points="786.428,-104.5285 776.604,-100.5612 781.8098,-109.7889 786.428,-104.5285"/>
<text text-anchor="middle" x="815.0806" y="-121.8" font-family="Times,serif" font-size="14.00" fill="#000000">0</text>
</g>
<!-- name7 -->
<g id="node9" class="node">
<title>name7</title>
<polygon fill="none" stroke="#000000" points="830.5806,-.5 830.5806,-100.5 952.5806,-100.5 952.5806,-.5 830.5806,-.5"/>
<text text-anchor="middle" x="891.5215" y="-83.8" font-family="Times,serif" font-size="14.00" fill="#000000">pe=0.0</text>
<polyline fill="none" stroke="#000000" points="830.5806,-75.5 952.4624,-75.5 "/>
<text text-anchor="middle" x="891.5215" y="-58.8" font-family="Times,serif" font-size="14.00" fill="#000000">pw=0.0</text>
<polyline fill="none" stroke="#000000" points="830.5806,-50.5 952.4624,-50.5 "/>
<text text-anchor="middle" x="891.5215" y="-33.8" font-family="Times,serif" font-size="14.00" fill="#000000">pm=0.0</text>
<polyline fill="none" stroke="#000000" points="830.5806,-25.5 952.4624,-25.5 "/>
<text text-anchor="middle" x="891.5215" y="-8.8" font-family="Times,serif" font-size="14.00" fill="#000000">as=[189, 100, 636]</text>
</g>
<!-- name5&#45;&gt;name7 -->
<g id="edge8" class="edge">
<title>name5&#45;&gt;name7</title>
<path fill="none" stroke="#000000" d="M891.5806,-151.2192C891.5806,-138.2296 891.5806,-124.1148 891.5806,-110.6762"/>
<polygon fill="#000000" stroke="#000000" points="895.0807,-110.5612 891.5806,-100.5612 888.0807,-110.5613 895.0807,-110.5612"/>
<text text-anchor="middle" x="895.0806" y="-121.8" font-family="Times,serif" font-size="14.00" fill="#000000">1</text>
</g>
<!-- name8 -->
<g id="node10" class="node">
<title>name8</title>
<polygon fill="none" stroke="#000000" points="970.938,-.5 970.938,-100.5 1156.2231,-100.5 1156.2231,-.5 970.938,-.5"/>
<text text-anchor="middle" x="1063.5806" y="-83.8" font-family="Times,serif" font-size="14.00" fill="#000000">pe=0.0012239902080783353</text>
<polyline fill="none" stroke="#000000" points="970.938,-75.5 1156.2231,-75.5 "/>
<text text-anchor="middle" x="1063.5806" y="-58.8" font-family="Times,serif" font-size="14.00" fill="#000000">pw=0.000919430041699422</text>
<polyline fill="none" stroke="#000000" points="970.938,-50.5 1156.2231,-50.5 "/>
<text text-anchor="middle" x="1063.5806" y="-33.8" font-family="Times,serif" font-size="14.00" fill="#000000">pm=0.0009179926560587516</text>
<polyline fill="none" stroke="#000000" points="970.938,-25.5 1156.2231,-25.5 "/>
<text text-anchor="middle" x="1063.5806" y="-8.8" font-family="Times,serif" font-size="14.00" fill="#000000">as=[0, 408, 0]</text>
</g>
<!-- name5&#45;&gt;name8 -->
<g id="edge9" class="edge">
<title>name5&#45;&gt;name8</title>
<path fill="none" stroke="#000000" d="M948.8541,-151.2192C964.8106,-137.2108 982.2578,-121.8938 998.6221,-107.5275"/>
<polygon fill="#000000" stroke="#000000" points="1001.3513,-109.7889 1006.5572,-100.5612 996.7331,-104.5285 1001.3513,-109.7889"/>
<text text-anchor="middle" x="987.0806" y="-121.8" font-family="Times,serif" font-size="14.00" fill="#000000">2</text>
</g>
<!-- name10 -->
<g id="node11" class="node">
<title>name10</title>
<polygon fill="none" stroke="#000000" points="1174.3896,-.5 1174.3896,-100.5 1362.7715,-100.5 1362.7715,-.5 1174.3896,-.5"/>
<text text-anchor="middle" x="1268.5806" y="-83.8" font-family="Times,serif" font-size="14.00" fill="#000000">pe=1.9798290481672786e&#45;58</text>
<polyline fill="none" stroke="#000000" points="1174.3896,-75.5 1362.7715,-75.5 "/>
<text text-anchor="middle" x="1268.5806" y="-58.8" font-family="Times,serif" font-size="14.00" fill="#000000">pw=1.5377394690042052e&#45;58</text>
<polyline fill="none" stroke="#000000" points="1174.3896,-50.5 1362.7715,-50.5 "/>
<text text-anchor="middle" x="1268.5806" y="-33.8" font-family="Times,serif" font-size="14.00" fill="#000000">pm=1.484871786125459e&#45;58</text>
<polyline fill="none" stroke="#000000" points="1174.3896,-25.5 1362.7715,-25.5 "/>
<text text-anchor="middle" x="1268.5806" y="-8.8" font-family="Times,serif" font-size="14.00" fill="#000000">as=[31, 98, 19]</text>
</g>
<!-- name9&#45;&gt;name10 -->
<g id="edge10" class="edge">
<title>name9&#45;&gt;name10</title>
<path fill="none" stroke="#000000" d="M1338.6171,-151.2192C1329.2304,-137.7202 1318.9987,-123.006 1309.3278,-109.0984"/>
<polygon fill="#000000" stroke="#000000" points="1311.974,-106.7732 1303.3914,-100.5612 1306.2269,-110.7696 1311.974,-106.7732"/>
<text text-anchor="middle" x="1328.0806" y="-121.8" font-family="Times,serif" font-size="14.00" fill="#000000">0</text>
</g>
<!-- name11 -->
<g id="node12" class="node">
<title>name11</title>
<polygon fill="none" stroke="#000000" points="1380.5,-.5 1380.5,-100.5 1576.6611,-100.5 1576.6611,-.5 1380.5,-.5"/>
<text text-anchor="middle" x="1478.5806" y="-83.8" font-family="Times,serif" font-size="14.00" fill="#000000">pe=1.6587757470413497e&#45;288</text>
<polyline fill="none" stroke="#000000" points="1380.5,-75.5 1576.6611,-75.5 "/>
<text text-anchor="middle" x="1478.5806" y="-58.8" font-family="Times,serif" font-size="14.00" fill="#000000">pw=1.5552436543568768e&#45;288</text>
<polyline fill="none" stroke="#000000" points="1380.5,-50.5 1576.6611,-50.5 "/>
<text text-anchor="middle" x="1478.5806" y="-33.8" font-family="Times,serif" font-size="14.00" fill="#000000">pm=1.2440818102810123e&#45;288</text>
<polyline fill="none" stroke="#000000" points="1380.5,-25.5 1576.6611,-25.5 "/>
<text text-anchor="middle" x="1478.5806" y="-8.8" font-family="Times,serif" font-size="14.00" fill="#000000">as=[204, 310, 122]</text>
</g>
<!-- name9&#45;&gt;name11 -->
<g id="edge11" class="edge">
<title>name9&#45;&gt;name11</title>
<path fill="none" stroke="#000000" d="M1408.544,-151.2192C1417.9308,-137.7202 1428.1625,-123.006 1437.8333,-109.0984"/>
<polygon fill="#000000" stroke="#000000" points="1440.9342,-110.7696 1443.7698,-100.5612 1435.1871,-106.7732 1440.9342,-110.7696"/>
<text text-anchor="middle" x="1433.0806" y="-121.8" font-family="Times,serif" font-size="14.00" fill="#000000">1</text>
</g>
<!-- name12 -->
<g id="node13" class="node">
<title>name12</title>
<polygon fill="none" stroke="#000000" points="1594.5,-.5 1594.5,-100.5 1790.6611,-100.5 1790.6611,-.5 1594.5,-.5"/>
<text text-anchor="middle" x="1692.5806" y="-83.8" font-family="Times,serif" font-size="14.00" fill="#000000">pe=3.494258880376759e&#45;213</text>
<polyline fill="none" stroke="#000000" points="1594.5,-75.5 1790.6611,-75.5 "/>
<text text-anchor="middle" x="1692.5806" y="-58.8" font-family="Times,serif" font-size="14.00" fill="#000000">pw=2.6208203048530105e&#45;213</text>
<polyline fill="none" stroke="#000000" points="1594.5,-50.5 1790.6611,-50.5 "/>
<text text-anchor="middle" x="1692.5806" y="-33.8" font-family="Times,serif" font-size="14.00" fill="#000000">pm=2.6206941602825692e&#45;213</text>
<polyline fill="none" stroke="#000000" points="1594.5,-25.5 1790.6611,-25.5 "/>
<text text-anchor="middle" x="1692.5806" y="-8.8" font-family="Times,serif" font-size="14.00" fill="#000000">as=[141, 0, 1507]</text>
</g>
<!-- name9&#45;&gt;name12 -->
<g id="edge12" class="edge">
<title>name9&#45;&gt;name12</title>
<path fill="none" stroke="#000000" d="M1438.135,-170.9429C1480.2947,-150.9864 1536.3693,-124.4433 1585.1469,-101.3542"/>
<polygon fill="#000000" stroke="#000000" points="1586.9402,-104.3777 1594.4813,-96.9357 1583.9453,-98.0507 1586.9402,-104.3777"/>
<text text-anchor="middle" x="1547.0806" y="-121.8" font-family="Times,serif" font-size="14.00" fill="#000000">2</text>
</g>
<!-- name0_gv1 -->
<g id="node14" class="node">
<title>name0_gv1</title>
<polygon fill="none" stroke="#000000" points="2615.5806,-302.5 2615.5806,-402.5 2751.5806,-402.5 2751.5806,-302.5 2615.5806,-302.5"/>
<text text-anchor="middle" x="2683.5215" y="-385.8" font-family="Times,serif" font-size="14.00" fill="#000000">pe=0.0</text>
<polyline fill="none" stroke="#000000" points="2615.5806,-377.5 2751.4624,-377.5 "/>
<text text-anchor="middle" x="2683.5215" y="-360.8" font-family="Times,serif" font-size="14.00" fill="#000000">pw=0.0</text>
<polyline fill="none" stroke="#000000" points="2615.5806,-352.5 2751.4624,-352.5 "/>
<text text-anchor="middle" x="2683.5215" y="-335.8" font-family="Times,serif" font-size="14.00" fill="#000000">pm=0.0</text>
<polyline fill="none" stroke="#000000" points="2615.5806,-327.5 2751.4624,-327.5 "/>
<text text-anchor="middle" x="2683.5215" y="-310.8" font-family="Times,serif" font-size="14.00" fill="#000000">as=[814, 1680, 2506]</text>
</g>
<!-- name1_gv1 -->
<g id="node15" class="node">
<title>name1_gv1</title>
<polygon fill="none" stroke="#000000" points="2141.5806,-151.5 2141.5806,-251.5 2263.5806,-251.5 2263.5806,-151.5 2141.5806,-151.5"/>
<text text-anchor="middle" x="2202.2651" y="-234.8" font-family="Times,serif" font-size="14.00" fill="#000000">pe=0.0</text>
<polyline fill="none" stroke="#000000" points="2141.5806,-226.5 2262.9497,-226.5 "/>
<text text-anchor="middle" x="2202.2651" y="-209.8" font-family="Times,serif" font-size="14.00" fill="#000000">pw=0.0</text>
<polyline fill="none" stroke="#000000" points="2141.5806,-201.5 2262.9497,-201.5 "/>
<text text-anchor="middle" x="2202.2651" y="-184.8" font-family="Times,serif" font-size="14.00" fill="#000000">pm=0.0</text>
<polyline fill="none" stroke="#000000" points="2141.5806,-176.5 2262.9497,-176.5 "/>
<text text-anchor="middle" x="2202.2651" y="-159.8" font-family="Times,serif" font-size="14.00" fill="#000000">as=[236, 460, 118]</text>
</g>
<!-- name0_gv1&#45;&gt;name1_gv1 -->
<g id="edge13" class="edge">
<title>name0_gv1&#45;&gt;name1_gv1</title>
<path fill="none" stroke="#000000" d="M2615.4307,-331.1058C2524.7865,-302.6499 2365.3275,-252.591 2273.3698,-223.7228"/>
<polygon fill="#000000" stroke="#000000" points="2274.1824,-220.3096 2263.5932,-220.6536 2272.0858,-226.9882 2274.1824,-220.3096"/>
<text text-anchor="middle" x="2461.0806" y="-272.8" font-family="Times,serif" font-size="14.00" fill="#000000">0</text>
</g>
<!-- name5_gv1 -->
<g id="node16" class="node">
<title>name5_gv1</title>
<polygon fill="none" stroke="#000000" points="2622.5806,-151.5 2622.5806,-251.5 2744.5806,-251.5 2744.5806,-151.5 2622.5806,-151.5"/>
<text text-anchor="middle" x="2683.5215" y="-234.8" font-family="Times,serif" font-size="14.00" fill="#000000">pe=0.0</text>
<polyline fill="none" stroke="#000000" points="2622.5806,-226.5 2744.4624,-226.5 "/>
<text text-anchor="middle" x="2683.5215" y="-209.8" font-family="Times,serif" font-size="14.00" fill="#000000">pw=0.0</text>
<polyline fill="none" stroke="#000000" points="2622.5806,-201.5 2744.4624,-201.5 "/>
<text text-anchor="middle" x="2683.5215" y="-184.8" font-family="Times,serif" font-size="14.00" fill="#000000">pm=0.0</text>
<polyline fill="none" stroke="#000000" points="2622.5806,-176.5 2744.4624,-176.5 "/>
<text text-anchor="middle" x="2683.5215" y="-159.8" font-family="Times,serif" font-size="14.00" fill="#000000">as=[204, 888, 588]</text>
</g>
<!-- name0_gv1&#45;&gt;name5_gv1 -->
<g id="edge14" class="edge">
<title>name0_gv1&#45;&gt;name5_gv1</title>
<path fill="none" stroke="#000000" d="M2683.5806,-302.2192C2683.5806,-289.2296 2683.5806,-275.1148 2683.5806,-261.6762"/>
<polygon fill="#000000" stroke="#000000" points="2687.0807,-261.5612 2683.5806,-251.5612 2680.0807,-261.5613 2687.0807,-261.5612"/>
<text text-anchor="middle" x="2687.0806" y="-272.8" font-family="Times,serif" font-size="14.00" fill="#000000">1</text>
</g>
<!-- name9_gv1 -->
<g id="node17" class="node">
<title>name9_gv1</title>
<polygon fill="none" stroke="#000000" points="3094.0806,-151.5 3094.0806,-251.5 3223.0806,-251.5 3223.0806,-151.5 3094.0806,-151.5"/>
<text text-anchor="middle" x="3158.5215" y="-234.8" font-family="Times,serif" font-size="14.00" fill="#000000">pe=0.0</text>
<polyline fill="none" stroke="#000000" points="3094.0806,-226.5 3222.9624,-226.5 "/>
<text text-anchor="middle" x="3158.5215" y="-209.8" font-family="Times,serif" font-size="14.00" fill="#000000">pw=0.0</text>
<polyline fill="none" stroke="#000000" points="3094.0806,-201.5 3222.9624,-201.5 "/>
<text text-anchor="middle" x="3158.5215" y="-184.8" font-family="Times,serif" font-size="14.00" fill="#000000">pm=0.0</text>
<polyline fill="none" stroke="#000000" points="3094.0806,-176.5 3222.9624,-176.5 "/>
<text text-anchor="middle" x="3158.5215" y="-159.8" font-family="Times,serif" font-size="14.00" fill="#000000">as=[374, 331, 1800]</text>
</g>
<!-- name0_gv1&#45;&gt;name9_gv1 -->
<g id="edge15" class="edge">
<title>name0_gv1&#45;&gt;name9_gv1</title>
<path fill="none" stroke="#000000" d="M2751.6365,-330.8654C2839.8732,-302.8154 2993.2189,-254.0676 3084.368,-225.0918"/>
<polygon fill="#000000" stroke="#000000" points="3085.6081,-228.3702 3094.0778,-222.0051 3083.4874,-221.6992 3085.6081,-228.3702"/>
<text text-anchor="middle" x="2939.0806" y="-272.8" font-family="Times,serif" font-size="14.00" fill="#000000">2</text>
</g>
<!-- name2_gv1 -->
<g id="node18" class="node">
<title>name2_gv1</title>
<polygon fill="none" stroke="#000000" points="1808.5,-.5 1808.5,-100.5 1990.6611,-100.5 1990.6611,-.5 1808.5,-.5"/>
<text text-anchor="middle" x="1899.5806" y="-83.8" font-family="Times,serif" font-size="14.00" fill="#000000">pe=1.213034721664506e&#45;90</text>
<polyline fill="none" stroke="#000000" points="1808.5,-75.5 1990.6611,-75.5 "/>
<text text-anchor="middle" x="1899.5806" y="-58.8" font-family="Times,serif" font-size="14.00" fill="#000000">pw=9.100013189862644e&#45;91</text>
<polyline fill="none" stroke="#000000" points="1808.5,-50.5 1990.6611,-50.5 "/>
<text text-anchor="middle" x="1899.5806" y="-33.8" font-family="Times,serif" font-size="14.00" fill="#000000">pm=9.097760412483795e&#45;91</text>
<polyline fill="none" stroke="#000000" points="1808.5,-25.5 1990.6611,-25.5 "/>
<text text-anchor="middle" x="1899.5806" y="-8.8" font-family="Times,serif" font-size="14.00" fill="#000000">as=[54, 156, 26]</text>
</g>
<!-- name1_gv1&#45;&gt;name2_gv1 -->
<g id="edge16" class="edge">
<title>name1_gv1&#45;&gt;name2_gv1</title>
<path fill="none" stroke="#000000" d="M2141.2229,-171.2811C2103.1246,-152.4807 2052.9147,-127.638 2000.0507,-101.2276"/>
<polygon fill="#000000" stroke="#000000" points="2001.3609,-97.9696 1990.8512,-96.6291 1998.231,-104.231 2001.3609,-97.9696"/>
<text text-anchor="middle" x="2065.0806" y="-121.8" font-family="Times,serif" font-size="14.00" fill="#000000">0</text>
</g>
<!-- name3_gv1 -->
<g id="node19" class="node">
<title>name3_gv1</title>
<polygon fill="none" stroke="#000000" points="2008.5,-.5 2008.5,-100.5 2190.6611,-100.5 2190.6611,-.5 2008.5,-.5"/>
<text text-anchor="middle" x="2099.5806" y="-83.8" font-family="Times,serif" font-size="14.00" fill="#000000">pe=8.16102953700594e&#45;69</text>
<polyline fill="none" stroke="#000000" points="2008.5,-75.5 2190.6611,-75.5 "/>
<text text-anchor="middle" x="2099.5806" y="-58.8" font-family="Times,serif" font-size="14.00" fill="#000000">pw=7.665888648306269e&#45;69</text>
<polyline fill="none" stroke="#000000" points="2008.5,-50.5 2190.6611,-50.5 "/>
<text text-anchor="middle" x="2099.5806" y="-33.8" font-family="Times,serif" font-size="14.00" fill="#000000">pm=6.120772152754455e&#45;69</text>
<polyline fill="none" stroke="#000000" points="2008.5,-25.5 2190.6611,-25.5 "/>
<text text-anchor="middle" x="2099.5806" y="-8.8" font-family="Times,serif" font-size="14.00" fill="#000000">as=[44, 147, 13]</text>
</g>
<!-- name1_gv1&#45;&gt;name3_gv1 -->
<g id="edge17" class="edge">
<title>name1_gv1&#45;&gt;name3_gv1</title>
<path fill="none" stroke="#000000" d="M2168.2831,-151.2192C2159.0751,-137.7202 2149.0383,-123.006 2139.5517,-109.0984"/>
<polygon fill="#000000" stroke="#000000" points="2142.2548,-106.8501 2133.7283,-100.5612 2136.472,-110.7947 2142.2548,-106.8501"/>
<text text-anchor="middle" x="2158.0806" y="-121.8" font-family="Times,serif" font-size="14.00" fill="#000000">1</text>
</g>
<!-- name4_gv1 -->
<g id="node20" class="node">
<title>name4_gv1</title>
<polygon fill="none" stroke="#000000" points="2208.5,-.5 2208.5,-100.5 2404.6611,-100.5 2404.6611,-.5 2208.5,-.5"/>
<text text-anchor="middle" x="2306.5806" y="-83.8" font-family="Times,serif" font-size="14.00" fill="#000000">pe=1.3939315914457375e&#45;175</text>
<polyline fill="none" stroke="#000000" points="2208.5,-75.5 2404.6611,-75.5 "/>
<text text-anchor="middle" x="2306.5806" y="-58.8" font-family="Times,serif" font-size="14.00" fill="#000000">pw=1.0457821265245578e&#45;175</text>
<polyline fill="none" stroke="#000000" points="2208.5,-50.5 2404.6611,-50.5 "/>
<text text-anchor="middle" x="2306.5806" y="-33.8" font-family="Times,serif" font-size="14.00" fill="#000000">pm=1.0454486935843032e&#45;175</text>
<polyline fill="none" stroke="#000000" points="2208.5,-25.5 2404.6611,-25.5 "/>
<text text-anchor="middle" x="2306.5806" y="-8.8" font-family="Times,serif" font-size="14.00" fill="#000000">as=[138, 157, 79]</text>
</g>
<!-- name1_gv1&#45;&gt;name4_gv1 -->
<g id="edge18" class="edge">
<title>name1_gv1&#45;&gt;name4_gv1</title>
<path fill="none" stroke="#000000" d="M2237.2111,-151.2192C2246.5084,-137.7202 2256.6426,-123.006 2266.2214,-109.0984"/>
<polygon fill="#000000" stroke="#000000" points="2269.3115,-110.7822 2272.1013,-100.5612 2263.5465,-106.8116 2269.3115,-110.7822"/>
<text text-anchor="middle" x="2262.0806" y="-121.8" font-family="Times,serif" font-size="14.00" fill="#000000">2</text>
</g>
<!-- name6_gv1 -->
<g id="node21" class="node">
<title>name6_gv1</title>
<polygon fill="none" stroke="#000000" points="2422.938,-.5 2422.938,-100.5 2608.2231,-100.5 2608.2231,-.5 2422.938,-.5"/>
<text text-anchor="middle" x="2515.5806" y="-83.8" font-family="Times,serif" font-size="14.00" fill="#000000">pe=0.0010857763300760044</text>
<polyline fill="none" stroke="#000000" points="2422.938,-75.5 2608.2231,-75.5 "/>
<text text-anchor="middle" x="2515.5806" y="-58.8" font-family="Times,serif" font-size="14.00" fill="#000000">pw=0.000814336781220389</text>
<polyline fill="none" stroke="#000000" points="2422.938,-50.5 2608.2231,-50.5 "/>
<text text-anchor="middle" x="2515.5806" y="-33.8" font-family="Times,serif" font-size="14.00" fill="#000000">pm=0.0008143322475570033</text>
<polyline fill="none" stroke="#000000" points="2422.938,-25.5 2608.2231,-25.5 "/>
<text text-anchor="middle" x="2515.5806" y="-8.8" font-family="Times,serif" font-size="14.00" fill="#000000">as=[0, 460, 0]</text>
</g>
<!-- name5_gv1&#45;&gt;name6_gv1 -->
<g id="edge19" class="edge">
<title>name5_gv1&#45;&gt;name6_gv1</title>
<path fill="none" stroke="#000000" d="M2627.639,-151.2192C2612.0535,-137.2108 2595.0121,-121.8938 2579.0284,-107.5275"/>
<polygon fill="#000000" stroke="#000000" points="2581.0549,-104.643 2571.2778,-100.5612 2576.3755,-109.8491 2581.0549,-104.643"/>
<text text-anchor="middle" x="2609.0806" y="-121.8" font-family="Times,serif" font-size="14.00" fill="#000000">0</text>
</g>
<!-- name7_gv1 -->
<g id="node22" class="node">
<title>name7_gv1</title>
<polygon fill="none" stroke="#000000" points="2626.0806,-.5 2626.0806,-100.5 2741.0806,-100.5 2741.0806,-.5 2626.0806,-.5"/>
<text text-anchor="middle" x="2683.5215" y="-83.8" font-family="Times,serif" font-size="14.00" fill="#000000">pe=0.0</text>
<polyline fill="none" stroke="#000000" points="2626.0806,-75.5 2740.9624,-75.5 "/>
<text text-anchor="middle" x="2683.5215" y="-58.8" font-family="Times,serif" font-size="14.00" fill="#000000">pw=0.0</text>
<polyline fill="none" stroke="#000000" points="2626.0806,-50.5 2740.9624,-50.5 "/>
<text text-anchor="middle" x="2683.5215" y="-33.8" font-family="Times,serif" font-size="14.00" fill="#000000">pm=0.0</text>
<polyline fill="none" stroke="#000000" points="2626.0806,-25.5 2740.9624,-25.5 "/>
<text text-anchor="middle" x="2683.5215" y="-8.8" font-family="Times,serif" font-size="14.00" fill="#000000">as=[204, 97, 587]</text>
</g>
<!-- name5_gv1&#45;&gt;name7_gv1 -->
<g id="edge20" class="edge">
<title>name5_gv1&#45;&gt;name7_gv1</title>
<path fill="none" stroke="#000000" d="M2683.5806,-151.2192C2683.5806,-138.2296 2683.5806,-124.1148 2683.5806,-110.6762"/>
<polygon fill="#000000" stroke="#000000" points="2687.0807,-110.5612 2683.5806,-100.5612 2680.0807,-110.5613 2687.0807,-110.5612"/>
<text text-anchor="middle" x="2687.0806" y="-121.8" font-family="Times,serif" font-size="14.00" fill="#000000">1</text>
</g>
<!-- name8_gv1 -->
<g id="node23" class="node">
<title>name8_gv1</title>
<polygon fill="none" stroke="#000000" points="2759.0806,-.5 2759.0806,-100.5 2944.0806,-100.5 2944.0806,-.5 2759.0806,-.5"/>
<text text-anchor="middle" x="2851.4668" y="-83.8" font-family="Times,serif" font-size="14.00" fill="#000000">pe=0.0015082956259426848</text>
<polyline fill="none" stroke="#000000" points="2759.0806,-75.5 2943.853,-75.5 "/>
<text text-anchor="middle" x="2851.4668" y="-58.8" font-family="Times,serif" font-size="14.00" fill="#000000">pw=0.001133584202271954</text>
<polyline fill="none" stroke="#000000" points="2759.0806,-50.5 2943.853,-50.5 "/>
<text text-anchor="middle" x="2851.4668" y="-33.8" font-family="Times,serif" font-size="14.00" fill="#000000">pm=0.0011312217194570137</text>
<polyline fill="none" stroke="#000000" points="2759.0806,-25.5 2943.853,-25.5 "/>
<text text-anchor="middle" x="2851.4668" y="-8.8" font-family="Times,serif" font-size="14.00" fill="#000000">as=[0, 331, 0]</text>
</g>
<!-- name5_gv1&#45;&gt;name8_gv1 -->
<g id="edge21" class="edge">
<title>name5_gv1&#45;&gt;name8_gv1</title>
<path fill="none" stroke="#000000" d="M2739.5221,-151.2192C2755.1076,-137.2108 2772.1491,-121.8938 2788.1327,-107.5275"/>
<polygon fill="#000000" stroke="#000000" points="2790.7856,-109.8491 2795.8833,-100.5612 2786.1062,-104.643 2790.7856,-109.8491"/>
<text text-anchor="middle" x="2777.0806" y="-121.8" font-family="Times,serif" font-size="14.00" fill="#000000">2</text>
</g>
<!-- name10_gv1 -->
<g id="node24" class="node">
<title>name10_gv1</title>
<polygon fill="none" stroke="#000000" points="2962.3379,-.5 2962.3379,-100.5 3146.8232,-100.5 3146.8232,-.5 2962.3379,-.5"/>
<text text-anchor="middle" x="3054.5806" y="-83.8" font-family="Times,serif" font-size="14.00" fill="#000000">pe=3.5423606681281064e&#45;51</text>
<polyline fill="none" stroke="#000000" points="2962.3379,-75.5 3146.8232,-75.5 "/>
<text text-anchor="middle" x="3054.5806" y="-58.8" font-family="Times,serif" font-size="14.00" fill="#000000">pw=2.680724976987975e&#45;51</text>
<polyline fill="none" stroke="#000000" points="2962.3379,-50.5 3146.8232,-50.5 "/>
<text text-anchor="middle" x="3054.5806" y="-33.8" font-family="Times,serif" font-size="14.00" fill="#000000">pm=2.65677050109608e&#45;51</text>
<polyline fill="none" stroke="#000000" points="2962.3379,-25.5 3146.8232,-25.5 "/>
<text text-anchor="middle" x="3054.5806" y="-8.8" font-family="Times,serif" font-size="14.00" fill="#000000">as=[27, 71, 20]</text>
</g>
<!-- name9_gv1&#45;&gt;name10_gv1 -->
<g id="edge22" class="edge">
<title>name9_gv1&#45;&gt;name10_gv1</title>
<path fill="none" stroke="#000000" d="M3123.9501,-151.2192C3114.6528,-137.7202 3104.5185,-123.006 3094.9397,-109.0984"/>
<polygon fill="#000000" stroke="#000000" points="3097.6146,-106.8116 3089.0598,-100.5612 3091.8496,-110.7822 3097.6146,-106.8116"/>
<text text-anchor="middle" x="3114.0806" y="-121.8" font-family="Times,serif" font-size="14.00" fill="#000000">0</text>
</g>
<!-- name11_gv1 -->
<g id="node25" class="node">
<title>name11_gv1</title>
<polygon fill="none" stroke="#000000" points="3164.5,-.5 3164.5,-100.5 3360.6611,-100.5 3360.6611,-.5 3164.5,-.5"/>
<text text-anchor="middle" x="3262.5806" y="-83.8" font-family="Times,serif" font-size="14.00" fill="#000000">pe=2.9310354758601004e&#45;274</text>
<polyline fill="none" stroke="#000000" points="3164.5,-75.5 3360.6611,-75.5 "/>
<text text-anchor="middle" x="3262.5806" y="-58.8" font-family="Times,serif" font-size="14.00" fill="#000000">pw=3.4447052316260024e&#45;274</text>
<polyline fill="none" stroke="#000000" points="3164.5,-50.5 3360.6611,-50.5 "/>
<text text-anchor="middle" x="3262.5806" y="-33.8" font-family="Times,serif" font-size="14.00" fill="#000000">pm=2.1982766068950755e&#45;274</text>
<polyline fill="none" stroke="#000000" points="3164.5,-25.5 3360.6611,-25.5 "/>
<text text-anchor="middle" x="3262.5806" y="-8.8" font-family="Times,serif" font-size="14.00" fill="#000000">as=[199, 260, 129]</text>
</g>
<!-- name9_gv1&#45;&gt;name11_gv1 -->
<g id="edge23" class="edge">
<title>name9_gv1&#45;&gt;name11_gv1</title>
<path fill="none" stroke="#000000" d="M3193.2111,-151.2192C3202.5084,-137.7202 3212.6426,-123.006 3222.2214,-109.0984"/>
<polygon fill="#000000" stroke="#000000" points="3225.3115,-110.7822 3228.1013,-100.5612 3219.5465,-106.8116 3225.3115,-110.7822"/>
<text text-anchor="middle" x="3218.0806" y="-121.8" font-family="Times,serif" font-size="14.00" fill="#000000">1</text>
</g>
<!-- name12_gv1 -->
<g id="node26" class="node">
<title>name12_gv1</title>
<polygon fill="none" stroke="#000000" points="3378.5,-.5 3378.5,-100.5 3574.6611,-100.5 3574.6611,-.5 3378.5,-.5"/>
<text text-anchor="middle" x="3476.5806" y="-83.8" font-family="Times,serif" font-size="14.00" fill="#000000">pe=3.1066974353729183e&#45;226</text>
<polyline fill="none" stroke="#000000" points="3378.5,-75.5 3574.6611,-75.5 "/>
<text text-anchor="middle" x="3476.5806" y="-58.8" font-family="Times,serif" font-size="14.00" fill="#000000">pw=2.33013997157062e&#45;226</text>
<polyline fill="none" stroke="#000000" points="3378.5,-50.5 3574.6611,-50.5 "/>
<text text-anchor="middle" x="3476.5806" y="-33.8" font-family="Times,serif" font-size="14.00" fill="#000000">pm=2.3300230765296886e&#45;226</text>
<polyline fill="none" stroke="#000000" points="3378.5,-25.5 3574.6611,-25.5 "/>
<text text-anchor="middle" x="3476.5806" y="-8.8" font-family="Times,serif" font-size="14.00" fill="#000000">as=[148, 0, 1651]</text>
</g>
<!-- name9_gv1&#45;&gt;name12_gv1 -->
<g id="edge24" class="edge">
<title>name9_gv1&#45;&gt;name12_gv1</title>
<path fill="none" stroke="#000000" d="M3223.3159,-170.7609C3265.199,-150.873 3320.7399,-124.4998 3369.1352,-101.5196"/>
<polygon fill="#000000" stroke="#000000" points="3370.8657,-104.5725 3378.3977,-97.1214 3367.8631,-98.2492 3370.8657,-104.5725"/>
<text text-anchor="middle" x="3331.0806" y="-121.8" font-family="Times,serif" font-size="14.00" fill="#000000">2</text>
</g>
</g>
</svg>
