<?xml version="1.0" encoding="UTF-8" standalone="no"?>
<!DOCTYPE svg PUBLIC "-//W3C//DTD SVG 1.1//EN"
 "http://www.w3.org/Graphics/SVG/1.1/DTD/svg11.dtd">
<!-- Generated by graphviz version 2.40.1 (20161225.0304)
 -->
<!-- Title: nodes Pages: 1 -->
<svg width="2045pt" height="821pt"
 viewBox="0.00 0.00 2044.50 821.00" xmlns="http://www.w3.org/2000/svg" xmlns:xlink="http://www.w3.org/1999/xlink">
<g id="graph0" class="graph" transform="scale(1 1) rotate(0) translate(4 817)">
<title>nodes</title>
<polygon fill="#ffffff" stroke="transparent" points="-4,4 -4,-817 2040.5,-817 2040.5,4 -4,4"/>
<!-- name0 -->
<g id="node1" class="node">
<title>name0</title>
<polygon fill="none" stroke="#000000" points="722,-720.5 722,-812.5 892,-812.5 892,-720.5 722,-720.5"/>
<text text-anchor="middle" x="807" y="-797.3" font-family="Times,serif" font-size="14.00" fill="#000000">pe=0.0</text>
<polyline fill="none" stroke="#000000" points="722,-789.5 892,-789.5 "/>
<text text-anchor="middle" x="807" y="-774.3" font-family="Times,serif" font-size="14.00" fill="#000000">pw=0.0</text>
<polyline fill="none" stroke="#000000" points="722,-766.5 892,-766.5 "/>
<text text-anchor="middle" x="807" y="-751.3" font-family="Times,serif" font-size="14.00" fill="#000000">pm=0.0</text>
<polyline fill="none" stroke="#000000" points="722,-743.5 892,-743.5 "/>
<text text-anchor="middle" x="807" y="-728.3" font-family="Times,serif" font-size="14.00" fill="#000000">as=[76, 187, 1965, 249, 59]</text>
</g>
<!-- name1 -->
<g id="node2" class="node">
<title>name1</title>
<polygon fill="none" stroke="#000000" points="316,-576.5 316,-668.5 500,-668.5 500,-576.5 316,-576.5"/>
<text text-anchor="middle" x="408" y="-653.3" font-family="Times,serif" font-size="14.00" fill="#000000">pe=1.2030940880480354e&#45;49</text>
<polyline fill="none" stroke="#000000" points="316,-645.5 500,-645.5 "/>
<text text-anchor="middle" x="408" y="-630.3" font-family="Times,serif" font-size="14.00" fill="#000000">pw=6.6850431969624555e&#45;50</text>
<polyline fill="none" stroke="#000000" points="316,-622.5 500,-622.5 "/>
<text text-anchor="middle" x="408" y="-607.3" font-family="Times,serif" font-size="14.00" fill="#000000">pm=6.015470440240177e&#45;50</text>
<polyline fill="none" stroke="#000000" points="316,-599.5 500,-599.5 "/>
<text text-anchor="middle" x="408" y="-584.3" font-family="Times,serif" font-size="14.00" fill="#000000">as=[9, 10, 37, 14, 6]</text>
</g>
<!-- name0&#45;&gt;name1 -->
<g id="edge1" class="edge">
<title>name0&#45;&gt;name1</title>
<path fill="none" stroke="#000000" d="M721.9461,-741.5312C664.1771,-723.9077 586.0753,-698.7859 509.3572,-669.0413"/>
<polygon fill="#000000" stroke="#000000" points="510.5978,-665.7684 500.0096,-665.3912 508.0515,-672.2889 510.5978,-665.7684"/>
<text text-anchor="middle" x="602.5" y="-690.8" font-family="Times,serif" font-size="14.00" fill="#000000">0</text>
</g>
<!-- name2 -->
<g id="node3" class="node">
<title>name2</title>
<polygon fill="none" stroke="#000000" points="518.5,-576.5 518.5,-668.5 703.5,-668.5 703.5,-576.5 518.5,-576.5"/>
<text text-anchor="middle" x="611" y="-653.3" font-family="Times,serif" font-size="14.00" fill="#000000">pe=4.2969935584060234e&#45;92</text>
<polyline fill="none" stroke="#000000" points="518.5,-645.5 703.5,-645.5 "/>
<text text-anchor="middle" x="611" y="-630.3" font-family="Times,serif" font-size="14.00" fill="#000000">pw=2.156380622734239e&#45;92</text>
<polyline fill="none" stroke="#000000" points="518.5,-622.5 703.5,-622.5 "/>
<text text-anchor="middle" x="611" y="-607.3" font-family="Times,serif" font-size="14.00" fill="#000000">pm=2.1484967792030117e&#45;92</text>
<polyline fill="none" stroke="#000000" points="518.5,-599.5 703.5,-599.5 "/>
<text text-anchor="middle" x="611" y="-584.3" font-family="Times,serif" font-size="14.00" fill="#000000">as=[7, 18, 123, 28, 11]</text>
</g>
<!-- name0&#45;&gt;name2 -->
<g id="edge2" class="edge">
<title>name0&#45;&gt;name2</title>
<path fill="none" stroke="#000000" d="M744.1756,-720.3433C724.3948,-705.8105 702.4094,-689.658 682.0958,-674.7337"/>
<polygon fill="#000000" stroke="#000000" points="683.936,-671.7426 673.8049,-668.6423 679.7914,-677.3837 683.936,-671.7426"/>
<text text-anchor="middle" x="718.5" y="-690.8" font-family="Times,serif" font-size="14.00" fill="#000000">1</text>
</g>
<!-- name3 -->
<g id="node4" class="node">
<title>name3</title>
<polygon fill="none" stroke="#000000" points="722,-576.5 722,-668.5 892,-668.5 892,-576.5 722,-576.5"/>
<text text-anchor="middle" x="807" y="-653.3" font-family="Times,serif" font-size="14.00" fill="#000000">pe=0.0</text>
<polyline fill="none" stroke="#000000" points="722,-645.5 892,-645.5 "/>
<text text-anchor="middle" x="807" y="-630.3" font-family="Times,serif" font-size="14.00" fill="#000000">pw=0.0</text>
<polyline fill="none" stroke="#000000" points="722,-622.5 892,-622.5 "/>
<text text-anchor="middle" x="807" y="-607.3" font-family="Times,serif" font-size="14.00" fill="#000000">pm=0.0</text>
<polyline fill="none" stroke="#000000" points="722,-599.5 892,-599.5 "/>
<text text-anchor="middle" x="807" y="-584.3" font-family="Times,serif" font-size="14.00" fill="#000000">as=[47, 122, 1586, 173, 36]</text>
</g>
<!-- name0&#45;&gt;name3 -->
<g id="edge28" class="edge">
<title>name0&#45;&gt;name3</title>
<path fill="none" stroke="#000000" d="M807,-720.1449C807,-707.0413 807,-692.6342 807,-679.0048"/>
<polygon fill="#000000" stroke="#000000" points="810.5001,-678.7683 807,-668.7683 803.5001,-678.7683 810.5001,-678.7683"/>
<text text-anchor="middle" x="810.5" y="-690.8" font-family="Times,serif" font-size="14.00" fill="#000000">2</text>
</g>
<!-- name29 -->
<g id="node30" class="node">
<title>name29</title>
<polygon fill="none" stroke="#000000" points="910,-576.5 910,-668.5 1102,-668.5 1102,-576.5 910,-576.5"/>
<text text-anchor="middle" x="1006" y="-653.3" font-family="Times,serif" font-size="14.00" fill="#000000">pe=2.2997528637362743e&#45;107</text>
<polyline fill="none" stroke="#000000" points="910,-645.5 1102,-645.5 "/>
<text text-anchor="middle" x="1006" y="-630.3" font-family="Times,serif" font-size="14.00" fill="#000000">pw=7.43124116930326e&#45;107</text>
<polyline fill="none" stroke="#000000" points="910,-622.5 1102,-622.5 "/>
<text text-anchor="middle" x="1006" y="-607.3" font-family="Times,serif" font-size="14.00" fill="#000000">pm=1.1498764318681372e&#45;107</text>
<polyline fill="none" stroke="#000000" points="910,-599.5 1102,-599.5 "/>
<text text-anchor="middle" x="1006" y="-584.3" font-family="Times,serif" font-size="14.00" fill="#000000">as=[10, 30, 176, 29, 4]</text>
</g>
<!-- name0&#45;&gt;name29 -->
<g id="edge29" class="edge">
<title>name0&#45;&gt;name29</title>
<path fill="none" stroke="#000000" d="M870.786,-720.3433C890.9588,-705.7459 913.3899,-689.5143 934.0909,-674.5347"/>
<polygon fill="#000000" stroke="#000000" points="936.1842,-677.3402 942.2338,-668.6423 932.0806,-671.6692 936.1842,-677.3402"/>
<text text-anchor="middle" x="916.5" y="-690.8" font-family="Times,serif" font-size="14.00" fill="#000000">3</text>
</g>
<!-- name30 -->
<g id="node31" class="node">
<title>name30</title>
<polygon fill="none" stroke="#000000" points="1120.5,-576.5 1120.5,-668.5 1297.5,-668.5 1297.5,-576.5 1120.5,-576.5"/>
<text text-anchor="middle" x="1209" y="-653.3" font-family="Times,serif" font-size="14.00" fill="#000000">pe=1.03502573907548e&#45;27</text>
<polyline fill="none" stroke="#000000" points="1120.5,-645.5 1297.5,-645.5 "/>
<text text-anchor="middle" x="1209" y="-630.3" font-family="Times,serif" font-size="14.00" fill="#000000">pw=5.181129489614375e&#45;28</text>
<polyline fill="none" stroke="#000000" points="1120.5,-622.5 1297.5,-622.5 "/>
<text text-anchor="middle" x="1209" y="-607.3" font-family="Times,serif" font-size="14.00" fill="#000000">pm=5.1751286953774e&#45;28</text>
<polyline fill="none" stroke="#000000" points="1120.5,-599.5 1297.5,-599.5 "/>
<text text-anchor="middle" x="1209" y="-584.3" font-family="Times,serif" font-size="14.00" fill="#000000">as=[3, 7, 43, 4, 2]</text>
</g>
<!-- name0&#45;&gt;name30 -->
<g id="edge30" class="edge">
<title>name0&#45;&gt;name30</title>
<path fill="none" stroke="#000000" d="M892.2566,-742.4582C953.7891,-724.311 1038.458,-697.6966 1111,-669 1111.0958,-668.9621 1111.1916,-668.9242 1111.2874,-668.8862"/>
<polygon fill="#000000" stroke="#000000" points="1112.3484,-672.2332 1120.2909,-665.2212 1109.7092,-665.7498 1112.3484,-672.2332"/>
<text text-anchor="middle" x="1066.5" y="-690.8" font-family="Times,serif" font-size="14.00" fill="#000000">4</text>
</g>
<!-- name4 -->
<g id="node5" class="node">
<title>name4</title>
<polygon fill="none" stroke="#000000" points="325.5,-432.5 325.5,-524.5 504.5,-524.5 504.5,-432.5 325.5,-432.5"/>
<text text-anchor="middle" x="415" y="-509.3" font-family="Times,serif" font-size="14.00" fill="#000000">pe=2.881533916230122e&#45;26</text>
<polyline fill="none" stroke="#000000" points="325.5,-501.5 504.5,-501.5 "/>
<text text-anchor="middle" x="415" y="-486.3" font-family="Times,serif" font-size="14.00" fill="#000000">pw=4.821941987933466e&#45;26</text>
<polyline fill="none" stroke="#000000" points="325.5,-478.5 504.5,-478.5 "/>
<text text-anchor="middle" x="415" y="-463.3" font-family="Times,serif" font-size="14.00" fill="#000000">pm=1.440766958115061e&#45;26</text>
<polyline fill="none" stroke="#000000" points="325.5,-455.5 504.5,-455.5 "/>
<text text-anchor="middle" x="415" y="-440.3" font-family="Times,serif" font-size="14.00" fill="#000000">as=[6, 5, 17, 6, 3]</text>
</g>
<!-- name3&#45;&gt;name4 -->
<g id="edge3" class="edge">
<title>name3&#45;&gt;name4</title>
<path fill="none" stroke="#000000" d="M721.9079,-579.8372C718.5835,-578.4934 715.273,-577.2083 712,-576 626.7511,-544.5293 599.4991,-555.7844 514,-525 513.9023,-524.9648 513.8046,-524.9296 513.7068,-524.8943"/>
<polygon fill="#000000" stroke="#000000" points="515.1262,-521.6888 504.5342,-521.4465 512.6633,-528.2412 515.1262,-521.6888"/>
<text text-anchor="middle" x="655.5" y="-546.8" font-family="Times,serif" font-size="14.00" fill="#000000">0</text>
</g>
<!-- name5 -->
<g id="node6" class="node">
<title>name5</title>
<polygon fill="none" stroke="#000000" points="523,-432.5 523,-524.5 707,-524.5 707,-432.5 523,-432.5"/>
<text text-anchor="middle" x="615" y="-509.3" font-family="Times,serif" font-size="14.00" fill="#000000">pe=1.3367593199102936e&#45;67</text>
<polyline fill="none" stroke="#000000" points="523,-501.5 707,-501.5 "/>
<text text-anchor="middle" x="615" y="-486.3" font-family="Times,serif" font-size="14.00" fill="#000000">pw=6.7094472124506996e&#45;68</text>
<polyline fill="none" stroke="#000000" points="523,-478.5 707,-478.5 "/>
<text text-anchor="middle" x="615" y="-463.3" font-family="Times,serif" font-size="14.00" fill="#000000">pm=6.683796599551468e&#45;68</text>
<polyline fill="none" stroke="#000000" points="523,-455.5 707,-455.5 "/>
<text text-anchor="middle" x="615" y="-440.3" font-family="Times,serif" font-size="14.00" fill="#000000">as=[3, 14, 67, 32, 7]</text>
</g>
<!-- name3&#45;&gt;name5 -->
<g id="edge4" class="edge">
<title>name3&#45;&gt;name5</title>
<path fill="none" stroke="#000000" d="M745.4578,-576.3433C726.0806,-561.8105 704.5439,-545.658 684.6449,-530.7337"/>
<polygon fill="#000000" stroke="#000000" points="686.6232,-527.8424 676.5231,-524.6423 682.4231,-533.4424 686.6232,-527.8424"/>
<text text-anchor="middle" x="720.5" y="-546.8" font-family="Times,serif" font-size="14.00" fill="#000000">1</text>
</g>
<!-- name6 -->
<g id="node7" class="node">
<title>name6</title>
<polygon fill="none" stroke="#000000" points="725.5,-432.5 725.5,-524.5 888.5,-524.5 888.5,-432.5 725.5,-432.5"/>
<text text-anchor="middle" x="807" y="-509.3" font-family="Times,serif" font-size="14.00" fill="#000000">pe=0.0</text>
<polyline fill="none" stroke="#000000" points="725.5,-501.5 888.5,-501.5 "/>
<text text-anchor="middle" x="807" y="-486.3" font-family="Times,serif" font-size="14.00" fill="#000000">pw=0.0</text>
<polyline fill="none" stroke="#000000" points="725.5,-478.5 888.5,-478.5 "/>
<text text-anchor="middle" x="807" y="-463.3" font-family="Times,serif" font-size="14.00" fill="#000000">pm=0.0</text>
<polyline fill="none" stroke="#000000" points="725.5,-455.5 888.5,-455.5 "/>
<text text-anchor="middle" x="807" y="-440.3" font-family="Times,serif" font-size="14.00" fill="#000000">as=[32, 89, 1333, 113, 18]</text>
</g>
<!-- name3&#45;&gt;name6 -->
<g id="edge20" class="edge">
<title>name3&#45;&gt;name6</title>
<path fill="none" stroke="#000000" d="M807,-576.1449C807,-563.0413 807,-548.6342 807,-535.0048"/>
<polygon fill="#000000" stroke="#000000" points="810.5001,-534.7683 807,-524.7683 803.5001,-534.7683 810.5001,-534.7683"/>
<text text-anchor="middle" x="810.5" y="-546.8" font-family="Times,serif" font-size="14.00" fill="#000000">2</text>
</g>
<!-- name22 -->
<g id="node23" class="node">
<title>name22</title>
<polygon fill="none" stroke="#000000" points="1318.5,-432.5 1318.5,-524.5 1503.5,-524.5 1503.5,-432.5 1318.5,-432.5"/>
<text text-anchor="middle" x="1411" y="-509.3" font-family="Times,serif" font-size="14.00" fill="#000000">pe=8.22607588100523e&#45;64</text>
<polyline fill="none" stroke="#000000" points="1318.5,-501.5 1503.5,-501.5 "/>
<text text-anchor="middle" x="1411" y="-486.3" font-family="Times,serif" font-size="14.00" fill="#000000">pw=7.621526917142584e&#45;62</text>
<polyline fill="none" stroke="#000000" points="1318.5,-478.5 1503.5,-478.5 "/>
<text text-anchor="middle" x="1411" y="-463.3" font-family="Times,serif" font-size="14.00" fill="#000000">pm=1.5662496217157523e&#45;63</text>
<polyline fill="none" stroke="#000000" points="1318.5,-455.5 1503.5,-455.5 "/>
<text text-anchor="middle" x="1411" y="-440.3" font-family="Times,serif" font-size="14.00" fill="#000000">as=[4, 11, 139, 17, 5]</text>
</g>
<!-- name3&#45;&gt;name22 -->
<g id="edge26" class="edge">
<title>name3&#45;&gt;name22</title>
<path fill="none" stroke="#000000" d="M892.1397,-579.1656C895.1071,-578.0457 898.066,-576.9858 901,-576 1038.0704,-529.9456 1203.6026,-503.3255 1308.1117,-489.8668"/>
<polygon fill="#000000" stroke="#000000" points="1308.867,-493.2991 1318.3457,-488.5659 1307.9841,-486.355 1308.867,-493.2991"/>
<text text-anchor="middle" x="1014.5" y="-546.8" font-family="Times,serif" font-size="14.00" fill="#000000">3</text>
</g>
<!-- name28 -->
<g id="node29" class="node">
<title>name28</title>
<polygon fill="none" stroke="#000000" points="1522,-432.5 1522,-524.5 1702,-524.5 1702,-432.5 1522,-432.5"/>
<text text-anchor="middle" x="1612" y="-509.3" font-family="Times,serif" font-size="14.00" fill="#000000">pe=1.5837900731967032e&#45;22</text>
<polyline fill="none" stroke="#000000" points="1522,-501.5 1702,-501.5 "/>
<text text-anchor="middle" x="1612" y="-486.3" font-family="Times,serif" font-size="14.00" fill="#000000">pw=8.102013807828658e&#45;23</text>
<polyline fill="none" stroke="#000000" points="1522,-478.5 1702,-478.5 "/>
<text text-anchor="middle" x="1612" y="-463.3" font-family="Times,serif" font-size="14.00" fill="#000000">pm=7.918950365983516e&#45;23</text>
<polyline fill="none" stroke="#000000" points="1522,-455.5 1702,-455.5 "/>
<text text-anchor="middle" x="1612" y="-440.3" font-family="Times,serif" font-size="14.00" fill="#000000">as=[2, 3, 30, 5, 3]</text>
</g>
<!-- name3&#45;&gt;name28 -->
<g id="edge27" class="edge">
<title>name3&#45;&gt;name28</title>
<path fill="none" stroke="#000000" d="M892.0141,-578.7565C895.0175,-577.7536 898.018,-576.8294 901,-576 1029.5279,-540.2541 1365.6015,-559.3273 1512.0608,-524.8708"/>
<polygon fill="#000000" stroke="#000000" points="1513.0063,-528.2421 1521.8512,-522.4096 1511.2996,-521.4533 1513.0063,-528.2421"/>
<text text-anchor="middle" x="1376.5" y="-546.8" font-family="Times,serif" font-size="14.00" fill="#000000">4</text>
</g>
<!-- name7 -->
<g id="node8" class="node">
<title>name7</title>
<polygon fill="none" stroke="#000000" points="142.5,-288.5 142.5,-380.5 321.5,-380.5 321.5,-288.5 142.5,-288.5"/>
<text text-anchor="middle" x="232" y="-365.3" font-family="Times,serif" font-size="14.00" fill="#000000">pe=6.30665024823683e&#45;12</text>
<polyline fill="none" stroke="#000000" points="142.5,-357.5 321.5,-357.5 "/>
<text text-anchor="middle" x="232" y="-342.3" font-family="Times,serif" font-size="14.00" fill="#000000">pw=3.571766475377984e&#45;12</text>
<polyline fill="none" stroke="#000000" points="142.5,-334.5 321.5,-334.5 "/>
<text text-anchor="middle" x="232" y="-319.3" font-family="Times,serif" font-size="14.00" fill="#000000">pm=3.153325124118415e&#45;12</text>
<polyline fill="none" stroke="#000000" points="142.5,-311.5 321.5,-311.5 "/>
<text text-anchor="middle" x="232" y="-296.3" font-family="Times,serif" font-size="14.00" fill="#000000">as=[0, 2, 8, 5, 2]</text>
</g>
<!-- name6&#45;&gt;name7 -->
<g id="edge5" class="edge">
<title>name6&#45;&gt;name7</title>
<path fill="none" stroke="#000000" d="M725.4487,-435.2132C722.2899,-434.0535 719.1338,-432.9759 716,-432 696.7188,-425.9959 395.0838,-392.0916 331.3546,-380.4486"/>
<polygon fill="#000000" stroke="#000000" points="332.0687,-377.0221 321.5537,-378.32 330.583,-383.8627 332.0687,-377.0221"/>
<text text-anchor="middle" x="581.5" y="-402.8" font-family="Times,serif" font-size="14.00" fill="#000000">0</text>
</g>
<!-- name8 -->
<g id="node9" class="node">
<title>name8</title>
<polygon fill="none" stroke="#000000" points="339.5,-288.5 339.5,-380.5 524.5,-380.5 524.5,-288.5 339.5,-288.5"/>
<text text-anchor="middle" x="432" y="-365.3" font-family="Times,serif" font-size="14.00" fill="#000000">pe=3.8228970353821523e&#45;35</text>
<polyline fill="none" stroke="#000000" points="339.5,-357.5 524.5,-357.5 "/>
<text text-anchor="middle" x="432" y="-342.3" font-family="Times,serif" font-size="14.00" fill="#000000">pw=1.9487401811994483e&#45;35</text>
<polyline fill="none" stroke="#000000" points="339.5,-334.5 524.5,-334.5 "/>
<text text-anchor="middle" x="432" y="-319.3" font-family="Times,serif" font-size="14.00" fill="#000000">pm=1.9114485176910762e&#45;35</text>
<polyline fill="none" stroke="#000000" points="339.5,-311.5 524.5,-311.5 "/>
<text text-anchor="middle" x="432" y="-296.3" font-family="Times,serif" font-size="14.00" fill="#000000">as=[4, 8, 44, 9, 2]</text>
</g>
<!-- name6&#45;&gt;name8 -->
<g id="edge6" class="edge">
<title>name6&#45;&gt;name8</title>
<path fill="none" stroke="#000000" d="M725.2498,-435.7802C722.1469,-434.461 719.0568,-433.1955 716,-432 637.7657,-401.4029 612.8981,-409.8424 534,-381 533.9029,-380.9645 533.8058,-380.929 533.7086,-380.8933"/>
<polygon fill="#000000" stroke="#000000" points="535.1768,-377.7067 524.5852,-377.4418 532.6998,-384.2539 535.1768,-377.7067"/>
<text text-anchor="middle" x="664.5" y="-402.8" font-family="Times,serif" font-size="14.00" fill="#000000">1</text>
</g>
<!-- name9 -->
<g id="node10" class="node">
<title>name9</title>
<polygon fill="none" stroke="#000000" points="543,-288.5 543,-380.5 699,-380.5 699,-288.5 543,-288.5"/>
<text text-anchor="middle" x="621" y="-365.3" font-family="Times,serif" font-size="14.00" fill="#000000">pe=2.36425e&#45;318</text>
<polyline fill="none" stroke="#000000" points="543,-357.5 699,-357.5 "/>
<text text-anchor="middle" x="621" y="-342.3" font-family="Times,serif" font-size="14.00" fill="#000000">pw=7.3374249804e&#45;314</text>
<polyline fill="none" stroke="#000000" points="543,-334.5 699,-334.5 "/>
<text text-anchor="middle" x="621" y="-319.3" font-family="Times,serif" font-size="14.00" fill="#000000">pm=3.04835366e&#45;316</text>
<polyline fill="none" stroke="#000000" points="543,-311.5 699,-311.5 "/>
<text text-anchor="middle" x="621" y="-296.3" font-family="Times,serif" font-size="14.00" fill="#000000">as=[21, 63, 1157, 81, 10]</text>
</g>
<!-- name6&#45;&gt;name9 -->
<g id="edge17" class="edge">
<title>name6&#45;&gt;name9</title>
<path fill="none" stroke="#000000" d="M747.381,-432.3433C728.6928,-417.875 707.9311,-401.8015 688.7256,-386.9327"/>
<polygon fill="#000000" stroke="#000000" points="690.6504,-383.9966 680.6005,-380.6423 686.3652,-389.5317 690.6504,-383.9966"/>
<text text-anchor="middle" x="723.5" y="-402.8" font-family="Times,serif" font-size="14.00" fill="#000000">2</text>
</g>
<!-- name20 -->
<g id="node21" class="node">
<title>name20</title>
<polygon fill="none" stroke="#000000" points="717.5,-288.5 717.5,-380.5 896.5,-380.5 896.5,-288.5 717.5,-288.5"/>
<text text-anchor="middle" x="807" y="-365.3" font-family="Times,serif" font-size="14.00" fill="#000000">pe=1.466922756247625e&#45;54</text>
<polyline fill="none" stroke="#000000" points="717.5,-357.5 896.5,-357.5 "/>
<text text-anchor="middle" x="807" y="-342.3" font-family="Times,serif" font-size="14.00" fill="#000000">pw=7.340833902662742e&#45;55</text>
<polyline fill="none" stroke="#000000" points="717.5,-334.5 896.5,-334.5 "/>
<text text-anchor="middle" x="807" y="-319.3" font-family="Times,serif" font-size="14.00" fill="#000000">pm=7.334613781238125e&#45;55</text>
<polyline fill="none" stroke="#000000" points="717.5,-311.5 896.5,-311.5 "/>
<text text-anchor="middle" x="807" y="-296.3" font-family="Times,serif" font-size="14.00" fill="#000000">as=[5, 11, 106, 15, 2]</text>
</g>
<!-- name6&#45;&gt;name20 -->
<g id="edge18" class="edge">
<title>name6&#45;&gt;name20</title>
<path fill="none" stroke="#000000" d="M807,-432.1449C807,-419.0413 807,-404.6342 807,-391.0048"/>
<polygon fill="#000000" stroke="#000000" points="810.5001,-390.7683 807,-380.7683 803.5001,-390.7683 810.5001,-390.7683"/>
<text text-anchor="middle" x="810.5" y="-402.8" font-family="Times,serif" font-size="14.00" fill="#000000">3</text>
</g>
<!-- name21 -->
<g id="node22" class="node">
<title>name21</title>
<polygon fill="none" stroke="#000000" points="914.5,-288.5 914.5,-380.5 1099.5,-380.5 1099.5,-288.5 914.5,-288.5"/>
<text text-anchor="middle" x="1007" y="-365.3" font-family="Times,serif" font-size="14.00" fill="#000000">pe=7.555370213028093e&#45;19</text>
<polyline fill="none" stroke="#000000" points="914.5,-357.5 1099.5,-357.5 "/>
<text text-anchor="middle" x="1007" y="-342.3" font-family="Times,serif" font-size="14.00" fill="#000000">pw=9.859449410161335e&#45;19</text>
<polyline fill="none" stroke="#000000" points="914.5,-334.5 1099.5,-334.5 "/>
<text text-anchor="middle" x="1007" y="-319.3" font-family="Times,serif" font-size="14.00" fill="#000000">pm=3.7776851065140466e&#45;19</text>
<polyline fill="none" stroke="#000000" points="914.5,-311.5 1099.5,-311.5 "/>
<text text-anchor="middle" x="1007" y="-296.3" font-family="Times,serif" font-size="14.00" fill="#000000">as=[2, 5, 18, 3, 2]</text>
</g>
<!-- name6&#45;&gt;name21 -->
<g id="edge19" class="edge">
<title>name6&#45;&gt;name21</title>
<path fill="none" stroke="#000000" d="M871.1065,-432.3433C891.3807,-417.7459 913.9245,-401.5143 934.7295,-386.5347"/>
<polygon fill="#000000" stroke="#000000" points="936.8431,-389.3258 942.9134,-380.6423 932.753,-383.6451 936.8431,-389.3258"/>
<text text-anchor="middle" x="916.5" y="-402.8" font-family="Times,serif" font-size="14.00" fill="#000000">4</text>
</g>
<!-- name10 -->
<g id="node11" class="node">
<title>name10</title>
<polygon fill="none" stroke="#000000" points="125,-144.5 125,-236.5 309,-236.5 309,-144.5 125,-144.5"/>
<text text-anchor="middle" x="217" y="-221.3" font-family="Times,serif" font-size="14.00" fill="#000000">pe=1.0309607832827647e&#45;06</text>
<polyline fill="none" stroke="#000000" points="125,-213.5 309,-213.5 "/>
<text text-anchor="middle" x="217" y="-198.3" font-family="Times,serif" font-size="14.00" fill="#000000">pw=1.5555070316680224e&#45;06</text>
<polyline fill="none" stroke="#000000" points="125,-190.5 309,-190.5 "/>
<text text-anchor="middle" x="217" y="-175.3" font-family="Times,serif" font-size="14.00" fill="#000000">pm=5.154803916413823e&#45;07</text>
<polyline fill="none" stroke="#000000" points="125,-167.5 309,-167.5 "/>
<text text-anchor="middle" x="217" y="-152.3" font-family="Times,serif" font-size="14.00" fill="#000000">as=[1, 1, 3, 3, 0]</text>
</g>
<!-- name9&#45;&gt;name10 -->
<g id="edge7" class="edge">
<title>name9&#45;&gt;name10</title>
<path fill="none" stroke="#000000" d="M542.7752,-291.907C539.5016,-290.5255 536.235,-289.2158 533,-288 444.0339,-254.5626 412.851,-268.0743 318.7785,-237.0707"/>
<polygon fill="#000000" stroke="#000000" points="319.7613,-233.7084 309.1671,-233.822 317.5199,-240.3399 319.7613,-233.7084"/>
<text text-anchor="middle" x="475.5" y="-258.8" font-family="Times,serif" font-size="14.00" fill="#000000">0</text>
</g>
<!-- name11 -->
<g id="node12" class="node">
<title>name11</title>
<polygon fill="none" stroke="#000000" points="327,-144.5 327,-236.5 507,-236.5 507,-144.5 327,-144.5"/>
<text text-anchor="middle" x="417" y="-221.3" font-family="Times,serif" font-size="14.00" fill="#000000">pe=1.3328649228255627e&#45;26</text>
<polyline fill="none" stroke="#000000" points="327,-213.5 507,-213.5 "/>
<text text-anchor="middle" x="417" y="-198.3" font-family="Times,serif" font-size="14.00" fill="#000000">pw=3.134014918187876e&#45;24</text>
<polyline fill="none" stroke="#000000" points="327,-190.5 507,-190.5 "/>
<text text-anchor="middle" x="417" y="-175.3" font-family="Times,serif" font-size="14.00" fill="#000000">pm=3.97263923843388e&#45;26</text>
<polyline fill="none" stroke="#000000" points="327,-167.5 507,-167.5 "/>
<text text-anchor="middle" x="417" y="-152.3" font-family="Times,serif" font-size="14.00" fill="#000000">as=[4, 3, 26, 8, 3]</text>
</g>
<!-- name9&#45;&gt;name11 -->
<g id="edge13" class="edge">
<title>name9&#45;&gt;name11</title>
<path fill="none" stroke="#000000" d="M555.6114,-288.3433C534.9316,-273.7459 511.937,-257.5143 490.7159,-242.5347"/>
<polygon fill="#000000" stroke="#000000" points="492.5564,-239.5498 482.3683,-236.6423 488.5196,-245.2686 492.5564,-239.5498"/>
<text text-anchor="middle" x="529.5" y="-258.8" font-family="Times,serif" font-size="14.00" fill="#000000">1</text>
</g>
<!-- name17 -->
<g id="node18" class="node">
<title>name17</title>
<polygon fill="none" stroke="#000000" points="525,-144.5 525,-236.5 717,-236.5 717,-144.5 525,-144.5"/>
<text text-anchor="middle" x="621" y="-221.3" font-family="Times,serif" font-size="14.00" fill="#000000">pe=6.093167763921049e&#45;246</text>
<polyline fill="none" stroke="#000000" points="525,-213.5 717,-213.5 "/>
<text text-anchor="middle" x="621" y="-198.3" font-family="Times,serif" font-size="14.00" fill="#000000">pw=3.066258795090243e&#45;246</text>
<polyline fill="none" stroke="#000000" points="525,-190.5 717,-190.5 "/>
<text text-anchor="middle" x="621" y="-175.3" font-family="Times,serif" font-size="14.00" fill="#000000">pm=3.0465838819605243e&#45;246</text>
<polyline fill="none" stroke="#000000" points="525,-167.5 717,-167.5 "/>
<text text-anchor="middle" x="621" y="-152.3" font-family="Times,serif" font-size="14.00" fill="#000000">as=[12, 58, 1023, 59, 4]</text>
</g>
<!-- name9&#45;&gt;name17 -->
<g id="edge14" class="edge">
<title>name9&#45;&gt;name17</title>
<path fill="none" stroke="#000000" d="M621,-288.1449C621,-275.0413 621,-260.6342 621,-247.0048"/>
<polygon fill="#000000" stroke="#000000" points="624.5001,-246.7683 621,-236.7683 617.5001,-246.7683 624.5001,-246.7683"/>
<text text-anchor="middle" x="624.5" y="-258.8" font-family="Times,serif" font-size="14.00" fill="#000000">2</text>
</g>
<!-- name18 -->
<g id="node19" class="node">
<title>name18</title>
<polygon fill="none" stroke="#000000" points="735,-144.5 735,-236.5 919,-236.5 919,-144.5 735,-144.5"/>
<text text-anchor="middle" x="827" y="-221.3" font-family="Times,serif" font-size="14.00" fill="#000000">pe=4.48795421147022e&#45;32</text>
<polyline fill="none" stroke="#000000" points="735,-213.5 919,-213.5 "/>
<text text-anchor="middle" x="827" y="-198.3" font-family="Times,serif" font-size="14.00" fill="#000000">pw=2.2514720000032587e&#45;32</text>
<polyline fill="none" stroke="#000000" points="735,-190.5 919,-190.5 "/>
<text text-anchor="middle" x="827" y="-175.3" font-family="Times,serif" font-size="14.00" fill="#000000">pm=2.24397710573511e&#45;32</text>
<polyline fill="none" stroke="#000000" points="735,-167.5 919,-167.5 "/>
<text text-anchor="middle" x="827" y="-152.3" font-family="Times,serif" font-size="14.00" fill="#000000">as=[4, 1, 90, 8, 3]</text>
</g>
<!-- name9&#45;&gt;name18 -->
<g id="edge15" class="edge">
<title>name9&#45;&gt;name18</title>
<path fill="none" stroke="#000000" d="M687.0297,-288.3433C707.9122,-273.7459 731.1323,-257.5143 752.5614,-242.5347"/>
<polygon fill="#000000" stroke="#000000" points="754.8,-245.2403 760.9908,-236.6423 750.7895,-239.503 754.8,-245.2403"/>
<text text-anchor="middle" x="734.5" y="-258.8" font-family="Times,serif" font-size="14.00" fill="#000000">3</text>
</g>
<!-- name19 -->
<g id="node20" class="node">
<title>name19</title>
<polygon fill="none" stroke="#000000" points="937,-144.5 937,-236.5 1121,-236.5 1121,-144.5 937,-144.5"/>
<text text-anchor="middle" x="1029" y="-221.3" font-family="Times,serif" font-size="14.00" fill="#000000">pe=8.709686129040968e&#45;07</text>
<polyline fill="none" stroke="#000000" points="937,-213.5 1121,-213.5 "/>
<text text-anchor="middle" x="1029" y="-198.3" font-family="Times,serif" font-size="14.00" fill="#000000">pw=4.3603191408733564e&#45;07</text>
<polyline fill="none" stroke="#000000" points="937,-190.5 1121,-190.5 "/>
<text text-anchor="middle" x="1029" y="-175.3" font-family="Times,serif" font-size="14.00" fill="#000000">pm=4.354843064520484e&#45;07</text>
<polyline fill="none" stroke="#000000" points="937,-167.5 1121,-167.5 "/>
<text text-anchor="middle" x="1029" y="-152.3" font-family="Times,serif" font-size="14.00" fill="#000000">as=[0, 0, 15, 3, 0]</text>
</g>
<!-- name9&#45;&gt;name19 -->
<g id="edge16" class="edge">
<title>name9&#45;&gt;name19</title>
<path fill="none" stroke="#000000" d="M699.2873,-291.4681C702.204,-290.2455 705.1142,-289.084 708,-288 799.0242,-253.8085 831.0296,-268.4912 927.3167,-237.0332"/>
<polygon fill="#000000" stroke="#000000" points="928.4702,-240.3381 936.8396,-233.8417 926.2457,-233.7009 928.4702,-240.3381"/>
<text text-anchor="middle" x="860.5" y="-258.8" font-family="Times,serif" font-size="14.00" fill="#000000">4</text>
</g>
<!-- name12 -->
<g id="node13" class="node">
<title>name12</title>
<polygon fill="none" stroke="#000000" points="0,-.5 0,-92.5 182,-92.5 182,-.5 0,-.5"/>
<text text-anchor="middle" x="91" y="-77.3" font-family="Times,serif" font-size="14.00" fill="#000000">pe=0.0031746031746031746</text>
<polyline fill="none" stroke="#000000" points="0,-69.5 182,-69.5 "/>
<text text-anchor="middle" x="91" y="-54.3" font-family="Times,serif" font-size="14.00" fill="#000000">pw=0.003492063492063492</text>
<polyline fill="none" stroke="#000000" points="0,-46.5 182,-46.5 "/>
<text text-anchor="middle" x="91" y="-31.3" font-family="Times,serif" font-size="14.00" fill="#000000">pm=0.0015873015873015873</text>
<polyline fill="none" stroke="#000000" points="0,-23.5 182,-23.5 "/>
<text text-anchor="middle" x="91" y="-8.3" font-family="Times,serif" font-size="14.00" fill="#000000">as=[1, 1, 0, 0, 1]</text>
</g>
<!-- name11&#45;&gt;name12 -->
<g id="edge8" class="edge">
<title>name11&#45;&gt;name12</title>
<path fill="none" stroke="#000000" d="M326.9914,-147.9563C323.9634,-146.6104 320.96,-145.2882 318,-144 265.0596,-120.9597 248.4882,-117.4815 191.671,-93.2271"/>
<polygon fill="#000000" stroke="#000000" points="192.7641,-89.8872 182.1949,-89.1498 189.9974,-96.3173 192.7641,-89.8872"/>
<text text-anchor="middle" x="278.5" y="-114.8" font-family="Times,serif" font-size="14.00" fill="#000000">0</text>
</g>
<!-- name13 -->
<g id="node14" class="node">
<title>name13</title>
<polygon fill="none" stroke="#000000" points="200.5,-.5 200.5,-92.5 309.5,-92.5 309.5,-.5 200.5,-.5"/>
<text text-anchor="middle" x="255" y="-77.3" font-family="Times,serif" font-size="14.00" fill="#000000">pe=0.2</text>
<polyline fill="none" stroke="#000000" points="200.5,-69.5 309.5,-69.5 "/>
<text text-anchor="middle" x="255" y="-54.3" font-family="Times,serif" font-size="14.00" fill="#000000">pw=0.2</text>
<polyline fill="none" stroke="#000000" points="200.5,-46.5 309.5,-46.5 "/>
<text text-anchor="middle" x="255" y="-31.3" font-family="Times,serif" font-size="14.00" fill="#000000">pm=0.1</text>
<polyline fill="none" stroke="#000000" points="200.5,-23.5 309.5,-23.5 "/>
<text text-anchor="middle" x="255" y="-8.3" font-family="Times,serif" font-size="14.00" fill="#000000">as=[0, 0, 0, 1, 0]</text>
</g>
<!-- name11&#45;&gt;name13 -->
<g id="edge9" class="edge">
<title>name11&#45;&gt;name13</title>
<path fill="none" stroke="#000000" d="M364.8505,-144.1449C348.728,-129.8138 330.8515,-113.9236 314.2838,-99.1967"/>
<polygon fill="#000000" stroke="#000000" points="316.574,-96.5496 306.7746,-92.5219 311.9235,-101.7815 316.574,-96.5496"/>
<text text-anchor="middle" x="344.5" y="-114.8" font-family="Times,serif" font-size="14.00" fill="#000000">1</text>
</g>
<!-- name14 -->
<g id="node15" class="node">
<title>name14</title>
<polygon fill="none" stroke="#000000" points="327.5,-.5 327.5,-92.5 506.5,-92.5 506.5,-.5 327.5,-.5"/>
<text text-anchor="middle" x="417" y="-77.3" font-family="Times,serif" font-size="14.00" fill="#000000">pe=4.294740827886098e&#45;17</text>
<polyline fill="none" stroke="#000000" points="327.5,-69.5 506.5,-69.5 "/>
<text text-anchor="middle" x="417" y="-54.3" font-family="Times,serif" font-size="14.00" fill="#000000">pw=1.575484791485303e&#45;16</text>
<polyline fill="none" stroke="#000000" points="327.5,-46.5 506.5,-46.5 "/>
<text text-anchor="middle" x="417" y="-31.3" font-family="Times,serif" font-size="14.00" fill="#000000">pm=2.147370413943049e&#45;17</text>
<polyline fill="none" stroke="#000000" points="327.5,-23.5 506.5,-23.5 "/>
<text text-anchor="middle" x="417" y="-8.3" font-family="Times,serif" font-size="14.00" fill="#000000">as=[3, 2, 24, 2, 2]</text>
</g>
<!-- name11&#45;&gt;name14 -->
<g id="edge10" class="edge">
<title>name11&#45;&gt;name14</title>
<path fill="none" stroke="#000000" d="M417,-144.1449C417,-131.0413 417,-116.6342 417,-103.0048"/>
<polygon fill="#000000" stroke="#000000" points="420.5001,-102.7683 417,-92.7683 413.5001,-102.7683 420.5001,-102.7683"/>
<text text-anchor="middle" x="420.5" y="-114.8" font-family="Times,serif" font-size="14.00" fill="#000000">2</text>
</g>
<!-- name15 -->
<g id="node16" class="node">
<title>name15</title>
<polygon fill="none" stroke="#000000" points="524.5,-.5 524.5,-92.5 711.5,-92.5 711.5,-.5 524.5,-.5"/>
<text text-anchor="middle" x="618" y="-77.3" font-family="Times,serif" font-size="14.00" fill="#000000">pe=0.0004662004662004662</text>
<polyline fill="none" stroke="#000000" points="524.5,-69.5 711.5,-69.5 "/>
<text text-anchor="middle" x="618" y="-54.3" font-family="Times,serif" font-size="14.00" fill="#000000">pw=0.00028421711621711625</text>
<polyline fill="none" stroke="#000000" points="524.5,-46.5 711.5,-46.5 "/>
<text text-anchor="middle" x="618" y="-31.3" font-family="Times,serif" font-size="14.00" fill="#000000">pm=0.0002331002331002331</text>
<polyline fill="none" stroke="#000000" points="524.5,-23.5 711.5,-23.5 "/>
<text text-anchor="middle" x="618" y="-8.3" font-family="Times,serif" font-size="14.00" fill="#000000">as=[0, 0, 2, 4, 0]</text>
</g>
<!-- name11&#45;&gt;name15 -->
<g id="edge11" class="edge">
<title>name11&#45;&gt;name15</title>
<path fill="none" stroke="#000000" d="M481.427,-144.3433C501.8026,-129.7459 524.4591,-113.5143 545.3682,-98.5347"/>
<polygon fill="#000000" stroke="#000000" points="547.5022,-101.3114 553.593,-92.6423 543.4255,-95.621 547.5022,-101.3114"/>
<text text-anchor="middle" x="527.5" y="-114.8" font-family="Times,serif" font-size="14.00" fill="#000000">3</text>
</g>
<!-- name16 -->
<g id="node17" class="node">
<title>name16</title>
<polygon fill="none" stroke="#000000" points="729.5,-.5 729.5,-92.5 838.5,-92.5 838.5,-.5 729.5,-.5"/>
<text text-anchor="middle" x="784" y="-77.3" font-family="Times,serif" font-size="14.00" fill="#000000">pe=0.2</text>
<polyline fill="none" stroke="#000000" points="729.5,-69.5 838.5,-69.5 "/>
<text text-anchor="middle" x="784" y="-54.3" font-family="Times,serif" font-size="14.00" fill="#000000">pw=0.2</text>
<polyline fill="none" stroke="#000000" points="729.5,-46.5 838.5,-46.5 "/>
<text text-anchor="middle" x="784" y="-31.3" font-family="Times,serif" font-size="14.00" fill="#000000">pm=0.1</text>
<polyline fill="none" stroke="#000000" points="729.5,-23.5 838.5,-23.5 "/>
<text text-anchor="middle" x="784" y="-8.3" font-family="Times,serif" font-size="14.00" fill="#000000">as=[0, 0, 0, 1, 0]</text>
</g>
<!-- name11&#45;&gt;name16 -->
<g id="edge12" class="edge">
<title>name11&#45;&gt;name16</title>
<path fill="none" stroke="#000000" d="M507.0689,-147.314C510.0659,-146.1595 513.0483,-145.0509 516,-144 604.0431,-112.6531 635.3119,-132.524 720,-93 720.0972,-92.9546 720.1945,-92.9091 720.2917,-92.8634"/>
<polygon fill="#000000" stroke="#000000" points="722.03,-95.905 729.312,-88.2093 718.8203,-89.6842 722.03,-95.905"/>
<text text-anchor="middle" x="674.5" y="-114.8" font-family="Times,serif" font-size="14.00" fill="#000000">4</text>
</g>
<!-- name23 -->
<g id="node24" class="node">
<title>name23</title>
<polygon fill="none" stroke="#000000" points="1118,-288.5 1118,-380.5 1300,-380.5 1300,-288.5 1118,-288.5"/>
<text text-anchor="middle" x="1209" y="-365.3" font-family="Times,serif" font-size="14.00" fill="#000000">pe=0.0002886002886002886</text>
<polyline fill="none" stroke="#000000" points="1118,-357.5 1300,-357.5 "/>
<text text-anchor="middle" x="1209" y="-342.3" font-family="Times,serif" font-size="14.00" fill="#000000">pw=0.0006157287157287157</text>
<polyline fill="none" stroke="#000000" points="1118,-334.5 1300,-334.5 "/>
<text text-anchor="middle" x="1209" y="-319.3" font-family="Times,serif" font-size="14.00" fill="#000000">pm=0.0001443001443001443</text>
<polyline fill="none" stroke="#000000" points="1118,-311.5 1300,-311.5 "/>
<text text-anchor="middle" x="1209" y="-296.3" font-family="Times,serif" font-size="14.00" fill="#000000">as=[1, 1, 0, 1, 1]</text>
</g>
<!-- name22&#45;&gt;name23 -->
<g id="edge21" class="edge">
<title>name22&#45;&gt;name23</title>
<path fill="none" stroke="#000000" d="M1346.2524,-432.3433C1325.7755,-417.7459 1303.0062,-401.5143 1281.9932,-386.5347"/>
<polygon fill="#000000" stroke="#000000" points="1283.9019,-383.5972 1273.7275,-380.6423 1279.8386,-389.2971 1283.9019,-383.5972"/>
<text text-anchor="middle" x="1319.5" y="-402.8" font-family="Times,serif" font-size="14.00" fill="#000000">0</text>
</g>
<!-- name24 -->
<g id="node25" class="node">
<title>name24</title>
<polygon fill="none" stroke="#000000" points="1318.5,-288.5 1318.5,-380.5 1503.5,-380.5 1503.5,-288.5 1318.5,-288.5"/>
<text text-anchor="middle" x="1411" y="-365.3" font-family="Times,serif" font-size="14.00" fill="#000000">pe=2.5927339909418082e&#45;11</text>
<polyline fill="none" stroke="#000000" points="1318.5,-357.5 1503.5,-357.5 "/>
<text text-anchor="middle" x="1411" y="-342.3" font-family="Times,serif" font-size="14.00" fill="#000000">pw=4.153317067927774e&#45;11</text>
<polyline fill="none" stroke="#000000" points="1318.5,-334.5 1503.5,-334.5 "/>
<text text-anchor="middle" x="1411" y="-319.3" font-family="Times,serif" font-size="14.00" fill="#000000">pm=1.2963669954709041e&#45;11</text>
<polyline fill="none" stroke="#000000" points="1318.5,-311.5 1503.5,-311.5 "/>
<text text-anchor="middle" x="1411" y="-296.3" font-family="Times,serif" font-size="14.00" fill="#000000">as=[1, 1, 8, 5, 1]</text>
</g>
<!-- name22&#45;&gt;name24 -->
<g id="edge22" class="edge">
<title>name22&#45;&gt;name24</title>
<path fill="none" stroke="#000000" d="M1411,-432.1449C1411,-419.0413 1411,-404.6342 1411,-391.0048"/>
<polygon fill="#000000" stroke="#000000" points="1414.5001,-390.7683 1411,-380.7683 1407.5001,-390.7683 1414.5001,-390.7683"/>
<text text-anchor="middle" x="1414.5" y="-402.8" font-family="Times,serif" font-size="14.00" fill="#000000">1</text>
</g>
<!-- name25 -->
<g id="node26" class="node">
<title>name25</title>
<polygon fill="none" stroke="#000000" points="1521.5,-288.5 1521.5,-380.5 1706.5,-380.5 1706.5,-288.5 1521.5,-288.5"/>
<text text-anchor="middle" x="1614" y="-365.3" font-family="Times,serif" font-size="14.00" fill="#000000">pe=3.0834255436799034e&#45;36</text>
<polyline fill="none" stroke="#000000" points="1521.5,-357.5 1706.5,-357.5 "/>
<text text-anchor="middle" x="1614" y="-342.3" font-family="Times,serif" font-size="14.00" fill="#000000">pw=1.5417154098686175e&#45;36</text>
<polyline fill="none" stroke="#000000" points="1521.5,-334.5 1706.5,-334.5 "/>
<text text-anchor="middle" x="1614" y="-319.3" font-family="Times,serif" font-size="14.00" fill="#000000">pm=1.5417127718399517e&#45;36</text>
<polyline fill="none" stroke="#000000" points="1521.5,-311.5 1706.5,-311.5 "/>
<text text-anchor="middle" x="1614" y="-296.3" font-family="Times,serif" font-size="14.00" fill="#000000">as=[0, 9, 114, 8, 2]</text>
</g>
<!-- name22&#45;&gt;name25 -->
<g id="edge23" class="edge">
<title>name22&#45;&gt;name25</title>
<path fill="none" stroke="#000000" d="M1476.0681,-432.3433C1496.6465,-417.7459 1519.5284,-401.5143 1540.6455,-386.5347"/>
<polygon fill="#000000" stroke="#000000" points="1542.8208,-389.2828 1548.9521,-380.6423 1538.7708,-383.5734 1542.8208,-389.2828"/>
<text text-anchor="middle" x="1521.5" y="-402.8" font-family="Times,serif" font-size="14.00" fill="#000000">2</text>
</g>
<!-- name26 -->
<g id="node27" class="node">
<title>name26</title>
<polygon fill="none" stroke="#000000" points="1724.5,-288.5 1724.5,-380.5 1909.5,-380.5 1909.5,-288.5 1724.5,-288.5"/>
<text text-anchor="middle" x="1817" y="-365.3" font-family="Times,serif" font-size="14.00" fill="#000000">pe=2.1723148405182172e&#45;11</text>
<polyline fill="none" stroke="#000000" points="1724.5,-357.5 1909.5,-357.5 "/>
<text text-anchor="middle" x="1817" y="-342.3" font-family="Times,serif" font-size="14.00" fill="#000000">pw=1.9226632100809308e&#45;11</text>
<polyline fill="none" stroke="#000000" points="1724.5,-334.5 1909.5,-334.5 "/>
<text text-anchor="middle" x="1817" y="-319.3" font-family="Times,serif" font-size="14.00" fill="#000000">pm=1.0861574202591086e&#45;11</text>
<polyline fill="none" stroke="#000000" points="1724.5,-311.5 1909.5,-311.5 "/>
<text text-anchor="middle" x="1817" y="-296.3" font-family="Times,serif" font-size="14.00" fill="#000000">as=[2, 0, 16, 3, 1]</text>
</g>
<!-- name22&#45;&gt;name26 -->
<g id="edge24" class="edge">
<title>name22&#45;&gt;name26</title>
<path fill="none" stroke="#000000" d="M1503.5458,-435.4479C1506.72,-434.2473 1509.8775,-433.0938 1513,-432 1597.7945,-402.2971 1626.3141,-411.2367 1714.652,-381.308"/>
<polygon fill="#000000" stroke="#000000" points="1715.9562,-384.5604 1724.2606,-377.9811 1713.6658,-377.9457 1715.9562,-384.5604"/>
<text text-anchor="middle" x="1656.5" y="-402.8" font-family="Times,serif" font-size="14.00" fill="#000000">3</text>
</g>
<!-- name27 -->
<g id="node28" class="node">
<title>name27</title>
<polygon fill="none" stroke="#000000" points="1927.5,-288.5 1927.5,-380.5 2036.5,-380.5 2036.5,-288.5 1927.5,-288.5"/>
<text text-anchor="middle" x="1982" y="-365.3" font-family="Times,serif" font-size="14.00" fill="#000000">pe=0.2</text>
<polyline fill="none" stroke="#000000" points="1927.5,-357.5 2036.5,-357.5 "/>
<text text-anchor="middle" x="1982" y="-342.3" font-family="Times,serif" font-size="14.00" fill="#000000">pw=0.2</text>
<polyline fill="none" stroke="#000000" points="1927.5,-334.5 2036.5,-334.5 "/>
<text text-anchor="middle" x="1982" y="-319.3" font-family="Times,serif" font-size="14.00" fill="#000000">pm=0.1</text>
<polyline fill="none" stroke="#000000" points="1927.5,-311.5 2036.5,-311.5 "/>
<text text-anchor="middle" x="1982" y="-296.3" font-family="Times,serif" font-size="14.00" fill="#000000">as=[0, 0, 1, 0, 0]</text>
</g>
<!-- name22&#45;&gt;name27 -->
<g id="edge25" class="edge">
<title>name22&#45;&gt;name27</title>
<path fill="none" stroke="#000000" d="M1503.6644,-434.8295C1506.7907,-433.8143 1509.9079,-432.8664 1513,-432 1578.0798,-413.7649 1596.9299,-422.3372 1664,-414 1774.1939,-400.3023 1810.8932,-422.3152 1917.7459,-381.0081"/>
<polygon fill="#000000" stroke="#000000" points="1919.2645,-384.1711 1927.2711,-377.2325 1916.685,-377.6637 1919.2645,-384.1711"/>
<text text-anchor="middle" x="1865.5" y="-402.8" font-family="Times,serif" font-size="14.00" fill="#000000">4</text>
</g>
</g>
</svg>
