<?xml version="1.0" encoding="UTF-8" standalone="no"?>
<!DOCTYPE svg PUBLIC "-//W3C//DTD SVG 1.1//EN"
 "http://www.w3.org/Graphics/SVG/1.1/DTD/svg11.dtd">
<!-- Generated by graphviz version 2.40.1 (20161225.0304)
 -->
<!-- Title: nodes Pages: 1 -->
<svg width="4842pt" height="863pt"
 viewBox="0.00 0.00 4842.12 863.00" xmlns="http://www.w3.org/2000/svg" xmlns:xlink="http://www.w3.org/1999/xlink">
<g id="graph0" class="graph" transform="scale(1 1) rotate(0) translate(4 859)">
<title>nodes</title>
<polygon fill="#ffffff" stroke="transparent" points="-4,4 -4,-859 4838.1216,-859 4838.1216,4 -4,4"/>
<!-- name0 -->
<g id="node1" class="node">
<title>name0</title>
<polygon fill="none" stroke="#000000" points="2221.436,-724.5 2221.436,-854.5 2744.6216,-854.5 2744.6216,-724.5 2221.436,-724.5"/>
<text text-anchor="middle" x="2483.0288" y="-839.3" font-family="Times,serif" font-size="14.00" fill="#000000">pe=0.000</text>
<polyline fill="none" stroke="#000000" points="2221.436,-832.5 2744.6216,-832.5 "/>
<text text-anchor="middle" x="2483.0288" y="-817.3" font-family="Times,serif" font-size="14.00" fill="#000000"> as=[193, 198, 609]</text>
<polyline fill="none" stroke="#000000" points="2221.436,-810.5 2744.6216,-810.5 "/>
<text text-anchor="middle" x="2483.0288" y="-795.3" font-family="Times,serif" font-size="14.00" fill="#000000"> pms=[7.9922628997238525e&#45;227, 3.279135836836324e&#45;227, 3.279135836836324e&#45;227]</text>
<polyline fill="none" stroke="#000000" points="2221.436,-788.5 2744.6216,-788.5 "/>
<text text-anchor="middle" x="2483.0288" y="-773.3" font-family="Times,serif" font-size="14.00" fill="#000000">bs=</text>
<text text-anchor="middle" x="2483.0288" y="-759.3" font-family="Times,serif" font-size="14.00" fill="#000000">[1. 1. 1.]</text>
<text text-anchor="middle" x="2483.0288" y="-745.3" font-family="Times,serif" font-size="14.00" fill="#000000">[2. 1. 1.]</text>
<text text-anchor="middle" x="2483.0288" y="-731.3" font-family="Times,serif" font-size="14.00" fill="#000000">[3. 1. 1.]</text>
</g>
<!-- name1 -->
<g id="node2" class="node">
<title>name1</title>
<polygon fill="none" stroke="#000000" points="944.436,-543.5 944.436,-673.5 1439.6216,-673.5 1439.6216,-543.5 944.436,-543.5"/>
<text text-anchor="middle" x="1192.0288" y="-658.3" font-family="Times,serif" font-size="14.00" fill="#000000">pe=0.000</text>
<polyline fill="none" stroke="#000000" points="944.436,-651.5 1439.6216,-651.5 "/>
<text text-anchor="middle" x="1192.0288" y="-636.3" font-family="Times,serif" font-size="14.00" fill="#000000"> as=[14, 60, 118]</text>
<polyline fill="none" stroke="#000000" points="944.436,-629.5 1439.6216,-629.5 "/>
<text text-anchor="middle" x="1192.0288" y="-614.3" font-family="Times,serif" font-size="14.00" fill="#000000"> pms=[8.328434493776163e&#45;36, 3.417063271808641e&#45;36, 3.417063271808641e&#45;36]</text>
<polyline fill="none" stroke="#000000" points="944.436,-607.5 1439.6216,-607.5 "/>
<text text-anchor="middle" x="1192.0288" y="-592.3" font-family="Times,serif" font-size="14.00" fill="#000000">bs=</text>
<text text-anchor="middle" x="1192.0288" y="-578.3" font-family="Times,serif" font-size="14.00" fill="#000000">[1. 1. 1.]</text>
<text text-anchor="middle" x="1192.0288" y="-564.3" font-family="Times,serif" font-size="14.00" fill="#000000">[2. 1. 1.]</text>
<text text-anchor="middle" x="1192.0288" y="-550.3" font-family="Times,serif" font-size="14.00" fill="#000000">[3. 1. 1.]</text>
</g>
<!-- name0&#45;&gt;name1 -->
<g id="edge13" class="edge">
<title>name0&#45;&gt;name1</title>
<path fill="none" stroke="#000000" d="M2221.387,-752.8174C1996.3847,-721.2718 1673.6615,-676.0256 1449.7917,-644.6387"/>
<polygon fill="#000000" stroke="#000000" points="1450.2627,-641.1706 1439.8736,-643.2482 1449.2908,-648.1028 1450.2627,-641.1706"/>
<text text-anchor="middle" x="1880.5288" y="-694.8" font-family="Times,serif" font-size="14.00" fill="#000000">0</text>
</g>
<!-- name14 -->
<g id="node15" class="node">
<title>name14</title>
<polygon fill="none" stroke="#000000" points="2228.436,-543.5 2228.436,-673.5 2737.6216,-673.5 2737.6216,-543.5 2228.436,-543.5"/>
<text text-anchor="middle" x="2483.0288" y="-658.3" font-family="Times,serif" font-size="14.00" fill="#000000">pe=0.000</text>
<polyline fill="none" stroke="#000000" points="2228.436,-651.5 2737.6216,-651.5 "/>
<text text-anchor="middle" x="2483.0288" y="-636.3" font-family="Times,serif" font-size="14.00" fill="#000000"> as=[108, 68, 22]</text>
<polyline fill="none" stroke="#000000" points="2228.436,-629.5 2737.6216,-629.5 "/>
<text text-anchor="middle" x="2483.0288" y="-614.3" font-family="Times,serif" font-size="14.00" fill="#000000"> pms=[6.895961053245391e&#45;64, 2.3759454650963754e&#45;65, 2.3759454650963754e&#45;65]</text>
<polyline fill="none" stroke="#000000" points="2228.436,-607.5 2737.6216,-607.5 "/>
<text text-anchor="middle" x="2483.0288" y="-592.3" font-family="Times,serif" font-size="14.00" fill="#000000">bs=</text>
<text text-anchor="middle" x="2483.0288" y="-578.3" font-family="Times,serif" font-size="14.00" fill="#000000">[1. 1. 1.]</text>
<text text-anchor="middle" x="2483.0288" y="-564.3" font-family="Times,serif" font-size="14.00" fill="#000000">[1. 1. 2.]</text>
<text text-anchor="middle" x="2483.0288" y="-550.3" font-family="Times,serif" font-size="14.00" fill="#000000">[1. 1. 3.]</text>
</g>
<!-- name0&#45;&gt;name14 -->
<g id="edge17" class="edge">
<title>name0&#45;&gt;name14</title>
<path fill="none" stroke="#000000" d="M2483.0288,-724.4106C2483.0288,-711.2462 2483.0288,-697.3013 2483.0288,-683.819"/>
<polygon fill="#000000" stroke="#000000" points="2486.5289,-683.6199 2483.0288,-673.6199 2479.5289,-683.6199 2486.5289,-683.6199"/>
<text text-anchor="middle" x="2486.5288" y="-694.8" font-family="Times,serif" font-size="14.00" fill="#000000">1</text>
</g>
<!-- name18 -->
<g id="node19" class="node">
<title>name18</title>
<polygon fill="none" stroke="#000000" points="3539.436,-543.5 3539.436,-673.5 4062.6216,-673.5 4062.6216,-543.5 3539.436,-543.5"/>
<text text-anchor="middle" x="3801.0288" y="-658.3" font-family="Times,serif" font-size="14.00" fill="#000000">pe=0.000</text>
<polyline fill="none" stroke="#000000" points="3539.436,-651.5 4062.6216,-651.5 "/>
<text text-anchor="middle" x="3801.0288" y="-636.3" font-family="Times,serif" font-size="14.00" fill="#000000"> as=[71, 70, 468]</text>
<polyline fill="none" stroke="#000000" points="3539.436,-629.5 4062.6216,-629.5 "/>
<text text-anchor="middle" x="3801.0288" y="-614.3" font-family="Times,serif" font-size="14.00" fill="#000000"> pms=[2.7831818442851055e&#45;128, 8.799096856752525e&#45;130, 8.799096856752525e&#45;130]</text>
<polyline fill="none" stroke="#000000" points="3539.436,-607.5 4062.6216,-607.5 "/>
<text text-anchor="middle" x="3801.0288" y="-592.3" font-family="Times,serif" font-size="14.00" fill="#000000">bs=</text>
<text text-anchor="middle" x="3801.0288" y="-578.3" font-family="Times,serif" font-size="14.00" fill="#000000">[1. 1. 1.]</text>
<text text-anchor="middle" x="3801.0288" y="-564.3" font-family="Times,serif" font-size="14.00" fill="#000000">[1. 2. 1.]</text>
<text text-anchor="middle" x="3801.0288" y="-550.3" font-family="Times,serif" font-size="14.00" fill="#000000">[1. 3. 1.]</text>
</g>
<!-- name0&#45;&gt;name18 -->
<g id="edge21" class="edge">
<title>name0&#45;&gt;name18</title>
<path fill="none" stroke="#000000" d="M2744.999,-753.5238C2972.0015,-722.3497 3299.2092,-677.4145 3529.0861,-645.8457"/>
<polygon fill="#000000" stroke="#000000" points="3529.8423,-649.2748 3539.2731,-644.4467 3528.8899,-642.3399 3529.8423,-649.2748"/>
<text text-anchor="middle" x="3185.5288" y="-694.8" font-family="Times,serif" font-size="14.00" fill="#000000">2</text>
</g>
<!-- name2 -->
<g id="node3" class="node">
<title>name2</title>
<polygon fill="none" stroke="#000000" points="165.4487,-362.5 165.4487,-492.5 666.6089,-492.5 666.6089,-362.5 165.4487,-362.5"/>
<text text-anchor="middle" x="416.0288" y="-477.3" font-family="Times,serif" font-size="14.00" fill="#000000">pe=0.000</text>
<polyline fill="none" stroke="#000000" points="165.4487,-470.5 666.6089,-470.5 "/>
<text text-anchor="middle" x="416.0288" y="-455.3" font-family="Times,serif" font-size="14.00" fill="#000000"> as=[4, 8, 2]</text>
<polyline fill="none" stroke="#000000" points="165.4487,-448.5 666.6089,-448.5 "/>
<text text-anchor="middle" x="416.0288" y="-433.3" font-family="Times,serif" font-size="14.00" fill="#000000"> pms=[5.15738003031508e&#45;08, 2.1160151879106125e&#45;08, 2.1160151879106125e&#45;08]</text>
<polyline fill="none" stroke="#000000" points="165.4487,-426.5 666.6089,-426.5 "/>
<text text-anchor="middle" x="416.0288" y="-411.3" font-family="Times,serif" font-size="14.00" fill="#000000">bs=</text>
<text text-anchor="middle" x="416.0288" y="-397.3" font-family="Times,serif" font-size="14.00" fill="#000000">[&#39;*&#39;, &#39;*&#39;, &#39;*&#39;]</text>
<text text-anchor="middle" x="416.0288" y="-383.3" font-family="Times,serif" font-size="14.00" fill="#000000">[1. 1. 1.]</text>
<text text-anchor="middle" x="416.0288" y="-369.3" font-family="Times,serif" font-size="14.00" fill="#000000">[1. 2. 1.]</text>
</g>
<!-- name1&#45;&gt;name2 -->
<g id="edge10" class="edge">
<title>name1&#45;&gt;name2</title>
<path fill="none" stroke="#000000" d="M944.183,-554.6032C861.6951,-536.2879 769.1582,-515.3361 676.6808,-493.3839"/>
<polygon fill="#000000" stroke="#000000" points="677.4018,-489.9578 666.8634,-491.0496 675.7825,-496.768 677.4018,-489.9578"/>
<text text-anchor="middle" x="806.5288" y="-513.8" font-family="Times,serif" font-size="14.00" fill="#000000">0</text>
</g>
<!-- name12 -->
<g id="node13" class="node">
<title>name12</title>
<polygon fill="none" stroke="#000000" points="684.1304,-362.5 684.1304,-492.5 1181.9272,-492.5 1181.9272,-362.5 684.1304,-362.5"/>
<text text-anchor="middle" x="933.0288" y="-477.3" font-family="Times,serif" font-size="14.00" fill="#000000">pe=0.005</text>
<polyline fill="none" stroke="#000000" points="684.1304,-470.5 1181.9272,-470.5 "/>
<text text-anchor="middle" x="933.0288" y="-455.3" font-family="Times,serif" font-size="14.00" fill="#000000"> as=[0, 0, 108]</text>
<polyline fill="none" stroke="#000000" points="684.1304,-448.5 1181.9272,-448.5 "/>
<text text-anchor="middle" x="933.0288" y="-433.3" font-family="Times,serif" font-size="14.00" fill="#000000"> pms=[0.002304147465437788, 2.7732789031127283e&#45;07, 6.262242684448096e&#45;08]</text>
<polyline fill="none" stroke="#000000" points="684.1304,-426.5 1181.9272,-426.5 "/>
<text text-anchor="middle" x="933.0288" y="-411.3" font-family="Times,serif" font-size="14.00" fill="#000000">bs=</text>
<text text-anchor="middle" x="933.0288" y="-397.3" font-family="Times,serif" font-size="14.00" fill="#000000">[&#39;*&#39;, &#39;*&#39;, &#39;*&#39;]</text>
<text text-anchor="middle" x="933.0288" y="-383.3" font-family="Times,serif" font-size="14.00" fill="#000000">[1. 1. 1.]</text>
<text text-anchor="middle" x="933.0288" y="-369.3" font-family="Times,serif" font-size="14.00" fill="#000000">[2. 1. 1.]</text>
</g>
<!-- name1&#45;&gt;name12 -->
<g id="edge11" class="edge">
<title>name1&#45;&gt;name12</title>
<path fill="none" stroke="#000000" d="M1098.8898,-543.4106C1078.0209,-528.8265 1055.7812,-513.2845 1034.5895,-498.4748"/>
<polygon fill="#000000" stroke="#000000" points="1036.4131,-495.4793 1026.2114,-492.6199 1032.4033,-501.2171 1036.4131,-495.4793"/>
<text text-anchor="middle" x="1074.5288" y="-513.8" font-family="Times,serif" font-size="14.00" fill="#000000">1</text>
</g>
<!-- name13 -->
<g id="node14" class="node">
<title>name13</title>
<polygon fill="none" stroke="#000000" points="1199.936,-362.5 1199.936,-492.5 1702.1216,-492.5 1702.1216,-362.5 1199.936,-362.5"/>
<text text-anchor="middle" x="1451.0288" y="-477.3" font-family="Times,serif" font-size="14.00" fill="#000000">pe=0.000</text>
<polyline fill="none" stroke="#000000" points="1199.936,-470.5 1702.1216,-470.5 "/>
<text text-anchor="middle" x="1451.0288" y="-455.3" font-family="Times,serif" font-size="14.00" fill="#000000"> as=[10, 52, 8]</text>
<polyline fill="none" stroke="#000000" points="1199.936,-448.5 1702.1216,-448.5 "/>
<text text-anchor="middle" x="1451.0288" y="-433.3" font-family="Times,serif" font-size="14.00" fill="#000000"> pms=[1.40169642301036e&#45;25, 2.0051883799357393e&#45;26, 2.0051883799357393e&#45;26]</text>
<polyline fill="none" stroke="#000000" points="1199.936,-426.5 1702.1216,-426.5 "/>
<text text-anchor="middle" x="1451.0288" y="-411.3" font-family="Times,serif" font-size="14.00" fill="#000000">bs=</text>
<text text-anchor="middle" x="1451.0288" y="-397.3" font-family="Times,serif" font-size="14.00" fill="#000000">[&#39;*&#39;, &#39;*&#39;, &#39;*&#39;]</text>
<text text-anchor="middle" x="1451.0288" y="-383.3" font-family="Times,serif" font-size="14.00" fill="#000000">[1. 1. 1.]</text>
<text text-anchor="middle" x="1451.0288" y="-369.3" font-family="Times,serif" font-size="14.00" fill="#000000">[1. 2. 1.]</text>
</g>
<!-- name1&#45;&gt;name13 -->
<g id="edge12" class="edge">
<title>name1&#45;&gt;name13</title>
<path fill="none" stroke="#000000" d="M1285.1678,-543.4106C1306.0367,-528.8265 1328.2765,-513.2845 1349.4681,-498.4748"/>
<polygon fill="#000000" stroke="#000000" points="1351.6543,-501.2171 1357.8462,-492.6199 1347.6445,-495.4793 1351.6543,-501.2171"/>
<text text-anchor="middle" x="1333.5288" y="-513.8" font-family="Times,serif" font-size="14.00" fill="#000000">2</text>
</g>
<!-- name3 -->
<g id="node4" class="node">
<title>name3</title>
<polygon fill="none" stroke="#000000" points="0,-181.5 0,-311.5 340.0576,-311.5 340.0576,-181.5 0,-181.5"/>
<text text-anchor="middle" x="170.0288" y="-296.3" font-family="Times,serif" font-size="14.00" fill="#000000">pe=0.111</text>
<polyline fill="none" stroke="#000000" points="0,-289.5 340.0576,-289.5 "/>
<text text-anchor="middle" x="170.0288" y="-274.3" font-family="Times,serif" font-size="14.00" fill="#000000"> as=[0, 4, 0]</text>
<polyline fill="none" stroke="#000000" points="0,-267.5 340.0576,-267.5 "/>
<text text-anchor="middle" x="170.0288" y="-252.3" font-family="Times,serif" font-size="14.00" fill="#000000"> pms=[0.05555555555555555, 0.05555555555555555, 0]</text>
<polyline fill="none" stroke="#000000" points="0,-245.5 340.0576,-245.5 "/>
<text text-anchor="middle" x="170.0288" y="-230.3" font-family="Times,serif" font-size="14.00" fill="#000000">bs=</text>
<text text-anchor="middle" x="170.0288" y="-216.3" font-family="Times,serif" font-size="14.00" fill="#000000">[&#39;*&#39;, &#39;*&#39;, &#39;*&#39;]</text>
<text text-anchor="middle" x="170.0288" y="-202.3" font-family="Times,serif" font-size="14.00" fill="#000000">[1. 1. 1.]</text>
<text text-anchor="middle" x="170.0288" y="-188.3" font-family="Times,serif" font-size="14.00" fill="#000000">[&#45;1. &#45;1. &#45;1.]</text>
</g>
<!-- name2&#45;&gt;name3 -->
<g id="edge1" class="edge">
<title>name2&#45;&gt;name3</title>
<path fill="none" stroke="#000000" d="M327.5647,-362.4106C307.831,-347.8911 286.8068,-332.422 266.7591,-317.6715"/>
<polygon fill="#000000" stroke="#000000" points="268.6632,-314.7272 258.5343,-311.6199 264.5147,-320.3655 268.6632,-314.7272"/>
<text text-anchor="middle" x="304.5288" y="-332.8" font-family="Times,serif" font-size="14.00" fill="#000000">0</text>
</g>
<!-- name4 -->
<g id="node5" class="node">
<title>name4</title>
<polygon fill="none" stroke="#000000" points="358,-181.5 358,-311.5 474.0576,-311.5 474.0576,-181.5 358,-181.5"/>
<text text-anchor="middle" x="416.0288" y="-296.3" font-family="Times,serif" font-size="14.00" fill="#000000">pe=1.000</text>
<polyline fill="none" stroke="#000000" points="358,-289.5 474.0576,-289.5 "/>
<text text-anchor="middle" x="416.0288" y="-274.3" font-family="Times,serif" font-size="14.00" fill="#000000"> as=[0, 0, 0]</text>
<polyline fill="none" stroke="#000000" points="358,-267.5 474.0576,-267.5 "/>
<text text-anchor="middle" x="416.0288" y="-252.3" font-family="Times,serif" font-size="14.00" fill="#000000"> pms=[0.5, 0.5, 0]</text>
<polyline fill="none" stroke="#000000" points="358,-245.5 474.0576,-245.5 "/>
<text text-anchor="middle" x="416.0288" y="-230.3" font-family="Times,serif" font-size="14.00" fill="#000000">bs=</text>
<text text-anchor="middle" x="416.0288" y="-216.3" font-family="Times,serif" font-size="14.00" fill="#000000">[&#39;*&#39;, &#39;*&#39;, &#39;*&#39;]</text>
<text text-anchor="middle" x="416.0288" y="-202.3" font-family="Times,serif" font-size="14.00" fill="#000000">[1. 1. 1.]</text>
<text text-anchor="middle" x="416.0288" y="-188.3" font-family="Times,serif" font-size="14.00" fill="#000000">[&#45;1. &#45;1. &#45;1.]</text>
</g>
<!-- name2&#45;&gt;name4 -->
<g id="edge5" class="edge">
<title>name2&#45;&gt;name4</title>
<path fill="none" stroke="#000000" d="M416.0288,-362.4106C416.0288,-349.2462 416.0288,-335.3013 416.0288,-321.819"/>
<polygon fill="#000000" stroke="#000000" points="419.5289,-321.6199 416.0288,-311.6199 412.5289,-321.6199 419.5289,-321.6199"/>
<text text-anchor="middle" x="419.5288" y="-332.8" font-family="Times,serif" font-size="14.00" fill="#000000">1</text>
</g>
<!-- name8 -->
<g id="node9" class="node">
<title>name8</title>
<polygon fill="none" stroke="#000000" points="571.124,-181.5 571.124,-311.5 946.9336,-311.5 946.9336,-181.5 571.124,-181.5"/>
<text text-anchor="middle" x="759.0288" y="-296.3" font-family="Times,serif" font-size="14.00" fill="#000000">pe=0.000</text>
<polyline fill="none" stroke="#000000" points="571.124,-289.5 946.9336,-289.5 "/>
<text text-anchor="middle" x="759.0288" y="-274.3" font-family="Times,serif" font-size="14.00" fill="#000000"> as=[4, 4, 2]</text>
<polyline fill="none" stroke="#000000" points="571.124,-267.5 946.9336,-267.5 "/>
<text text-anchor="middle" x="759.0288" y="-252.3" font-family="Times,serif" font-size="14.00" fill="#000000"> pms=[1.5235309352956412e&#45;06, 1.2027875804965589e&#45;06, 0]</text>
<polyline fill="none" stroke="#000000" points="571.124,-245.5 946.9336,-245.5 "/>
<text text-anchor="middle" x="759.0288" y="-230.3" font-family="Times,serif" font-size="14.00" fill="#000000">bs=</text>
<text text-anchor="middle" x="759.0288" y="-216.3" font-family="Times,serif" font-size="14.00" fill="#000000">[1. 1. 1.]</text>
<text text-anchor="middle" x="759.0288" y="-202.3" font-family="Times,serif" font-size="14.00" fill="#000000">[&#39;*&#39;, &#39;*&#39;, &#39;*&#39;]</text>
<text text-anchor="middle" x="759.0288" y="-188.3" font-family="Times,serif" font-size="14.00" fill="#000000">[&#45;1. &#45;1. &#45;1.]</text>
</g>
<!-- name2&#45;&gt;name8 -->
<g id="edge9" class="edge">
<title>name2&#45;&gt;name8</title>
<path fill="none" stroke="#000000" d="M539.3751,-362.4106C567.746,-347.4393 598.03,-331.4585 626.7617,-316.2969"/>
<polygon fill="#000000" stroke="#000000" points="628.4141,-319.3824 635.6248,-311.6199 625.1472,-313.1915 628.4141,-319.3824"/>
<text text-anchor="middle" x="601.5288" y="-332.8" font-family="Times,serif" font-size="14.00" fill="#000000">2</text>
</g>
<!-- name5 -->
<g id="node6" class="node">
<title>name5</title>
<polygon fill="none" stroke="#000000" points="177.25,-.5 177.25,-130.5 282.8076,-130.5 282.8076,-.5 177.25,-.5"/>
<text text-anchor="middle" x="230.0288" y="-115.3" font-family="Times,serif" font-size="14.00" fill="#000000">pe=1.000</text>
<polyline fill="none" stroke="#000000" points="177.25,-108.5 282.8076,-108.5 "/>
<text text-anchor="middle" x="230.0288" y="-93.3" font-family="Times,serif" font-size="14.00" fill="#000000"> as=[0, 0, 0]</text>
<polyline fill="none" stroke="#000000" points="177.25,-86.5 282.8076,-86.5 "/>
<text text-anchor="middle" x="230.0288" y="-71.3" font-family="Times,serif" font-size="14.00" fill="#000000"> pms=[1.0, 0, 0]</text>
<polyline fill="none" stroke="#000000" points="177.25,-64.5 282.8076,-64.5 "/>
<text text-anchor="middle" x="230.0288" y="-49.3" font-family="Times,serif" font-size="14.00" fill="#000000">bs=</text>
<text text-anchor="middle" x="230.0288" y="-35.3" font-family="Times,serif" font-size="14.00" fill="#000000">[&#39;*&#39;, &#39;*&#39;, &#39;*&#39;]</text>
<text text-anchor="middle" x="230.0288" y="-21.3" font-family="Times,serif" font-size="14.00" fill="#000000">[&#45;1. &#45;1. &#45;1.]</text>
<text text-anchor="middle" x="230.0288" y="-7.3" font-family="Times,serif" font-size="14.00" fill="#000000">[&#45;1. &#45;1. &#45;1.]</text>
</g>
<!-- name4&#45;&gt;name5 -->
<g id="edge2" class="edge">
<title>name4&#45;&gt;name5</title>
<path fill="none" stroke="#000000" d="M357.7423,-189.1552C354.8093,-186.3839 351.8931,-183.6528 349.0288,-181 324.3047,-158.1019 316.3045,-154.373 292.0288,-131 291.4789,-130.4706 290.9275,-129.9375 290.3748,-129.4013"/>
<polygon fill="#000000" stroke="#000000" points="292.7186,-126.7971 283.1384,-122.2727 287.8061,-131.7839 292.7186,-126.7971"/>
<text text-anchor="middle" x="332.5288" y="-151.8" font-family="Times,serif" font-size="14.00" fill="#000000">0</text>
</g>
<!-- name6 -->
<g id="node7" class="node">
<title>name6</title>
<polygon fill="none" stroke="#000000" points="301.25,-.5 301.25,-130.5 406.8076,-130.5 406.8076,-.5 301.25,-.5"/>
<text text-anchor="middle" x="354.0288" y="-115.3" font-family="Times,serif" font-size="14.00" fill="#000000">pe=1.000</text>
<polyline fill="none" stroke="#000000" points="301.25,-108.5 406.8076,-108.5 "/>
<text text-anchor="middle" x="354.0288" y="-93.3" font-family="Times,serif" font-size="14.00" fill="#000000"> as=[0, 0, 0]</text>
<polyline fill="none" stroke="#000000" points="301.25,-86.5 406.8076,-86.5 "/>
<text text-anchor="middle" x="354.0288" y="-71.3" font-family="Times,serif" font-size="14.00" fill="#000000"> pms=[1.0, 0, 0]</text>
<polyline fill="none" stroke="#000000" points="301.25,-64.5 406.8076,-64.5 "/>
<text text-anchor="middle" x="354.0288" y="-49.3" font-family="Times,serif" font-size="14.00" fill="#000000">bs=</text>
<text text-anchor="middle" x="354.0288" y="-35.3" font-family="Times,serif" font-size="14.00" fill="#000000">[&#39;*&#39;, &#39;*&#39;, &#39;*&#39;]</text>
<text text-anchor="middle" x="354.0288" y="-21.3" font-family="Times,serif" font-size="14.00" fill="#000000">[&#45;1. &#45;1. &#45;1.]</text>
<text text-anchor="middle" x="354.0288" y="-7.3" font-family="Times,serif" font-size="14.00" fill="#000000">[&#45;1. &#45;1. &#45;1.]</text>
</g>
<!-- name4&#45;&gt;name6 -->
<g id="edge3" class="edge">
<title>name4&#45;&gt;name6</title>
<path fill="none" stroke="#000000" d="M393.733,-181.4106C389.1794,-168.1172 384.3532,-154.0278 379.6929,-140.4226"/>
<polygon fill="#000000" stroke="#000000" points="382.8868,-138.946 376.3351,-130.6199 376.2646,-141.2145 382.8868,-138.946"/>
<text text-anchor="middle" x="390.5288" y="-151.8" font-family="Times,serif" font-size="14.00" fill="#000000">1</text>
</g>
<!-- name7 -->
<g id="node8" class="node">
<title>name7</title>
<polygon fill="none" stroke="#000000" points="425.25,-.5 425.25,-130.5 530.8076,-130.5 530.8076,-.5 425.25,-.5"/>
<text text-anchor="middle" x="478.0288" y="-115.3" font-family="Times,serif" font-size="14.00" fill="#000000">pe=1.000</text>
<polyline fill="none" stroke="#000000" points="425.25,-108.5 530.8076,-108.5 "/>
<text text-anchor="middle" x="478.0288" y="-93.3" font-family="Times,serif" font-size="14.00" fill="#000000"> as=[0, 0, 0]</text>
<polyline fill="none" stroke="#000000" points="425.25,-86.5 530.8076,-86.5 "/>
<text text-anchor="middle" x="478.0288" y="-71.3" font-family="Times,serif" font-size="14.00" fill="#000000"> pms=[1.0, 0, 0]</text>
<polyline fill="none" stroke="#000000" points="425.25,-64.5 530.8076,-64.5 "/>
<text text-anchor="middle" x="478.0288" y="-49.3" font-family="Times,serif" font-size="14.00" fill="#000000">bs=</text>
<text text-anchor="middle" x="478.0288" y="-35.3" font-family="Times,serif" font-size="14.00" fill="#000000">[&#39;*&#39;, &#39;*&#39;, &#39;*&#39;]</text>
<text text-anchor="middle" x="478.0288" y="-21.3" font-family="Times,serif" font-size="14.00" fill="#000000">[&#45;1. &#45;1. &#45;1.]</text>
<text text-anchor="middle" x="478.0288" y="-7.3" font-family="Times,serif" font-size="14.00" fill="#000000">[&#45;1. &#45;1. &#45;1.]</text>
</g>
<!-- name4&#45;&gt;name7 -->
<g id="edge4" class="edge">
<title>name4&#45;&gt;name7</title>
<path fill="none" stroke="#000000" d="M438.3246,-181.4106C442.8782,-168.1172 447.7044,-154.0278 452.3647,-140.4226"/>
<polygon fill="#000000" stroke="#000000" points="455.793,-141.2145 455.7225,-130.6199 449.1708,-138.946 455.793,-141.2145"/>
<text text-anchor="middle" x="452.5288" y="-151.8" font-family="Times,serif" font-size="14.00" fill="#000000">2</text>
</g>
<!-- name9 -->
<g id="node10" class="node">
<title>name9</title>
<polygon fill="none" stroke="#000000" points="549.25,-.5 549.25,-130.5 766.8076,-130.5 766.8076,-.5 549.25,-.5"/>
<text text-anchor="middle" x="658.0288" y="-115.3" font-family="Times,serif" font-size="14.00" fill="#000000">pe=0.067</text>
<polyline fill="none" stroke="#000000" points="549.25,-108.5 766.8076,-108.5 "/>
<text text-anchor="middle" x="658.0288" y="-93.3" font-family="Times,serif" font-size="14.00" fill="#000000"> as=[0, 1, 1]</text>
<polyline fill="none" stroke="#000000" points="549.25,-86.5 766.8076,-86.5 "/>
<text text-anchor="middle" x="658.0288" y="-71.3" font-family="Times,serif" font-size="14.00" fill="#000000"> pms=[0.06666666666666667, 0, 0]</text>
<polyline fill="none" stroke="#000000" points="549.25,-64.5 766.8076,-64.5 "/>
<text text-anchor="middle" x="658.0288" y="-49.3" font-family="Times,serif" font-size="14.00" fill="#000000">bs=</text>
<text text-anchor="middle" x="658.0288" y="-35.3" font-family="Times,serif" font-size="14.00" fill="#000000">[&#39;*&#39;, &#39;*&#39;, &#39;*&#39;]</text>
<text text-anchor="middle" x="658.0288" y="-21.3" font-family="Times,serif" font-size="14.00" fill="#000000">[&#45;1. &#45;1. &#45;1.]</text>
<text text-anchor="middle" x="658.0288" y="-7.3" font-family="Times,serif" font-size="14.00" fill="#000000">[&#45;1. &#45;1. &#45;1.]</text>
</g>
<!-- name8&#45;&gt;name9 -->
<g id="edge6" class="edge">
<title>name8&#45;&gt;name9</title>
<path fill="none" stroke="#000000" d="M722.7082,-181.4106C715.1463,-167.859 707.1228,-153.4803 699.3945,-139.6307"/>
<polygon fill="#000000" stroke="#000000" points="702.2956,-137.6469 694.3664,-130.6199 696.1829,-141.0579 702.2956,-137.6469"/>
<text text-anchor="middle" x="715.5288" y="-151.8" font-family="Times,serif" font-size="14.00" fill="#000000">0</text>
</g>
<!-- name10 -->
<g id="node11" class="node">
<title>name10</title>
<polygon fill="none" stroke="#000000" points="785.25,-.5 785.25,-130.5 890.8076,-130.5 890.8076,-.5 785.25,-.5"/>
<text text-anchor="middle" x="838.0288" y="-115.3" font-family="Times,serif" font-size="14.00" fill="#000000">pe=1.000</text>
<polyline fill="none" stroke="#000000" points="785.25,-108.5 890.8076,-108.5 "/>
<text text-anchor="middle" x="838.0288" y="-93.3" font-family="Times,serif" font-size="14.00" fill="#000000"> as=[0, 0, 0]</text>
<polyline fill="none" stroke="#000000" points="785.25,-86.5 890.8076,-86.5 "/>
<text text-anchor="middle" x="838.0288" y="-71.3" font-family="Times,serif" font-size="14.00" fill="#000000"> pms=[1.0, 0, 0]</text>
<polyline fill="none" stroke="#000000" points="785.25,-64.5 890.8076,-64.5 "/>
<text text-anchor="middle" x="838.0288" y="-49.3" font-family="Times,serif" font-size="14.00" fill="#000000">bs=</text>
<text text-anchor="middle" x="838.0288" y="-35.3" font-family="Times,serif" font-size="14.00" fill="#000000">[&#39;*&#39;, &#39;*&#39;, &#39;*&#39;]</text>
<text text-anchor="middle" x="838.0288" y="-21.3" font-family="Times,serif" font-size="14.00" fill="#000000">[&#45;1. &#45;1. &#45;1.]</text>
<text text-anchor="middle" x="838.0288" y="-7.3" font-family="Times,serif" font-size="14.00" fill="#000000">[&#45;1. &#45;1. &#45;1.]</text>
</g>
<!-- name8&#45;&gt;name10 -->
<g id="edge7" class="edge">
<title>name8&#45;&gt;name10</title>
<path fill="none" stroke="#000000" d="M787.438,-181.4106C793.2964,-167.9881 799.5091,-153.7541 805.5007,-140.0265"/>
<polygon fill="#000000" stroke="#000000" points="808.8138,-141.1851 809.6063,-130.6199 802.3983,-138.3849 808.8138,-141.1851"/>
<text text-anchor="middle" x="804.5288" y="-151.8" font-family="Times,serif" font-size="14.00" fill="#000000">1</text>
</g>
<!-- name11 -->
<g id="node12" class="node">
<title>name11</title>
<polygon fill="none" stroke="#000000" points="908.812,-.5 908.812,-130.5 1137.2456,-130.5 1137.2456,-.5 908.812,-.5"/>
<text text-anchor="middle" x="1023.0288" y="-115.3" font-family="Times,serif" font-size="14.00" fill="#000000">pe=0.000</text>
<polyline fill="none" stroke="#000000" points="908.812,-108.5 1137.2456,-108.5 "/>
<text text-anchor="middle" x="1023.0288" y="-93.3" font-family="Times,serif" font-size="14.00" fill="#000000"> as=[4, 3, 1]</text>
<polyline fill="none" stroke="#000000" points="908.812,-86.5 1137.2456,-86.5 "/>
<text text-anchor="middle" x="1023.0288" y="-71.3" font-family="Times,serif" font-size="14.00" fill="#000000"> pms=[4.570592805886923e&#45;05, 0, 0]</text>
<polyline fill="none" stroke="#000000" points="908.812,-64.5 1137.2456,-64.5 "/>
<text text-anchor="middle" x="1023.0288" y="-49.3" font-family="Times,serif" font-size="14.00" fill="#000000">bs=</text>
<text text-anchor="middle" x="1023.0288" y="-35.3" font-family="Times,serif" font-size="14.00" fill="#000000">[&#39;*&#39;, &#39;*&#39;, &#39;*&#39;]</text>
<text text-anchor="middle" x="1023.0288" y="-21.3" font-family="Times,serif" font-size="14.00" fill="#000000">[&#45;1. &#45;1. &#45;1.]</text>
<text text-anchor="middle" x="1023.0288" y="-7.3" font-family="Times,serif" font-size="14.00" fill="#000000">[&#45;1. &#45;1. &#45;1.]</text>
</g>
<!-- name8&#45;&gt;name11 -->
<g id="edge8" class="edge">
<title>name8&#45;&gt;name11</title>
<path fill="none" stroke="#000000" d="M853.9659,-181.4106C875.3317,-166.762 898.1074,-151.1469 919.7942,-136.2783"/>
<polygon fill="#000000" stroke="#000000" points="921.7787,-139.1613 928.0473,-130.6199 917.8204,-133.3879 921.7787,-139.1613"/>
<text text-anchor="middle" x="902.5288" y="-151.8" font-family="Times,serif" font-size="14.00" fill="#000000">2</text>
</g>
<!-- name15 -->
<g id="node16" class="node">
<title>name15</title>
<polygon fill="none" stroke="#000000" points="1720.436,-362.5 1720.436,-492.5 2215.6216,-492.5 2215.6216,-362.5 1720.436,-362.5"/>
<text text-anchor="middle" x="1968.0288" y="-477.3" font-family="Times,serif" font-size="14.00" fill="#000000">pe=0.000</text>
<polyline fill="none" stroke="#000000" points="1720.436,-470.5 2215.6216,-470.5 "/>
<text text-anchor="middle" x="1968.0288" y="-455.3" font-family="Times,serif" font-size="14.00" fill="#000000"> as=[17, 35, 8]</text>
<polyline fill="none" stroke="#000000" points="1720.436,-448.5 2215.6216,-448.5 "/>
<text text-anchor="middle" x="1968.0288" y="-433.3" font-family="Times,serif" font-size="14.00" fill="#000000"> pms=[2.566452216177017e&#45;27, 4.221253531013272e&#45;29, 4.221253531013272e&#45;29]</text>
<polyline fill="none" stroke="#000000" points="1720.436,-426.5 2215.6216,-426.5 "/>
<text text-anchor="middle" x="1968.0288" y="-411.3" font-family="Times,serif" font-size="14.00" fill="#000000">bs=</text>
<text text-anchor="middle" x="1968.0288" y="-397.3" font-family="Times,serif" font-size="14.00" fill="#000000">[&#39;*&#39;, &#39;*&#39;, &#39;*&#39;]</text>
<text text-anchor="middle" x="1968.0288" y="-383.3" font-family="Times,serif" font-size="14.00" fill="#000000">[1. 1. 1.]</text>
<text text-anchor="middle" x="1968.0288" y="-369.3" font-family="Times,serif" font-size="14.00" fill="#000000">[1. 2. 1.]</text>
</g>
<!-- name14&#45;&gt;name15 -->
<g id="edge14" class="edge">
<title>name14&#45;&gt;name15</title>
<path fill="none" stroke="#000000" d="M2297.8296,-543.4106C2254.0385,-528.0199 2207.2115,-511.5623 2163.0019,-496.0245"/>
<polygon fill="#000000" stroke="#000000" points="2163.9095,-492.6337 2153.3147,-492.6199 2161.5885,-499.2377 2163.9095,-492.6337"/>
<text text-anchor="middle" x="2244.5288" y="-513.8" font-family="Times,serif" font-size="14.00" fill="#000000">0</text>
</g>
<!-- name16 -->
<g id="node17" class="node">
<title>name16</title>
<polygon fill="none" stroke="#000000" points="2233.874,-362.5 2233.874,-492.5 2732.1836,-492.5 2732.1836,-362.5 2233.874,-362.5"/>
<text text-anchor="middle" x="2483.0288" y="-477.3" font-family="Times,serif" font-size="14.00" fill="#000000">pe=0.007</text>
<polyline fill="none" stroke="#000000" points="2233.874,-470.5 2732.1836,-470.5 "/>
<text text-anchor="middle" x="2483.0288" y="-455.3" font-family="Times,serif" font-size="14.00" fill="#000000"> as=[68, 0, 0]</text>
<polyline fill="none" stroke="#000000" points="2233.874,-448.5 2732.1836,-448.5 "/>
<text text-anchor="middle" x="2483.0288" y="-433.3" font-family="Times,serif" font-size="14.00" fill="#000000"> pms=[0.0036496350364963502, 1.313853268866933e&#45;05, 1.313853268866933e&#45;05]</text>
<polyline fill="none" stroke="#000000" points="2233.874,-426.5 2732.1836,-426.5 "/>
<text text-anchor="middle" x="2483.0288" y="-411.3" font-family="Times,serif" font-size="14.00" fill="#000000">bs=</text>
<text text-anchor="middle" x="2483.0288" y="-397.3" font-family="Times,serif" font-size="14.00" fill="#000000">[&#39;*&#39;, &#39;*&#39;, &#39;*&#39;]</text>
<text text-anchor="middle" x="2483.0288" y="-383.3" font-family="Times,serif" font-size="14.00" fill="#000000">[1. 1. 1.]</text>
<text text-anchor="middle" x="2483.0288" y="-369.3" font-family="Times,serif" font-size="14.00" fill="#000000">[1. 2. 1.]</text>
</g>
<!-- name14&#45;&gt;name16 -->
<g id="edge15" class="edge">
<title>name14&#45;&gt;name16</title>
<path fill="none" stroke="#000000" d="M2483.0288,-543.4106C2483.0288,-530.2462 2483.0288,-516.3013 2483.0288,-502.819"/>
<polygon fill="#000000" stroke="#000000" points="2486.5289,-502.6199 2483.0288,-492.6199 2479.5289,-502.6199 2486.5289,-502.6199"/>
<text text-anchor="middle" x="2486.5288" y="-513.8" font-family="Times,serif" font-size="14.00" fill="#000000">1</text>
</g>
<!-- name17 -->
<g id="node18" class="node">
<title>name17</title>
<polygon fill="none" stroke="#000000" points="2749.936,-362.5 2749.936,-492.5 3266.1216,-492.5 3266.1216,-362.5 2749.936,-362.5"/>
<text text-anchor="middle" x="3008.0288" y="-477.3" font-family="Times,serif" font-size="14.00" fill="#000000">pe=0.000</text>
<polyline fill="none" stroke="#000000" points="2749.936,-470.5 3266.1216,-470.5 "/>
<text text-anchor="middle" x="3008.0288" y="-455.3" font-family="Times,serif" font-size="14.00" fill="#000000"> as=[23, 33, 14]</text>
<polyline fill="none" stroke="#000000" points="2749.936,-448.5 3266.1216,-448.5 "/>
<text text-anchor="middle" x="3008.0288" y="-433.3" font-family="Times,serif" font-size="14.00" fill="#000000"> pms=[1.4724554906413363e&#45;34, 5.0732217286799816e&#45;36, 5.0732217286799816e&#45;36]</text>
<polyline fill="none" stroke="#000000" points="2749.936,-426.5 3266.1216,-426.5 "/>
<text text-anchor="middle" x="3008.0288" y="-411.3" font-family="Times,serif" font-size="14.00" fill="#000000">bs=</text>
<text text-anchor="middle" x="3008.0288" y="-397.3" font-family="Times,serif" font-size="14.00" fill="#000000">[&#39;*&#39;, &#39;*&#39;, &#39;*&#39;]</text>
<text text-anchor="middle" x="3008.0288" y="-383.3" font-family="Times,serif" font-size="14.00" fill="#000000">[1. 1. 1.]</text>
<text text-anchor="middle" x="3008.0288" y="-369.3" font-family="Times,serif" font-size="14.00" fill="#000000">[1. 1. 2.]</text>
</g>
<!-- name14&#45;&gt;name17 -->
<g id="edge16" class="edge">
<title>name14&#45;&gt;name17</title>
<path fill="none" stroke="#000000" d="M2671.8241,-543.4106C2716.5592,-527.9876 2764.4019,-511.4933 2809.5533,-495.9268"/>
<polygon fill="#000000" stroke="#000000" points="2810.832,-499.1882 2819.1451,-492.6199 2808.5504,-492.5704 2810.832,-499.1882"/>
<text text-anchor="middle" x="2765.5288" y="-513.8" font-family="Times,serif" font-size="14.00" fill="#000000">2</text>
</g>
<!-- name19 -->
<g id="node20" class="node">
<title>name19</title>
<polygon fill="none" stroke="#000000" points="3284.436,-362.5 3284.436,-492.5 3793.6216,-492.5 3793.6216,-362.5 3284.436,-362.5"/>
<text text-anchor="middle" x="3539.0288" y="-477.3" font-family="Times,serif" font-size="14.00" fill="#000000">pe=0.000</text>
<polyline fill="none" stroke="#000000" points="3284.436,-470.5 3793.6216,-470.5 "/>
<text text-anchor="middle" x="3539.0288" y="-455.3" font-family="Times,serif" font-size="14.00" fill="#000000"> as=[30, 51, 37]</text>
<polyline fill="none" stroke="#000000" points="3284.436,-448.5 3793.6216,-448.5 "/>
<text text-anchor="middle" x="3539.0288" y="-433.3" font-family="Times,serif" font-size="14.00" fill="#000000"> pms=[3.673343584979274e&#45;58, 1.1600826694538599e&#45;59, 1.1600826694538599e&#45;59]</text>
<polyline fill="none" stroke="#000000" points="3284.436,-426.5 3793.6216,-426.5 "/>
<text text-anchor="middle" x="3539.0288" y="-411.3" font-family="Times,serif" font-size="14.00" fill="#000000">bs=</text>
<text text-anchor="middle" x="3539.0288" y="-397.3" font-family="Times,serif" font-size="14.00" fill="#000000">[&#39;*&#39;, &#39;*&#39;, &#39;*&#39;]</text>
<text text-anchor="middle" x="3539.0288" y="-383.3" font-family="Times,serif" font-size="14.00" fill="#000000">[1. 1. 1.]</text>
<text text-anchor="middle" x="3539.0288" y="-369.3" font-family="Times,serif" font-size="14.00" fill="#000000">[2. 1. 1.]</text>
</g>
<!-- name18&#45;&gt;name19 -->
<g id="edge18" class="edge">
<title>name18&#45;&gt;name19</title>
<path fill="none" stroke="#000000" d="M3706.811,-543.4106C3685.7004,-528.8265 3663.203,-513.2845 3641.7659,-498.4748"/>
<polygon fill="#000000" stroke="#000000" points="3643.5077,-495.4242 3633.2908,-492.6199 3639.5289,-501.1835 3643.5077,-495.4242"/>
<text text-anchor="middle" x="3681.5288" y="-513.8" font-family="Times,serif" font-size="14.00" fill="#000000">0</text>
</g>
<!-- name20 -->
<g id="node21" class="node">
<title>name20</title>
<polygon fill="none" stroke="#000000" points="3811.936,-362.5 3811.936,-492.5 4314.1216,-492.5 4314.1216,-362.5 3811.936,-362.5"/>
<text text-anchor="middle" x="4063.0288" y="-477.3" font-family="Times,serif" font-size="14.00" fill="#000000">pe=0.000</text>
<polyline fill="none" stroke="#000000" points="3811.936,-470.5 4314.1216,-470.5 "/>
<text text-anchor="middle" x="4063.0288" y="-455.3" font-family="Times,serif" font-size="14.00" fill="#000000"> as=[0, 18, 4]</text>
<polyline fill="none" stroke="#000000" points="3811.936,-448.5 4314.1216,-448.5 "/>
<text text-anchor="middle" x="4063.0288" y="-433.3" font-family="Times,serif" font-size="14.00" fill="#000000"> pms=[4.5859376545706663e&#45;07, 1.449855304440617e&#45;08, 1.449855304440617e&#45;08]</text>
<polyline fill="none" stroke="#000000" points="3811.936,-426.5 4314.1216,-426.5 "/>
<text text-anchor="middle" x="4063.0288" y="-411.3" font-family="Times,serif" font-size="14.00" fill="#000000">bs=</text>
<text text-anchor="middle" x="4063.0288" y="-397.3" font-family="Times,serif" font-size="14.00" fill="#000000">[&#39;*&#39;, &#39;*&#39;, &#39;*&#39;]</text>
<text text-anchor="middle" x="4063.0288" y="-383.3" font-family="Times,serif" font-size="14.00" fill="#000000">[1. 1. 1.]</text>
<text text-anchor="middle" x="4063.0288" y="-369.3" font-family="Times,serif" font-size="14.00" fill="#000000">[1. 2. 1.]</text>
</g>
<!-- name18&#45;&gt;name20 -->
<g id="edge19" class="edge">
<title>name18&#45;&gt;name20</title>
<path fill="none" stroke="#000000" d="M3895.2467,-543.4106C3916.3572,-528.8265 3938.8546,-513.2845 3960.2917,-498.4748"/>
<polygon fill="#000000" stroke="#000000" points="3962.5287,-501.1835 3968.7669,-492.6199 3958.5499,-495.4242 3962.5287,-501.1835"/>
<text text-anchor="middle" x="3943.5288" y="-513.8" font-family="Times,serif" font-size="14.00" fill="#000000">1</text>
</g>
<!-- name21 -->
<g id="node22" class="node">
<title>name21</title>
<polygon fill="none" stroke="#000000" points="4331.936,-362.5 4331.936,-492.5 4834.1216,-492.5 4834.1216,-362.5 4331.936,-362.5"/>
<text text-anchor="middle" x="4583.0288" y="-477.3" font-family="Times,serif" font-size="14.00" fill="#000000">pe=0.000</text>
<polyline fill="none" stroke="#000000" points="4331.936,-470.5 4834.1216,-470.5 "/>
<text text-anchor="middle" x="4583.0288" y="-455.3" font-family="Times,serif" font-size="14.00" fill="#000000"> as=[41, 0, 427]</text>
<polyline fill="none" stroke="#000000" points="4331.936,-448.5 4834.1216,-448.5 "/>
<text text-anchor="middle" x="4583.0288" y="-433.3" font-family="Times,serif" font-size="14.00" fill="#000000"> pms=[3.304318335613041e&#45;64, 1.4868739390493004e&#45;67, 6.372316881639858e&#45;68]</text>
<polyline fill="none" stroke="#000000" points="4331.936,-426.5 4834.1216,-426.5 "/>
<text text-anchor="middle" x="4583.0288" y="-411.3" font-family="Times,serif" font-size="14.00" fill="#000000">bs=</text>
<text text-anchor="middle" x="4583.0288" y="-397.3" font-family="Times,serif" font-size="14.00" fill="#000000">[&#39;*&#39;, &#39;*&#39;, &#39;*&#39;]</text>
<text text-anchor="middle" x="4583.0288" y="-383.3" font-family="Times,serif" font-size="14.00" fill="#000000">[1. 1. 1.]</text>
<text text-anchor="middle" x="4583.0288" y="-369.3" font-family="Times,serif" font-size="14.00" fill="#000000">[1. 2. 1.]</text>
</g>
<!-- name18&#45;&gt;name21 -->
<g id="edge20" class="edge">
<title>name18&#45;&gt;name21</title>
<path fill="none" stroke="#000000" d="M4062.9094,-552.1147C4143.2524,-534.4133 4232.0902,-514.4356 4322.0732,-493.2153"/>
<polygon fill="#000000" stroke="#000000" points="4322.9861,-496.5961 4331.9136,-490.8908 4321.3768,-489.7835 4322.9861,-496.5961"/>
<text text-anchor="middle" x="4241.5288" y="-513.8" font-family="Times,serif" font-size="14.00" fill="#000000">2</text>
</g>
</g>
</svg>
