<?xml version="1.0" encoding="UTF-8" standalone="no"?>
<!DOCTYPE svg PUBLIC "-//W3C//DTD SVG 1.1//EN"
 "http://www.w3.org/Graphics/SVG/1.1/DTD/svg11.dtd">
<!-- Generated by graphviz version 2.40.1 (20161225.0304)
 -->
<!-- Title: root Pages: 1 -->
<svg width="5681pt" height="566pt"
 viewBox="0.00 0.00 5681.00 566.00" xmlns="http://www.w3.org/2000/svg" xmlns:xlink="http://www.w3.org/1999/xlink">
<g id="graph0" class="graph" transform="scale(1 1) rotate(0) translate(4 562)">
<title>root</title>
<polygon fill="#ffffff" stroke="transparent" points="-4,4 -4,-562 5677,-562 5677,4 -4,4"/>
<!-- name0 -->
<g id="node1" class="node">
<title>name0</title>
<polygon fill="none" stroke="#000000" points="847,-406.5 847,-557.5 1026,-557.5 1026,-406.5 847,-406.5"/>
<text text-anchor="middle" x="936.5" y="-540.8" font-family="Times,serif" font-size="14.00" fill="#000000">pe=0.000</text>
<polyline fill="none" stroke="#000000" points="847,-531.5 1026,-531.5 "/>
<text text-anchor="middle" x="936.5" y="-514.3" font-family="Times,serif" font-size="14.00" fill="#000000"> as=[76, 187, 1965, 249, 59]</text>
<polyline fill="none" stroke="#000000" points="847,-504.5 1026,-504.5 "/>
<text text-anchor="middle" x="936.5" y="-487.8" font-family="Times,serif" font-size="14.00" fill="#000000"> pms=[0.0, 0.0, 0.0]</text>
<polyline fill="none" stroke="#000000" points="847,-478.5 1026,-478.5 "/>
<text text-anchor="middle" x="936.5" y="-461.3" font-family="Times,serif" font-size="14.00" fill="#000000">bs=</text>
<text text-anchor="middle" x="936.5" y="-446.3" font-family="Times,serif" font-size="14.00" fill="#000000">[*, *, *, *, *]</text>
<text text-anchor="middle" x="936.5" y="-431.3" font-family="Times,serif" font-size="14.00" fill="#000000">[1. 1. 1. 1. 1.]</text>
<text text-anchor="middle" x="936.5" y="-416.3" font-family="Times,serif" font-size="14.00" fill="#000000">[1. 1. 1. 1. 2.]</text>
</g>
<!-- name0_gv1 -->
<g id="node2" class="node">
<title>name0_gv1</title>
<polygon fill="none" stroke="#000000" points="1044,-406.5 1044,-557.5 1223,-557.5 1223,-406.5 1044,-406.5"/>
<text text-anchor="middle" x="1133.5" y="-540.8" font-family="Times,serif" font-size="14.00" fill="#000000">pe=0.000</text>
<polyline fill="none" stroke="#000000" points="1044,-531.5 1223,-531.5 "/>
<text text-anchor="middle" x="1133.5" y="-514.3" font-family="Times,serif" font-size="14.00" fill="#000000"> as=[76, 187, 1965, 249, 59]</text>
<polyline fill="none" stroke="#000000" points="1044,-504.5 1223,-504.5 "/>
<text text-anchor="middle" x="1133.5" y="-487.8" font-family="Times,serif" font-size="14.00" fill="#000000"> pms=[0.0, 0.0, 0.0]</text>
<polyline fill="none" stroke="#000000" points="1044,-478.5 1223,-478.5 "/>
<text text-anchor="middle" x="1133.5" y="-461.3" font-family="Times,serif" font-size="14.00" fill="#000000">bs=</text>
<text text-anchor="middle" x="1133.5" y="-446.3" font-family="Times,serif" font-size="14.00" fill="#000000">[*, *, *, *, *]</text>
<text text-anchor="middle" x="1133.5" y="-431.3" font-family="Times,serif" font-size="14.00" fill="#000000">[1. 1. 1. 1. 1.]</text>
<text text-anchor="middle" x="1133.5" y="-416.3" font-family="Times,serif" font-size="14.00" fill="#000000">[1. 1. 1. 1. 2.]</text>
</g>
<!-- name1 -->
<g id="node3" class="node">
<title>name1</title>
<polygon fill="none" stroke="#000000" points="0,-203.5 0,-354.5 507,-354.5 507,-203.5 0,-203.5"/>
<text text-anchor="middle" x="253.5" y="-337.8" font-family="Times,serif" font-size="14.00" fill="#000000">pe=0.000</text>
<polyline fill="none" stroke="#000000" points="0,-328.5 507,-328.5 "/>
<text text-anchor="middle" x="253.5" y="-311.3" font-family="Times,serif" font-size="14.00" fill="#000000"> as=[9, 10, 37, 14, 6]</text>
<polyline fill="none" stroke="#000000" points="0,-301.5 507,-301.5 "/>
<text text-anchor="middle" x="253.5" y="-284.8" font-family="Times,serif" font-size="14.00" fill="#000000"> pms=[6.015470440240177e&#45;50, 3.919004246785907e&#45;52, 3.9092067361689435e&#45;53]</text>
<polyline fill="none" stroke="#000000" points="0,-275.5 507,-275.5 "/>
<text text-anchor="middle" x="253.5" y="-258.3" font-family="Times,serif" font-size="14.00" fill="#000000">bs=</text>
<text text-anchor="middle" x="253.5" y="-243.3" font-family="Times,serif" font-size="14.00" fill="#000000">[*, *, *, *, *]</text>
<text text-anchor="middle" x="253.5" y="-228.3" font-family="Times,serif" font-size="14.00" fill="#000000">[1. 1. 1. 1. 1.]</text>
<text text-anchor="middle" x="253.5" y="-213.3" font-family="Times,serif" font-size="14.00" fill="#000000">[2. 1. 1. 1. 1.]</text>
</g>
<!-- name0_gv1&#45;&gt;name1 -->
<g id="edge1" class="edge">
<title>name0_gv1&#45;&gt;name1</title>
<path fill="none" stroke="#000000" d="M1043.8147,-410.071C1040.7315,-408.5983 1037.6234,-407.2346 1034.5,-406 929.7673,-364.6015 645.6142,-376.1493 517.0937,-354.9221"/>
<polygon fill="#000000" stroke="#000000" points="517.4602,-351.4323 507.0013,-353.1237 516.2322,-358.3238 517.4602,-351.4323"/>
<text text-anchor="middle" x="964" y="-376.8" font-family="Times,serif" font-size="14.00" fill="#000000">0</text>
</g>
<!-- name2 -->
<g id="node4" class="node">
<title>name2</title>
<polygon fill="none" stroke="#000000" points="525.5,-203.5 525.5,-354.5 1025.5,-354.5 1025.5,-203.5 525.5,-203.5"/>
<text text-anchor="middle" x="775.5" y="-337.8" font-family="Times,serif" font-size="14.00" fill="#000000">pe=0.000</text>
<polyline fill="none" stroke="#000000" points="525.5,-328.5 1025.5,-328.5 "/>
<text text-anchor="middle" x="775.5" y="-311.3" font-family="Times,serif" font-size="14.00" fill="#000000"> as=[7, 18, 123, 28, 11]</text>
<polyline fill="none" stroke="#000000" points="525.5,-301.5 1025.5,-301.5 "/>
<text text-anchor="middle" x="775.5" y="-284.8" font-family="Times,serif" font-size="14.00" fill="#000000"> pms=[2.1484967792030117e&#45;92, 7.75534829928622e&#45;97, 9.181778432904936e&#45;98]</text>
<polyline fill="none" stroke="#000000" points="525.5,-275.5 1025.5,-275.5 "/>
<text text-anchor="middle" x="775.5" y="-258.3" font-family="Times,serif" font-size="14.00" fill="#000000">bs=</text>
<text text-anchor="middle" x="775.5" y="-243.3" font-family="Times,serif" font-size="14.00" fill="#000000">[*, *, *, *, *]</text>
<text text-anchor="middle" x="775.5" y="-228.3" font-family="Times,serif" font-size="14.00" fill="#000000">[1. 1. 1. 1. 1.]</text>
<text text-anchor="middle" x="775.5" y="-213.3" font-family="Times,serif" font-size="14.00" fill="#000000">[1. 1. 1. 1. 2.]</text>
</g>
<!-- name0_gv1&#45;&gt;name2 -->
<g id="edge2" class="edge">
<title>name0_gv1&#45;&gt;name2</title>
<path fill="none" stroke="#000000" d="M1043.9362,-412.0388C1040.781,-409.9612 1037.6301,-407.942 1034.5,-406 1008.2925,-389.7401 979.7054,-373.9535 951.4003,-359.3537"/>
<polygon fill="#000000" stroke="#000000" points="952.72,-356.0973 942.2236,-354.6561 949.5302,-362.3284 952.72,-356.0973"/>
<text text-anchor="middle" x="1005" y="-376.8" font-family="Times,serif" font-size="14.00" fill="#000000">1</text>
</g>
<!-- name3 -->
<g id="node5" class="node">
<title>name3</title>
<polygon fill="none" stroke="#000000" points="1044,-203.5 1044,-354.5 1223,-354.5 1223,-203.5 1044,-203.5"/>
<text text-anchor="middle" x="1133.5" y="-337.8" font-family="Times,serif" font-size="14.00" fill="#000000">pe=0.000</text>
<polyline fill="none" stroke="#000000" points="1044,-328.5 1223,-328.5 "/>
<text text-anchor="middle" x="1133.5" y="-311.3" font-family="Times,serif" font-size="14.00" fill="#000000"> as=[47, 122, 1586, 173, 36]</text>
<polyline fill="none" stroke="#000000" points="1044,-301.5 1223,-301.5 "/>
<text text-anchor="middle" x="1133.5" y="-284.8" font-family="Times,serif" font-size="14.00" fill="#000000"> pms=[0.0, 0.0, 0.0]</text>
<polyline fill="none" stroke="#000000" points="1044,-275.5 1223,-275.5 "/>
<text text-anchor="middle" x="1133.5" y="-258.3" font-family="Times,serif" font-size="14.00" fill="#000000">bs=</text>
<text text-anchor="middle" x="1133.5" y="-243.3" font-family="Times,serif" font-size="14.00" fill="#000000">[*, *, *, *, *]</text>
<text text-anchor="middle" x="1133.5" y="-228.3" font-family="Times,serif" font-size="14.00" fill="#000000">[1. 1. 1. 1. 1.]</text>
<text text-anchor="middle" x="1133.5" y="-213.3" font-family="Times,serif" font-size="14.00" fill="#000000">[1. 1. 1. 1. 2.]</text>
</g>
<!-- name0_gv1&#45;&gt;name3 -->
<g id="edge3" class="edge">
<title>name0_gv1&#45;&gt;name3</title>
<path fill="none" stroke="#000000" d="M1133.5,-406.4103C1133.5,-392.8039 1133.5,-378.5318 1133.5,-364.664"/>
<polygon fill="#000000" stroke="#000000" points="1137.0001,-364.6528 1133.5,-354.6528 1130.0001,-364.6529 1137.0001,-364.6528"/>
<text text-anchor="middle" x="1137" y="-376.8" font-family="Times,serif" font-size="14.00" fill="#000000">2</text>
</g>
<!-- name4 -->
<g id="node6" class="node">
<title>name4</title>
<polygon fill="none" stroke="#000000" points="1241.5,-203.5 1241.5,-354.5 1783.5,-354.5 1783.5,-203.5 1241.5,-203.5"/>
<text text-anchor="middle" x="1512.5" y="-337.8" font-family="Times,serif" font-size="14.00" fill="#000000">pe=0.000</text>
<polyline fill="none" stroke="#000000" points="1241.5,-328.5 1783.5,-328.5 "/>
<text text-anchor="middle" x="1512.5" y="-311.3" font-family="Times,serif" font-size="14.00" fill="#000000"> as=[10, 30, 176, 29, 4]</text>
<polyline fill="none" stroke="#000000" points="1241.5,-301.5 1783.5,-301.5 "/>
<text text-anchor="middle" x="1512.5" y="-284.8" font-family="Times,serif" font-size="14.00" fill="#000000"> pms=[1.1498764318681372e&#45;107, 1.5748241797541831e&#45;108, 1.0834951053053657e&#45;109]</text>
<polyline fill="none" stroke="#000000" points="1241.5,-275.5 1783.5,-275.5 "/>
<text text-anchor="middle" x="1512.5" y="-258.3" font-family="Times,serif" font-size="14.00" fill="#000000">bs=</text>
<text text-anchor="middle" x="1512.5" y="-243.3" font-family="Times,serif" font-size="14.00" fill="#000000">[*, *, *, *, *]</text>
<text text-anchor="middle" x="1512.5" y="-228.3" font-family="Times,serif" font-size="14.00" fill="#000000">[1. 1. 1. 1. 1.]</text>
<text text-anchor="middle" x="1512.5" y="-213.3" font-family="Times,serif" font-size="14.00" fill="#000000">[2. 1. 1. 1. 1.]</text>
</g>
<!-- name0_gv1&#45;&gt;name4 -->
<g id="edge4" class="edge">
<title>name0_gv1&#45;&gt;name4</title>
<path fill="none" stroke="#000000" d="M1223.3177,-433.8918C1264.8578,-411.6422 1315.3316,-384.6073 1362.4101,-359.3912"/>
<polygon fill="#000000" stroke="#000000" points="1364.3044,-362.347 1371.467,-354.5401 1360.9993,-356.1764 1364.3044,-362.347"/>
<text text-anchor="middle" x="1338" y="-376.8" font-family="Times,serif" font-size="14.00" fill="#000000">3</text>
</g>
<!-- name5 -->
<g id="node7" class="node">
<title>name5</title>
<polygon fill="none" stroke="#000000" points="1801.5,-203.5 1801.5,-354.5 2301.5,-354.5 2301.5,-203.5 1801.5,-203.5"/>
<text text-anchor="middle" x="2051.5" y="-337.8" font-family="Times,serif" font-size="14.00" fill="#000000">pe=0.000</text>
<polyline fill="none" stroke="#000000" points="1801.5,-328.5 2301.5,-328.5 "/>
<text text-anchor="middle" x="2051.5" y="-311.3" font-family="Times,serif" font-size="14.00" fill="#000000"> as=[3, 7, 43, 4, 2]</text>
<polyline fill="none" stroke="#000000" points="1801.5,-301.5 2301.5,-301.5 "/>
<text text-anchor="middle" x="2051.5" y="-284.8" font-family="Times,serif" font-size="14.00" fill="#000000"> pms=[5.1751286953774e&#45;28, 1.0010990172697875e&#45;31, 2.5563778476710643e&#45;33]</text>
<polyline fill="none" stroke="#000000" points="1801.5,-275.5 2301.5,-275.5 "/>
<text text-anchor="middle" x="2051.5" y="-258.3" font-family="Times,serif" font-size="14.00" fill="#000000">bs=</text>
<text text-anchor="middle" x="2051.5" y="-243.3" font-family="Times,serif" font-size="14.00" fill="#000000">[*, *, *, *, *]</text>
<text text-anchor="middle" x="2051.5" y="-228.3" font-family="Times,serif" font-size="14.00" fill="#000000">[1. 1. 1. 1. 1.]</text>
<text text-anchor="middle" x="2051.5" y="-213.3" font-family="Times,serif" font-size="14.00" fill="#000000">[2. 1. 1. 1. 1.]</text>
</g>
<!-- name0_gv1&#45;&gt;name5 -->
<g id="edge5" class="edge">
<title>name0_gv1&#45;&gt;name5</title>
<path fill="none" stroke="#000000" d="M1223.0833,-467.5162C1348.4143,-446.6336 1583.1814,-405.2633 1791.527,-355.2004"/>
<polygon fill="#000000" stroke="#000000" points="1792.5285,-358.5593 1801.4278,-352.81 1790.8856,-351.7548 1792.5285,-358.5593"/>
<text text-anchor="middle" x="1708" y="-376.8" font-family="Times,serif" font-size="14.00" fill="#000000">4</text>
</g>
<!-- name0_gv2 -->
<g id="node8" class="node">
<title>name0_gv2</title>
<polygon fill="none" stroke="#000000" points="3364,-406.5 3364,-557.5 3543,-557.5 3543,-406.5 3364,-406.5"/>
<text text-anchor="middle" x="3453.5" y="-540.8" font-family="Times,serif" font-size="14.00" fill="#000000">pe=0.000</text>
<polyline fill="none" stroke="#000000" points="3364,-531.5 3543,-531.5 "/>
<text text-anchor="middle" x="3453.5" y="-514.3" font-family="Times,serif" font-size="14.00" fill="#000000"> as=[76, 187, 1965, 249, 59]</text>
<polyline fill="none" stroke="#000000" points="3364,-504.5 3543,-504.5 "/>
<text text-anchor="middle" x="3453.5" y="-487.8" font-family="Times,serif" font-size="14.00" fill="#000000"> pms=[0.0, 0.0, 0.0]</text>
<polyline fill="none" stroke="#000000" points="3364,-478.5 3543,-478.5 "/>
<text text-anchor="middle" x="3453.5" y="-461.3" font-family="Times,serif" font-size="14.00" fill="#000000">bs=</text>
<text text-anchor="middle" x="3453.5" y="-446.3" font-family="Times,serif" font-size="14.00" fill="#000000">[*, *, *, *, *]</text>
<text text-anchor="middle" x="3453.5" y="-431.3" font-family="Times,serif" font-size="14.00" fill="#000000">[1. 1. 1. 1. 1.]</text>
<text text-anchor="middle" x="3453.5" y="-416.3" font-family="Times,serif" font-size="14.00" fill="#000000">[1. 1. 1. 1. 2.]</text>
</g>
<!-- name1_gv1 -->
<g id="node9" class="node">
<title>name1_gv1</title>
<polygon fill="none" stroke="#000000" points="2320,-203.5 2320,-354.5 2827,-354.5 2827,-203.5 2320,-203.5"/>
<text text-anchor="middle" x="2573.5" y="-337.8" font-family="Times,serif" font-size="14.00" fill="#000000">pe=0.000</text>
<polyline fill="none" stroke="#000000" points="2320,-328.5 2827,-328.5 "/>
<text text-anchor="middle" x="2573.5" y="-311.3" font-family="Times,serif" font-size="14.00" fill="#000000"> as=[9, 10, 37, 14, 6]</text>
<polyline fill="none" stroke="#000000" points="2320,-301.5 2827,-301.5 "/>
<text text-anchor="middle" x="2573.5" y="-284.8" font-family="Times,serif" font-size="14.00" fill="#000000"> pms=[6.015470440240177e&#45;50, 3.919004246785907e&#45;52, 3.9092067361689435e&#45;53]</text>
<polyline fill="none" stroke="#000000" points="2320,-275.5 2827,-275.5 "/>
<text text-anchor="middle" x="2573.5" y="-258.3" font-family="Times,serif" font-size="14.00" fill="#000000">bs=</text>
<text text-anchor="middle" x="2573.5" y="-243.3" font-family="Times,serif" font-size="14.00" fill="#000000">[*, *, *, *, *]</text>
<text text-anchor="middle" x="2573.5" y="-228.3" font-family="Times,serif" font-size="14.00" fill="#000000">[1. 1. 1. 1. 1.]</text>
<text text-anchor="middle" x="2573.5" y="-213.3" font-family="Times,serif" font-size="14.00" fill="#000000">[2. 1. 1. 1. 1.]</text>
</g>
<!-- name0_gv2&#45;&gt;name1_gv1 -->
<g id="edge6" class="edge">
<title>name0_gv2&#45;&gt;name1_gv1</title>
<path fill="none" stroke="#000000" d="M3363.8577,-465.8294C3245.3466,-443.9408 3029.9992,-402.4001 2836.8655,-355.059"/>
<polygon fill="#000000" stroke="#000000" points="2837.6504,-351.6478 2827.1037,-352.6565 2835.9775,-358.445 2837.6504,-351.6478"/>
<text text-anchor="middle" x="2975" y="-376.8" font-family="Times,serif" font-size="14.00" fill="#000000">0</text>
</g>
<!-- name2_gv1 -->
<g id="node10" class="node">
<title>name2_gv1</title>
<polygon fill="none" stroke="#000000" points="2845.5,-203.5 2845.5,-354.5 3345.5,-354.5 3345.5,-203.5 2845.5,-203.5"/>
<text text-anchor="middle" x="3095.5" y="-337.8" font-family="Times,serif" font-size="14.00" fill="#000000">pe=0.000</text>
<polyline fill="none" stroke="#000000" points="2845.5,-328.5 3345.5,-328.5 "/>
<text text-anchor="middle" x="3095.5" y="-311.3" font-family="Times,serif" font-size="14.00" fill="#000000"> as=[7, 18, 123, 28, 11]</text>
<polyline fill="none" stroke="#000000" points="2845.5,-301.5 3345.5,-301.5 "/>
<text text-anchor="middle" x="3095.5" y="-284.8" font-family="Times,serif" font-size="14.00" fill="#000000"> pms=[2.1484967792030117e&#45;92, 7.75534829928622e&#45;97, 9.181778432904936e&#45;98]</text>
<polyline fill="none" stroke="#000000" points="2845.5,-275.5 3345.5,-275.5 "/>
<text text-anchor="middle" x="3095.5" y="-258.3" font-family="Times,serif" font-size="14.00" fill="#000000">bs=</text>
<text text-anchor="middle" x="3095.5" y="-243.3" font-family="Times,serif" font-size="14.00" fill="#000000">[*, *, *, *, *]</text>
<text text-anchor="middle" x="3095.5" y="-228.3" font-family="Times,serif" font-size="14.00" fill="#000000">[1. 1. 1. 1. 1.]</text>
<text text-anchor="middle" x="3095.5" y="-213.3" font-family="Times,serif" font-size="14.00" fill="#000000">[1. 1. 1. 1. 2.]</text>
</g>
<!-- name0_gv2&#45;&gt;name2_gv1 -->
<g id="edge7" class="edge">
<title>name0_gv2&#45;&gt;name2_gv1</title>
<path fill="none" stroke="#000000" d="M3363.6236,-431.0366C3325.4504,-409.3909 3280.017,-383.6284 3237.4966,-359.5176"/>
<polygon fill="#000000" stroke="#000000" points="3239.1786,-356.4479 3228.7533,-354.5598 3235.7257,-362.5371 3239.1786,-356.4479"/>
<text text-anchor="middle" x="3289" y="-376.8" font-family="Times,serif" font-size="14.00" fill="#000000">1</text>
</g>
<!-- name3_gv1 -->
<g id="node11" class="node">
<title>name3_gv1</title>
<polygon fill="none" stroke="#000000" points="3364,-203.5 3364,-354.5 3543,-354.5 3543,-203.5 3364,-203.5"/>
<text text-anchor="middle" x="3453.5" y="-337.8" font-family="Times,serif" font-size="14.00" fill="#000000">pe=0.000</text>
<polyline fill="none" stroke="#000000" points="3364,-328.5 3543,-328.5 "/>
<text text-anchor="middle" x="3453.5" y="-311.3" font-family="Times,serif" font-size="14.00" fill="#000000"> as=[47, 122, 1586, 173, 36]</text>
<polyline fill="none" stroke="#000000" points="3364,-301.5 3543,-301.5 "/>
<text text-anchor="middle" x="3453.5" y="-284.8" font-family="Times,serif" font-size="14.00" fill="#000000"> pms=[0.0, 0.0, 0.0]</text>
<polyline fill="none" stroke="#000000" points="3364,-275.5 3543,-275.5 "/>
<text text-anchor="middle" x="3453.5" y="-258.3" font-family="Times,serif" font-size="14.00" fill="#000000">bs=</text>
<text text-anchor="middle" x="3453.5" y="-243.3" font-family="Times,serif" font-size="14.00" fill="#000000">[*, *, *, *, *]</text>
<text text-anchor="middle" x="3453.5" y="-228.3" font-family="Times,serif" font-size="14.00" fill="#000000">[1. 1. 1. 1. 1.]</text>
<text text-anchor="middle" x="3453.5" y="-213.3" font-family="Times,serif" font-size="14.00" fill="#000000">[1. 1. 1. 1. 2.]</text>
</g>
<!-- name0_gv2&#45;&gt;name3_gv1 -->
<g id="edge8" class="edge">
<title>name0_gv2&#45;&gt;name3_gv1</title>
<path fill="none" stroke="#000000" d="M3453.5,-406.4103C3453.5,-392.8039 3453.5,-378.5318 3453.5,-364.664"/>
<polygon fill="#000000" stroke="#000000" points="3457.0001,-364.6528 3453.5,-354.6528 3450.0001,-364.6529 3457.0001,-364.6528"/>
<text text-anchor="middle" x="3457" y="-376.8" font-family="Times,serif" font-size="14.00" fill="#000000">2</text>
</g>
<!-- name4_gv1 -->
<g id="node12" class="node">
<title>name4_gv1</title>
<polygon fill="none" stroke="#000000" points="3561.5,-203.5 3561.5,-354.5 4103.5,-354.5 4103.5,-203.5 3561.5,-203.5"/>
<text text-anchor="middle" x="3832.5" y="-337.8" font-family="Times,serif" font-size="14.00" fill="#000000">pe=0.000</text>
<polyline fill="none" stroke="#000000" points="3561.5,-328.5 4103.5,-328.5 "/>
<text text-anchor="middle" x="3832.5" y="-311.3" font-family="Times,serif" font-size="14.00" fill="#000000"> as=[10, 30, 176, 29, 4]</text>
<polyline fill="none" stroke="#000000" points="3561.5,-301.5 4103.5,-301.5 "/>
<text text-anchor="middle" x="3832.5" y="-284.8" font-family="Times,serif" font-size="14.00" fill="#000000"> pms=[1.1498764318681372e&#45;107, 1.5748241797541831e&#45;108, 1.0834951053053657e&#45;109]</text>
<polyline fill="none" stroke="#000000" points="3561.5,-275.5 4103.5,-275.5 "/>
<text text-anchor="middle" x="3832.5" y="-258.3" font-family="Times,serif" font-size="14.00" fill="#000000">bs=</text>
<text text-anchor="middle" x="3832.5" y="-243.3" font-family="Times,serif" font-size="14.00" fill="#000000">[*, *, *, *, *]</text>
<text text-anchor="middle" x="3832.5" y="-228.3" font-family="Times,serif" font-size="14.00" fill="#000000">[1. 1. 1. 1. 1.]</text>
<text text-anchor="middle" x="3832.5" y="-213.3" font-family="Times,serif" font-size="14.00" fill="#000000">[2. 1. 1. 1. 1.]</text>
</g>
<!-- name0_gv2&#45;&gt;name4_gv1 -->
<g id="edge9" class="edge">
<title>name0_gv2&#45;&gt;name4_gv1</title>
<path fill="none" stroke="#000000" d="M3543.3177,-433.8918C3584.8578,-411.6422 3635.3316,-384.6073 3682.4101,-359.3912"/>
<polygon fill="#000000" stroke="#000000" points="3684.3044,-362.347 3691.467,-354.5401 3680.9993,-356.1764 3684.3044,-362.347"/>
<text text-anchor="middle" x="3658" y="-376.8" font-family="Times,serif" font-size="14.00" fill="#000000">3</text>
</g>
<!-- name5_gv1 -->
<g id="node13" class="node">
<title>name5_gv1</title>
<polygon fill="none" stroke="#000000" points="4121.5,-203.5 4121.5,-354.5 4621.5,-354.5 4621.5,-203.5 4121.5,-203.5"/>
<text text-anchor="middle" x="4371.5" y="-337.8" font-family="Times,serif" font-size="14.00" fill="#000000">pe=0.000</text>
<polyline fill="none" stroke="#000000" points="4121.5,-328.5 4621.5,-328.5 "/>
<text text-anchor="middle" x="4371.5" y="-311.3" font-family="Times,serif" font-size="14.00" fill="#000000"> as=[3, 7, 43, 4, 2]</text>
<polyline fill="none" stroke="#000000" points="4121.5,-301.5 4621.5,-301.5 "/>
<text text-anchor="middle" x="4371.5" y="-284.8" font-family="Times,serif" font-size="14.00" fill="#000000"> pms=[5.1751286953774e&#45;28, 1.0010990172697875e&#45;31, 2.5563778476710643e&#45;33]</text>
<polyline fill="none" stroke="#000000" points="4121.5,-275.5 4621.5,-275.5 "/>
<text text-anchor="middle" x="4371.5" y="-258.3" font-family="Times,serif" font-size="14.00" fill="#000000">bs=</text>
<text text-anchor="middle" x="4371.5" y="-243.3" font-family="Times,serif" font-size="14.00" fill="#000000">[*, *, *, *, *]</text>
<text text-anchor="middle" x="4371.5" y="-228.3" font-family="Times,serif" font-size="14.00" fill="#000000">[1. 1. 1. 1. 1.]</text>
<text text-anchor="middle" x="4371.5" y="-213.3" font-family="Times,serif" font-size="14.00" fill="#000000">[2. 1. 1. 1. 1.]</text>
</g>
<!-- name0_gv2&#45;&gt;name5_gv1 -->
<g id="edge10" class="edge">
<title>name0_gv2&#45;&gt;name5_gv1</title>
<path fill="none" stroke="#000000" d="M3543.0833,-467.5162C3668.4143,-446.6336 3903.1814,-405.2633 4111.527,-355.2004"/>
<polygon fill="#000000" stroke="#000000" points="4112.5285,-358.5593 4121.4278,-352.81 4110.8856,-351.7548 4112.5285,-358.5593"/>
<text text-anchor="middle" x="4028" y="-376.8" font-family="Times,serif" font-size="14.00" fill="#000000">4</text>
</g>
<!-- name6 -->
<g id="node14" class="node">
<title>name6</title>
<polygon fill="none" stroke="#000000" points="3074,-.5 3074,-151.5 3567,-151.5 3567,-.5 3074,-.5"/>
<text text-anchor="middle" x="3320.5" y="-134.8" font-family="Times,serif" font-size="14.00" fill="#000000">pe=0.000</text>
<polyline fill="none" stroke="#000000" points="3074,-125.5 3567,-125.5 "/>
<text text-anchor="middle" x="3320.5" y="-108.3" font-family="Times,serif" font-size="14.00" fill="#000000"> as=[1, 1, 3, 1, 0]</text>
<polyline fill="none" stroke="#000000" points="3074,-98.5 3567,-98.5 "/>
<text text-anchor="middle" x="3320.5" y="-81.8" font-family="Times,serif" font-size="14.00" fill="#000000"> pms=[1.11000111000111e&#45;05, 2.834467120181406e&#45;07, 1.594387755102041e&#45;08]</text>
<polyline fill="none" stroke="#000000" points="3074,-72.5 3567,-72.5 "/>
<text text-anchor="middle" x="3320.5" y="-55.3" font-family="Times,serif" font-size="14.00" fill="#000000">bs=</text>
<text text-anchor="middle" x="3320.5" y="-40.3" font-family="Times,serif" font-size="14.00" fill="#000000">[*, *, *, *, *]</text>
<text text-anchor="middle" x="3320.5" y="-25.3" font-family="Times,serif" font-size="14.00" fill="#000000">[1. 1. 1. 1. 1.]</text>
<text text-anchor="middle" x="3320.5" y="-10.3" font-family="Times,serif" font-size="14.00" fill="#000000">[2. 1. 1. 1. 1.]</text>
</g>
<!-- name5_gv1&#45;&gt;name6 -->
<g id="edge11" class="edge">
<title>name5_gv1&#45;&gt;name6</title>
<path fill="none" stroke="#000000" d="M4121.1676,-204.7142C4118.266,-204.1254 4115.376,-203.5535 4112.5,-203 3880.7274,-158.3909 3813.2525,-196.5259 3577.1548,-152.0461"/>
<polygon fill="#000000" stroke="#000000" points="3577.7185,-148.5906 3567.2388,-150.1484 3576.4027,-155.4658 3577.7185,-148.5906"/>
<text text-anchor="middle" x="3993" y="-173.8" font-family="Times,serif" font-size="14.00" fill="#000000">0</text>
</g>
<!-- name7 -->
<g id="node15" class="node">
<title>name7</title>
<polygon fill="none" stroke="#000000" points="3585.5,-.5 3585.5,-151.5 4099.5,-151.5 4099.5,-.5 3585.5,-.5"/>
<text text-anchor="middle" x="3842.5" y="-134.8" font-family="Times,serif" font-size="14.00" fill="#000000">pe=0.000</text>
<polyline fill="none" stroke="#000000" points="3585.5,-125.5 4099.5,-125.5 "/>
<text text-anchor="middle" x="3842.5" y="-108.3" font-family="Times,serif" font-size="14.00" fill="#000000"> as=[2, 2, 6, 0, 1]</text>
<polyline fill="none" stroke="#000000" points="3585.5,-98.5 4099.5,-98.5 "/>
<text text-anchor="middle" x="3842.5" y="-81.8" font-family="Times,serif" font-size="14.00" fill="#000000"> pms=[1.7750455225216296e&#45;08, 1.0517503228873491e&#45;10, 8.282533792737876e&#45;12]</text>
<polyline fill="none" stroke="#000000" points="3585.5,-72.5 4099.5,-72.5 "/>
<text text-anchor="middle" x="3842.5" y="-55.3" font-family="Times,serif" font-size="14.00" fill="#000000">bs=</text>
<text text-anchor="middle" x="3842.5" y="-40.3" font-family="Times,serif" font-size="14.00" fill="#000000">[*, *, *, *, *]</text>
<text text-anchor="middle" x="3842.5" y="-25.3" font-family="Times,serif" font-size="14.00" fill="#000000">[1. 1. 1. 1. 1.]</text>
<text text-anchor="middle" x="3842.5" y="-10.3" font-family="Times,serif" font-size="14.00" fill="#000000">[1. 1. 2. 1. 1.]</text>
</g>
<!-- name5_gv1&#45;&gt;name7 -->
<g id="edge12" class="edge">
<title>name5_gv1&#45;&gt;name7</title>
<path fill="none" stroke="#000000" d="M4174.5199,-203.4103C4133.641,-187.7233 4090.4561,-171.1514 4049.2386,-155.3345"/>
<polygon fill="#000000" stroke="#000000" points="4050.2347,-151.9679 4039.6446,-151.6528 4047.7268,-158.5033 4050.2347,-151.9679"/>
<text text-anchor="middle" x="4127" y="-173.8" font-family="Times,serif" font-size="14.00" fill="#000000">1</text>
</g>
<!-- name8 -->
<g id="node16" class="node">
<title>name8</title>
<polygon fill="none" stroke="#000000" points="4118,-.5 4118,-151.5 4625,-151.5 4625,-.5 4118,-.5"/>
<text text-anchor="middle" x="4371.5" y="-134.8" font-family="Times,serif" font-size="14.00" fill="#000000">pe=0.000</text>
<polyline fill="none" stroke="#000000" points="4118,-125.5 4625,-125.5 "/>
<text text-anchor="middle" x="4371.5" y="-108.3" font-family="Times,serif" font-size="14.00" fill="#000000"> as=[0, 4, 28, 3, 1]</text>
<polyline fill="none" stroke="#000000" points="4118,-98.5 4625,-98.5 "/>
<text text-anchor="middle" x="4371.5" y="-81.8" font-family="Times,serif" font-size="14.00" fill="#000000"> pms=[1.5649297367886936e&#45;15, 7.890607163258918e&#45;20, 8.155640312024845e&#45;21]</text>
<polyline fill="none" stroke="#000000" points="4118,-72.5 4625,-72.5 "/>
<text text-anchor="middle" x="4371.5" y="-55.3" font-family="Times,serif" font-size="14.00" fill="#000000">bs=</text>
<text text-anchor="middle" x="4371.5" y="-40.3" font-family="Times,serif" font-size="14.00" fill="#000000">[*, *, *, *, *]</text>
<text text-anchor="middle" x="4371.5" y="-25.3" font-family="Times,serif" font-size="14.00" fill="#000000">[1. 1. 1. 1. 1.]</text>
<text text-anchor="middle" x="4371.5" y="-10.3" font-family="Times,serif" font-size="14.00" fill="#000000">[1. 2. 1. 1. 1.]</text>
</g>
<!-- name5_gv1&#45;&gt;name8 -->
<g id="edge13" class="edge">
<title>name5_gv1&#45;&gt;name8</title>
<path fill="none" stroke="#000000" d="M4371.5,-203.4103C4371.5,-189.8039 4371.5,-175.5318 4371.5,-161.664"/>
<polygon fill="#000000" stroke="#000000" points="4375.0001,-161.6528 4371.5,-151.6528 4368.0001,-161.6529 4375.0001,-161.6528"/>
<text text-anchor="middle" x="4375" y="-173.8" font-family="Times,serif" font-size="14.00" fill="#000000">2</text>
</g>
<!-- name9 -->
<g id="node17" class="node">
<title>name9</title>
<polygon fill="none" stroke="#000000" points="4643,-.5 4643,-151.5 5156,-151.5 5156,-.5 4643,-.5"/>
<text text-anchor="middle" x="4899.5" y="-134.8" font-family="Times,serif" font-size="14.00" fill="#000000">pe=0.030</text>
<polyline fill="none" stroke="#000000" points="4643,-125.5 5156,-125.5 "/>
<text text-anchor="middle" x="4899.5" y="-108.3" font-family="Times,serif" font-size="14.00" fill="#000000"> as=[0, 0, 4, 0, 0]</text>
<polyline fill="none" stroke="#000000" points="4643,-98.5 5156,-98.5 "/>
<text text-anchor="middle" x="4899.5" y="-81.8" font-family="Times,serif" font-size="14.00" fill="#000000"> pms=[0.015151515151515152, 0.00014880952380952382, 4.6502976190476195e&#45;06]</text>
<polyline fill="none" stroke="#000000" points="4643,-72.5 5156,-72.5 "/>
<text text-anchor="middle" x="4899.5" y="-55.3" font-family="Times,serif" font-size="14.00" fill="#000000">bs=</text>
<text text-anchor="middle" x="4899.5" y="-40.3" font-family="Times,serif" font-size="14.00" fill="#000000">[*, *, *, *, *]</text>
<text text-anchor="middle" x="4899.5" y="-25.3" font-family="Times,serif" font-size="14.00" fill="#000000">[1. 1. 1. 1. 1.]</text>
<text text-anchor="middle" x="4899.5" y="-10.3" font-family="Times,serif" font-size="14.00" fill="#000000">[1. 1. 1. 1. 2.]</text>
</g>
<!-- name5_gv1&#45;&gt;name9 -->
<g id="edge14" class="edge">
<title>name5_gv1&#45;&gt;name9</title>
<path fill="none" stroke="#000000" d="M4568.1077,-203.4103C4608.9093,-187.7233 4652.0126,-171.1514 4693.1522,-155.3345"/>
<polygon fill="#000000" stroke="#000000" points="4694.6502,-158.5084 4702.7281,-151.6528 4692.1381,-151.9746 4694.6502,-158.5084"/>
<text text-anchor="middle" x="4655" y="-173.8" font-family="Times,serif" font-size="14.00" fill="#000000">3</text>
</g>
<!-- name10 -->
<g id="node18" class="node">
<title>name10</title>
<polygon fill="none" stroke="#000000" points="5174,-.5 5174,-151.5 5673,-151.5 5673,-.5 5174,-.5"/>
<text text-anchor="middle" x="5423.5" y="-134.8" font-family="Times,serif" font-size="14.00" fill="#000000">pe=0.086</text>
<polyline fill="none" stroke="#000000" points="5174,-125.5 5673,-125.5 "/>
<text text-anchor="middle" x="5423.5" y="-108.3" font-family="Times,serif" font-size="14.00" fill="#000000"> as=[0, 0, 2, 0, 0]</text>
<polyline fill="none" stroke="#000000" points="5174,-98.5 5673,-98.5 "/>
<text text-anchor="middle" x="5423.5" y="-81.8" font-family="Times,serif" font-size="14.00" fill="#000000"> pms=[0.04285714285714286, 0.0006250000000000001, 1.9531250000000004e&#45;05]</text>
<polyline fill="none" stroke="#000000" points="5174,-72.5 5673,-72.5 "/>
<text text-anchor="middle" x="5423.5" y="-55.3" font-family="Times,serif" font-size="14.00" fill="#000000">bs=</text>
<text text-anchor="middle" x="5423.5" y="-40.3" font-family="Times,serif" font-size="14.00" fill="#000000">[*, *, *, *, *]</text>
<text text-anchor="middle" x="5423.5" y="-25.3" font-family="Times,serif" font-size="14.00" fill="#000000">[1. 1. 1. 1. 1.]</text>
<text text-anchor="middle" x="5423.5" y="-10.3" font-family="Times,serif" font-size="14.00" fill="#000000">[1. 1. 1. 1. 2.]</text>
</g>
<!-- name5_gv1&#45;&gt;name10 -->
<g id="edge15" class="edge">
<title>name5_gv1&#45;&gt;name10</title>
<path fill="none" stroke="#000000" d="M4621.7268,-247.1995C4775.8286,-225.6128 4977.2434,-193.8004 5163.8056,-152.11"/>
<polygon fill="#000000" stroke="#000000" points="5164.8161,-155.4703 5173.8053,-149.8626 5163.2812,-148.6406 5164.8161,-155.4703"/>
<text text-anchor="middle" x="5083" y="-173.8" font-family="Times,serif" font-size="14.00" fill="#000000">4</text>
</g>
</g>
</svg>
